<?xml version="1.0" encoding="UTF-8"?>
<svg xmlns="http://www.w3.org/2000/svg" xmlns:xlink="http://www.w3.org/1999/xlink" width="0" height="0">
<defs>
<symbol viewBox="0 0 24 24" fill="none" id="add">
<path d="M11 11V5H13V11H19V13H13V19H11V13H5V11H11Z" fill="#2D3748"></path>
</symbol>
<symbol viewBox="0 0 24 24" fill="none" id="arrow-back">
<path d="M20 11H7.83L13.42 5.41L12 4L4 12L12 20L13.41 18.59L7.83 13H20V11Z" fill="black"></path>
</symbol>
<symbol viewBox="0 0 24 24" fill="none" id="arrow-down">
<path d="M20 12L18.59 10.59L13 16.17V4H11V16.17L5.42 10.58L4 12L12 20L20 12Z" fill="black"></path>
</symbol>
<symbol viewBox="0 0 24 24" fill="none" id="arrow-forward">
<path d="M12 4L10.59 5.41L16.17 11H4V13H16.17L10.59 18.59L12 20L20 12L12 4Z" fill="black"></path>
</symbol>
<symbol viewBox="0 0 24 24" fill="none" id="arrow-left">
<path d="M10.9729 12C10.9725 11.7954 11.0125 11.5928 11.0907 11.4037C11.1688 11.2147 11.2836 11.0429 11.4283 10.8983L17.0342 5.29243C17.23 5.10284 17.4926 4.99782 17.7651 5.00003C18.0377 5.00225 18.2985 5.11151 18.4912 5.30426C18.684 5.49701 18.7933 5.75779 18.7955 6.03037C18.7977 6.30295 18.6927 6.56547 18.5031 6.76133L13.3684 11.896C13.3547 11.9096 13.3439 11.9259 13.3365 11.9437C13.3291 11.9615 13.3252 11.9807 13.3252 12C13.3252 12.0193 13.3291 12.0385 13.3365 12.0563C13.3439 12.0741 13.3547 12.0904 13.3684 12.104L18.5031 17.2387C18.6927 17.4345 18.7977 17.6971 18.7955 17.9696C18.7933 18.2422 18.684 18.503 18.4912 18.6957C18.2985 18.8885 18.0377 18.9978 17.7651 19C17.4926 19.0022 17.23 18.8972 17.0342 18.7076L11.4283 13.1017C11.2836 12.9571 11.1688 12.7853 11.0907 12.5963C11.0125 12.4072 10.9725 12.2046 10.9729 12Z" fill="black"></path>
<path d="M5 12C4.9996 11.7954 5.03962 11.5928 5.11776 11.4037C5.19591 11.2147 5.31064 11.0429 5.45536 10.8983L11.0613 5.29243C11.2571 5.10284 11.5196 4.99782 11.7922 5.00003C12.0648 5.00225 12.3256 5.11151 12.5183 5.30426C12.7111 5.49701 12.8203 5.75779 12.8226 6.03037C12.8248 6.30295 12.7198 6.56547 12.5302 6.76133L7.39548 11.896C7.3818 11.9096 7.37095 11.9259 7.36354 11.9437C7.35614 11.9615 7.35233 11.9807 7.35233 12C7.35233 12.0193 7.35614 12.0385 7.36354 12.0563C7.37095 12.0741 7.3818 12.0904 7.39548 12.104L12.5302 17.2387C12.7198 17.4345 12.8248 17.6971 12.8226 17.9696C12.8203 18.2422 12.7111 18.503 12.5183 18.6957C12.3256 18.8885 12.0648 18.9978 11.7922 19C11.5196 19.0022 11.2571 18.8972 11.0613 18.7076L5.45536 13.1017C5.31064 12.9571 5.19591 12.7853 5.11776 12.5963C5.03962 12.4072 4.9996 12.2046 5 12Z" fill="black"></path>
</symbol>
<symbol viewBox="0 0 24 24" fill="none" id="arrow-right">
<path d="M12.8226 12C12.823 12.2046 12.783 12.4072 12.7048 12.5963C12.6267 12.7853 12.5119 12.9571 12.3672 13.1017L6.76133 18.7076C6.56547 18.8972 6.30295 19.0022 6.03037 19C5.75779 18.9978 5.49701 18.8885 5.30426 18.6957C5.11151 18.503 5.00225 18.2422 5.00003 17.9696C4.99782 17.6971 5.10284 17.4345 5.29243 17.2387L10.4271 12.104C10.4408 12.0904 10.4516 12.0741 10.459 12.0563C10.4664 12.0385 10.4703 12.0193 10.4703 12C10.4703 11.9807 10.4664 11.9615 10.459 11.9437C10.4516 11.9259 10.4408 11.9096 10.4271 11.896L5.29243 6.76133C5.10284 6.56547 4.99782 6.30295 5.00003 6.03037C5.00225 5.75779 5.11151 5.49701 5.30426 5.30426C5.49701 5.11151 5.75779 5.00225 6.03037 5.00003C6.30295 4.99782 6.56547 5.10284 6.76133 5.29243L12.3672 10.8983C12.5119 11.0429 12.6267 11.2147 12.7048 11.4037C12.783 11.5928 12.823 11.7954 12.8226 12Z" fill="black"></path>
<path d="M18.7957 12C18.7961 12.2046 18.7561 12.4072 18.678 12.5963C18.5998 12.7853 18.4851 12.9571 18.3404 13.1017L12.7345 18.7076C12.5386 18.8972 12.2761 19.0022 12.0035 19C11.7309 18.9978 11.4701 18.8885 11.2774 18.6957C11.0846 18.503 10.9754 18.2422 10.9732 17.9696C10.971 17.6971 11.076 17.4345 11.2656 17.2387L16.4002 12.104C16.4139 12.0904 16.4248 12.0741 16.4322 12.0563C16.4396 12.0385 16.4434 12.0193 16.4434 12C16.4434 11.9807 16.4396 11.9615 16.4322 11.9437C16.4248 11.9259 16.4139 11.9096 16.4002 11.896L11.2656 6.76133C11.076 6.56547 10.971 6.30295 10.9732 6.03037C10.9754 5.75779 11.0846 5.49701 11.2774 5.30426C11.4701 5.11151 11.7309 5.00225 12.0035 5.00003C12.2761 4.99782 12.5386 5.10284 12.7345 5.29243L18.3404 10.8983C18.4851 11.0429 18.5998 11.2147 18.678 11.4037C18.7561 11.5928 18.7961 11.7954 18.7957 12Z" fill="black"></path>
</symbol>
<symbol viewBox="0 0 24 24" fill="none" id="arrow-up-down">
<path d="M15.8909 13.992C16.0786 13.8042 16.3331 13.6987 16.5986 13.6986C16.864 13.6985 17.1186 13.8039 17.3064 13.9915C17.4942 14.1791 17.5997 14.4337 17.5998 14.6991C17.5999 14.9646 17.4946 15.2192 17.3069 15.407L13.0069 19.707C12.8194 19.8945 12.5651 19.9998 12.2999 19.9998C12.0347 19.9998 11.7804 19.8945 11.5929 19.707L7.29291 15.407C7.10527 15.2191 6.99996 14.9643 7.00015 14.6988C7.00033 14.4332 7.106 14.1786 7.29391 13.991C7.48182 13.8034 7.73657 13.698 8.00212 13.6982C8.26767 13.6984 8.52227 13.8041 8.70991 13.992L12.2999 17.583L15.8909 13.992ZM15.8909 10.008L12.2999 6.417L8.70891 10.008C8.52127 10.1958 8.26672 10.3013 8.00126 10.3014C7.73581 10.3015 7.48118 10.1961 7.29341 10.0085C7.10564 9.82086 7.00009 9.56631 7 9.30085C6.99991 9.0354 7.10527 8.78077 7.29291 8.593L11.5929 4.293C11.7804 4.10553 12.0347 4.00021 12.2999 4.00021C12.5651 4.00021 12.8194 4.10553 13.0069 4.293L17.3069 8.593C17.3998 8.68598 17.4735 8.79634 17.5238 8.9178C17.574 9.03925 17.5999 9.16941 17.5998 9.30085C17.5998 9.43229 17.5738 9.56244 17.5235 9.68386C17.4732 9.80528 17.3994 9.91559 17.3064 10.0085C17.2134 10.1014 17.1031 10.1751 16.9816 10.2254C16.8602 10.2756 16.73 10.3015 16.5986 10.3014C16.4671 10.3014 16.337 10.2754 16.2156 10.2251C16.0941 10.1747 15.9838 10.101 15.8909 10.008Z" fill="black"></path>
</symbol>
<symbol viewBox="0 0 24 24" fill="none" id="arrow-up">
<path d="M4 12L5.41 13.41L11 7.83V20H13V7.83L18.58 13.42L20 12L12 4L4 12Z" fill="black"></path>
</symbol>
<symbol viewBox="0 0 24 24" fill="none" id="at-sign">
<g clip-path="url(#clip0_1923_10102)">
<path d="M12 0.500015C8.91954 0.472274 5.95387 1.66739 3.7534 3.82324C1.55293 5.9791 0.29732 8.91967 0.261963 12C0.29732 15.0804 1.55293 18.0209 3.7534 20.1768C5.95387 22.3326 8.91954 23.5278 12 23.5C14.3579 23.508 16.6645 22.8116 18.624 21.5C18.7603 21.4086 18.8772 21.2911 18.9682 21.1545C19.0591 21.0178 19.1222 20.8646 19.1539 20.7035C19.1857 20.5424 19.1853 20.3767 19.153 20.2158C19.1207 20.0548 19.0569 19.9018 18.9655 19.7655C18.874 19.6292 18.7566 19.5122 18.6199 19.4213C18.4832 19.3304 18.33 19.2673 18.1689 19.2355C18.0079 19.2038 17.8421 19.2041 17.6812 19.2365C17.5203 19.2688 17.3673 19.3326 17.231 19.424C15.6833 20.459 13.8617 21.0078 12 21C9.5824 21.0283 7.25228 20.0968 5.52053 18.4096C3.78878 16.7225 2.79674 14.4175 2.76196 12C2.79674 9.58254 3.78878 7.27752 5.52053 5.59038C7.25228 3.90324 9.5824 2.9717 12 3.00001C14.4175 2.9717 16.7476 3.90324 18.4794 5.59038C20.2112 7.27752 21.2032 9.58254 21.238 12V12.891C21.2218 13.3953 21.0101 13.8735 20.6477 14.2245C20.2852 14.5754 19.8005 14.7717 19.296 14.7717C18.7914 14.7717 18.3067 14.5754 17.9443 14.2245C17.5818 13.8735 17.3701 13.3953 17.354 12.891V12C17.3726 10.937 17.0745 9.89258 16.4975 8.99966C15.9205 8.10673 15.0907 7.40576 14.114 6.98603C13.1372 6.5663 12.0576 6.44681 11.0127 6.64278C9.96779 6.83874 9.00485 7.3413 8.24655 8.08643C7.48825 8.83156 6.9689 9.78554 6.75465 10.8269C6.54041 11.8682 6.64096 12.9497 7.04352 13.9337C7.44607 14.9176 8.13239 15.7595 9.01507 16.3521C9.89775 16.9446 10.9368 17.261 12 17.261C12.7202 17.2612 13.4331 17.1166 14.0963 16.8359C14.7596 16.5552 15.3597 16.1441 15.861 15.627C16.4362 16.3325 17.2144 16.844 18.0902 17.0922C18.9659 17.3405 19.8968 17.3134 20.7567 17.0148C21.6165 16.7161 22.3637 16.1603 22.897 15.4226C23.4303 14.685 23.7239 13.8012 23.738 12.891V12C23.7026 8.91967 22.447 5.9791 20.2465 3.82324C18.0461 1.66739 15.0804 0.472274 12 0.500015ZM12 14.761C11.4576 14.7431 10.9326 14.566 10.4903 14.2516C10.048 13.9373 9.70808 13.4997 9.5129 12.9934C9.31772 12.4871 9.27594 11.9345 9.39277 11.4046C9.50959 10.8747 9.77986 10.391 10.1698 10.0137C10.5598 9.63641 11.0523 9.38231 11.5858 9.28309C12.1192 9.18388 12.6701 9.24394 13.1696 9.45578C13.6692 9.66761 14.0953 10.0219 14.3949 10.4743C14.6944 10.9268 14.8541 11.4574 14.854 12C14.8405 12.7443 14.5326 13.4528 13.9976 13.9704C13.4626 14.4879 12.7442 14.7723 12 14.761Z" fill="black"></path>
</g>
<defs>
<clipPath id="clip0_1923_10102">
<rect width="24" height="24" fill="white"></rect>
</clipPath>
</defs>
</symbol>
<symbol viewBox="0 0 24 24" fill="none" id="attachment">
<path d="M21.843 3.455C21.1966 2.80837 20.4291 2.29541 19.5844 1.94544C18.7397 1.59547 17.8343 1.41534 16.92 1.41534C16.0057 1.41534 15.1003 1.59547 14.2556 1.94544C13.4109 2.29541 12.6434 2.80837 11.997 3.455L1.61899 13.832C0.665093 14.7953 0.131458 16.0971 0.134781 17.4528C0.138104 18.8085 0.678115 20.1077 1.63672 21.0663C2.59533 22.0249 3.89452 22.5649 5.2502 22.5682C6.60587 22.5715 7.90769 22.0379 8.87099 21.084L17.3 12.653C17.6253 12.352 17.8864 11.9884 18.0678 11.584C18.2492 11.1796 18.3471 10.7428 18.3557 10.2997C18.3642 9.85658 18.2833 9.4163 18.1176 9.00523C17.9519 8.59417 17.705 8.22077 17.3916 7.90741C17.0781 7.59406 16.7047 7.3472 16.2936 7.18162C15.8825 7.01604 15.4422 6.93515 14.9991 6.94379C14.556 6.95244 14.1192 7.05044 13.7148 7.23193C13.3105 7.41342 12.9469 7.67466 12.646 8L7.45699 13.184C7.36401 13.2768 7.29023 13.3871 7.23987 13.5085C7.1895 13.6298 7.16353 13.7599 7.16343 13.8913C7.16334 14.0227 7.18913 14.1528 7.23933 14.2742C7.28952 14.3957 7.36314 14.506 7.45599 14.599C7.54883 14.692 7.65908 14.7658 7.78044 14.8161C7.9018 14.8665 8.03189 14.8925 8.16328 14.8926C8.29468 14.8927 8.4248 14.8669 8.54623 14.8167C8.66766 14.7665 8.77801 14.6928 8.87099 14.6L14.06 9.409C14.3045 9.17568 14.6307 9.0473 14.9686 9.05131C15.3066 9.05532 15.6296 9.19141 15.8685 9.43047C16.1074 9.66954 16.2433 9.9926 16.2472 10.3306C16.251 10.6685 16.1224 10.9946 15.889 11.239L7.45699 19.67C6.87033 20.2567 6.07465 20.5862 5.24499 20.5862C4.41533 20.5862 3.61965 20.2567 3.03299 19.67C2.44633 19.0833 2.11675 18.2877 2.11675 17.458C2.11675 16.6283 2.44633 15.8327 3.03299 15.246L13.411 4.869C14.3416 3.93836 15.6039 3.41553 16.92 3.41553C18.2361 3.41553 19.4983 3.93836 20.429 4.869C21.3596 5.79965 21.8825 7.06187 21.8825 8.378C21.8825 9.69413 21.3596 10.9564 20.429 11.887L12.646 19.67C12.5505 19.7623 12.4743 19.8726 12.4219 19.9946C12.3695 20.1166 12.3419 20.2478 12.3407 20.3806C12.3396 20.5134 12.3649 20.6451 12.4152 20.768C12.4654 20.8909 12.5397 21.0025 12.6336 21.0964C12.7275 21.1903 12.8391 21.2645 12.962 21.3148C13.0849 21.3651 13.2166 21.3904 13.3494 21.3893C13.4822 21.3881 13.6134 21.3605 13.7354 21.3081C13.8574 21.2557 13.9677 21.1795 14.06 21.084L21.843 13.3C22.4897 12.6537 23.0028 11.8862 23.3528 11.0415C23.7029 10.1968 23.8831 9.29137 23.8831 8.377C23.8831 7.46264 23.7029 6.55723 23.3528 5.71252C23.0028 4.86781 22.4897 4.10036 21.843 3.454V3.455Z" fill="black"></path>
</symbol>
<symbol viewBox="0 0 24 24" fill="none" id="bell">
<path d="M12 22C13.1 22 14 21.1 14 20H10C10 21.1 10.89 22 12 22ZM18 16V11C18 7.93 16.36 5.36 13.5 4.68V4C13.5 3.17 12.83 2.5 12 2.5C11.17 2.5 10.5 3.17 10.5 4V4.68C7.63 5.36 6 7.92 6 11V16L4 18V19H20V18L18 16Z" fill="black"></path>
</symbol>
<symbol viewBox="0 0 24 24" fill="none" id="calendar">
<g clip-path="url(#clip0_1923_10101)">
<path d="M18.6667 9.42857H5.33333V12.0952H18.6667V9.42857ZM21.3333 1.80953H20.0001V0H17.3333V1.80953H6.66667V0H3.99999V1.80953H2.66667C1.18667 1.80953 0.0133333 3.00953 0.0133333 4.47619L0 21.4286C0 22.8953 1.18667 24 2.66667 24H21.3333C22.8 24 24 22.8953 24 21.4286V4.47619C24 3.00953 22.8 1.80953 21.3333 1.80953ZM21.3333 21.4286H2.66667V6.7619H21.3333V21.4286ZM14.6667 14.7619H5.33333V17.4286H14.6667V14.7619Z" fill="black"></path>
</g>
<defs>
<clipPath id="clip0_1923_10101">
<rect width="24" height="24" fill="white"></rect>
</clipPath>
</defs>
</symbol>
<symbol viewBox="0 0 24 24" fill="none" id="check-circle">
<g clip-path="url(#clip0_1923_10095)">
<path d="M12 0C9.62663 0 7.30655 0.703788 5.33316 2.02236C3.35977 3.34094 1.8217 5.21509 0.913451 7.4078C0.00519943 9.60051 -0.232441 12.0133 0.230582 14.3411C0.693605 16.6689 1.83649 18.8071 3.51472 20.4853C5.19295 22.1635 7.33115 23.3064 9.65892 23.7694C11.9867 24.2324 14.3995 23.9948 16.5922 23.0866C18.7849 22.1783 20.6591 20.6402 21.9776 18.6668C23.2962 16.6935 24 14.3734 24 12C23.9963 8.81854 22.7308 5.76845 20.4812 3.51881C18.2316 1.26918 15.1815 0.00370522 12 0V0ZM18.927 8.2L12.082 17.489C12.0012 17.5962 11.8998 17.6863 11.7838 17.7539C11.6678 17.8215 11.5395 17.8654 11.4064 17.8829C11.2733 17.9004 11.138 17.8912 11.0085 17.8558C10.879 17.8205 10.7578 17.7597 10.652 17.677L5.76401 13.769C5.66144 13.6869 5.57605 13.5855 5.5127 13.4704C5.44936 13.3553 5.4093 13.2289 5.39481 13.0983C5.36556 12.8346 5.44224 12.5701 5.60801 12.363C5.77377 12.1559 6.01502 12.0231 6.2787 11.9938C6.54237 11.9646 6.80687 12.0412 7.01401 12.207L11.09 15.468L17.317 7.017C17.392 6.90451 17.489 6.80838 17.6021 6.73443C17.7153 6.66048 17.8423 6.61025 17.9754 6.58676C18.1085 6.56327 18.245 6.56702 18.3767 6.59777C18.5083 6.62853 18.6323 6.68565 18.7413 6.7657C18.8502 6.84574 18.9418 6.94705 19.0105 7.06348C19.0792 7.17992 19.1235 7.30907 19.1409 7.44313C19.1582 7.57719 19.1482 7.71339 19.1115 7.84347C19.0747 7.97356 19.012 8.09485 18.927 8.2Z" fill="black"></path>
</g>
<defs>
<clipPath id="clip0_1923_10095">
<rect width="24" height="24" fill="white"></rect>
</clipPath>
</defs>
</symbol>
<symbol viewBox="0 0 24 24" fill="none" id="check">
<path d="M9.99999 15.172L19.192 5.979L20.607 7.393L9.99999 18L3.63599 11.636L5.04999 10.222L9.99999 15.172Z" fill="#2D3748"></path>
</symbol>
<symbol viewBox="0 0 24 24" fill="none" id="chevron-down">
<path d="M16.59 8.59L12 13.17L7.41 8.59L6 10L12 16L18 10L16.59 8.59Z" fill="black"></path>
</symbol>
<symbol viewBox="0 0 24 24" fill="none" id="chevron-left">
<path d="M15.41 7.41L14 6L8 12L14 18L15.41 16.59L10.83 12L15.41 7.41Z" fill="black"></path>
</symbol>
<symbol viewBox="0 0 24 24" fill="none" id="chevron-right">
<path d="M10.0001 6L8.59009 7.41L13.1701 12L8.59009 16.59L10.0001 18L16.0001 12L10.0001 6Z" fill="black"></path>
</symbol>
<symbol viewBox="0 0 24 24" fill="none" id="chevron-up">
<path d="M12 8L6 14L7.41 15.41L12 10.83L16.59 15.41L18 14L12 8Z" fill="black"></path>
</symbol>
<symbol viewBox="0 0 24 24" fill="none" id="close">
<path d="M12 10.586L16.95 5.63599L18.364 7.04999L13.414 12L18.364 16.95L16.95 18.364L12 13.414L7.04999 18.364L5.63599 16.95L10.586 12L5.63599 7.04999L7.04999 5.63599L12 10.586Z" fill="#2D3748"></path>
</symbol>
<symbol viewBox="0 0 24 24" fill="none" id="copy">
<path d="M16 1H4C2.9 1 2 1.9 2 3V17H4V3H16V1ZM19 5H8C6.9 5 6 5.9 6 7V21C6 22.1 6.9 23 8 23H19C20.1 23 21 22.1 21 21V7C21 5.9 20.1 5 19 5ZM19 21H8V7H19V21Z" fill="black"></path>
</symbol>
<symbol viewBox="0 0 24 24" fill="none" id="delete">
<path d="M19.452 7.5H4.547C4.47737 7.49972 4.40846 7.51398 4.34466 7.54187C4.28087 7.56977 4.2236 7.61068 4.17653 7.66198C4.12946 7.71329 4.09363 7.77386 4.07132 7.83981C4.04902 7.90577 4.04073 7.97566 4.047 8.045L5.334 22.181C5.37917 22.6781 5.60858 23.1403 5.97717 23.4769C6.34575 23.8135 6.82687 24.0001 7.326 24H16.673C17.1721 24.0001 17.6532 23.8135 18.0218 23.4769C18.3904 23.1403 18.6198 22.6781 18.665 22.181L19.95 8.045C19.9562 7.97586 19.9479 7.90619 19.9257 7.84042C19.9035 7.77465 19.8678 7.71423 19.821 7.663C19.7742 7.61169 19.7172 7.5707 19.6537 7.54264C19.5901 7.51457 19.5215 7.50005 19.452 7.5ZM10.252 20.5C10.252 20.6989 10.173 20.8897 10.0323 21.0303C9.89168 21.171 9.70091 21.25 9.502 21.25C9.30309 21.25 9.11232 21.171 8.97167 21.0303C8.83102 20.8897 8.752 20.6989 8.752 20.5V11.5C8.752 11.3011 8.83102 11.1103 8.97167 10.9697C9.11232 10.829 9.30309 10.75 9.502 10.75C9.70091 10.75 9.89168 10.829 10.0323 10.9697C10.173 11.1103 10.252 11.3011 10.252 11.5V20.5ZM15.252 20.5C15.252 20.6989 15.173 20.8897 15.0323 21.0303C14.8917 21.171 14.7009 21.25 14.502 21.25C14.3031 21.25 14.1123 21.171 13.9717 21.0303C13.831 20.8897 13.752 20.6989 13.752 20.5V11.5C13.752 11.3011 13.831 11.1103 13.9717 10.9697C14.1123 10.829 14.3031 10.75 14.502 10.75C14.7009 10.75 14.8917 10.829 15.0323 10.9697C15.173 11.1103 15.252 11.3011 15.252 11.5V20.5ZM22 4H17.25C17.1837 4 17.1201 3.97366 17.0732 3.92678C17.0263 3.87989 17 3.8163 17 3.75V2.5C17 1.83696 16.7366 1.20107 16.2678 0.732233C15.7989 0.263392 15.163 0 14.5 0H9.5C8.83696 0 8.20107 0.263392 7.73223 0.732233C7.26339 1.20107 7 1.83696 7 2.5V3.75C7 3.8163 6.97366 3.87989 6.92678 3.92678C6.87989 3.97366 6.8163 4 6.75 4H2C1.73478 4 1.48043 4.10536 1.29289 4.29289C1.10536 4.48043 1 4.73478 1 5C1 5.26522 1.10536 5.51957 1.29289 5.70711C1.48043 5.89464 1.73478 6 2 6H22C22.2652 6 22.5196 5.89464 22.7071 5.70711C22.8946 5.51957 23 5.26522 23 5C23 4.73478 22.8946 4.48043 22.7071 4.29289C22.5196 4.10536 22.2652 4 22 4ZM9 3.75V2.5C9 2.36739 9.05268 2.24021 9.14645 2.14645C9.24021 2.05268 9.36739 2 9.5 2H14.5C14.6326 2 14.7598 2.05268 14.8536 2.14645C14.9473 2.24021 15 2.36739 15 2.5V3.75C15 3.8163 14.9737 3.87989 14.9268 3.92678C14.8799 3.97366 14.8163 4 14.75 4H9.25C9.1837 4 9.12011 3.97366 9.07322 3.92678C9.02634 3.87989 9 3.8163 9 3.75Z" fill="black"></path>
</symbol>
<symbol viewBox="0 0 24 24" fill="none" id="download">
<path d="M19.347 10.3837L17.2899 8.32653L13.4695 12.2535V1.71429H10.5307V12.2535L6.71028 8.32653L4.65314 10.3837L12.0001 17.8776L19.347 10.3837ZM1.71436 19.3469V22.2857H22.2858V19.3469H1.71436Z" fill="black"></path>
</symbol>
<symbol viewBox="0 0 24 24" fill="none" id="drag-handle">
<path d="M7.20005 4.8C5.87457 4.8 4.80005 3.72548 4.80005 2.4C4.80005 1.07452 5.87457 0 7.20005 0C8.52553 0 9.60005 1.07452 9.60005 2.4C9.60005 3.72548 8.52553 4.8 7.20005 4.8ZM7.20005 14.4C5.87457 14.4 4.80005 13.3255 4.80005 12C4.80005 10.6745 5.87457 9.6 7.20005 9.6C8.52553 9.6 9.60005 10.6745 9.60005 12C9.60005 13.3255 8.52553 14.4 7.20005 14.4ZM7.20005 24C5.87457 24 4.80005 22.9255 4.80005 21.6C4.80005 20.2745 5.87457 19.2 7.20005 19.2C8.52553 19.2 9.60005 20.2745 9.60005 21.6C9.60005 22.9255 8.52553 24 7.20005 24ZM16.8 4.8C15.4746 4.8 14.4 3.72548 14.4 2.4C14.4 1.07452 15.4746 0 16.8 0C18.1255 0 19.2 1.07452 19.2 2.4C19.2 3.72548 18.1255 4.8 16.8 4.8ZM16.8 14.4C15.4746 14.4 14.4 13.3255 14.4 12C14.4 10.6745 15.4746 9.6 16.8 9.6C18.1255 9.6 19.2 10.6745 19.2 12C19.2 13.3255 18.1255 14.4 16.8 14.4ZM16.8 24C15.4746 24 14.4 22.9255 14.4 21.6C14.4 20.2745 15.4746 19.2 16.8 19.2C18.1255 19.2 19.2 20.2745 19.2 21.6C19.2 22.9255 18.1255 24 16.8 24Z" fill="black"></path>
</symbol>
<symbol viewBox="0 0 24 24" fill="none" id="edit">
<path d="M11 4.00001H4C3.46957 4.00001 2.96086 4.21073 2.58579 4.5858C2.21071 4.96087 2 5.46958 2 6.00001V20C2 20.5304 2.21071 21.0392 2.58579 21.4142C2.96086 21.7893 3.46957 22 4 22H18C18.5304 22 19.0391 21.7893 19.4142 21.4142C19.7893 21.0392 20 20.5304 20 20V13M18.5 2.50001C18.8978 2.10219 19.4374 1.87869 20 1.87869C20.5626 1.87869 21.1022 2.10219 21.5 2.50001C21.8978 2.89784 22.1213 3.4374 22.1213 4.00001C22.1213 4.56262 21.8978 5.10219 21.5 5.50001L12 15L8 16L9 12L18.5 2.50001Z" stroke="black" stroke-width="2" stroke-linecap="round"></path>
</symbol>
<symbol viewBox="0 0 24 24" fill="none" id="email">
<g clip-path="url(#clip0_1923_10134)">
<path d="M11.114 14.556C11.3487 14.79 11.6666 14.9214 11.998 14.9214C12.3294 14.9214 12.6473 14.79 12.882 14.556L22.568 4.87C22.6338 4.80448 22.68 4.72195 22.7015 4.63164C22.723 4.54133 22.7189 4.44683 22.6898 4.3587C22.6606 4.27057 22.6075 4.1923 22.5363 4.13266C22.4652 4.07301 22.3789 4.03435 22.287 4.021C22.192 4.007 22.0961 3.99998 22 4H2C1.90328 3.99988 1.80669 4.0069 1.711 4.021C1.61913 4.03435 1.5328 4.07301 1.46166 4.13266C1.39053 4.1923 1.3374 4.27057 1.30823 4.3587C1.27906 4.44683 1.275 4.54133 1.29651 4.63164C1.31802 4.72195 1.36424 4.80448 1.43 4.87L11.114 14.556Z" fill="black"></path>
<path d="M23.888 5.832C23.8546 5.81781 23.8177 5.81394 23.782 5.82089C23.7464 5.82784 23.7136 5.84529 23.688 5.871L17.488 12.071C17.4412 12.118 17.415 12.1817 17.415 12.248C17.415 12.3143 17.4412 12.378 17.488 12.425L22.531 17.468C22.6027 17.5372 22.6598 17.6199 22.6992 17.7114C22.7385 17.8029 22.7593 17.9013 22.7602 18.0008C22.7611 18.1004 22.7422 18.1992 22.7045 18.2914C22.6668 18.3836 22.6112 18.4673 22.5408 18.5378C22.4704 18.6082 22.3867 18.664 22.2945 18.7017C22.2024 18.7395 22.1036 18.7585 22.0041 18.7577C21.9045 18.7569 21.806 18.7362 21.7145 18.697C21.623 18.6577 21.5402 18.6006 21.471 18.529L16.428 13.486C16.4048 13.4627 16.3772 13.4442 16.3468 13.4316C16.3164 13.419 16.2839 13.4126 16.251 13.4126C16.2181 13.4126 16.1856 13.419 16.1552 13.4316C16.1248 13.4442 16.0972 13.4627 16.074 13.486L13.945 15.615C13.4293 16.1304 12.7301 16.4199 12.001 16.4199C11.2719 16.4199 10.5727 16.1304 10.057 15.615L7.926 13.488C7.87897 13.4412 7.81533 13.415 7.749 13.415C7.68267 13.415 7.61903 13.4412 7.572 13.488L2.529 18.531C2.38748 18.6676 2.198 18.7431 2.00135 18.7413C1.8047 18.7395 1.61663 18.6605 1.47764 18.5214C1.33865 18.3823 1.25986 18.1941 1.25824 17.9975C1.25663 17.8008 1.33231 17.6114 1.469 17.47L6.512 12.427C6.55878 12.38 6.58503 12.3163 6.58503 12.25C6.58503 12.1837 6.55878 12.12 6.512 12.073L0.312 5.873C0.286508 5.84705 0.253752 5.82944 0.21805 5.82248C0.182347 5.81551 0.145373 5.81953 0.112 5.834C0.0791449 5.84769 0.0510241 5.87071 0.0311174 5.90021C0.0112108 5.92972 0.000392021 5.96441 0 6V18C0 18.5304 0.210714 19.0391 0.585786 19.4142C0.960859 19.7893 1.46957 20 2 20H22C22.5304 20 23.0391 19.7893 23.4142 19.4142C23.7893 19.0391 24 18.5304 24 18V6C24.0001 5.96404 23.9895 5.92885 23.9696 5.89893C23.9497 5.86901 23.9212 5.84571 23.888 5.832Z" fill="black"></path>
</g>
<defs>
<clipPath id="clip0_1923_10134">
<rect width="24" height="24" fill="white"></rect>
</clipPath>
</defs>
</symbol>
<symbol viewBox="0 0 24 24" fill="none" id="external-link">
<path d="M18 13V19C18 19.5304 17.7893 20.0391 17.4142 20.4142C17.0391 20.7893 16.5304 21 16 21H5C4.46957 21 3.96086 20.7893 3.58579 20.4142C3.21071 20.0391 3 19.5304 3 19V8C3 7.46957 3.21071 6.96086 3.58579 6.58579C3.96086 6.21071 4.46957 6 5 6H11M15 3H21M21 3V9M21 3L10 14" stroke="black" stroke-width="2" stroke-linecap="round"></path>
</symbol>
<symbol viewBox="0 0 24 24" fill="none" id="frame">
<g clip-path="url(#clip0_1923_10096)">
<path d="M1.56537 1.57824C2.56887 0.568673 3.93168 0 5.35443 0H18.6456C20.0683 0 21.4311 0.568671 22.4347 1.57824C23.4379 2.58753 24 3.95467 24 5.3785V13.9362C23.9935 14.5962 23.8387 15.3793 23.5935 15.9917C23.3362 16.5994 22.8946 17.2644 22.4347 17.7363C21.9651 18.1994 21.3026 18.6447 20.6973 18.9041C20.0866 19.1513 19.3041 19.308 18.6456 19.3147H17.3544V21.5445H17.3501C17.3493 21.9309 17.2514 22.4213 17.1053 22.7349C16.9075 23.0846 16.477 23.5197 16.1283 23.7226L16.1284 23.7228C16.1275 23.7233 16.1266 23.7237 16.1256 23.7242C16.1249 23.7245 16.1242 23.725 16.1235 23.7254L16.1235 23.7252C15.8221 23.8721 15.3344 23.9916 15.001 24H14.9964C14.3267 23.9937 13.6881 23.7228 13.2177 23.2486L9.24948 19.3147H5.35443C3.93168 19.3147 2.56887 18.7461 1.56537 17.7363C1.10542 17.2644 0.663749 16.5994 0.406474 15.9917C0.161355 15.3793 0.00650619 14.5962 0 13.9362V5.3785C0 3.95467 0.56214 2.58753 1.56537 1.57824ZM5.35443 2.73418C4.66215 2.73418 3.99657 3.01077 3.50453 3.50577C3.01222 4.00106 2.73418 4.67453 2.73418 5.3785V13.9362C2.72767 14.3297 2.7791 14.5899 2.93474 14.9508C3.07822 15.3165 3.22397 15.536 3.50453 15.8089C3.99657 16.3039 4.66215 16.5805 5.35443 16.5805H9.81228C10.1728 16.5805 10.5187 16.7229 10.7747 16.9767L14.6203 20.789V17.9475C14.6203 17.1926 15.2323 16.5805 15.9873 16.5805H18.6456C19.0344 16.5871 19.2886 16.5362 19.6455 16.3803C20.0078 16.2365 20.2245 16.0909 20.4955 15.8089C20.7759 15.536 20.9218 15.3165 21.0653 14.9508C21.221 14.5899 21.2724 14.3297 21.2659 13.9362V5.3785C21.2659 4.67453 20.9878 4.00104 20.4955 3.50577C20.0035 3.01077 19.3378 2.73418 18.6456 2.73418H5.35443Z" fill="black"></path>
</g>
<defs>
<clipPath id="clip0_1923_10096">
<rect width="24" height="24" fill="white"></rect>
</clipPath>
</defs>
</symbol>
<symbol viewBox="0 0 24 24" fill="none" id="hamburger">
<path d="M3.00008 5.00001C2.86757 4.99813 2.73601 5.02262 2.61304 5.07203C2.49007 5.12144 2.37815 5.1948 2.28378 5.28785C2.18941 5.38089 2.11447 5.49177 2.06333 5.61402C2.01218 5.73628 1.98584 5.86748 1.98584 6.00001C1.98584 6.13253 2.01218 6.26374 2.06333 6.38599C2.11447 6.50825 2.18941 6.61912 2.28378 6.71217C2.37815 6.80521 2.49007 6.87857 2.61304 6.92799C2.73601 6.9774 2.86757 7.00188 3.00008 7.00001H21.0001C21.1326 7.00188 21.2642 6.9774 21.3871 6.92799C21.5101 6.87857 21.622 6.80521 21.7164 6.71217C21.8108 6.61912 21.8857 6.50825 21.9368 6.38599C21.988 6.26374 22.0143 6.13253 22.0143 6.00001C22.0143 5.86748 21.988 5.73628 21.9368 5.61402C21.8857 5.49177 21.8108 5.38089 21.7164 5.28785C21.622 5.1948 21.5101 5.12144 21.3871 5.07203C21.2642 5.02262 21.1326 4.99813 21.0001 5.00001H3.00008ZM3.00008 11C2.86757 10.9981 2.73601 11.0226 2.61304 11.072C2.49007 11.1214 2.37815 11.1948 2.28378 11.2878C2.18941 11.3809 2.11447 11.4918 2.06333 11.614C2.01218 11.7363 1.98584 11.8675 1.98584 12C1.98584 12.1325 2.01218 12.2637 2.06333 12.386C2.11447 12.5083 2.18941 12.6191 2.28378 12.7122C2.37815 12.8052 2.49007 12.8786 2.61304 12.928C2.73601 12.9774 2.86757 13.0019 3.00008 13H21.0001C21.1326 13.0019 21.2642 12.9774 21.3871 12.928C21.5101 12.8786 21.622 12.8052 21.7164 12.7122C21.8108 12.6191 21.8857 12.5083 21.9368 12.386C21.988 12.2637 22.0143 12.1325 22.0143 12C22.0143 11.8675 21.988 11.7363 21.9368 11.614C21.8857 11.4918 21.8108 11.3809 21.7164 11.2878C21.622 11.1948 21.5101 11.1214 21.3871 11.072C21.2642 11.0226 21.1326 10.9981 21.0001 11H3.00008ZM3.00008 17C2.86757 16.9981 2.73601 17.0226 2.61304 17.072C2.49007 17.1214 2.37815 17.1948 2.28378 17.2878C2.18941 17.3809 2.11447 17.4918 2.06333 17.614C2.01218 17.7363 1.98584 17.8675 1.98584 18C1.98584 18.1325 2.01218 18.2637 2.06333 18.386C2.11447 18.5083 2.18941 18.6191 2.28378 18.7122C2.37815 18.8052 2.49007 18.8786 2.61304 18.928C2.73601 18.9774 2.86757 19.0019 3.00008 19H21.0001C21.1326 19.0019 21.2642 18.9774 21.3871 18.928C21.5101 18.8786 21.622 18.8052 21.7164 18.7122C21.8108 18.6191 21.8857 18.5083 21.9368 18.386C21.988 18.2637 22.0143 18.1325 22.0143 18C22.0143 17.8675 21.988 17.7363 21.9368 17.614C21.8857 17.4918 21.8108 17.3809 21.7164 17.2878C21.622 17.1948 21.5101 17.1214 21.3871 17.072C21.2642 17.0226 21.1326 16.9981 21.0001 17H3.00008Z" fill="black"></path>
</symbol>
<symbol viewBox="0 0 24 24" fill="none" id="info-outline">
<g clip-path="url(#clip0_1923_10133)">
<path fill-rule="evenodd" clip-rule="evenodd" d="M2 12C2 6.47715 6.47715 2 12 2C17.5228 2 22 6.47715 22 12C22 17.5228 17.5228 22 12 22C6.47715 22 2 17.5228 2 12ZM12 0C5.37258 0 0 5.37258 0 12C0 18.6274 5.37258 24 12 24C18.6274 24 24 18.6274 24 12C24 5.37258 18.6274 0 12 0ZM11.959 8C12.5113 8 12.959 7.55228 12.959 7C12.959 6.44772 12.5113 6 11.959 6C11.4067 6 10.959 6.44772 10.959 7C10.959 7.55228 11.4067 8 11.959 8ZM12.959 10V11V17V18H10.959V17V11V10H12.959Z" fill="black"></path>
</g>
<defs>
<clipPath id="clip0_1923_10133">
<rect width="24" height="24" fill="white"></rect>
</clipPath>
</defs>
</symbol>
<symbol viewBox="0 0 24 24" fill="none" id="info">
<g clip-path="url(#clip0_1923_10143)">
<path d="M12 0C9.62663 0 7.30655 0.703788 5.33316 2.02236C3.35977 3.34094 1.8217 5.21509 0.913451 7.4078C0.00519943 9.60051 -0.232441 12.0133 0.230582 14.3411C0.693605 16.6689 1.83649 18.8071 3.51472 20.4853C5.19295 22.1635 7.33115 23.3064 9.65892 23.7694C11.9867 24.2324 14.3995 23.9948 16.5922 23.0866C18.7849 22.1783 20.6591 20.6402 21.9776 18.6668C23.2962 16.6935 24 14.3734 24 12C23.9966 8.81846 22.7312 5.76821 20.4815 3.51852C18.2318 1.26883 15.1815 0.00344108 12 0V0ZM12.25 5C12.5467 5 12.8367 5.08797 13.0834 5.2528C13.33 5.41762 13.5223 5.65189 13.6358 5.92597C13.7494 6.20006 13.7791 6.50166 13.7212 6.79264C13.6633 7.08361 13.5204 7.35088 13.3107 7.56066C13.1009 7.77044 12.8336 7.9133 12.5426 7.97118C12.2517 8.02906 11.9501 7.99935 11.676 7.88582C11.4019 7.77229 11.1676 7.58003 11.0028 7.33336C10.838 7.08668 10.75 6.79667 10.75 6.5C10.75 6.10218 10.908 5.72064 11.1893 5.43934C11.4706 5.15804 11.8522 5 12.25 5ZM14.5 18.5H10.5C10.2348 18.5 9.98044 18.3946 9.7929 18.2071C9.60536 18.0196 9.50001 17.7652 9.50001 17.5C9.50001 17.2348 9.60536 16.9804 9.7929 16.7929C9.98044 16.6054 10.2348 16.5 10.5 16.5H11.25C11.3163 16.5 11.3799 16.4737 11.4268 16.4268C11.4737 16.3799 11.5 16.3163 11.5 16.25V11.75C11.5 11.6837 11.4737 11.6201 11.4268 11.5732C11.3799 11.5263 11.3163 11.5 11.25 11.5H10.5C10.2348 11.5 9.98044 11.3946 9.7929 11.2071C9.60536 11.0196 9.50001 10.7652 9.50001 10.5C9.50001 10.2348 9.60536 9.98043 9.7929 9.79289C9.98044 9.60536 10.2348 9.5 10.5 9.5H11.5C12.0304 9.5 12.5391 9.71071 12.9142 10.0858C13.2893 10.4609 13.5 10.9696 13.5 11.5V16.25C13.5 16.3163 13.5263 16.3799 13.5732 16.4268C13.6201 16.4737 13.6837 16.5 13.75 16.5H14.5C14.7652 16.5 15.0196 16.6054 15.2071 16.7929C15.3946 16.9804 15.5 17.2348 15.5 17.5C15.5 17.7652 15.3946 18.0196 15.2071 18.2071C15.0196 18.3946 14.7652 18.5 14.5 18.5Z" fill="black"></path>
</g>
<defs>
<clipPath id="clip0_1923_10143">
<rect width="24" height="24" fill="white"></rect>
</clipPath>
</defs>
</symbol>
<symbol viewBox="0 0 24 24" fill="none" id="link">
<g clip-path="url(#clip0_1923_10139)">
<path d="M7.72089 21.11C7.19006 21.6172 6.48411 21.9003 5.74989 21.9003C5.01568 21.9003 4.30972 21.6172 3.77889 21.11L2.88689 20.219C2.36435 19.6963 2.0708 18.9875 2.0708 18.2485C2.0708 17.5094 2.36435 16.8006 2.88689 16.278L8.68689 10.478C9.20984 9.95563 9.91875 9.66223 10.6579 9.66223C11.397 9.66223 12.1059 9.95563 12.6289 10.478L13.5219 11.37C13.7099 11.558 13.965 11.6637 14.2309 11.6637C14.4968 11.6637 14.7519 11.558 14.9399 11.37C15.1279 11.1819 15.2336 10.9269 15.2336 10.661C15.2336 10.3951 15.1279 10.14 14.9399 9.95199L14.0469 9.05999C13.1486 8.16288 11.9309 7.65898 10.6614 7.65898C9.39184 7.65898 8.17419 8.16288 7.27589 9.05999L1.47589 14.86C1.03135 15.3045 0.678724 15.8322 0.438141 16.413C0.197557 16.9938 0.0737305 17.6163 0.0737305 18.245C0.0737305 18.8736 0.197557 19.4961 0.438141 20.0769C0.678724 20.6577 1.03135 21.1855 1.47589 21.63L2.36789 22.521C2.81229 22.9659 3.34004 23.3189 3.92095 23.5597C4.50186 23.8005 5.12454 23.9245 5.75339 23.9245C6.38224 23.9245 7.00492 23.8005 7.58583 23.5597C8.16674 23.3189 8.69449 22.9659 9.13889 22.521L11.8749 19.786C11.9678 19.6931 12.0415 19.5829 12.0918 19.4616C12.1421 19.3402 12.168 19.2102 12.1681 19.0788C12.1681 18.9475 12.1423 18.8174 12.0921 18.6961C12.0419 18.5747 11.9682 18.4644 11.8754 18.3715C11.7825 18.2786 11.6723 18.2049 11.551 18.1546C11.4296 18.1042 11.2996 18.0783 11.1682 18.0783C11.0369 18.0782 10.9068 18.1041 10.7855 18.1543C10.6641 18.2045 10.5538 18.2781 10.4609 18.371L7.72089 21.11Z" fill="black"></path>
<path d="M22.5259 2.36299L21.6339 1.47099C20.7345 0.576374 19.5175 0.0741882 18.2489 0.0741882C16.9803 0.0741882 15.7633 0.576374 14.8639 1.47099L11.9589 4.37099C11.7767 4.55959 11.6759 4.81219 11.6782 5.07439C11.6805 5.33659 11.7857 5.5874 11.9711 5.77281C12.1565 5.95821 12.4073 6.06338 12.6695 6.06566C12.9317 6.06794 13.1843 5.96715 13.3729 5.78499L16.2729 2.88499C16.7959 2.36318 17.5046 2.07014 18.2434 2.07014C18.9822 2.07014 19.6909 2.36318 20.2139 2.88499L21.1069 3.77799C21.3659 4.03673 21.5714 4.34398 21.7115 4.68218C21.8517 5.02038 21.9239 5.38289 21.9239 5.74899C21.9239 6.11509 21.8517 6.4776 21.7115 6.8158C21.5714 7.154 21.3659 7.46125 21.1069 7.71999L15.3069 13.52C15.0487 13.7797 14.7416 13.9857 14.4032 14.126C14.0649 14.2662 13.7021 14.3379 13.3359 14.337C12.97 14.338 12.6076 14.2663 12.2696 14.1263C11.9317 13.9862 11.6248 13.7805 11.3669 13.521C11.2753 13.4232 11.165 13.3448 11.0425 13.2904C10.92 13.2361 10.7879 13.2069 10.6539 13.2047C10.5199 13.2024 10.3869 13.2271 10.2626 13.2772C10.1384 13.3274 10.0255 13.402 9.93061 13.4967C9.83576 13.5913 9.7609 13.7041 9.71048 13.8282C9.66005 13.9523 9.63509 14.0854 9.63708 14.2193C9.63906 14.3533 9.66795 14.4855 9.72203 14.6081C9.77611 14.7307 9.85428 14.8412 9.95189 14.933C10.3953 15.3786 10.9227 15.7318 11.5036 15.9721C12.0845 16.2125 12.7073 16.3351 13.3359 16.333C13.9647 16.3352 14.5877 16.2126 15.1687 15.9723C15.7498 15.7319 16.2774 15.3787 16.7209 14.933L22.5209 9.13299C22.9657 8.68852 23.3186 8.16075 23.5593 7.57985C23.8 6.99895 23.924 6.3763 23.924 5.74749C23.924 5.11867 23.8 4.49603 23.5593 3.91512C23.3186 3.33422 22.9657 2.80646 22.5209 2.36199L22.5259 2.36299Z" fill="black"></path>
</g>
<defs>
<clipPath id="clip0_1923_10139">
<rect width="24" height="24" fill="white"></rect>
</clipPath>
</defs>
</symbol>
<symbol viewBox="0 0 24 24" fill="none" id="lock">
<path d="M19.5 9.5H18.75V6.75C18.75 4.95979 18.0388 3.2429 16.773 1.97703C15.5071 0.711159 13.7902 0 12 0C10.2098 0 8.4929 0.711159 7.22703 1.97703C5.96116 3.2429 5.25 4.95979 5.25 6.75V9.5H4.5C3.96957 9.5 3.46086 9.71071 3.08579 10.0858C2.71071 10.4609 2.5 10.9696 2.5 11.5V22C2.5 22.5304 2.71071 23.0391 3.08579 23.4142C3.46086 23.7893 3.96957 24 4.5 24H19.5C20.0304 24 20.5391 23.7893 20.9142 23.4142C21.2893 23.0391 21.5 22.5304 21.5 22V11.5C21.5 10.9696 21.2893 10.4609 20.9142 10.0858C20.5391 9.71071 20.0304 9.5 19.5 9.5ZM10 15.5C9.99841 15.1485 10.0895 14.8029 10.264 14.4978C10.4385 14.1928 10.6903 13.9391 10.9941 13.7623C11.2979 13.5856 11.6429 13.492 11.9943 13.491C12.3458 13.49 12.6913 13.5816 12.9961 13.7566C13.3008 13.9317 13.5541 14.1839 13.7303 14.488C13.9066 14.7921 13.9996 15.1372 14 15.4887C14.0004 15.8401 13.9082 16.1855 13.7326 16.49C13.5571 16.7944 13.3044 17.0473 13 17.223V19.5C13 19.7652 12.8946 20.0196 12.7071 20.2071C12.5196 20.3946 12.2652 20.5 12 20.5C11.7348 20.5 11.4804 20.3946 11.2929 20.2071C11.1054 20.0196 11 19.7652 11 19.5V17.223C10.6969 17.0487 10.4449 16.7978 10.2694 16.4953C10.0939 16.1929 10.001 15.8497 10 15.5ZM7.75 6.75C7.75 5.62283 8.19777 4.54183 8.9948 3.7448C9.79183 2.94777 10.8728 2.5 12 2.5C13.1272 2.5 14.2082 2.94777 15.0052 3.7448C15.8022 4.54183 16.25 5.62283 16.25 6.75V9C16.25 9.13261 16.1973 9.25979 16.1036 9.35355C16.0098 9.44732 15.8826 9.5 15.75 9.5H8.25C8.11739 9.5 7.99021 9.44732 7.89645 9.35355C7.80268 9.25979 7.75 9.13261 7.75 9V6.75Z" fill="black"></path>
</symbol>
<symbol viewBox="0 0 24 24" fill="none" id="minus">
<path d="M22 10H2V14H22V10Z" fill="black"></path>
</symbol>
<symbol viewBox="0 0 24 24" fill="none" id="moon">
<path d="M21.4 13.7C20.6 13.9 19.8 14 19 14C14 14 10 10 10 5.00001C10 4.20001 10.1 3.40001 10.3 2.60001C10.4 2.30001 10.3 1.90001 10 1.60001C9.7 1.30001 9.4 1.20001 9 1.30001C4.3 2.70001 1 7.10001 1 12C1 18.1 5.9 23 12 23C16.9 23 21.3 19.7 22.6 14.9C22.7 14.6 22.6 14.2 22.3 13.9C22.1 13.7 21.7 13.6 21.4 13.7Z" fill="black"></path>
</symbol>
<symbol viewBox="0 0 24 24" fill="none" id="not-allowed">
<path d="M12 2C6.48 2 2 6.48 2 12C2 17.52 6.48 22 12 22C17.52 22 22 17.52 22 12C22 6.48 17.52 2 12 2ZM12 20C7.58 20 4 16.42 4 12C4 10.15 4.63 8.45 5.69 7.1L16.9 18.31C15.55 19.37 13.85 20 12 20ZM18.31 16.9L7.1 5.69C8.45 4.63 10.15 4 12 4C16.42 4 20 7.58 20 12C20 13.85 19.37 15.55 18.31 16.9Z" fill="black"></path>
</symbol>
<symbol viewBox="0 0 24 24" fill="none" id="phone">
<path d="M7.20731 5.01272C7.1105 4.99336 6.99432 4.99335 6.91687 5.03208C5.87128 5.4387 5.21294 6.92964 5.05804 7.95587C4.57397 11.2863 7.20731 14.1713 9.62766 16.0689C11.7769 17.7534 15.9012 20.5223 18.3409 17.8503C18.6507 17.5211 19.0186 17.037 18.9993 16.553C18.9412 15.7397 18.186 15.1588 17.6051 14.7135C17.1598 14.3843 16.2304 13.4743 15.6495 13.4936C15.1267 13.513 14.7975 14.0551 14.4684 14.3843L13.8875 14.9652C13.7907 15.062 12.5514 14.2488 12.4159 14.152C11.9125 13.8228 11.4284 13.4549 11.0024 13.0483C10.5764 12.6417 10.1892 12.1963 9.86002 11.7316C9.7632 11.5961 8.96933 10.4149 9.04678 10.3181C9.04678 10.3181 9.72448 9.58234 9.91811 9.2919C10.3247 8.67229 10.6345 8.18822 10.1698 7.45243C9.99556 7.18135 9.78257 6.96836 9.55021 6.73601C9.14359 6.34875 8.73698 5.94213 8.27227 5.61296C8.02055 5.41933 7.59457 5.07081 7.20731 5.01272Z" fill="black"></path>
</symbol>
<symbol viewBox="0 0 24 24" fill="none" id="plus-square">
<path d="M12 8V16M8 12H16M5 3H19C20.1046 3 21 3.89543 21 5V19C21 20.1046 20.1046 21 19 21H5C3.89543 21 3 20.1046 3 19V5C3 3.89543 3.89543 3 5 3Z" stroke="black" stroke-width="2" stroke-linecap="round"></path>
</symbol>
<symbol viewBox="0 0 24 24" fill="none" id="question-outline">
<g clip-path="url(#clip0_1923_10244)">
<path d="M9 9C9.00011 8.45003 9.15139 7.91067 9.43732 7.44087C9.72325 6.97107 10.1328 6.58891 10.6213 6.33615C11.1097 6.0834 11.6583 5.96978 12.2069 6.00772C12.7556 6.04565 13.2833 6.23368 13.7323 6.55125C14.1813 6.86882 14.5344 7.30371 14.7529 7.80839C14.9715 8.31307 15.0471 8.86812 14.9715 9.41287C14.8959 9.95762 14.6721 10.4711 14.3244 10.8972C13.9767 11.3233 13.5185 11.6457 13 11.829C12.7074 11.9324 12.4541 12.1241 12.275 12.3775C12.0959 12.6309 11.9998 12.9337 12 13.244V14.25M12 17.25C11.9258 17.25 11.8533 17.272 11.7917 17.3132C11.73 17.3544 11.6819 17.413 11.6535 17.4815C11.6252 17.55 11.6177 17.6254 11.6322 17.6982C11.6467 17.7709 11.6824 17.8377 11.7348 17.8902C11.7873 17.9426 11.8541 17.9783 11.9268 17.9928C11.9996 18.0073 12.075 17.9998 12.1435 17.9715C12.212 17.9431 12.2706 17.895 12.3118 17.8333C12.353 17.7717 12.375 17.6992 12.375 17.625C12.375 17.5255 12.3355 17.4302 12.2652 17.3598C12.1948 17.2895 12.0995 17.25 12 17.25ZM23.25 12C23.25 18.2132 18.2132 23.25 12 23.25C5.7868 23.25 0.75 18.2132 0.75 12C0.75 5.7868 5.7868 0.75 12 0.75C18.2132 0.75 23.25 5.7868 23.25 12Z" stroke="black" stroke-width="1.5" stroke-miterlimit="10" stroke-linecap="round"></path>
</g>
<defs>
<clipPath id="clip0_1923_10244">
<rect width="24" height="24" fill="white"></rect>
</clipPath>
</defs>
</symbol>
<symbol viewBox="0 0 24 24" fill="none" id="question">
<g clip-path="url(#clip0_1923_10235)">
<path d="M12 0C9.62663 0 7.30655 0.703788 5.33316 2.02236C3.35977 3.34094 1.8217 5.21509 0.913451 7.4078C0.00519943 9.60051 -0.232441 12.0133 0.230582 14.3411C0.693605 16.6689 1.83649 18.8071 3.51472 20.4853C5.19295 22.1635 7.33115 23.3064 9.65892 23.7694C11.9867 24.2324 14.3995 23.9948 16.5922 23.0866C18.7849 22.1783 20.6591 20.6402 21.9776 18.6668C23.2962 16.6935 24 14.3734 24 12C23.9966 8.81846 22.7312 5.76821 20.4815 3.51852C18.2318 1.26883 15.1815 0.00344108 12 0V0ZM12 19C11.7033 19 11.4133 18.912 11.1667 18.7472C10.92 18.5824 10.7277 18.3481 10.6142 18.074C10.5007 17.7999 10.471 17.4983 10.5288 17.2074C10.5867 16.9164 10.7296 16.6491 10.9393 16.4393C11.1491 16.2296 11.4164 16.0867 11.7074 16.0288C11.9983 15.9709 12.2999 16.0007 12.574 16.1142C12.8481 16.2277 13.0824 16.42 13.2472 16.6666C13.412 16.9133 13.5 17.2033 13.5 17.5C13.5 17.8978 13.342 18.2794 13.0607 18.5607C12.7794 18.842 12.3978 19 12 19ZM13.6 12.92C13.4216 12.9979 13.2698 13.1261 13.1632 13.289C13.0566 13.4519 12.9999 13.6423 13 13.837C13 14.1022 12.8946 14.3566 12.7071 14.5441C12.5196 14.7316 12.2652 14.837 12 14.837C11.7348 14.837 11.4804 14.7316 11.2929 14.5441C11.1054 14.3566 11 14.1022 11 13.837C10.9999 13.2532 11.1702 12.682 11.4899 12.1936C11.8096 11.7051 12.2649 11.3205 12.8 11.087C13.1305 10.9428 13.4159 10.7118 13.6259 10.4187C13.8359 10.1255 13.9627 9.78099 13.993 9.42164C14.0232 9.06228 13.9557 8.70144 13.7976 8.37731C13.6396 8.05317 13.3968 7.77781 13.095 7.58037C12.7932 7.38292 12.4437 7.27075 12.0834 7.25571C11.7231 7.24067 11.3654 7.32334 11.0482 7.49495C10.7311 7.66656 10.4662 7.92074 10.2817 8.23058C10.0971 8.54041 9.99982 8.89438 10 9.255C10 9.52022 9.89465 9.77457 9.70711 9.96211C9.51958 10.1496 9.26522 10.255 9.00001 10.255C8.73479 10.255 8.48044 10.1496 8.2929 9.96211C8.10536 9.77457 8.00001 9.52022 8.00001 9.255C7.99999 8.53384 8.19495 7.82609 8.56424 7.20665C8.93352 6.58721 9.46341 6.07913 10.0978 5.73619C10.7322 5.39324 11.4475 5.22818 12.168 5.25847C12.8886 5.28877 13.5875 5.51329 14.1909 5.90828C14.7942 6.30328 15.2796 6.85404 15.5956 7.50229C15.9116 8.15054 16.0464 8.87216 15.9859 9.59077C15.9253 10.3094 15.6716 10.9983 15.2516 11.5845C14.8316 12.1707 14.261 12.6325 13.6 12.921V12.92Z" fill="black"></path>
</g>
<defs>
<clipPath id="clip0_1923_10235">
<rect width="24" height="24" fill="white"></rect>
</clipPath>
</defs>
</symbol>
<symbol viewBox="0 0 24 24" fill="none" id="react">
<path d="M12 13.5C11.6022 13.5 11.2206 13.342 10.9393 13.0607C10.658 12.7793 10.5 12.3978 10.5 12C10.5 11.6022 10.658 11.2206 10.9393 10.9393C11.2206 10.658 11.6022 10.5 12 10.5C12.3978 10.5 12.7794 10.658 13.0607 10.9393C13.342 11.2206 13.5 11.6022 13.5 12C13.5 12.3978 13.342 12.7793 13.0607 13.0607C12.7794 13.342 12.3978 13.5 12 13.5ZM11.472 16.494C11.647 16.704 11.823 16.908 12 17.103C12.177 16.908 12.353 16.705 12.528 16.494C12.176 16.5015 11.824 16.5015 11.472 16.494ZM9.477 16.369C8.70906 16.2891 7.9462 16.1662 7.192 16.001C7.117 16.351 7.06 16.691 7.022 17.017C6.832 18.6 7.097 19.562 7.5 19.794C7.903 20.027 8.868 19.775 10.145 18.82C10.408 18.623 10.673 18.404 10.939 18.165C10.4185 17.5941 9.9304 16.9945 9.477 16.369ZM16.808 16.001C16.091 16.161 15.325 16.285 14.523 16.369C14.0696 16.9945 13.5815 17.5941 13.061 18.165C13.327 18.405 13.592 18.623 13.855 18.82C15.132 19.775 16.097 20.027 16.5 19.794C16.903 19.562 17.167 18.6 16.979 17.017C16.9377 16.6759 16.881 16.3369 16.809 16.001H16.808ZM18.258 15.614C18.835 18.253 18.532 20.354 17.25 21.094C15.968 21.834 13.997 21.046 12 19.227C10.003 21.046 8.032 21.833 6.75 21.093C5.468 20.353 5.165 18.253 5.741 15.613C3.167 14.794 1.5 13.48 1.5 12C1.5 10.52 3.167 9.20699 5.741 8.38599C5.165 5.74699 5.468 3.64599 6.75 2.90599C8.032 2.16599 10.003 2.95399 12 4.77299C13.997 2.95399 15.968 2.16699 17.25 2.90699C18.532 3.64699 18.835 5.74699 18.259 8.38699C20.833 9.20599 22.5 10.52 22.5 12C22.5 13.48 20.833 14.793 18.259 15.614H18.258ZM10.938 5.83499C10.6837 5.6048 10.4191 5.38624 10.145 5.17999C8.868 4.22499 7.903 3.97299 7.5 4.20599C7.097 4.43799 6.833 5.39999 7.021 6.98299C7.061 7.30999 7.117 7.64899 7.191 7.99899C7.94553 7.83373 8.70872 7.71087 9.477 7.63099C9.952 6.97799 10.442 6.37699 10.939 5.83499H10.938ZM14.523 7.63099C15.325 7.71499 16.091 7.83999 16.808 7.99899C16.883 7.64899 16.94 7.30899 16.978 6.98299C17.168 5.39999 16.903 4.43799 16.5 4.20599C16.097 3.97299 15.132 4.22499 13.855 5.17999C13.5806 5.38622 13.3156 5.60477 13.061 5.83499C13.558 6.37699 14.048 6.97799 14.523 7.63099ZM12.528 7.50599C12.353 7.29599 12.177 7.09199 12 6.89699C11.823 7.09199 11.647 7.29499 11.472 7.50599C11.824 7.49852 12.176 7.49852 12.528 7.50599ZM8.372 14.704C8.18956 14.4031 8.01352 14.0984 7.844 13.79C7.749 14.047 7.661 14.3 7.581 14.551C7.838 14.607 8.102 14.658 8.371 14.704H8.372ZM10.304 14.938C11.4331 15.0219 12.5669 15.0219 13.696 14.938C14.3332 14.0019 14.9001 13.0199 15.392 12C14.9001 10.9801 14.3332 9.99804 13.696 9.06199C12.5669 8.97813 11.4331 8.97813 10.304 9.06199C9.6668 9.99804 9.09991 10.9801 8.608 12C9.09991 13.0199 9.6668 14.0019 10.304 14.938ZM16.156 10.21C16.251 9.95299 16.339 9.69999 16.419 9.44899C16.1568 9.3921 15.8934 9.34109 15.629 9.29599C15.8111 9.5969 15.9868 9.90164 16.156 10.21ZM6.13 9.83699C5.79 9.94699 5.468 10.067 5.166 10.197C3.701 10.825 3 11.535 3 12C3 12.465 3.7 13.175 5.166 13.803C5.468 13.933 5.79 14.053 6.13 14.163C6.352 13.463 6.627 12.737 6.955 12C6.63982 11.295 6.36439 10.5728 6.13 9.83699ZM7.58 9.44899C7.661 9.69899 7.749 9.95299 7.844 10.209C8.01353 9.90096 8.18957 9.59656 8.372 9.29599C8.102 9.34199 7.838 9.39299 7.581 9.44899H7.58ZM17.87 14.163C18.21 14.053 18.532 13.933 18.834 13.803C20.299 13.175 21 12.465 21 12C21 11.535 20.3 10.825 18.834 10.197C18.5183 10.0625 18.1966 9.94237 17.87 9.83699C17.648 10.537 17.373 11.263 17.045 12C17.373 12.737 17.648 13.462 17.87 14.163ZM16.42 14.551C16.339 14.301 16.251 14.047 16.156 13.791C15.9865 14.099 15.8104 14.4034 15.628 14.704C15.898 14.658 16.162 14.607 16.419 14.551H16.42Z" fill="black"></path>
</symbol>
<symbol viewBox="0 0 24 24" fill="none" id="repeat-clock">
<path d="M12.9651 6C12.6999 6 12.4455 6.10536 12.258 6.2929C12.0705 6.48043 11.9651 6.73479 11.9651 7V12.5C11.9651 12.7652 12.0705 13.0196 12.258 13.2071C12.4455 13.3946 12.6999 13.5 12.9651 13.5H17.9651C18.2303 13.5 18.4847 13.3946 18.6722 13.2071C18.8597 13.0196 18.9651 12.7652 18.9651 12.5C18.9651 12.2348 18.8597 11.9804 18.6722 11.7929C18.4847 11.6054 18.2303 11.5 17.9651 11.5H14.2151C14.1488 11.5 14.0852 11.4737 14.0383 11.4268C13.9914 11.3799 13.9651 11.3163 13.9651 11.25V7C13.9651 6.73479 13.8597 6.48043 13.6722 6.2929C13.4847 6.10536 13.2303 6 12.9651 6Z" fill="black"></path>
<path d="M12.5671 1.258C10.416 1.34378 8.33942 2.06916 6.60279 3.34139C4.86616 4.61363 3.54844 6.3749 2.8181 8.4C2.79863 8.45424 2.76103 8.50009 2.71164 8.5298C2.66226 8.5595 2.60413 8.57123 2.5471 8.563L0.858096 8.309C0.765534 8.29713 0.671488 8.31069 0.586045 8.34821C0.500602 8.38574 0.426987 8.44582 0.373096 8.522C0.320238 8.59948 0.290238 8.69027 0.286525 8.78399C0.282812 8.87771 0.305534 8.97058 0.352096 9.052L3.0311 13.752C3.06915 13.8186 3.12201 13.8755 3.18559 13.9184C3.24916 13.9612 3.32174 13.9889 3.39772 13.9993C3.4737 14.0096 3.55104 14.0023 3.62376 13.978C3.69648 13.9537 3.76263 13.913 3.8171 13.859L7.5871 10.113C7.65311 10.0476 7.69961 9.9652 7.72139 9.87489C7.74317 9.78459 7.73936 9.69001 7.71039 9.60175C7.68142 9.51349 7.62843 9.43504 7.55738 9.37521C7.48632 9.31538 7.4 9.27652 7.3081 9.263L5.5931 9.007C5.5548 9.00143 5.51832 8.98705 5.48653 8.96498C5.45473 8.94292 5.4285 8.91377 5.40989 8.87984C5.39127 8.84591 5.38079 8.80813 5.37927 8.76946C5.37774 8.73079 5.38521 8.69229 5.4011 8.657C5.99674 7.30842 6.94251 6.14385 8.14022 5.28421C9.33793 4.42457 10.7439 3.9012 12.2122 3.76843C13.6805 3.63565 15.1575 3.89832 16.49 4.52916C17.8225 5.16 18.9618 6.13602 19.7897 7.35588C20.6176 8.57574 21.1039 9.99497 21.1981 11.4662C21.2923 12.9375 20.991 14.4071 20.3254 15.7226C19.6598 17.0381 18.6542 18.1514 17.413 18.947C16.1718 19.7426 14.7403 20.1915 13.2671 20.247C12.9356 20.253 12.62 20.3904 12.3898 20.629C12.1596 20.8677 12.0336 21.188 12.0396 21.5195C12.0456 21.851 12.183 22.1666 12.4216 22.3968C12.6603 22.627 12.9806 22.753 13.3121 22.747H13.3591C14.7758 22.7035 16.17 22.3803 17.4614 21.796C18.7528 21.2117 19.9158 20.3778 20.8837 19.3422C21.8516 18.3067 22.6051 17.09 23.101 15.7622C23.5968 14.4343 23.8252 13.0215 23.773 11.6051C23.7208 10.1886 23.389 8.79645 22.7968 7.5087C22.2045 6.22096 21.3634 5.06304 20.3219 4.10158C19.2805 3.14012 18.0592 2.39409 16.7283 1.90642C15.3974 1.41875 13.9832 1.19906 12.5671 1.26V1.258Z" fill="black"></path>
</symbol>
<symbol viewBox="0 0 24 24" fill="none" id="repeat">
<path d="M10.319 4.93601C11.5955 4.63276 12.9303 4.6821 14.1809 5.07876C15.4315 5.47542 16.5507 6.20449 17.419 7.18801C17.6388 7.43626 17.9481 7.58704 18.279 7.6072C18.6099 7.62736 18.9353 7.51524 19.1835 7.29551C19.4318 7.07578 19.5826 6.76643 19.6027 6.43553C19.6229 6.10462 19.5108 5.77925 19.291 5.53101C18.1235 4.20811 16.6184 3.22732 14.9367 2.69346C13.255 2.1596 11.4598 2.09273 9.74302 2.50001C8.00078 2.93744 6.40376 3.82422 5.11139 5.07184C3.81903 6.31946 2.87654 7.88426 2.37802 9.61001C2.36155 9.66716 2.32517 9.71652 2.27546 9.74916C2.22576 9.78181 2.16601 9.79559 2.10702 9.78801L1.07402 9.65801C0.982414 9.64624 0.889342 9.66054 0.805497 9.69928C0.721653 9.73802 0.650434 9.79962 0.600022 9.87701C0.548262 9.95425 0.519063 10.0444 0.515707 10.1373C0.51235 10.2302 0.534969 10.3222 0.581022 10.403L3.05702 14.745C3.09563 14.8125 3.14945 14.8701 3.2142 14.9131C3.27895 14.9562 3.35285 14.9835 3.43002 14.993C3.45066 14.9945 3.47138 14.9945 3.49202 14.993C3.55899 14.993 3.62528 14.9796 3.68695 14.9534C3.74862 14.9273 3.80441 14.8891 3.85102 14.841L7.32802 11.248C7.39274 11.1811 7.43748 11.0974 7.45721 11.0064C7.47694 10.9154 7.47087 10.8207 7.43969 10.733C7.4085 10.6453 7.35345 10.568 7.28071 10.5099C7.20798 10.4517 7.12047 10.4151 7.02802 10.404L5.15002 10.172C5.11316 10.1668 5.07793 10.1534 5.0469 10.1329C5.01586 10.1123 4.98981 10.0851 4.97065 10.0532C4.95148 10.0213 4.93968 9.98548 4.93611 9.94843C4.93255 9.91138 4.9373 9.87399 4.95002 9.83901C5.37187 8.64276 6.0827 7.56925 7.01936 6.71389C7.95602 5.85852 9.08949 5.24781 10.319 4.93601Z" fill="black"></path>
<path d="M23.406 14.1C23.4572 14.0224 23.4857 13.9321 23.4883 13.8391C23.491 13.7462 23.4677 13.6544 23.421 13.574L20.921 9.24501C20.8819 9.17783 20.8276 9.1207 20.7625 9.07817C20.6974 9.03564 20.6233 9.00888 20.546 9.00001C20.4689 8.98988 20.3905 8.9983 20.3172 9.02456C20.244 9.05082 20.1781 9.09417 20.125 9.15101L16.669 12.765C16.6049 12.832 16.5606 12.9155 16.5413 13.0062C16.5219 13.0969 16.5281 13.1912 16.5592 13.2786C16.5903 13.3659 16.6451 13.4429 16.7175 13.5009C16.7899 13.5589 16.877 13.5957 16.969 13.607L18.817 13.828C18.8544 13.8324 18.8903 13.8452 18.922 13.8655C18.9536 13.8858 18.9803 13.913 19 13.945C19.0197 13.977 19.0319 14.0131 19.0359 14.0504C19.0399 14.0878 19.0355 14.1256 19.023 14.161C18.6017 15.3572 17.891 16.4307 16.9542 17.2856C16.0174 18.1406 14.8837 18.7505 13.654 19.061C12.3775 19.3637 11.0427 19.314 9.7922 18.9172C8.54171 18.5204 7.42248 17.7914 6.55402 16.808C6.44655 16.6808 6.31473 16.5763 6.1663 16.5007C6.01788 16.4251 5.85585 16.3799 5.68972 16.3679C5.5236 16.3558 5.35674 16.377 5.19894 16.4303C5.04114 16.4836 4.89559 16.568 4.77083 16.6783C4.64608 16.7887 4.54464 16.9229 4.47247 17.073C4.4003 17.2231 4.35887 17.3861 4.35059 17.5525C4.34232 17.7188 4.36738 17.8852 4.42429 18.0417C4.48121 18.1982 4.56883 18.3418 4.68202 18.464C5.84996 19.7866 7.35525 20.7672 9.0371 21.3008C10.7189 21.8345 12.5142 21.9013 14.231 21.494C15.9755 21.0571 17.5746 20.1693 18.8679 18.9197C20.1612 17.6701 21.1034 16.1025 21.6 14.374C21.6166 14.3171 21.6529 14.2679 21.7023 14.2351C21.7517 14.2024 21.8111 14.1881 21.87 14.195L22.928 14.322C22.948 14.3234 22.9681 14.3234 22.988 14.322C23.0706 14.3224 23.152 14.3023 23.225 14.2636C23.2979 14.2249 23.3601 14.1687 23.406 14.1Z" fill="black"></path>
</symbol>
<symbol viewBox="0 0 24 24" fill="none" id="search">
<g clip-path="url(#clip0_1923_10241)">
<path d="M23.3841 21.619L16.8551 15.09C18.2802 13.2166 18.9406 10.8719 18.7025 8.53013C18.4645 6.18838 17.3459 4.02447 15.5729 2.47618C13.8 0.927891 11.5052 0.110828 9.1527 0.190295C6.80022 0.269761 4.56575 1.23982 2.90135 2.90422C1.23695 4.56862 0.266893 6.80309 0.187426 9.15557C0.10796 11.508 0.925022 13.8029 2.47331 15.5758C4.0216 17.3487 6.18551 18.4674 8.52726 18.7054C10.869 18.9434 13.2138 18.2831 15.0871 16.858L21.6161 23.387C21.8526 23.6176 22.1698 23.7467 22.5001 23.7467C22.8304 23.7467 23.1477 23.6176 23.3841 23.387C23.6184 23.1524 23.7499 22.8345 23.7499 22.503C23.7499 22.1715 23.6184 21.8535 23.3841 21.619ZM2.75012 9.49999C2.75012 8.16497 3.146 6.85992 3.8877 5.74989C4.6294 4.63986 5.68361 3.7747 6.91701 3.2638C8.15041 2.75291 9.50761 2.61924 10.817 2.87969C12.1264 3.14014 13.3291 3.78302 14.2731 4.72702C15.2171 5.67102 15.86 6.87376 16.1204 8.18313C16.3809 9.4925 16.2472 10.8497 15.7363 12.0831C15.2254 13.3165 14.3603 14.3707 13.2502 15.1124C12.1402 15.8541 10.8351 16.25 9.50012 16.25C7.71056 16.2479 5.9949 15.536 4.72949 14.2706C3.46408 13.0052 2.75224 11.2896 2.75012 9.49999Z" fill="black"></path>
</g>
<defs>
<clipPath id="clip0_1923_10241">
<rect width="24" height="24" fill="white"></rect>
</clipPath>
</defs>
</symbol>
<symbol viewBox="0 0 24 24" fill="none" id="search2">
<g clip-path="url(#clip0_1923_10246)">
<path d="M23.414 20.591L18.769 15.946C20.1833 13.8289 20.7596 11.2613 20.3857 8.74284C20.0118 6.22435 18.7145 3.93496 16.7461 2.32001C14.7777 0.705056 12.279 -0.119999 9.73603 0.00533155C7.19302 0.130662 4.78754 1.19742 2.9875 2.99809C1.18746 4.79877 0.121559 7.20462 -0.00287252 9.74767C-0.127304 12.2907 0.698635 14.7891 2.31428 16.757C3.92993 18.7248 6.21978 20.0213 8.7384 20.3942C11.257 20.7672 13.8243 20.1901 15.941 18.775L20.586 23.419C20.9642 23.7879 21.4716 23.9944 22 23.9944C22.5283 23.9944 23.0358 23.7879 23.414 23.419C23.7889 23.0439 23.9996 22.5353 23.9996 22.005C23.9996 21.4747 23.7889 20.966 23.414 20.591ZM10.25 3.00499C11.6839 3.00499 13.0856 3.4302 14.2779 4.22684C15.4701 5.02348 16.3994 6.15577 16.9481 7.48054C17.4968 8.8053 17.6404 10.263 17.3607 11.6694C17.0809 13.0758 16.3904 14.3676 15.3765 15.3815C14.3626 16.3954 13.0707 17.0859 11.6644 17.3657C10.258 17.6454 8.80029 17.5019 7.47553 16.9531C6.15076 16.4044 5.01847 15.4751 4.22183 14.2829C3.42519 13.0906 2.99998 11.6889 2.99998 10.255C3.0021 8.33282 3.76662 6.48999 5.1258 5.13081C6.48498 3.77163 8.32781 3.00711 10.25 3.00499Z" fill="black"></path>
</g>
<defs>
<clipPath id="clip0_1923_10246">
<rect width="24" height="24" fill="white"></rect>
</clipPath>
</defs>
</symbol>
<symbol viewBox="0 0 24 24" fill="none" id="settings">
<path d="M19 12.77V11.17L17.06 10.53L16.61 9.44001L17.49 7.60001L16.36 6.47001L14.55 7.38001L13.46 6.93001L12.77 5.01001H11.17L10.54 6.95001L9.43 7.40001L7.59 6.52001L6.46 7.65001L7.37 9.46001L6.92 10.55L5 11.23V12.82L6.94 13.46L7.39 14.55L6.51 16.39L7.64 17.52L9.45 16.61L10.54 17.06L11.23 18.98H12.82L13.45 17.04L14.56 16.59L16.4 17.47L17.53 16.34L16.61 14.53L17.08 13.44L19 12.75V12.77ZM12 15C10.34 15 9 13.66 9 12C9 10.34 10.34 9.00001 12 9.00001C13.66 9.00001 15 10.34 15 12C15 13.66 13.66 15 12 15Z" fill="black"></path>
</symbol>
<symbol viewBox="0 0 24 24" fill="none" id="small-add">
<path fill-rule="evenodd" clip-rule="evenodd" d="M16 11H13V8C13 7.45 12.55 7 12 7C11.45 7 11 7.45 11 8V11H8C7.45 11 7 11.45 7 12C7 12.55 7.45 13 8 13H11V16C11 16.55 11.45 17 12 17C12.55 17 13 16.55 13 16V13H16C16.55 13 17 12.55 17 12C17 11.45 16.55 11 16 11Z" fill="black"></path>
</symbol>
<symbol viewBox="0 0 24 24" fill="none" id="small-close">
<path fill-rule="evenodd" clip-rule="evenodd" d="M13.4099 12L15.6999 9.71C15.8899 9.53 15.9999 9.28 15.9999 9C15.9997 8.80202 15.9408 8.60855 15.8307 8.44396C15.7207 8.27938 15.5644 8.15104 15.3816 8.07512C15.1987 7.9992 14.9975 7.9791 14.8032 8.01734C14.609 8.05557 14.4304 8.15045 14.2899 8.29L11.9999 10.59L9.70994 8.29C9.52164 8.1017 9.26624 7.99591 8.99994 7.99591C8.73364 7.99591 8.47824 8.1017 8.28994 8.29C8.10164 8.47831 7.99585 8.7337 7.99585 9C7.99585 9.2663 8.10164 9.5217 8.28994 9.71L10.5899 12L8.29994 14.29C8.10994 14.47 7.99994 14.72 7.99994 15C8.00023 15.198 8.0591 15.3915 8.16914 15.556C8.27919 15.7206 8.43548 15.849 8.61832 15.9249C8.80117 16.0008 9.0024 16.0209 9.19666 15.9827C9.39091 15.9444 9.56951 15.8496 9.70994 15.71L11.9999 13.41L14.2899 15.7C14.4699 15.89 14.7199 16 14.9999 16C15.1979 15.9997 15.3914 15.9408 15.556 15.8308C15.7206 15.7208 15.8489 15.5645 15.9248 15.3816C16.0007 15.1988 16.0208 14.9975 15.9826 14.8033C15.9444 14.609 15.8495 14.4304 15.7099 14.29L13.4099 12Z" fill="black"></path>
</symbol>
<symbol viewBox="0 0 24 24" fill="none" id="spinner">
<g clip-path="url(#clip0_1923_10250)">
<path d="M12 22C17.5228 22 22 17.5228 22 12C22 6.47715 17.5228 2 12 2C6.47715 2 2 6.47715 2 12C2 17.5228 6.47715 22 12 22Z" stroke="url(#paint0_linear_1923_10250)" stroke-width="4"></path>
<path fill-rule="evenodd" clip-rule="evenodd" d="M12 0C5.37243 0 0 5.37243 0 12H4C4 7.58157 7.58157 4 12 4C13.1046 4 14 3.10457 14 2C14 0.89543 13.1046 0 12 0Z" fill="black"></path>
</g>
<defs>
<linearGradient id="paint0_linear_1923_10250" x1="7.6308" y1="14.748" x2="16.9258" y2="5.5566" gradientUnits="userSpaceOnUse">
<stop></stop>
<stop offset="1" stop-color="white" stop-opacity="0"></stop>
</linearGradient>
<clipPath id="clip0_1923_10250">
<rect width="24" height="24" fill="white"></rect>
</clipPath>
</defs>
</symbol>
<symbol viewBox="0 0 24 24" fill="none" id="star">
<path d="M19.7988 9.77435C19.7261 9.57896 19.5955 9.41041 19.4245 9.2912C19.2534 9.17198 19.0501 9.10778 18.8416 9.10716H14.6976C14.627 9.10721 14.5582 9.08536 14.5007 9.04463C14.4431 9.0039 14.3996 8.94629 14.3762 8.87978L12.8887 4.66356C12.8158 4.46868 12.6852 4.30072 12.5142 4.18213C12.3433 4.06354 12.1402 4 11.9321 4C11.7241 4 11.521 4.06354 11.3501 4.18213C11.1791 4.30072 11.0485 4.46868 10.9756 4.66356L10.9722 4.67445L9.48805 8.87978C9.46467 8.94618 9.42129 9.00371 9.36386 9.04443C9.30643 9.08516 9.23779 9.10707 9.16739 9.10716H5.02197C4.81216 9.10701 4.60739 9.17148 4.43552 9.29181C4.26364 9.41214 4.133 9.5825 4.06137 9.7797C3.98973 9.9769 3.98058 10.1914 4.03515 10.394C4.08972 10.5966 4.20536 10.7774 4.36636 10.912L7.89565 13.8394C7.94844 13.8832 7.98676 13.942 8.00559 14.0079C8.02442 14.0739 8.02288 14.144 8.00117 14.2091L6.51838 18.6554C6.44985 18.861 6.4485 19.0831 6.51452 19.2895C6.58053 19.4959 6.71049 19.6759 6.8856 19.8036C7.06071 19.9312 7.27189 19.9999 7.48859 19.9996C7.70529 19.9993 7.91628 19.9301 8.09104 19.8019L11.7306 17.1332C11.789 17.0904 11.8594 17.0674 11.9318 17.0674C12.0041 17.0674 12.0746 17.0904 12.133 17.1332L15.7712 19.8012C15.9459 19.9298 16.1569 19.9994 16.3738 20C16.5907 20.0006 16.8022 19.9321 16.9776 19.8044C17.1529 19.6768 17.2831 19.4966 17.3492 19.29C17.4153 19.0834 17.4139 18.8612 17.3452 18.6554L15.8624 14.2064C15.8407 14.1413 15.8392 14.0712 15.858 14.0052C15.8768 13.9393 15.9151 13.8805 15.9679 13.8367L19.504 10.9052C19.663 10.7695 19.7765 10.5883 19.8292 10.3861C19.8819 10.1839 19.8713 9.97036 19.7988 9.77435Z" fill="black"></path>
</symbol>
<symbol viewBox="0 0 24 24" fill="none" id="sun">
<g clip-path="url(#clip0_1923_10233)">
<path d="M12 1V3M12 21V23M4.22 4.22L5.64 5.64M18.36 18.36L19.78 19.78M1 12H3M21 12H23M4.22 19.78L5.64 18.36M18.36 5.64L19.78 4.22M17 12C17 14.7614 14.7614 17 12 17C9.23858 17 7 14.7614 7 12C7 9.23858 9.23858 7 12 7C14.7614 7 17 9.23858 17 12Z" stroke="black" stroke-width="2" stroke-linecap="round" stroke-linejoin="round"></path>
</g>
<defs>
<clipPath id="clip0_1923_10233">
<rect width="24" height="24" fill="white"></rect>
</clipPath>
</defs>
</symbol>
<symbol viewBox="0 0 24 24" fill="none" id="time">
<g clip-path="url(#clip0_1923_10248)">
<path d="M12 0C9.62663 0 7.30655 0.703788 5.33316 2.02236C3.35977 3.34094 1.8217 5.21509 0.913451 7.4078C0.00519943 9.60051 -0.232441 12.0133 0.230582 14.3411C0.693605 16.6689 1.83649 18.8071 3.51472 20.4853C5.19295 22.1635 7.33115 23.3064 9.65892 23.7694C11.9867 24.2324 14.3995 23.9948 16.5922 23.0866C18.7849 22.1783 20.6591 20.6402 21.9776 18.6668C23.2962 16.6935 24 14.3734 24 12C23.9963 8.81854 22.7308 5.76845 20.4812 3.51881C18.2316 1.26918 15.1815 0.00370522 12 0ZM12 22C10.0222 22 8.08879 21.4135 6.4443 20.3147C4.79981 19.2159 3.51809 17.6541 2.76121 15.8268C2.00433 13.9996 1.8063 11.9889 2.19215 10.0491C2.578 8.10929 3.53041 6.32746 4.92894 4.92893C6.32746 3.53041 8.10929 2.578 10.0491 2.19215C11.9889 1.8063 13.9996 2.00433 15.8268 2.7612C17.6541 3.51808 19.2159 4.79981 20.3147 6.4443C21.4135 8.08879 22 10.0222 22 12C21.9971 14.6513 20.9426 17.1931 19.0679 19.0679C17.1931 20.9426 14.6513 21.9971 12 22Z" fill="black"></path>
<path d="M17.134 15.81L12.5 11.561V6.5C12.5 6.23478 12.3946 5.98043 12.2071 5.79289C12.0196 5.60536 11.7652 5.5 11.5 5.5C11.2348 5.5 10.9804 5.60536 10.7929 5.79289C10.6054 5.98043 10.5 6.23478 10.5 6.5V12C10.4999 12.1388 10.5286 12.276 10.5844 12.4031C10.6401 12.5301 10.7218 12.6442 10.824 12.738L15.783 17.283C15.9796 17.4598 16.2378 17.5525 16.502 17.5411C16.7662 17.5297 17.0154 17.4151 17.196 17.222C17.3749 17.0265 17.4688 16.7679 17.4572 16.5032C17.4456 16.2384 17.3293 15.9891 17.134 15.81Z" fill="black"></path>
</g>
<defs>
<clipPath id="clip0_1923_10248">
<rect width="24" height="24" fill="white"></rect>
</clipPath>
</defs>
</symbol>
<symbol viewBox="0 0 24 24" fill="none" id="triangle-down">
<path d="M20.9999 5H2.99993C2.62093 5 2.27493 5.214 2.10493 5.553C1.93693 5.892 1.97293 6.297 2.19993 6.6L11.1999 18.6C11.3879 18.852 11.6849 19 11.9999 19C12.3149 19 12.6109 18.852 12.7999 18.6L21.7999 6.6C22.0279 6.297 22.0639 5.892 21.8949 5.553C21.7249 5.214 21.3789 5 20.9999 5Z" fill="black"></path>
</symbol>
<symbol viewBox="0 0 24 24" fill="none" id="triangle-up">
<path d="M12.7999 5.39997C12.4229 4.89597 11.5769 4.89597 11.1999 5.39997L2.19993 17.4C1.97193 17.703 1.93593 18.108 2.10493 18.447C2.27493 18.786 2.62093 19 2.99993 19H20.9999C21.3789 19 21.7249 18.786 21.8949 18.447C22.0639 18.108 22.0279 17.703 21.7999 17.4L12.7999 5.39997Z" fill="black"></path>
</symbol>
<symbol viewBox="0 0 24 24" fill="none" id="unlock">
<path d="M17.4588 10.5204H16.865V8.34328C16.8647 7.06044 16.4029 5.82052 15.5641 4.84993C14.7253 3.87933 13.5653 3.24282 12.2961 3.05662C11.0268 2.87041 9.73295 3.14693 8.65069 3.8357C7.56843 4.52446 6.77001 5.57951 6.40121 6.80819C6.36393 6.93269 6.35155 7.06331 6.36476 7.1926C6.37797 7.32189 6.41651 7.4473 6.47819 7.56169C6.53987 7.67608 6.62348 7.77721 6.72424 7.85929C6.825 7.94136 6.94094 8.00279 7.06544 8.04007C7.18994 8.07734 7.32056 8.08972 7.44985 8.07651C7.57913 8.0633 7.70455 8.02476 7.81894 7.96308C7.93333 7.9014 8.03445 7.81779 8.11653 7.71703C8.19861 7.61627 8.26004 7.50033 8.29731 7.37583C8.52983 6.60243 9.03271 5.93842 9.71417 5.50501C10.3956 5.07159 11.2102 4.89768 12.0092 5.01501C12.8083 5.13234 13.5385 5.53309 14.0666 6.14411C14.5947 6.75513 14.8854 7.53568 14.8858 8.34328V10.1246C14.8858 10.2296 14.8441 10.3303 14.7698 10.4045C14.6956 10.4787 14.5949 10.5204 14.4899 10.5204H5.58339C5.16345 10.5204 4.76071 10.6873 4.46376 10.9842C4.16682 11.2811 4 11.6839 4 12.1038V20.4166C4 20.8366 4.16682 21.2393 4.46376 21.5362C4.76071 21.8332 5.16345 22 5.58339 22H17.4588C17.8787 22 18.2815 21.8332 18.5784 21.5362C18.8754 21.2393 19.0422 20.8366 19.0422 20.4166V12.1038C19.0422 11.6839 18.8754 11.2811 18.5784 10.9842C18.2815 10.6873 17.8787 10.5204 17.4588 10.5204ZM9.9377 15.2706C9.93645 14.9924 10.0085 14.7187 10.1467 14.4772C10.2849 14.2357 10.4842 14.0348 10.7247 13.8949C10.9652 13.7549 11.2384 13.6809 11.5166 13.6801C11.7948 13.6793 12.0684 13.7518 12.3097 13.8904C12.5509 14.029 12.7514 14.2287 12.891 14.4694C13.0305 14.7102 13.1041 14.9834 13.1045 15.2616C13.1048 15.5399 13.0318 15.8133 12.8928 16.0544C12.7538 16.2954 12.5538 16.4956 12.3128 16.6347V18.4374C12.3128 18.6473 12.2294 18.8487 12.0809 18.9972C11.9324 19.1457 11.7311 19.2291 11.5211 19.2291C11.3111 19.2291 11.1098 19.1457 10.9613 18.9972C10.8128 18.8487 10.7294 18.6473 10.7294 18.4374V16.6347C10.4894 16.4967 10.2899 16.298 10.151 16.0586C10.012 15.8192 9.93848 15.5474 9.9377 15.2706Z" fill="black"></path>
</symbol>
<symbol viewBox="0 0 24 24" fill="none" id="up-down">
<path d="M11.5001 7.00002L11.9881 6.43057L11.5001 6.01221L11.012 6.43057L11.5001 7.00002ZM11.5001 16L11.012 16.5695L11.5001 16.9878L11.9881 16.5695L11.5001 16ZM8.48815 10.5695L11.9881 7.56946L11.012 6.43057L7.51196 9.43058L8.48815 10.5695ZM11.012 7.56946L14.512 10.5695L15.4881 9.43058L11.9881 6.43057L11.012 7.56946ZM7.51196 13.5695L11.012 16.5695L11.9881 15.4306L8.48815 12.4306L7.51196 13.5695ZM11.9881 16.5695L15.4881 13.5695L14.512 12.4306L11.012 15.4306L11.9881 16.5695Z" fill="black"></path>
</symbol>
<symbol viewBox="0 0 24 24" fill="none" id="view-off">
<path fill-rule="evenodd" clip-rule="evenodd" d="M17.8677 7.86097C19.2187 8.71326 20.449 9.74329 21.5256 10.9234C21.8301 11.2614 21.999 11.6999 22.0001 12.1549C22.0012 12.6098 21.8344 13.0491 21.5316 13.3886C19.3521 15.7841 15.7513 18.3225 12.1308 18.3225H11.8756C10.6128 18.3006 9.36673 18.0291 8.20921 17.5237L4.68234 21.0506C4.54319 21.1893 4.36034 21.2755 4.16484 21.2947C3.96933 21.3138 3.77322 21.2647 3.6098 21.1557C3.44639 21.0467 3.32573 20.8845 3.26833 20.6966C3.21093 20.5088 3.22031 20.3068 3.2949 20.1251C3.29856 20.1214 3.30271 20.1192 3.30683 20.1171C3.31036 20.1152 3.31387 20.1134 3.31701 20.1106L19.9051 3.52256C19.9727 3.45258 20.0231 3.36783 20.0522 3.27501L20.0676 3.2597C20.146 3.17845 20.2399 3.11365 20.3437 3.06906C20.4475 3.02448 20.5591 3.00101 20.672 3.00003C20.785 2.99905 20.897 3.02057 21.0015 3.06335C21.1061 3.10612 21.2011 3.16928 21.2809 3.24916C21.3608 3.32903 21.424 3.42401 21.4667 3.52855C21.5095 3.63309 21.531 3.74511 21.5301 3.85806C21.5291 3.97101 21.5056 4.08264 21.461 4.18642C21.4165 4.29021 21.3516 4.38407 21.2704 4.46255L17.8677 7.86097ZM14.7089 14.8409C15.1534 14.3921 15.4823 13.8421 15.667 13.2381C15.9321 12.3786 15.8712 11.4516 15.4961 10.6342C15.4811 10.6032 15.4589 10.5762 15.4314 10.5556C15.4038 10.535 15.3717 10.5213 15.3378 10.5157C15.3038 10.5101 15.269 10.5128 15.2363 10.5235C15.2036 10.5342 15.1739 10.5526 15.1498 10.5772L10.4201 15.306C10.3957 15.3303 10.3775 15.36 10.367 15.3927C10.3565 15.4254 10.3539 15.4602 10.3596 15.4941C10.3653 15.528 10.379 15.56 10.3996 15.5875C10.4201 15.6151 10.447 15.6373 10.478 15.6523C11.3061 16.0328 12.2466 16.0904 13.115 15.8139C13.7173 15.6235 14.2643 15.2896 14.7089 14.8409ZM8.32155 13.2536C8.31243 13.2895 8.29386 13.3223 8.26778 13.3486L5.67749 15.9432C5.64142 15.979 5.59394 16.0011 5.54329 16.0056C5.49264 16.0101 5.44201 15.9967 5.40018 15.9678C4.33508 15.2168 3.35449 14.3526 2.47557 13.3903C2.16854 13.0525 1.9989 12.6121 2.00001 12.1557C2.00111 11.6992 2.17286 11.2596 2.48153 10.9234C4.68221 8.4998 8.34009 5.94099 11.998 5.99033C12.9336 5.98505 13.8641 6.12803 14.755 6.41396C14.79 6.42551 14.8216 6.44584 14.8465 6.47303C14.8715 6.50021 14.8891 6.53334 14.8976 6.56925C14.9061 6.60516 14.9053 6.64266 14.8953 6.67817C14.8852 6.71368 14.8662 6.74601 14.8401 6.77209L13.1889 8.42409C13.1627 8.45032 13.1299 8.46904 13.094 8.47832C13.0581 8.48759 13.0204 8.48708 12.9847 8.47683C12.6641 8.38269 12.3321 8.33317 11.998 8.32967C10.9827 8.32967 10.009 8.73298 9.29115 9.45087C8.57326 10.1688 8.16996 11.1424 8.16996 12.1577C8.1747 12.4919 8.22507 12.8239 8.31967 13.1445C8.33003 13.18 8.33068 13.2177 8.32155 13.2536Z" fill="black"></path>
</symbol>
<symbol viewBox="0 0 24 24" fill="none" id="view">
<path d="M23.4319 10.524C20.7869 7.61401 16.3999 4.53801 11.9999 4.60001C7.5999 4.53701 3.2129 7.61501 0.567901 10.524C0.20533 10.9294 0.00488281 11.4542 0.00488281 11.998C0.00488281 12.5419 0.20533 13.0666 0.567901 13.472C3.1819 16.351 7.5069 19.4 11.8389 19.4H12.1469C16.4939 19.4 20.8179 16.351 23.4349 13.471C23.797 13.0654 23.9969 12.5406 23.9963 11.9969C23.9958 11.4533 23.7948 10.9288 23.4319 10.524ZM7.3999 12C7.3999 11.0902 7.66969 10.2009 8.17514 9.44439C8.68059 8.68792 9.39902 8.09833 10.2396 7.75017C11.0801 7.402 12.005 7.31091 12.8973 7.4884C13.7896 7.66589 14.6093 8.104 15.2526 8.74732C15.8959 9.39064 16.334 10.2103 16.5115 11.1026C16.689 11.9949 16.5979 12.9198 16.2497 13.7604C15.9016 14.6009 15.312 15.3193 14.5555 15.8248C13.7991 16.3302 12.9097 16.6 11.9999 16.6C10.7799 16.6 9.60988 16.1154 8.74721 15.2527C7.88454 14.39 7.3999 13.22 7.3999 12Z" fill="black"></path>
<path d="M11.9999 14C13.1045 14 13.9999 13.1046 13.9999 12C13.9999 10.8954 13.1045 10 11.9999 10C10.8953 10 9.9999 10.8954 9.9999 12C9.9999 13.1046 10.8953 14 11.9999 14Z" fill="black"></path>
</symbol>
<symbol viewBox="0 0 24 24" fill="none" id="warning-two">
<path d="M23.1189 20L13.7719 2.15001C13.6025 1.82675 13.3479 1.55601 13.0356 1.3671C12.7234 1.1782 12.3654 1.07834 12.0004 1.07834C11.6355 1.07834 11.2775 1.1782 10.9652 1.3671C10.6529 1.55601 10.3983 1.82675 10.2289 2.15001L0.880918 20C0.721239 20.3049 0.642922 20.6458 0.65354 20.9897C0.664159 21.3337 0.763354 21.6691 0.941533 21.9635C1.11971 22.2579 1.37085 22.5014 1.67065 22.6704C1.97045 22.8393 2.30878 22.9281 2.65292 22.928H21.3469C21.6911 22.9281 22.0294 22.8393 22.3292 22.6704C22.629 22.5014 22.8801 22.2579 23.0583 21.9635C23.2365 21.6691 23.3357 21.3337 23.3463 20.9897C23.3569 20.6458 23.2786 20.3049 23.1189 20ZM10.9999 8.42301C10.9999 8.1578 11.1053 7.90344 11.2928 7.71591C11.4803 7.52837 11.7347 7.42301 11.9999 7.42301C12.2651 7.42301 12.5195 7.52837 12.707 7.71591C12.8946 7.90344 12.9999 8.1578 12.9999 8.42301V14.423C12.9999 14.6882 12.8946 14.9426 12.707 15.1301C12.5195 15.3177 12.2651 15.423 11.9999 15.423C11.7347 15.423 11.4803 15.3177 11.2928 15.1301C11.1053 14.9426 10.9999 14.6882 10.9999 14.423V8.42301ZM12.0499 19.933H12.0219C11.6276 19.9317 11.249 19.7781 10.9653 19.5041C10.6816 19.2301 10.5149 18.8571 10.4999 18.463C10.4927 18.267 10.5246 18.0716 10.5938 17.888C10.663 17.7045 10.7681 17.5366 10.9029 17.3942C11.0377 17.2518 11.1996 17.1376 11.379 17.0584C11.5584 16.9792 11.7518 16.9366 11.9479 16.933H11.9759C12.3702 16.9335 12.749 17.0864 13.0331 17.3599C13.3171 17.6333 13.4844 18.006 13.4999 18.4C13.5077 18.5965 13.4761 18.7925 13.407 18.9765C13.3379 19.1606 13.2327 19.329 13.0977 19.4718C12.9626 19.6146 12.8003 19.729 12.6204 19.8082C12.4404 19.8874 12.2465 19.9298 12.0499 19.933Z" fill="black"></path>
</symbol>
<symbol viewBox="0 0 24 24" fill="none" id="warning">
<path d="M11.986 2.00223C9.31431 2.04597 6.76715 3.13937 4.89514 5.04606C3.95848 5.9786 3.21945 7.09042 2.72223 8.31506C2.22502 9.53971 1.97982 10.852 2.0013 12.1736C1.99976 13.4649 2.25307 14.7439 2.74672 15.9372C3.24036 17.1304 3.96463 18.2145 4.87802 19.1274C5.79141 20.0402 6.87596 20.7639 8.06952 21.2568C9.26308 21.7497 10.5422 22.0023 11.8335 22H12.0118C14.6843 21.9725 17.2368 20.8859 19.1092 18.9788C20.9815 17.0716 22.0208 14.4995 21.9991 11.827C22.0021 10.52 21.7438 9.22552 21.2393 8.0198C20.7349 6.81407 19.9944 5.72139 19.0615 4.806C18.1285 3.89062 17.022 3.17102 15.8069 2.68952C14.5918 2.20802 13.2927 1.97435 11.986 2.00223ZM10.7503 15.7857C10.7443 15.6223 10.7709 15.4594 10.8286 15.3064C10.8863 15.1534 10.974 15.0135 11.0864 14.8948C11.1988 14.7761 11.3338 14.681 11.4834 14.6151C11.633 14.5491 11.7942 14.5137 11.9577 14.5108H11.9802C12.309 14.5115 12.6248 14.6394 12.8614 14.8677C13.0979 15.096 13.2369 15.4071 13.2492 15.7357C13.2553 15.8991 13.2288 16.0621 13.1711 16.2151C13.1134 16.3681 13.0258 16.5081 12.9134 16.6268C12.8009 16.7455 12.6659 16.8406 12.5163 16.9065C12.3666 16.9724 12.2053 17.0078 12.0418 17.0105H12.0193C11.6907 17.0095 11.3751 16.8815 11.1386 16.6532C10.9021 16.4249 10.763 16.1141 10.7503 15.7857ZM11.1669 12.4177V7.41829C11.1669 7.1973 11.2547 6.98536 11.411 6.8291C11.5672 6.67284 11.7792 6.58505 12.0002 6.58505C12.2212 6.58505 12.4331 6.67284 12.5894 6.8291C12.7456 6.98536 12.8334 7.1973 12.8334 7.41829V12.4177C12.8334 12.6387 12.7456 12.8507 12.5894 13.0069C12.4331 13.1632 12.2212 13.251 12.0002 13.251C11.7792 13.251 11.5672 13.1632 11.411 13.0069C11.2547 12.8507 11.1669 12.6387 11.1669 12.4177Z" fill="black"></path>
</symbol>
</defs>
</svg>
