<?xml version="1.0" encoding="UTF-8"?>
<svg xmlns="http://www.w3.org/2000/svg" xmlns:xlink="http://www.w3.org/1999/xlink" viewBox="0 0 0 0" width="0" height="0">
<defs>
<symbol id="add">
  <path fill="currentColor" d="M11 11V5h2v6h6v2h-6v6h-2v-6H5v-2z"></path>
</symbol>
<symbol id="arrow-back">
  <path fill="currentColor" d="M20 11H7.83l5.59-5.59L12 4l-8 8 8 8 1.41-1.41L7.83 13H20z"></path>
</symbol>
<symbol id="arrow-down">
  <path fill="currentColor" d="m20 12-1.41-1.41L13 16.17V4h-2v12.17l-5.58-5.59L4 12l8 8z"></path>
</symbol>
<symbol id="arrow-forward">
  <path fill="currentColor" d="m12 4-1.41 1.41L16.17 11H4v2h12.17l-5.58 5.59L12 20l8-8z"></path>
</symbol>
<symbol id="arrow-left">
  <path fill="currentColor" d="M10.973 12a1.55 1.55 0 0 1 .455-1.102l5.606-5.606a1.039 1.039 0 0 1 1.47 1.47l-5.136 5.134a.146.146 0 0 0 0 .208l5.135 5.135a1.039 1.039 0 0 1-1.469 1.469l-5.606-5.606A1.55 1.55 0 0 1 10.973 12"></path>
  <path fill="currentColor" d="M5 12a1.55 1.55 0 0 1 .455-1.102l5.606-5.606a1.039 1.039 0 0 1 1.47 1.47l-5.136 5.134a.147.147 0 0 0 0 .208l5.135 5.135a1.039 1.039 0 0 1-1.469 1.469l-5.606-5.606A1.55 1.55 0 0 1 5 12"></path>
</symbol>
<symbol id="arrow-right">
  <path fill="currentColor" d="M12.823 12a1.55 1.55 0 0 1-.456 1.102l-5.606 5.606a1.039 1.039 0 0 1-1.469-1.47l5.135-5.134a.146.146 0 0 0 0-.208L5.292 6.761a1.039 1.039 0 0 1 1.47-1.469l5.605 5.606A1.55 1.55 0 0 1 12.823 12"></path>
  <path fill="currentColor" d="M18.796 12a1.55 1.55 0 0 1-.456 1.102l-5.605 5.606a1.039 1.039 0 0 1-1.47-1.47l5.135-5.134a.147.147 0 0 0 0-.208l-5.134-5.135a1.039 1.039 0 0 1 1.469-1.469l5.605 5.606A1.56 1.56 0 0 1 18.796 12"></path>
</symbol>
<symbol id="arrow-up-down">
  <path fill="currentColor" d="M15.89 13.992a1.001 1.001 0 0 1 1.417 1.415l-4.3 4.3a1 1 0 0 1-1.414 0l-4.3-4.3a1.001 1.001 0 0 1 1.417-1.415l3.59 3.591zm0-3.984L12.3 6.417l-3.591 3.591a1 1 0 1 1-1.416-1.415l4.3-4.3a1 1 0 0 1 1.414 0l4.3 4.3a1.002 1.002 0 0 1-1.416 1.415"></path>
</symbol>
<symbol id="arrow-up">
  <path fill="currentColor" d="m4 12 1.41 1.41L11 7.83V20h2V7.83l5.58 5.59L20 12l-8-8z"></path>
</symbol>
<symbol id="at-sign">
  <g clip-path="url(#clip0_1923_10102)">
    <path fill="currentColor" d="M12 .5A11.634 11.634 0 0 0 .262 12 11.634 11.634 0 0 0 12 23.5a11.84 11.84 0 0 0 6.624-2 1.25 1.25 0 0 0-1.393-2.076A9.34 9.34 0 0 1 12 21a9.13 9.13 0 0 1-9.238-9A9.13 9.13 0 0 1 12 3a9.13 9.13 0 0 1 9.238 9v.891a1.943 1.943 0 0 1-3.884 0V12a5.355 5.355 0 1 0-3.258 4.836 5.4 5.4 0 0 0 1.765-1.209 4.437 4.437 0 0 0 7.877-2.736V12A11.634 11.634 0 0 0 12 .5m0 14.261A2.763 2.763 0 1 1 14.854 12 2.81 2.81 0 0 1 12 14.761"></path>
  </g>
  <defs>
    <clipPath id="clip0_1923_10102">
      <path fill="currentColor" d="M0 0h24v24H0z"></path>
    </clipPath>
  </defs>
</symbol>
<symbol id="attachment">
  <path fill="currentColor" d="M21.843 3.455a6.96 6.96 0 0 0-9.846 0L1.619 13.832a5.128 5.128 0 0 0 7.252 7.252l8.429-8.431A3.292 3.292 0 1 0 12.646 8l-5.189 5.184A1 1 0 1 0 8.871 14.6l5.189-5.191a1.294 1.294 0 0 1 1.829 1.83L7.457 19.67a3.128 3.128 0 1 1-4.424-4.424L13.411 4.869a4.962 4.962 0 0 1 7.018 7.018l-7.783 7.783a1 1 0 1 0 1.414 1.414l7.783-7.784a6.96 6.96 0 0 0 0-9.846z"></path>
</symbol>
<symbol id="bell">
  <path fill="currentColor" d="M12 22c1.1 0 2-.9 2-2h-4a2 2 0 0 0 2 2m6-6v-5c0-3.07-1.64-5.64-4.5-6.32V4c0-.83-.67-1.5-1.5-1.5s-1.5.67-1.5 1.5v.68C7.63 5.36 6 7.92 6 11v5l-2 2v1h16v-1z"></path>
</symbol>
<symbol id="calendar">
  <g clip-path="url(#clip0_1923_10101)">
    <path fill="currentColor" d="M18.667 9.429H5.333v2.666h13.334zm2.666-7.62H20V0h-2.667v1.81H6.667V0H4v1.81H2.667c-1.48 0-2.654 1.2-2.654 2.666L0 21.43C0 22.895 1.187 24 2.667 24h18.666C22.8 24 24 22.895 24 21.429V4.476c0-1.466-1.2-2.666-2.667-2.666m0 19.62H2.667V6.762h18.666zm-6.666-6.667H5.333v2.667h9.334z"></path>
  </g>
  <defs>
    <clipPath id="clip0_1923_10101">
      <path fill="currentColor" d="M0 0h24v24H0z"></path>
    </clipPath>
  </defs>
</symbol>
<symbol id="check-circle">
  <g clip-path="url(#clip0_1923_10095)">
    <path fill="currentColor" d="M12 0a12 12 0 1 0 12 12A12.014 12.014 0 0 0 12 0m6.927 8.2-6.845 9.289a1.01 1.01 0 0 1-1.43.188l-4.888-3.908a1 1 0 1 1 1.25-1.562l4.076 3.261 6.227-8.451a1.001 1.001 0 1 1 1.61 1.183"></path>
  </g>
  <defs>
    <clipPath id="clip0_1923_10095">
      <path fill="currentColor" d="M0 0h24v24H0z"></path>
    </clipPath>
  </defs>
</symbol>
<symbol id="check">
  <path fill="currentColor" d="m10 15.172 9.192-9.193 1.415 1.414L10 18l-6.364-6.364 1.414-1.414z"></path>
</symbol>
<symbol id="chevron-down">
  <path fill="currentColor" d="M16.59 8.59 12 13.17 7.41 8.59 6 10l6 6 6-6z"></path>
</symbol>
<symbol id="chevron-left">
  <path fill="currentColor" d="M15.41 7.41 14 6l-6 6 6 6 1.41-1.41L10.83 12z"></path>
</symbol>
<symbol id="chevron-right">
  <path fill="currentColor" d="M10 6 8.59 7.41 13.17 12l-4.58 4.59L10 18l6-6z"></path>
</symbol>
<symbol id="chevron-up">
  <path fill="currentColor" d="m12 8-6 6 1.41 1.41L12 10.83l4.59 4.58L18 14z"></path>
</symbol>
<symbol id="close">
  <path fill="currentColor" d="m12 10.586 4.95-4.95 1.414 1.414-4.95 4.95 4.95 4.95-1.414 1.414-4.95-4.95-4.95 4.95-1.414-1.414 4.95-4.95-4.95-4.95L7.05 5.636z"></path>
</symbol>
<symbol id="copy">
  <path fill="currentColor" d="M16 1H4c-1.1 0-2 .9-2 2v14h2V3h12zm3 4H8c-1.1 0-2 .9-2 2v14c0 1.1.9 2 2 2h11c1.1 0 2-.9 2-2V7c0-1.1-.9-2-2-2m0 16H8V7h11z"></path>
</symbol>
<symbol id="delete">
  <path fill="currentColor" d="M19.452 7.5H4.547a.5.5 0 0 0-.5.545l1.287 14.136A2 2 0 0 0 7.326 24h9.347a2 2 0 0 0 1.992-1.819L19.95 8.045a.5.5 0 0 0-.498-.545m-9.2 13a.75.75 0 1 1-1.5 0v-9a.75.75 0 1 1 1.5 0zm5 0a.75.75 0 1 1-1.5 0v-9a.75.75 0 1 1 1.5 0zM22 4h-4.75a.25.25 0 0 1-.25-.25V2.5A2.5 2.5 0 0 0 14.5 0h-5A2.5 2.5 0 0 0 7 2.5v1.25a.25.25 0 0 1-.25.25H2a1 1 0 0 0 0 2h20a1 1 0 1 0 0-2M9 3.75V2.5a.5.5 0 0 1 .5-.5h5a.5.5 0 0 1 .5.5v1.25a.25.25 0 0 1-.25.25h-5.5A.25.25 0 0 1 9 3.75"></path>
</symbol>
<symbol id="download">
  <path fill="currentColor" d="M19.347 10.384 17.29 8.327l-3.82 3.927V1.714h-2.94v10.54L6.71 8.327l-2.057 2.057L12 17.878zM1.714 19.347v2.939h20.572v-2.94z"></path>
</symbol>
<symbol id="drag-handle">
  <path fill="currentColor" d="M7.2 4.8a2.4 2.4 0 1 1 0-4.8 2.4 2.4 0 0 1 0 4.8m0 9.6a2.4 2.4 0 1 1 0-4.8 2.4 2.4 0 0 1 0 4.8m0 9.6a2.4 2.4 0 1 1 0-4.8 2.4 2.4 0 0 1 0 4.8m9.6-19.2a2.4 2.4 0 1 1 0-4.8 2.4 2.4 0 0 1 0 4.8m0 9.6a2.4 2.4 0 1 1 0-4.8 2.4 2.4 0 0 1 0 4.8m0 9.6a2.4 2.4 0 1 1 0-4.8 2.4 2.4 0 0 1 0 4.8"></path>
</symbol>
<symbol id="edit">
  <path stroke="currentColor" stroke-linecap="round" stroke-width="2" d="M11 4H4a2 2 0 0 0-2 2v14a2 2 0 0 0 2 2h14a2 2 0 0 0 2-2v-7M18.5 2.5a2.121 2.121 0 1 1 3 3L12 15l-4 1 1-4z"></path>
</symbol>
<symbol id="email">
  <g fill="currentColor" clip-path="url(#clip0_1923_10134)">
    <path d="M11.114 14.556a1.25 1.25 0 0 0 1.768 0l9.686-9.686a.5.5 0 0 0-.281-.849A2 2 0 0 0 22 4H2q-.145 0-.289.021a.5.5 0 0 0-.281.849z"></path>
    <path d="M23.888 5.832a.18.18 0 0 0-.2.039l-6.2 6.2a.25.25 0 0 0 0 .354l5.043 5.043a.75.75 0 1 1-1.06 1.061l-5.043-5.043a.25.25 0 0 0-.354 0l-2.129 2.129a2.75 2.75 0 0 1-3.888 0l-2.131-2.127a.25.25 0 0 0-.354 0l-5.043 5.043a.75.75 0 0 1-1.06-1.061l5.043-5.043a.25.25 0 0 0 0-.354l-6.2-6.2a.18.18 0 0 0-.2-.039A.18.18 0 0 0 0 6v12a2 2 0 0 0 2 2h20a2 2 0 0 0 2-2V6a.18.18 0 0 0-.112-.168"></path>
  </g>
  <defs>
    <clipPath id="clip0_1923_10134">
      <path fill="currentColor" d="M0 0h24v24H0z"></path>
    </clipPath>
  </defs>
</symbol>
<symbol id="external-link">
  <path stroke="currentColor" stroke-linecap="round" stroke-width="2" d="M18 13v6a2 2 0 0 1-2 2H5a2 2 0 0 1-2-2V8a2 2 0 0 1 2-2h6m4-3h6m0 0v6m0-6L10 14"></path>
</symbol>
<symbol id="frame">
  <g clip-path="url(#clip0_1923_10096)">
    <path fill="currentColor" d="M1.565 1.578A5.34 5.34 0 0 1 5.355 0h13.29c1.423 0 2.786.569 3.79 1.578A5.4 5.4 0 0 1 24 5.378v8.558a6 6 0 0 1-.407 2.056 6 6 0 0 1-1.158 1.744 6 6 0 0 1-1.738 1.168 6 6 0 0 1-2.051.41h-1.292v2.23h-.004c0 .387-.099.877-.245 1.19-.198.35-.628.786-.977.989l-.002.001-.003.001a3.1 3.1 0 0 1-1.122.275h-.005a2.54 2.54 0 0 1-1.778-.751l-3.969-3.934H5.354a5.34 5.34 0 0 1-3.789-1.579 6 6 0 0 1-1.159-1.744A6 6 0 0 1 0 13.936V5.378a5.4 5.4 0 0 1 1.565-3.8m3.79 1.156c-.693 0-1.358.277-1.85.772a2.66 2.66 0 0 0-.77 1.873v8.557c-.007.394.044.654.2 1.015.143.365.289.585.57.858a2.6 2.6 0 0 0 1.85.772h4.457c.36 0 .707.142.963.396l3.845 3.812v-2.841c0-.755.612-1.367 1.367-1.367h2.659c.388.006.643-.045 1-.2.362-.145.578-.29.85-.572a2.2 2.2 0 0 0 .57-.858c.155-.361.206-.621.2-1.015V5.378c0-.703-.278-1.377-.77-1.872a2.6 2.6 0 0 0-1.85-.772z"></path>
  </g>
  <defs>
    <clipPath id="clip0_1923_10096">
      <path fill="currentColor" d="M0 0h24v24H0z"></path>
    </clipPath>
  </defs>
</symbol>
<symbol id="hamburger">
  <path fill="currentColor" d="M3 5a1 1 0 1 0 0 2h18a1 1 0 1 0 0-2zm0 6a1 1 0 1 0 0 2h18a1 1 0 1 0 0-2zm0 6a1 1 0 1 0 0 2h18a1 1 0 1 0 0-2z"></path>
</symbol>
<symbol id="info-outline">
  <g clip-path="url(#clip0_1923_10133)">
    <path fill="currentColor" fill-rule="evenodd" d="M2 12C2 6.477 6.477 2 12 2s10 4.477 10 10-4.477 10-10 10S2 17.523 2 12M12 0C5.373 0 0 5.373 0 12s5.373 12 12 12 12-5.373 12-12S18.627 0 12 0m-.041 8a1 1 0 1 0 0-2 1 1 0 0 0 0 2m1 2v8h-2v-8z" clip-rule="evenodd"></path>
  </g>
  <defs>
    <clipPath id="clip0_1923_10133">
      <path fill="currentColor" d="M0 0h24v24H0z"></path>
    </clipPath>
  </defs>
</symbol>
<symbol id="info">
  <g clip-path="url(#clip0_1923_10143)">
    <path fill="currentColor" d="M12 0a12 12 0 1 0 12 12A12.013 12.013 0 0 0 12 0m.25 5a1.5 1.5 0 1 1 0 3 1.5 1.5 0 0 1 0-3m2.25 13.5h-4a1 1 0 0 1 0-2h.75a.25.25 0 0 0 .25-.25v-4.5a.25.25 0 0 0-.25-.25h-.75a1 1 0 0 1 0-2h1a2 2 0 0 1 2 2v4.75a.25.25 0 0 0 .25.25h.75a1 1 0 0 1 0 2"></path>
  </g>
  <defs>
    <clipPath id="clip0_1923_10143">
      <path fill="currentColor" d="M0 0h24v24H0z"></path>
    </clipPath>
  </defs>
</symbol>
<symbol id="link">
  <g fill="currentColor" clip-path="url(#clip0_1923_10139)">
    <path d="M7.72 21.11a2.853 2.853 0 0 1-3.941 0l-.892-.891a2.787 2.787 0 0 1 0-3.941l5.8-5.8a2.79 2.79 0 0 1 3.942 0l.893.892a1.003 1.003 0 0 0 1.418-1.418l-.893-.892a4.79 4.79 0 0 0-6.771 0l-5.8 5.8a4.787 4.787 0 0 0 0 6.77l.892.891a4.785 4.785 0 0 0 6.77 0l2.737-2.735a1.001 1.001 0 0 0-1.414-1.415z"></path>
    <path d="m22.526 2.363-.892-.892a4.8 4.8 0 0 0-6.77 0l-2.905 2.9a1 1 0 0 0 1.414 1.414l2.9-2.9a2.79 2.79 0 0 1 3.94 0l.894.893a2.784 2.784 0 0 1 0 3.942l-5.8 5.8a2.77 2.77 0 0 1-1.971.817 2.77 2.77 0 0 1-1.97-.816 1.001 1.001 0 1 0-1.414 1.412 4.75 4.75 0 0 0 3.384 1.4 4.75 4.75 0 0 0 3.385-1.4l5.8-5.8a4.785 4.785 0 0 0 0-6.771z"></path>
  </g>
  <defs>
    <clipPath id="clip0_1923_10139">
      <path fill="currentColor" d="M0 0h24v24H0z"></path>
    </clipPath>
  </defs>
</symbol>
<symbol id="lock">
  <path fill="currentColor" d="M19.5 9.5h-.75V6.75a6.75 6.75 0 0 0-13.5 0V9.5H4.5a2 2 0 0 0-2 2V22a2 2 0 0 0 2 2h15a2 2 0 0 0 2-2V11.5a2 2 0 0 0-2-2m-9.5 6a2 2 0 1 1 3 1.723V19.5a1 1 0 0 1-2 0v-2.277a1.99 1.99 0 0 1-1-1.723M7.75 6.75a4.25 4.25 0 0 1 8.5 0V9a.5.5 0 0 1-.5.5h-7.5a.5.5 0 0 1-.5-.5z"></path>
</symbol>
<symbol id="minus">
  <path fill="currentColor" d="M22 10H2v4h20z"></path>
</symbol>
<symbol id="moon">
  <path fill="currentColor" d="M21.4 13.7q-1.2.3-2.4.3c-5 0-9-4-9-9q0-1.2.3-2.4c.1-.3 0-.7-.3-1s-.6-.4-1-.3C4.3 2.7 1 7.1 1 12c0 6.1 4.9 11 11 11 4.9 0 9.3-3.3 10.6-8.1.1-.3 0-.7-.3-1-.2-.2-.6-.3-.9-.2"></path>
</symbol>
<symbol id="not-allowed">
  <path fill="currentColor" d="M12 2C6.48 2 2 6.48 2 12s4.48 10 10 10 10-4.48 10-10S17.52 2 12 2m0 18c-4.42 0-8-3.58-8-8 0-1.85.63-3.55 1.69-4.9L16.9 18.31A7.9 7.9 0 0 1 12 20m6.31-3.1L7.1 5.69A7.9 7.9 0 0 1 12 4c4.42 0 8 3.58 8 8 0 1.85-.63 3.55-1.69 4.9"></path>
</symbol>
<symbol id="phone">
  <path fill="currentColor" d="M7.207 5.013a.5.5 0 0 0-.29.02C5.87 5.438 5.213 6.93 5.058 7.955c-.484 3.33 2.15 6.215 4.57 8.113 2.149 1.684 6.273 4.453 8.713 1.781.31-.329.678-.813.658-1.297-.058-.813-.813-1.394-1.394-1.84-.445-.329-1.375-1.239-1.956-1.22-.522.02-.851.562-1.18.891l-.582.581c-.096.097-1.336-.716-1.471-.813a10 10 0 0 1-1.414-1.104 9 9 0 0 1-1.142-1.316c-.097-.136-.89-1.317-.813-1.414 0 0 .677-.736.871-1.026.407-.62.716-1.104.252-1.84-.174-.27-.387-.484-.62-.716-.406-.387-.813-.794-1.278-1.123-.251-.194-.677-.542-1.065-.6"></path>
</symbol>
<symbol id="plus-square">
  <path stroke="currentColor" stroke-linecap="round" stroke-width="2" d="M12 8v8m-4-4h8M5 3h14a2 2 0 0 1 2 2v14a2 2 0 0 1-2 2H5a2 2 0 0 1-2-2V5a2 2 0 0 1 2-2Z"></path>
</symbol>
<symbol id="question-outline">
  <g clip-path="url(#clip0_1923_10244)">
    <path stroke="currentColor" stroke-linecap="round" stroke-miterlimit="10" stroke-width="1.5" d="M9 9a3 3 0 1 1 4 2.829 1.5 1.5 0 0 0-1 1.415v1.006m0 3a.375.375 0 1 0 0 .75.375.375 0 0 0 0-.75ZM23.25 12c0 6.213-5.037 11.25-11.25 11.25S.75 18.213.75 12 5.787.75 12 .75 23.25 5.787 23.25 12Z"></path>
  </g>
  <defs>
    <clipPath id="clip0_1923_10244">
      <path fill="currentColor" d="M0 0h24v24H0z"></path>
    </clipPath>
  </defs>
</symbol>
<symbol id="question">
  <g clip-path="url(#clip0_1923_10235)">
    <path fill="currentColor" d="M12 0a12 12 0 1 0 12 12A12.013 12.013 0 0 0 12 0m0 19a1.5 1.5 0 1 1 0-3 1.5 1.5 0 0 1 0 3m1.6-6.08a1 1 0 0 0-.6.917 1 1 0 0 1-2 0 3 3 0 0 1 1.8-2.75A2 2 0 1 0 10 9.255a1 1 0 1 1-2 0 4 4 0 1 1 5.6 3.666z"></path>
  </g>
  <defs>
    <clipPath id="clip0_1923_10235">
      <path fill="currentColor" d="M0 0h24v24H0z"></path>
    </clipPath>
  </defs>
</symbol>
<symbol id="react">
  <path fill="currentColor" d="M12 13.5a1.5 1.5 0 1 1 0-3 1.5 1.5 0 0 1 0 3m-.528 2.994q.263.316.528.609.265-.292.528-.609-.528.012-1.056 0m-1.995-.125q-1.152-.12-2.285-.368-.113.526-.17 1.016c-.19 1.583.075 2.545.478 2.777s1.368-.019 2.645-.974q.395-.296.794-.655-.781-.856-1.462-1.796m7.331-.368a20 20 0 0 1-2.285.368 21 21 0 0 1-1.462 1.796q.4.36.794.655c1.277.955 2.242 1.207 2.645.974.403-.232.667-1.194.479-2.777q-.062-.512-.17-1.016zm1.45-.387c.577 2.639.274 4.74-1.008 5.48s-3.253-.048-5.25-1.867c-1.997 1.819-3.968 2.606-5.25 1.866s-1.585-2.84-1.009-5.48C3.167 14.794 1.5 13.48 1.5 12s1.667-2.793 4.241-3.614c-.576-2.639-.273-4.74 1.009-5.48s3.253.048 5.25 1.867c1.997-1.819 3.968-2.606 5.25-1.866s1.585 2.84 1.009 5.48C20.833 9.206 22.5 10.52 22.5 12s-1.667 2.793-4.241 3.614zm-7.32-9.779q-.381-.345-.793-.655C8.868 4.225 7.903 3.973 7.5 4.206c-.403.232-.667 1.194-.479 2.777q.06.49.17 1.016a21 21 0 0 1 2.286-.368q.715-.981 1.462-1.796zm3.585 1.796c.802.084 1.568.209 2.285.368q.113-.526.17-1.016c.19-1.583-.075-2.545-.478-2.777s-1.368.019-2.645.974q-.412.31-.794.655.747.815 1.462 1.796m-1.995-.125q-.263-.316-.528-.609-.265.293-.528.609.528-.01 1.056 0m-4.156 7.198q-.273-.451-.528-.914-.143.385-.263.761.386.084.79.153zm1.932.234q1.697.126 3.392 0A23 23 0 0 0 15.392 12a23 23 0 0 0-1.696-2.938 23 23 0 0 0-3.392 0A23 23 0 0 0 8.608 12a23 23 0 0 0 1.696 2.938m5.852-4.728q.143-.385.263-.761a18 18 0 0 0-.79-.153q.273.451.527.914M6.13 9.837q-.51.165-.964.36C3.701 10.825 3 11.535 3 12s.7 1.175 2.166 1.803q.454.195.964.36c.222-.7.497-1.426.825-2.163a21 21 0 0 1-.825-2.163m1.45-.388q.121.375.264.76.255-.462.528-.913-.405.069-.791.153zm10.29 4.714q.51-.165.964-.36C20.299 13.175 21 12.465 21 12s-.7-1.175-2.166-1.803a11 11 0 0 0-.964-.36c-.222.7-.497 1.426-.825 2.163.328.737.603 1.462.825 2.163m-1.45.388a19 19 0 0 0-.264-.76q-.255.462-.528.913.405-.069.791-.153z"></path>
</symbol>
<symbol id="repeat-clock">
  <path fill="currentColor" d="M12.965 6a1 1 0 0 0-1 1v5.5a1 1 0 0 0 1 1h5a1 1 0 0 0 0-2h-3.75a.25.25 0 0 1-.25-.25V7a1 1 0 0 0-1-1"></path>
  <path fill="currentColor" d="M12.567 1.258A10.82 10.82 0 0 0 2.818 8.4a.25.25 0 0 1-.27.163l-1.69-.254a.51.51 0 0 0-.485.213.5.5 0 0 0-.02.53l2.678 4.7a.5.5 0 0 0 .786.107l3.77-3.746a.5.5 0 0 0-.279-.85l-1.715-.256a.25.25 0 0 1-.192-.35 8.259 8.259 0 1 1 7.866 11.59 1.25 1.25 0 0 0 .045 2.5h.047a10.752 10.752 0 0 0 3.37-20.84 10.8 10.8 0 0 0-4.162-.647z"></path>
</symbol>
<symbol id="repeat">
  <path fill="currentColor" d="M10.319 4.936a7.24 7.24 0 0 1 7.1 2.252 1.25 1.25 0 0 0 1.872-1.657A9.74 9.74 0 0 0 9.743 2.5a10.27 10.27 0 0 0-7.365 7.11.25.25 0 0 1-.271.178l-1.033-.13a.49.49 0 0 0-.474.219.5.5 0 0 0-.019.526l2.476 4.342a.5.5 0 0 0 .373.248q.03.003.062 0a.5.5 0 0 0 .359-.152l3.477-3.593a.5.5 0 0 0-.3-.844l-1.878-.232a.25.25 0 0 1-.2-.333 7.7 7.7 0 0 1 5.369-4.903M23.406 14.1a.5.5 0 0 0 .015-.526l-2.5-4.329A.5.5 0 0 0 20.546 9a.49.49 0 0 0-.421.151l-3.456 3.614a.5.5 0 0 0 .3.842l1.848.221a.25.25 0 0 1 .219.222.25.25 0 0 1-.013.111 7.69 7.69 0 0 1-5.369 4.9 7.24 7.24 0 0 1-7.1-2.253 1.25 1.25 0 1 0-1.872 1.656 9.74 9.74 0 0 0 9.549 3.03 10.26 10.26 0 0 0 7.369-7.12.25.25 0 0 1 .27-.179l1.058.127a.4.4 0 0 0 .06 0 .5.5 0 0 0 .418-.222"></path>
</symbol>
<symbol id="search">
  <g clip-path="url(#clip0_1923_10241)">
    <path fill="currentColor" d="m23.384 21.619-6.529-6.529a9.284 9.284 0 1 0-1.768 1.768l6.53 6.529a1.266 1.266 0 0 0 1.767 0 1.25 1.25 0 0 0 0-1.768M2.75 9.5a6.75 6.75 0 1 1 6.75 6.75A6.76 6.76 0 0 1 2.75 9.5"></path>
  </g>
  <defs>
    <clipPath id="clip0_1923_10241">
      <path fill="currentColor" d="M0 0h24v24H0z"></path>
    </clipPath>
  </defs>
</symbol>
<symbol id="search2">
  <g clip-path="url(#clip0_1923_10246)">
    <path fill="currentColor" d="m23.414 20.591-4.645-4.645a10.256 10.256 0 1 0-2.828 2.829l4.645 4.644a2.025 2.025 0 0 0 2.828 0 2 2 0 0 0 0-2.828M10.25 3.005A7.25 7.25 0 1 1 3 10.255a7.26 7.26 0 0 1 7.25-7.25"></path>
  </g>
  <defs>
    <clipPath id="clip0_1923_10246">
      <path fill="currentColor" d="M0 0h24v24H0z"></path>
    </clipPath>
  </defs>
</symbol>
<symbol id="settings">
  <path fill="currentColor" d="M19 12.77v-1.6l-1.94-.64-.45-1.09.88-1.84-1.13-1.13-1.81.91-1.09-.45-.69-1.92h-1.6l-.63 1.94-1.11.45-1.84-.88-1.13 1.13.91 1.81-.45 1.09-1.92.68v1.59l1.94.64.45 1.09-.88 1.84 1.13 1.13 1.81-.91 1.09.45.69 1.92h1.59l.63-1.94 1.11-.45 1.84.88 1.13-1.13-.92-1.81.47-1.09 1.92-.69zM12 15c-1.66 0-3-1.34-3-3s1.34-3 3-3 3 1.34 3 3-1.34 3-3 3"></path>
</symbol>
<symbol id="small-add">
  <path fill="currentColor" fill-rule="evenodd" d="M16 11h-3V8c0-.55-.45-1-1-1s-1 .45-1 1v3H8c-.55 0-1 .45-1 1s.45 1 1 1h3v3c0 .55.45 1 1 1s1-.45 1-1v-3h3c.55 0 1-.45 1-1s-.45-1-1-1" clip-rule="evenodd"></path>
</symbol>
<symbol id="small-close">
  <path fill="currentColor" fill-rule="evenodd" d="m13.41 12 2.29-2.29c.19-.18.3-.43.3-.71a1.002 1.002 0 0 0-1.71-.71L12 10.59l-2.29-2.3a1.004 1.004 0 0 0-1.42 1.42l2.3 2.29-2.29 2.29c-.19.18-.3.43-.3.71a1.003 1.003 0 0 0 1.71.71l2.29-2.3 2.29 2.29c.18.19.43.3.71.3a1.004 1.004 0 0 0 .71-1.71z" clip-rule="evenodd"></path>
</symbol>
<symbol id="spinner">
  <g clip-path="url(#clip0_1923_10250)">
    <path stroke="currentColor" stroke-width="4" d="M12 22c5.523 0 10-4.477 10-10S17.523 2 12 2 2 6.477 2 12s4.477 10 10 10Z"></path>
    <path fill="currentColor" fill-rule="evenodd" d="M12 0C5.372 0 0 5.372 0 12h4a8 8 0 0 1 8-8 2 2 0 1 0 0-4" clip-rule="evenodd"></path>
  </g>
  <defs>
    <linearGradient id="paint0_linear_1923_10250" x1="7.631" x2="16.926" y1="14.748" y2="5.557" gradientUnits="userSpaceOnUse">
      <stop></stop>
      <stop offset="1" stop-color="currentColor" stop-opacity="0"></stop>
    </linearGradient>
    <clipPath id="clip0_1923_10250">
      <path fill="currentColor" d="M0 0h24v24H0z"></path>
    </clipPath>
  </defs>
</symbol>
<symbol id="star">
  <path fill="currentColor" d="M19.799 9.774a1.025 1.025 0 0 0-.957-.667h-4.144a.34.34 0 0 1-.322-.227L12.89 4.664a1.021 1.021 0 0 0-1.913 0l-.004.01L9.488 8.88a.34.34 0 0 1-.32.227H5.021a1.021 1.021 0 0 0-.656 1.805l3.53 2.927a.34.34 0 0 1 .105.37l-1.483 4.446a1.021 1.021 0 0 0 1.573 1.147l3.64-2.669a.34.34 0 0 1 .402 0l3.638 2.668a1.021 1.021 0 0 0 1.574-1.146l-1.483-4.449a.34.34 0 0 1 .106-.37l3.536-2.93a1.02 1.02 0 0 0 .295-1.132"></path>
</symbol>
<symbol id="sun">
  <g clip-path="url(#clip0_1923_10233)">
    <path stroke="currentColor" stroke-linecap="round" stroke-linejoin="round" stroke-width="2" d="M12 1v2m0 18v2M4.22 4.22l1.42 1.42m12.72 12.72 1.42 1.42M1 12h2m18 0h2M4.22 19.78l1.42-1.42M18.36 5.64l1.42-1.42M17 12a5 5 0 1 1-10 0 5 5 0 0 1 10 0"></path>
  </g>
  <defs>
    <clipPath id="clip0_1923_10233">
      <path fill="currentColor" d="M0 0h24v24H0z"></path>
    </clipPath>
  </defs>
</symbol>
<symbol id="time">
  <g fill="currentColor" clip-path="url(#clip0_1923_10248)">
    <path d="M12 0a12 12 0 1 0 12 12A12.014 12.014 0 0 0 12 0m0 22a10 10 0 1 1 10-10 10.01 10.01 0 0 1-10 10"></path>
    <path d="M17.134 15.81 12.5 11.561V6.5a1 1 0 0 0-2 0V12a1 1 0 0 0 .324.738l4.959 4.545a1.01 1.01 0 0 0 1.413-.061 1 1 0 0 0-.062-1.412"></path>
  </g>
  <defs>
    <clipPath id="clip0_1923_10248">
      <path fill="currentColor" d="M0 0h24v24H0z"></path>
    </clipPath>
  </defs>
</symbol>
<symbol id="triangle-down">
  <path fill="currentColor" d="M21 5H3a1.001 1.001 0 0 0-.8 1.6l9 12a.998.998 0 0 0 1.6 0l9-12A.999.999 0 0 0 21 5"></path>
</symbol>
<symbol id="triangle-up">
  <path fill="currentColor" d="M12.8 5.4c-.377-.504-1.223-.504-1.6 0l-9 12A.999.999 0 0 0 3 19h18a1.001 1.001 0 0 0 .8-1.6z"></path>
</symbol>
<symbol id="unlock">
  <path fill="currentColor" d="M17.459 10.52h-.594V8.343A5.345 5.345 0 0 0 6.401 6.808a.99.99 0 1 0 1.896.568 3.365 3.365 0 0 1 6.589.967v1.782a.396.396 0 0 1-.396.395H5.583A1.584 1.584 0 0 0 4 12.104v8.313A1.583 1.583 0 0 0 5.583 22H17.46a1.583 1.583 0 0 0 1.583-1.583v-8.313a1.583 1.583 0 0 0-1.583-1.584m-7.521 4.75a1.583 1.583 0 1 1 2.375 1.365v1.802a.792.792 0 0 1-1.584 0v-1.802a1.58 1.58 0 0 1-.791-1.364"></path>
</symbol>
<symbol id="up-down">
  <path fill="currentColor" d="m11.5 7 .488-.57-.488-.418-.488.419zm0 9-.488.57.488.418.488-.418zm-3.012-5.43 3.5-3-.976-1.14-3.5 3zm2.524-3 3.5 3 .976-1.14-3.5-3zm-3.5 6 3.5 3 .976-1.14-3.5-3zm4.476 3 3.5-3-.976-1.14-3.5 3z"></path>
</symbol>
<symbol id="view-off">
  <path fill="currentColor" fill-rule="evenodd" d="M17.868 7.861a17.8 17.8 0 0 1 3.658 3.062 1.846 1.846 0 0 1 .006 2.466c-2.18 2.395-5.78 4.934-9.401 4.934h-.255a9.6 9.6 0 0 1-3.667-.8l-3.527 3.528a.85.85 0 0 1-1.387-.926l.012-.008.01-.006L19.905 3.523a.6.6 0 0 0 .147-.248l.016-.015a.85.85 0 1 1 1.202 1.203zm-3.16 6.98a3.9 3.9 0 0 0 .959-1.603 3.66 3.66 0 0 0-.17-2.604.216.216 0 0 0-.26-.11.2.2 0 0 0-.087.053l-4.73 4.729a.215.215 0 0 0 .058.346c.828.38 1.769.438 2.637.162a3.9 3.9 0 0 0 1.594-.973m-6.386-1.587a.2.2 0 0 1-.054.095l-2.59 2.594a.22.22 0 0 1-.278.025 18 18 0 0 1-2.924-2.578 1.83 1.83 0 0 1 .006-2.467C4.682 8.5 8.34 5.941 11.998 5.99a8.9 8.9 0 0 1 2.757.424.216.216 0 0 1 .085.358l-1.65 1.652a.21.21 0 0 1-.204.053 3.6 3.6 0 0 0-.987-.147 3.83 3.83 0 0 0-3.828 3.828c.005.334.055.666.15.987q.014.054.002.109" clip-rule="evenodd"></path>
</symbol>
<symbol id="view">
  <path fill="currentColor" d="M23.432 10.524C20.787 7.614 16.4 4.538 12 4.6 7.6 4.537 3.213 7.615.568 10.524a2.21 2.21 0 0 0 0 2.948c2.614 2.879 6.939 5.928 11.27 5.928h.309c4.347 0 8.67-3.049 11.288-5.929a2.21 2.21 0 0 0-.003-2.947M7.4 12a4.6 4.6 0 1 1 9.2 0 4.6 4.6 0 0 1-9.2 0"></path>
  <path fill="currentColor" d="M12 14a2 2 0 1 0 0-4 2 2 0 0 0 0 4"></path>
</symbol>
<symbol id="warning-two">
  <path fill="currentColor" d="M23.119 20 13.772 2.15a2 2 0 0 0-3.543 0L.88 20a2 2 0 0 0 1.772 2.928h18.694A2 2 0 0 0 23.119 20M10.999 8.423a1 1 0 0 1 2 0v6a1 1 0 1 1-2 0zm1.05 11.51h-.027a1.53 1.53 0 0 1-1.522-1.47 1.476 1.476 0 0 1 1.448-1.53h.028A1.527 1.527 0 0 1 13.5 18.4a1.473 1.473 0 0 1-1.45 1.533"></path>
</symbol>
<symbol id="warning">
  <path fill="currentColor" d="M11.986 2.002a10.17 10.17 0 0 0-7.09 3.044A9.83 9.83 0 0 0 2 12.174 9.815 9.815 0 0 0 11.834 22h.178a10.09 10.09 0 0 0 9.987-10.173 9.805 9.805 0 0 0-10.013-9.825M10.75 15.786a1.23 1.23 0 0 1 1.208-1.275h.022a1.273 1.273 0 0 1 1.27 1.225 1.23 1.23 0 0 1-1.208 1.274h-.023a1.274 1.274 0 0 1-1.269-1.224m.417-3.368v-5a.833.833 0 0 1 1.666 0v5a.833.833 0 1 1-1.666 0"></path>
</symbol>
</defs>
</svg>
