<?xml version="1.0" encoding="UTF-8"?>
<!-- This file is generated by yarn workspace web run gen:icons:build. Don't edit it manually. -->
<svg xmlns="http://www.w3.org/2000/svg" xmlns:xlink="http://www.w3.org/1999/xlink" width="0" height="0">
<defs>
<symbol viewBox="0 0 24 24" id="add"><path fill="currentColor" d="M12.007 4.36a.854.854 0 0 0-.856.855l-.006 5.928H5.211a.854.854 0 1 0 0 1.71h5.934v5.935a.855.855 0 1 0 1.711 0v-5.934h5.934a.855.855 0 1 0 0-1.711h-5.934V5.209a.86.86 0 0 0-.85-.85Z"></path></symbol>
<symbol fill="none" id="arrow-down-lined"><path fill="currentColor" d="M7.083 6.247 9.082 4.25l15.003 15.003V9.917h2.833v14.166H12.75V21.25h9.336L7.084 6.247Z"></path><path stroke="currentColor" stroke-width="3" d="M12.75 28.333h14.167"></path></symbol>
<symbol fill="none" id="arrow-up-lined"><path fill="#64FFDA" d="m7.083 27.044 1.998 1.998 15.003-15.003v9.336h2.833V9.208H12.75v2.834h9.336L7.084 27.044Z"></path><path stroke="currentColor" stroke-width="3" d="M12.75 4.25h14.167"></path></symbol>
<symbol fill="none" viewBox="0 0 13 13" id="arrow-up"><path fill="currentColor" d="m3.1 9.365.705.705L9.1 4.775V8.07h1v-5h-5v1h3.295L3.1 9.365Z"></path></symbol>
<symbol fill="none" viewBox="0 0 24 25" id="attention"><path d="M12 2C6.225 2 1.5 6.725 1.5 12.5S6.225 23 12 23s10.5-4.725 10.5-10.5S17.775 2 12 2Zm-.825 4.5h1.65v8.25h-1.65V6.5ZM12 19.25c-.6 0-1.125-.525-1.125-1.125S11.4 17 12 17s1.125.525 1.125 1.125S12.6 19.25 12 19.25Z" fill="currentColor" ></path></symbol>
<symbol fill="currentColor" viewBox="0 0 24 24" id="blogger"><g clip-path="url(#a)"><path fill="currentColor" fill-rule="evenodd" d="M23.3 9.3c-.5-.2-2.7 0-3.3-.5-.4-.4-.5-1.1-.6-2.1-.3-1.6-.4-1.9-.7-2.6-1-2.2-3.5-4.1-5.8-4.1H7.6C3.5 0 0 3.4 0 7.6v8.8C0 20.6 3.5 24 7.6 24h8.7c4.2 0 7.6-3.4 7.6-7.6v-6.1c.1 0 .1-.8-.6-1ZM7.5 6h4c.8 0 1.5.7 1.5 1.5S12.3 9 11.5 9h-4C6.7 9 6 8.3 6 7.5S6.7 6 7.5 6Zm9 12h-9c-.8 0-1.5-.7-1.5-1.5S6.7 15 7.5 15h9c.8 0 1.5.7 1.5 1.5s-.7 1.5-1.5 1.5Z" clip-rule="evenodd"></path></g><defs><clipPath id="a"><path fill="currentColor" d="M0 0h24v24H0z"></path></clipPath></defs></symbol>
<symbol fill="none" viewBox="0 0 25 24" id="calendar"><path fill="currentColor" d="M9.25 11h-2v2h2v-2Zm4 0h-2v2h2v-2Zm4 0h-2v2h2v-2Zm2-7h-1V2h-2v2h-8V2h-2v2h-1c-1.11 0-1.99.9-1.99 2l-.01 14a2 2 0 0 0 2 2h14c1.1 0 2-.9 2-2V6c0-1.1-.9-2-2-2Zm0 16h-14V9h14v11Z"></path></symbol>
<symbol viewBox="0 0 24 25" id="cancel"><path fill="currentColor" d="M15.072 12.425 18.253 6.5h-4.23l-1.821 3.677-1.73-3.677H6.22l.968 1.833 2.179 4.092-2.974 5.233L6 18.35h4.254l1.948-3.77 2.005 3.77h4.196l-3.331-5.925Z"></path></symbol>
<symbol viewBox="0 0 16 16" id="cash"><path fill="currentColor" d="M5.072 6.859c0 .99.805 1.795 1.795 1.796h.003c.99 0 1.795-.806 1.795-1.796S7.86 5.063 6.87 5.063h-.003c-.99 0-1.795.806-1.795 1.796ZM8.928 5.063c.42.48.674 1.109.674 1.796s-.254 1.315-.674 1.796h2.226l.478-.478V5.54l-.478-.478H8.928ZM4.135 6.859c0-.687.255-1.316.675-1.796H2.583l-.478.477v2.637l.478.478H4.81a2.722 2.722 0 0 1-.675-1.796Z"></path><path fill="currentColor" d="M16 4.887h-1.323v6.811H2.262v1.344H16V4.887Z"></path><path fill="currentColor" d="M13.739 2.957H0v7.805h13.739V2.957ZM12.57 8.566l-1.027 1.027H2.196L1.169 8.566V5.153l1.027-1.027H11.543l1.027 1.027v3.413Z"></path></symbol>
<symbol fill="none" viewBox="0 0 24 24" id="chat"><path stroke="currentColor" stroke-linecap="square" stroke-miterlimit="10" stroke-width="2" d="M20.4 16.8C22 15.2 23 13.2 23 11c0-5-4.9-9-11-9S1 6 1 11s4.9 9 11 9c1.1 0 2.1-.1 3.1-.4L21 22l-.6-5.2Z"></path></symbol>
<symbol fill="none" viewBox="0 0 16 16" id="checkmark"><path fill="currentColor" d="M8 0C3.584 0 0 3.584 0 8s3.584 8 8 8 8-3.584 8-8-3.584-8-8-8ZM5.832 11.432 2.96 8.56a.797.797 0 1 1 1.128-1.128L6.4 9.736l5.504-5.504a.797.797 0 1 1 1.128 1.128L6.96 11.432a.797.797 0 0 1-1.128 0Z"></path></symbol>
<symbol fill="none" viewBox="0 0 25 25" id="chevron-down"><path d="M12.696 17.058a.782.782 0 0 0 1.095 0l6.475-6.441c.299-.332.299-.83 0-1.13l-.764-.763c-.298-.299-.796-.299-1.128 0l-5.114 5.113-5.146-5.113c-.332-.299-.83-.299-1.13 0l-.763.764c-.299.299-.299.797 0 1.129l6.475 6.441Z" fill="currentColor" ></path></symbol>
<symbol fill="none" viewBox="0 0 51 51" id="close-outline-version"><rect width="39.111" height="39.111" x="6.444" y="5.444" fill="#010101" fill-opacity=".1" rx="9.556"></rect><rect width="39.111" height="39.111" x="6.444" y="5.444" fill="#5CC9FF" fill-opacity=".12" rx="9.556"></rect><path fill="currentColor" fill-rule="evenodd" d="M33.61 16.071 33.54 16l-.072.071-7.612 7.667-7.611-7.667-.071-.071-.071.071-1.317 1.317-.071.071.071.07 7.666 7.613-7.666 7.612-.071.07.07.071 1.318 1.317.07.071.072-.07 7.611-7.667 7.612 7.666.071.071.071-.07 1.317-1.318.071-.07-.071-.071-7.666-7.612 7.666-7.612.071-.071-.07-.071-1.318-1.317Z" clip-rule="evenodd"></path><rect width="39.111" height="39.111" x="6.444" y="5.444" stroke="currentColor" stroke-width=".889" rx="9.556"></rect></symbol>
<symbol fill="none" viewBox="0 0 32 32" id="close"><path d="M16.064.762C7.648.762.826 7.584.826 16s6.822 15.238 15.238 15.238S31.302 24.416 31.302 16 24.48.762 16.064.762Zm7.173 20.256-2.155 2.154-5.018-5.016-5.018 5.016-2.154-2.154L13.908 16 8.89 10.982l2.155-2.153 5.018 5.018 5.018-5.018 2.154 2.153L18.22 16l5.018 5.018Z" fill="currentColor"></path></symbol>
<symbol fill="none" viewBox="0 0 24 25" id="copy"><mask id="a" style="mask-type:alpha" maskUnits="userSpaceOnUse" x="1" y="2" width="22" height="22"><path d="M6.5 6.88V4.57a1.407 1.407 0 0 1 1.407-1.406h12.186A1.406 1.406 0 0 1 21.5 4.571v12.187a1.407 1.407 0 0 1-1.407 1.406H17.76" stroke="#fff" stroke-width="2" stroke-linecap="round" stroke-linejoin="round"></path><path d="M16.094 7.164H3.905A1.407 1.407 0 0 0 2.5 8.571v12.187a1.406 1.406 0 0 0 1.406 1.406h12.188a1.407 1.407 0 0 0 1.406-1.406V8.57a1.407 1.407 0 0 0-1.407-1.407h.001Z" fill="#fff" stroke="#fff" stroke-width="2" stroke-linejoin="round"></path></mask><g mask="url(#a)"><path d="M0 .664h24v24H0v-24Z" fill="#00B0FF"></path></g></symbol>
<symbol fill="none" viewBox="0 0 44 44" id="daily"><path fill="#fff" d="M34.833 1.833a1.834 1.834 0 0 0-3.667 0V5.5h3.667V1.833ZM12.833 1.833a1.834 1.834 0 0 0-3.667 0V5.5h3.667V1.833ZM38.5 7.333h-33a5.5 5.5 0 0 0-5.5 5.5v23.834a5.5 5.5 0 0 0 5.5 5.5h33a5.5 5.5 0 0 0 5.5-5.5V12.833a5.5 5.5 0 0 0-5.5-5.5Zm1.833 29.334A1.834 1.834 0 0 1 38.5 38.5h-33a1.834 1.834 0 0 1-1.833-1.833V16.5h36.666v20.167Z"></path><path fill="#fff" d="M13.75 20.167h-5.5a.917.917 0 0 0-.916.916v3.667c0 .506.41.917.917.917h5.5c.506 0 .916-.41.916-.917v-3.667a.917.917 0 0 0-.916-.916Z"></path></symbol>
<symbol fill="currentColor" id="edit">
	<path 		d="M4 16.854v2.702a.44.44 0 0 0 .444.444h2.702a.417.417 0 0 0 .311-.133l9.706-9.697-3.333-3.333-9.697 9.697a.436.436 0 0 0-.133.32Zm15.74-9.261a.885.885 0 0 0 0-1.253l-2.08-2.08a.885.885 0 0 0-1.253 0l-1.626 1.626 3.333 3.333 1.626-1.626Z"></path>
</symbol>
<symbol fill="none" viewBox="0 0 24 24" id="fairness"><path fill="currentColor" d="m21 12.38-2.941-6.243v-.604h-4.602c0-.875-.598-1.533-1.4-1.533-.743 0-1.63.603-1.63 1.533H5.885v.714L3 12.38c0 1.805 1.369 3.478 3.486 3.478 2.116 0 3.485-1.643 3.485-3.449l-2.63-5.615h3.662v11.068H7.628c-1.572 0-2.227.74-2.227 2.137H18.83c0-1.206-.63-2.137-2.228-2.137h-3.574V6.77h3.658l-2.627 5.615c0 1.806 1.37 3.479 3.486 3.479C19.688 15.833 21 14.19 21 12.381Zm-12.547 0H4.51l1.97-4.82 1.972 4.82Zm7.094 0 1.971-4.82 1.971 4.82h-3.942Z"></path></symbol>
<symbol fill="none" viewBox="0 0 42 42" id="games-icon"><path fill="currentColor" fill-rule="evenodd" d="M18.375 11.813h-5.25v5.25h5.25v-5.25ZM11.812 10.5v7.875h7.876V10.5h-7.875ZM30.188 23.625h-5.25v5.25h5.25v-5.25Zm-6.563-1.312v7.875H31.5v-7.875h-7.875ZM15.75 30a3.75 3.75 0 1 0 0-7.5 3.75 3.75 0 0 0 0 7.5Zm0 1.5a5.25 5.25 0 1 0 0-10.5 5.25 5.25 0 0 0 0 10.5ZM30.222 17.52l-3.316-5.744-3.315 5.743h6.63Zm-2.21-6.382a1.276 1.276 0 0 0-2.211 0l-3.316 5.743a1.276 1.276 0 0 0 1.106 1.914h6.63a1.276 1.276 0 0 0 1.106-1.914l-3.316-5.743Z" clip-rule="evenodd"></path></symbol>
<symbol fill="none" viewBox="0 0 32 32" id="gift"><path d="M22.4 2.137a6.4 6.4 0 0 0-6.4 4.8 6.4 6.4 0 0 0-6.4-4.8C5.904 2.02 4.766 5.967 6.01 8.533H3.2A1.067 1.067 0 0 0 2.133 9.6v2.133A1.067 1.067 0 0 0 3.199 12.8h25.6a1.067 1.067 0 0 0 1.067-1.067V9.6A1.066 1.066 0 0 0 28.8 8.533h-2.786c1.293-2.528.21-6.398-3.528-6.398H22.4v.002Zm.39 6.396h-4.657A4.267 4.267 0 0 1 22.4 4.271c2.506 0 2.95 3.993.39 4.262Zm-8.924 0h-4.71c-2.208-.25-2.338-4.04.085-4.262.12-.011.24-.011.358 0a4.267 4.267 0 0 1 4.267 4.262Zm-9.6 6.402v9.6a3.2 3.2 0 0 0 3.2 3.2h6.4v-12.8h-9.6Zm13.867 0v12.8h6.4a3.2 3.2 0 0 0 3.2-3.2v-9.6h-9.6Z" fill="#ACAAAF"></path></symbol>
<symbol fill="none" viewBox="0 0 24 24" id="half"><path fill="currentColor" d="M17.63 17.44v-.05l.81-.67c.66-.55 1.16-1.02 1.52-1.42.36-.4.6-.76.74-1.08.14-.33.21-.66.21-.99 0-.54-.14-1-.41-1.4-.28-.4-.67-.71-1.17-.93-.51-.22-1.11-.33-1.8-.33s-1.25.12-1.75.35c-.5.24-.88.57-1.15 1.01-.27.44-.41.96-.41 1.57h2.22c0-.24.04-.45.13-.61.09-.16.22-.3.38-.38.16-.09.35-.13.57-.13.22 0 .41.04.57.13.17.09.3.21.39.36.09.16.14.35.14.57 0 .2-.04.39-.12.55-.08.17-.2.33-.35.48-.15.16-.34.32-.55.5l-3.22 2.66v1.68H21v-1.87h-3.37ZM7.28 13.31V4.69H5.12L3 5.99v1.98l1.89-1.12h.05v6.46h2.34ZM13.59 5.19 5.76 19.31h2.97l7.72-14.12h-2.86Z"></path></symbol>
<symbol viewBox="0 0 24 24" id="image">
    <path         fill="currentColor"
        d="M20 1H4C3.20435 1 2.44129 1.31607 1.87868 1.87868C1.31607 2.44129 1 3.20435 1 4V20C1 20.7956 1.31607 21.5587 1.87868 22.1213C2.44129 22.6839 3.20435 23 4 23H20C20.7956 23 21.5587 22.6839 22.1213 22.1213C22.6839 21.5587 23 20.7956 23 20V4C23 3.20435 22.6839 2.44129 22.1213 1.87868C21.5587 1.31607 20.7956 1 20 1ZM9.5 6C9.79667 6 10.0867 6.08797 10.3334 6.2528C10.58 6.41762 10.7723 6.65189 10.8858 6.92597C10.9994 7.20006 11.0291 7.50166 10.9712 7.79264C10.9133 8.08361 10.7704 8.35088 10.5607 8.56066C10.3509 8.77044 10.0836 8.9133 9.79264 8.97118C9.50166 9.02906 9.20006 8.99935 8.92597 8.88582C8.65189 8.77229 8.41762 8.58003 8.2528 8.33335C8.08797 8.08668 8 7.79667 8 7.5C8 7.10218 8.15804 6.72064 8.43934 6.43934C8.72064 6.15804 9.10218 6 9.5 6ZM18.925 16.763C18.8802 16.8354 18.8177 16.8952 18.7433 16.9367C18.6689 16.9782 18.5852 17 18.5 17H5.5C5.41075 17 5.32312 16.9761 5.24622 16.9308C5.16932 16.8855 5.10594 16.8204 5.06268 16.7424C5.01941 16.6643 4.99783 16.5761 5.00017 16.4869C5.00251 16.3977 5.0287 16.3107 5.076 16.235L7.576 12.235C7.61791 12.168 7.6751 12.1119 7.74288 12.0713C7.81067 12.0306 7.88712 12.0066 7.96596 12.0013C8.04481 11.9959 8.1238 12.0093 8.19647 12.0404C8.26913 12.0714 8.3334 12.1193 8.384 12.18L10.479 14.694L14.6 9.2C14.6519 9.13248 14.7197 9.07886 14.7973 9.04396C14.875 9.00906 14.9601 8.99395 15.045 9C15.1294 9.00799 15.2105 9.03734 15.2804 9.08527C15.3504 9.1332 15.407 9.19815 15.445 9.274L18.945 16.274C18.9839 16.3504 19.0024 16.4355 18.9989 16.5211C18.9954 16.6067 18.97 16.69 18.925 16.763Z" ></path>
</symbol>
<symbol fill="none" viewBox="0 0 24 24" id="infinity"><path fill="currentColor" d="m8.121 9.879 2.083 2.083.007-.006 1.452 1.452.006.006 2.122 2.122a5 5 0 1 0 0-7.072l-.714.714 1.415 1.414.713-.713a3 3 0 1 1 0 4.242l-2.072-2.072-.007.006-3.59-3.59a5 5 0 1 0 0 7.07l.713-.713-1.414-1.414-.714.713a3 3 0 1 1 0-4.242Z"></path></symbol>
<symbol fill="none" viewBox="0 0 24 24" id="info"><path fill="currentColor" d="M12 4c4.416 0 8 3.584 8 8s-3.584 8-8 8-8-3.584-8-8 3.584-8 8-8Zm-.8 12h1.6v-4.8h-1.6V16Zm0-6.4h1.6V8h-1.6v1.6Z"></path></symbol>
<symbol fill="none" viewBox="0 0 24 24" id="jackpot"><g clip-path="url(#a)"><g fill="currentColor" clip-path="url(#b)"><path d="M0 23.436h24V11.574H0v11.862Zm16.524-9.38h5.11v1.514l-1.368 2.138a5.342 5.342 0 0 0-.843 2.884v.57h-1.407v-.57c0-1.293.369-2.553 1.066-3.642l.951-1.487H17.93v1.364h-1.406v-2.77Zm-7.079 0h5.11v1.514l-1.367 2.138a5.342 5.342 0 0 0-.844 2.884v.57h-1.406v-.57c0-1.293.368-2.553 1.065-3.642l.951-1.487h-2.103v1.364H9.445v-2.77Zm-7.172 0h5.11v1.514l-1.368 2.138a5.341 5.341 0 0 0-.843 2.884v.57H3.765v-.57c0-1.293.369-2.553 1.065-3.642l.952-1.487H3.679v1.364H2.273v-2.77ZM1.388 9.585l2.245-.51 2.245.51.209-2.293 1.179-1.978-2.116-.907-1.517-1.733-1.517 1.733L0 5.314l1.179 1.978.209 2.293ZM9.755 7.474 12 6.964l2.245.51.21-2.292 1.178-1.978-2.116-.907L12 .564l-1.517 1.733-2.116.907 1.179 1.978.209 2.292ZM18.122 9.585l2.245-.51 2.245.51.21-2.293L24 5.314l-2.116-.907-1.517-1.733-1.517 1.733-2.116.907 1.18 1.978.208 2.293Z"></path></g></g><defs><clipPath id="a"><path fill="#fff" d="M0 0h24v24H0z"></path></clipPath><clipPath id="b"><path fill="#fff" d="M0 0h24v24H0z"></path></clipPath></defs></symbol>
<symbol fill="none" viewBox="0 0 24 24" id="lock-closed"><path d="M18 10.8h-1.2V7.2c0-2.64-2.16-4.8-4.8-4.8-2.64 0-4.8 2.16-4.8 4.8v3.6H6c-.6 0-1.2.6-1.2 1.2v8.4c0 .6.6 1.2 1.2 1.2h12c.6 0 1.2-.6 1.2-1.2V12c0-.6-.6-1.2-1.2-1.2Zm-4.8 8.4h-2.4l.48-2.64c-.6-.24-1.08-.96-1.08-1.56 0-.96.84-1.8 1.8-1.8.96 0 1.8.84 1.8 1.8 0 .72-.36 1.32-1.08 1.56l.48 2.64Zm1.2-8.4H9.6V7.2c0-1.32 1.08-2.4 2.4-2.4 1.32 0 2.4 1.08 2.4 2.4v3.6Z" fill="currentColor"></path></symbol>
<symbol fill="none" viewBox="0 0 24 24" id="lock-opened"><path d="M14.4 10.8V7.2c0-1.32-1.08-2.4-2.4-2.4-1.32 0-2.4 1.08-2.4 2.4H7.2c0-2.652 2.149-4.8 4.8-4.8 2.653 0 4.8 2.148 4.8 4.8v3.6H18c.66 0 1.2.54 1.2 1.2v8.4c0 .66-.54 1.2-1.2 1.2H6c-.66 0-1.2-.54-1.2-1.2V12c0-.66.54-1.2 1.2-1.2h8.4Zm-1.2 8.4-.431-2.58A1.784 1.784 0 0 0 13.8 15c0-.996-.804-1.8-1.8-1.8s-1.8.804-1.8 1.8c0 .72.42 1.332 1.032 1.62L10.8 19.2h2.4Z" fill="currentColor"></path></symbol>
<symbol fill="none" viewBox="0 0 29 28" id="log-out"><path fill-opacity=".64" fill="currentColor" fill-rule="evenodd" d="M28.5 14c0 7.732-6.268 14-14 14S.5 21.732.5 14s6.268-14 14-14 14 6.268 14 14Zm-9.364-8.166h-7.35a1.633 1.633 0 0 0-1.633 1.633v.817a.816.816 0 1 0 1.633 0v-.817h7.35v13.067h-7.35v-.817a.817.817 0 1 0-1.633 0v.817a1.633 1.633 0 0 0 1.633 1.633h7.35a1.633 1.633 0 0 0 1.634-1.633V7.467a1.633 1.633 0 0 0-1.634-1.633ZM9.17 17.508a.813.813 0 0 0 1.39-.576.816.816 0 0 0-.238-.576L8.79 14.817h7.08a.817.817 0 0 0 0-1.633H8.79l1.532-1.539a.816.816 0 0 0-1.152-1.152l-2.93 2.93a.817.817 0 0 0 0 1.155l2.93 2.93Z" clip-rule="evenodd"></path></symbol>
<symbol fill="none" viewBox="0 0 24 24" id="max"><path fill="currentColor" d="M0 8h2.297l2.427 5.92h.103L7.254 8H9.55v8.811H7.744v-5.735h-.073l-2.28 5.692H4.16l-2.28-5.713h-.074v5.756H0V8ZM12.936 16.936c-.421 0-.797-.073-1.127-.22-.33-.148-.59-.368-.783-.658-.19-.292-.284-.656-.284-1.092 0-.367.067-.676.202-.925.135-.25.319-.45.551-.603.232-.152.496-.267.792-.344.298-.077.61-.132.938-.163.384-.04.694-.078.929-.112.235-.038.406-.092.512-.164a.36.36 0 0 0 .16-.318v-.026c0-.272-.087-.483-.26-.632-.168-.15-.41-.224-.722-.224-.33 0-.592.073-.787.22a1.01 1.01 0 0 0-.387.541l-1.696-.137c.086-.402.256-.749.508-1.042.253-.295.578-.522.977-.68.401-.16.866-.24 1.394-.24.367 0 .718.043 1.054.129.338.086.638.22.899.4.264.18.472.413.624.697.152.281.228.618.228 1.011v4.457H14.92v-.916h-.052a1.865 1.865 0 0 1-.426.546 1.976 1.976 0 0 1-.64.366c-.25.086-.539.13-.866.13Zm.525-1.265c.27 0 .508-.053.714-.159.207-.109.369-.255.487-.439.117-.183.176-.391.176-.624v-.701a.985.985 0 0 1-.237.103 4.317 4.317 0 0 1-.33.082 16.56 16.56 0 0 1-.37.065l-.336.047a2.27 2.27 0 0 0-.564.15.902.902 0 0 0-.374.28.682.682 0 0 0-.134.43c0 .25.09.44.271.573.184.129.416.193.697.193ZM19.611 10.203l1.214 2.31 1.243-2.31h1.88l-1.914 3.304L24 16.811h-1.872l-1.303-2.284-1.282 2.284H17.65l1.962-3.304-1.893-3.304h1.892Z"></path></symbol>
<symbol fill="none" viewBox="0 0 24 24" id="min"><path fill="currentColor" d="M1 7.54h2.467l2.605 6.356h.11L8.788 7.54h2.466V17h-1.94v-6.157h-.078l-2.448 6.11H5.467L3.018 10.82H2.94V17H1V7.54ZM12.865 17V9.905h1.968V17h-1.968Zm.988-8.01c-.292 0-.543-.096-.752-.29a.943.943 0 0 1-.31-.707c0-.27.103-.503.31-.697.209-.197.46-.296.752-.296.293 0 .542.099.749.296.209.194.314.426.314.697 0 .274-.105.51-.314.707a1.053 1.053 0 0 1-.749.29ZM18.376 12.898V17H16.41V9.905h1.875v1.252h.083a1.98 1.98 0 0 1 .79-.98c.37-.242.818-.364 1.344-.364.493 0 .922.108 1.289.323.366.216.651.524.854.924.204.397.305.871.305 1.423V17h-1.968v-4.166c.004-.434-.107-.773-.332-1.016-.225-.247-.534-.37-.928-.37-.265 0-.5.057-.703.17-.2.115-.357.281-.47.5a1.73 1.73 0 0 0-.172.78Z"></path></symbol>
<symbol fill="none" viewBox="0 0 44 44" id="monthly"><path fill="#fff" d="M34.833 1.833a1.834 1.834 0 0 0-3.667 0V5.5h3.667V1.833ZM12.833 1.833a1.834 1.834 0 0 0-3.667 0V5.5h3.667V1.833ZM38.5 7.333h-33a5.5 5.5 0 0 0-5.5 5.5v23.834a5.5 5.5 0 0 0 5.5 5.5h33a5.5 5.5 0 0 0 5.5-5.5V12.833a5.5 5.5 0 0 0-5.5-5.5Zm1.833 29.334A1.834 1.834 0 0 1 38.5 38.5h-33a1.834 1.834 0 0 1-1.833-1.833V16.5h36.666v20.167Z"></path><path fill="#fff" d="M13.75 20.167h-5.5a.917.917 0 0 0-.916.916v3.667c0 .506.41.917.917.917h5.5c.506 0 .916-.41.916-.917v-3.667a.917.917 0 0 0-.916-.916ZM24.75 20.167h-5.5a.917.917 0 0 0-.916.916v3.667c0 .506.41.917.917.917h5.5c.506 0 .916-.41.916-.917v-3.667a.917.917 0 0 0-.916-.916ZM13.75 29.333h-5.5a.917.917 0 0 0-.916.917v3.667c0 .506.41.916.917.916h5.5c.506 0 .916-.41.916-.916V30.25a.917.917 0 0 0-.916-.917ZM24.75 29.333h-5.5a.917.917 0 0 0-.916.917v3.667c0 .506.41.916.917.916h5.5c.506 0 .916-.41.916-.916V30.25a.917.917 0 0 0-.916-.917ZM35.75 20.167h-5.5a.917.917 0 0 0-.916.916v3.667c0 .506.41.917.917.917h5.5c.506 0 .916-.41.916-.917v-3.667a.917.917 0 0 0-.916-.916ZM35.749 29.104h-5.5a.917.917 0 0 0-.917.917v3.667c0 .506.41.916.917.916h5.5c.506 0 .916-.41.916-.916V30.02a.917.917 0 0 0-.916-.917Z"></path></symbol>
<symbol fill="none" viewBox="0 0 24 24" id="multiply-twice"><path fill="currentColor" d="M12.033 15.813H8.887v-.073l1.153-.96c.94-.78 1.667-1.46 2.173-2.02.387-.433.687-.833.894-1.207L11.473 8.48h1.867a3.318 3.318 0 0 0-.36-.68c-.393-.567-.953-1.013-1.68-1.327C10.573 6.16 9.72 6 8.733 6c-.986 0-1.786.167-2.5.507-.713.34-1.26.82-1.646 1.446C4.2 8.58 4 9.327 4 10.193h3.18c0-.346.067-.64.193-.88.127-.24.314-.426.547-.546.233-.127.507-.187.813-.187.307 0 .58.06.82.187.24.12.42.293.56.52.134.226.2.493.2.813 0 .287-.06.553-.18.787-.12.24-.286.466-.506.686-.22.22-.48.46-.787.714l-4.6 3.793v2.407h9.467v-1.394h-2.4l.726-1.28Z"></path><path fill="currentColor" d="m18.073 12.787 1.84-3.427h-2.446l-1.054 2.127-1-2.127h-2.46l.56 1.06 1.26 2.367-1.72 3.026-.226.4h2.46l1.126-2.18 1.16 2.18H20l-1.927-3.426Z"></path></symbol>
<symbol fill="none" viewBox="0 0 24 24" id="network-high"><path fill="currentColor" fill-rule="evenodd" d="M18 4a2 2 0 0 0-2 2v12a2 2 0 1 0 4 0V6a2 2 0 0 0-2-2Zm-8 7a2 2 0 1 1 4 0v7a2 2 0 1 1-4 0v-7Zm-6 5a2 2 0 1 1 4 0v2a2 2 0 1 1-4 0v-2Z" clip-rule="evenodd"></path></symbol>
<symbol fill="none" viewBox="0 0 24 24" id="network-low"><path fill="currentColor" fill-rule="evenodd" d="M19 6v12a1 1 0 1 1-2 0V6a1 1 0 1 1 2 0Zm-3 0a2 2 0 1 1 4 0v12a2 2 0 1 1-4 0V6Zm-3 12v-7a1 1 0 1 0-2 0v7a1 1 0 1 0 2 0Zm-1-9a2 2 0 0 0-2 2v7a2 2 0 1 0 4 0v-7a2 2 0 0 0-2-2Zm-8 7a2 2 0 1 1 4 0v2a2 2 0 1 1-4 0v-2Z" clip-rule="evenodd"></path></symbol>
<symbol fill="none" viewBox="0 0 24 24" id="network-mid"><path fill="currentColor" fill-rule="evenodd" d="M19 6v12a1 1 0 1 1-2 0V6a1 1 0 1 1 2 0Zm-3 0a2 2 0 1 1 4 0v12a2 2 0 1 1-4 0V6Zm-6 5a2 2 0 1 1 4 0v7a2 2 0 1 1-4 0v-7Zm-6 5a2 2 0 1 1 4 0v2a2 2 0 1 1-4 0v-2Z" clip-rule="evenodd"></path></symbol>
<symbol fill="none" id="network"><path fill="currentColor" fill-rule="evenodd" d="M19 6v12a1 1 0 1 1-2 0V6a1 1 0 1 1 2 0Zm-3 0a2 2 0 1 1 4 0v12a2 2 0 1 1-4 0V6Zm-3 12v-7a1 1 0 1 0-2 0v7a1 1 0 1 0 2 0Zm-1-9a2 2 0 0 0-2 2v7a2 2 0 1 0 4 0v-7a2 2 0 0 0-2-2Zm-8 7a2 2 0 1 1 4 0v2a2 2 0 1 1-4 0v-2Z" clip-rule="evenodd"></path></symbol>
<symbol fill="none" viewBox="0 0 24 24" id="password-eye-disabled"><path fill="currentColor"  fill-rule="evenodd" d="M5.44 3.813A1.15 1.15 0 0 0 3.813 5.44L5.1 6.727A11.888 11.888 0 0 0 1 12c1.73 4.39 6 7.5 11 7.5 1.725 0 3.362-.37 4.839-1.035l1.611 1.612a1.15 1.15 0 1 0 1.627-1.627L18.9 17.275A11.887 11.887 0 0 0 23 12c-1.73-4.39-6-7.5-11-7.5-1.725 0-3.362.37-4.839 1.035L5.44 3.813Zm2.306 5.56a5.002 5.002 0 0 0 6.882 6.882l-1.48-1.481A3 3 0 0 1 12 15c-1.66 0-3-1.34-3-3a3 3 0 0 1 .226-1.147l-1.48-1.48Zm3.107-.147-1.48-1.48a5.002 5.002 0 0 1 6.882 6.882l-1.481-1.48c.146-.354.226-.741.226-1.148 0-1.66-1.34-3-3-3a3 3 0 0 0-1.147.226Z" clip-rule="evenodd"></path></symbol>
<symbol fill="none" viewBox="0 0 25 24" id="password-eye"><path fill="currentColor" fill-opacity=".34" d="M12.5 4.5c-5 0-9.27 3.11-11 7.5 1.73 4.39 6 7.5 11 7.5s9.27-3.11 11-7.5c-1.73-4.39-6-7.5-11-7.5Zm0 12.5c-2.76 0-5-2.24-5-5s2.24-5 5-5 5 2.24 5 5-2.24 5-5 5Zm0-8c-1.66 0-3 1.34-3 3s1.34 3 3 3 3-1.34 3-3-1.34-3-3-3Z"></path></symbol>
<symbol fill="none" viewBox="0 0 24 24" id="percent"><path fill="currentColor" d="M13.167 16.828v-.899c0-.66.139-1.268.416-1.823a3.367 3.367 0 0 1 1.232-1.34c.539-.34 1.191-.508 1.957-.508.788 0 1.449.169 1.982.508.532.332.935.777 1.207 1.332.277.555.416 1.165.416 1.831v.9a4.02 4.02 0 0 1-.416 1.823 3.306 3.306 0 0 1-1.224 1.34c-.533.339-1.188.508-1.965.508-.777 0-1.435-.17-1.973-.508a3.306 3.306 0 0 1-1.224-1.34 4.088 4.088 0 0 1-.408-1.824Zm2.173-.899v.9c0 .438.105.84.316 1.207.211.366.583.55 1.116.55.538 0 .908-.181 1.107-.542.206-.366.308-.772.308-1.216v-.899c0-.444-.097-.849-.291-1.215-.194-.372-.569-.558-1.124-.558-.522 0-.89.186-1.107.558a2.345 2.345 0 0 0-.325 1.215ZM4.5 7.071v-.9c0-.665.142-1.276.425-1.831.283-.555.693-1 1.232-1.332.538-.339 1.19-.508 1.956-.508.783 0 1.44.17 1.973.508.539.333.944.777 1.216 1.332s.408 1.166.408 1.832v.899c0 .666-.139 1.276-.416 1.831-.272.55-.677.991-1.216 1.324-.538.333-1.193.5-1.965.5-.782 0-1.443-.167-1.981-.5a3.268 3.268 0 0 1-1.216-1.332A4.02 4.02 0 0 1 4.5 7.071Zm2.19-.9v.9c0 .444.102.849.308 1.215.21.361.582.541 1.115.541s.9-.18 1.1-.54c.205-.367.307-.772.307-1.216v-.9c0-.443-.097-.849-.291-1.215-.194-.372-.566-.558-1.116-.558-.527 0-.896.186-1.107.558-.21.372-.316.777-.316 1.216ZM5.45 20.026l11.722-17.05h2.081L7.531 20.025H5.449Z"></path></symbol>
<symbol fill="currentColor" viewBox="0 0 24 24" id="percent25"><path fill="currentColor" fill-rule="evenodd" d="M8.382 5.817a4.025 4.025 0 0 0-.396-.23C7.216 5.196 6.29 5 5.211 5c-1.102 0-2.033.202-2.792.605A3.592 3.592 0 0 0 .747 7.383c-.296.664-.445 1.47-.445 2.42H3.38c0-.546.078-.979.232-1.3.26-.58.77-.87 1.53-.87.355 0 .657.065.906.195.25.13.427.326.534.587.095.19.142.41.142.658 0 .38-.112.759-.338 1.138-.213.368-.593.866-1.138 1.495L0 17.841v.053h8.579a4.051 4.051 0 0 1-1.307-1.617 5.884 5.884 0 0 1-.345-1.086H5.95c.297-.337.573-.646.835-.936a9.789 9.789 0 0 1-.04-.893H7.6l.246-.268c.266-.29.523-.571.781-.856.282-.31.519-.609.709-.899-.186.01-.374.023-.566.038-.499.027-.95.074-1.355.142l.968-5.703Z" clip-rule="evenodd"></path><path fill="currentColor" d="M13.04 18.08c-2.232 0-3.685-.735-4.358-2.204-.292-.673-.437-1.481-.437-2.423h2.928c0 .583.072 1.043.218 1.38.258.572.763.858 1.515.858.37 0 .684-.073.942-.22.258-.156.449-.375.572-.655.112-.258.168-.55.168-.875 0-.36-.061-.673-.185-.943-.202-.448-.583-.768-1.144-.959-.55-.19-1.262-.286-2.137-.286-.381 0-.78.017-1.195.05-.415.023-.79.062-1.127.118l1.026-6.04h7.454l-.555 2.507h-4.51l-.319 1.682a7.293 7.293 0 0 1 1.598-.185c.92 0 1.711.18 2.373.539a3.146 3.146 0 0 1 1.447 1.531c.258.572.387 1.223.387 1.952 0 .73-.129 1.369-.387 1.918-.325.73-.852 1.29-1.582 1.683-.729.381-1.626.572-2.692.572Z"></path><path fill="currentColor" d="M18.297 11.033c-.728 0-1.193-.228-1.405-.702a1.489 1.489 0 0 1-.118-.617c0-.22.034-.432.118-.618.212-.473.677-.71 1.405-.71.727 0 1.192.237 1.404.71.084.178.127.38.127.618 0 .228-.043.431-.127.617-.203.474-.677.702-1.404.702Zm-2.632 5.485 6.133-8.04h1.235l-6.107 8.04h-1.261Zm2.632-6.348c.169 0 .279-.05.33-.169a.761.761 0 0 0 .042-.287.846.846 0 0 0-.043-.296c-.05-.11-.16-.17-.33-.17-.169 0-.279.06-.33.17a.757.757 0 0 0-.042.296c0 .135.009.228.043.287.05.119.16.17.33.17Zm3.535 4.365c-.727 0-1.192-.228-1.404-.702a1.489 1.489 0 0 1-.118-.617c0-.22.034-.423.118-.618.212-.465.677-.702 1.404-.702.728 0 1.201.237 1.404.702.085.186.127.398.127.618 0 .228-.042.43-.127.617-.203.474-.676.702-1.404.702Zm0-.863c.17 0 .28-.05.33-.169a.727.727 0 0 0 .042-.287.824.824 0 0 0-.042-.288c-.05-.11-.16-.17-.33-.17-.169 0-.279.06-.33.17-.034.068-.042.16-.042.288 0 .135.008.236.042.287.051.119.161.17.33.17Z"></path></symbol>
<symbol fill="currenctColor" viewBox="0 0 24 24" id="percent50"><path fill="currentColor" d="M18.902 11.394c-.731 0-1.2-.23-1.412-.706-.085-.188-.12-.4-.12-.622 0-.22.035-.434.12-.62.213-.477.68-.716 1.413-.716.731 0 1.2.239 1.412.715.085.179.128.383.128.621 0 .23-.043.434-.128.622-.204.476-.68.706-1.413.706Zm-2.647 5.519 6.17-8.089h1.243l-6.145 8.089h-1.268Zm2.648-6.387c.17 0 .28-.051.331-.17a.763.763 0 0 0 .043-.29.85.85 0 0 0-.043-.297c-.05-.111-.161-.17-.332-.17-.17 0-.28.059-.331.17a.762.762 0 0 0-.043.297c0 .137.009.23.043.29.05.119.161.17.331.17Zm3.557 4.391c-.732 0-1.2-.23-1.413-.706-.085-.187-.12-.4-.12-.621 0-.222.035-.426.12-.622.213-.468.68-.706 1.413-.706.732 0 1.208.238 1.412.706.085.188.128.4.128.622 0 .23-.043.434-.128.62-.204.477-.68.707-1.412.707Zm0-.868c.17 0 .28-.05.332-.17a.731.731 0 0 0 .042-.29.829.829 0 0 0-.042-.289c-.051-.11-.162-.17-.332-.17s-.281.06-.332.17c-.034.068-.043.162-.043.29 0 .136.009.238.043.289.05.12.162.17.332.17Z"></path><path fill="currentColor" fill-rule="evenodd" d="M10.733 17.978c.77.44 1.704.66 2.804.66 1.089 0 2.013-.22 2.772-.66.77-.44 1.341-1.1 1.715-1.98.198-.462.347-.978.446-1.55.11-.572.165-1.221.165-1.947 0-.127-.002-.25-.005-.372-.931-.066-1.538-.417-1.83-1.072a2.297 2.297 0 0 1-.184-.953c0-.34.053-.666.183-.953a1.66 1.66 0 0 1 .852-.855 3.866 3.866 0 0 0-1.342-1.272c-.76-.44-1.683-.66-2.772-.66-1.1 0-2.035.22-2.804.66-.76.44-1.326 1.1-1.7 1.98a6.928 6.928 0 0 0-.445 1.55 11.31 11.31 0 0 0-.149 1.947c0 .737.05 1.391.149 1.963.099.561.247 1.072.445 1.534.374.88.94 1.54 1.7 1.98Zm4.503-2.854c-.297.649-.863.973-1.699.973-.847 0-1.419-.324-1.716-.973a3.61 3.61 0 0 1-.214-.94c-.033-.396-.05-.957-.05-1.683 0-.726.017-1.287.05-1.683.044-.396.115-.715.214-.957.297-.648.87-.973 1.716-.973.836 0 1.402.325 1.7.973.11.242.18.556.214.94.033.386.05.952.05 1.7s-.017 1.314-.05 1.7c-.033.384-.105.692-.215.923Z" clip-rule="evenodd"></path><path fill="currentColor" fill-rule="evenodd" d="M9.516 6.425 9.61 6H1.682L.591 12.424c.357-.06.757-.101 1.199-.125.44-.036.864-.054 1.27-.054.93 0 1.688.102 2.273.305.596.202 1.002.542 1.217 1.02.13.286.196.62.196 1.002 0 .346-.06.656-.178.93-.132.299-.335.531-.609.698-.274.155-.608.233-1.002.233-.8 0-1.336-.304-1.61-.913-.156-.358-.233-.847-.233-1.467H0c0 1.002.155 1.86.465 2.577.716 1.563 2.261 2.344 4.635 2.344 1.133 0 2.088-.203 2.863-.608.269-.145.511-.31.728-.498a4.866 4.866 0 0 1-.924-1.445 7.82 7.82 0 0 1-.5-1.726 13.058 13.058 0 0 1-.168-2.209c0-.752.046-1.422.137-2.011a5.902 5.902 0 0 0-1.653-.218c-.548 0-1.115.066-1.7.197l.34-1.79H7.72l.047-.113c.393-.926.976-1.635 1.749-2.128Z" clip-rule="evenodd"></path></symbol>
<symbol fill="none" viewBox="0 0 24 24" id="profile"><path stroke="currentColor" stroke-width="2" d="M12 12a5 5 0 1 0 0-10 5 5 0 0 0 0 10Z"></path><path stroke="currentColor" stroke-linecap="round" stroke-linejoin="round" stroke-width="2" d="M17 22H5.266a2 2 0 0 1-1.985-2.248l.39-3.124A3 3 0 0 1 6.65 14h1.115a2 2 0 0 0 1.789-1.106L10 12m9 1v6m-3-3h6"></path></symbol>
<symbol viewBox="0 0 44 44" id="pulsar"><circle cx="22" cy="22" fill="currentColor" r="6" ></circle><circle cx="22" cy="22" opacity="0.12" fill="currentColor" r="22" ></circle><circle cx="22" cy="22" opacity="0.12" fill="currentColor" r="22"><animate attributeName="r" from="6" to="22" dur="1.5s" begin="0s" repeatCount="indefinite" ></animate><animate attributeName="opacity" from="0.12" to="0" dur="1.5s" begin="0s" repeatCount="indefinite" ></animate></circle></symbol>
<symbol viewBox="0 0 24 24" fill="currentColor" id="reward"><g clip-path="url(#a)"><g clip-path="url(#b)"><path d="m19.456 4.153.798 1.533c.08.155.183.297.305.421l.994 1.014L24 4.674l-2.939-1.735L19.326 0l-2.441 2.442.281.047a3.189 3.189 0 0 1 2.29 1.664ZM3.75 5.681l.803-1.536a3.19 3.19 0 0 1 2.286-1.659l.275-.046L4.674 0 2.939 2.939 0 4.674l2.446 2.445 1-1.02c.121-.124.223-.264.304-.418ZM4.545 19.846l-.798-1.533a1.766 1.766 0 0 0-.305-.421l-.994-1.014L0 19.326l2.939 1.735L4.674 24l2.442-2.442-.281-.047a3.189 3.189 0 0 1-2.29-1.665ZM20.555 17.9a1.766 1.766 0 0 0-.304.419l-.803 1.536a3.19 3.19 0 0 1-2.287 1.658l-.275.047 2.44 2.44 1.735-2.939 2.94-1.735-2.447-2.445-1 1.02ZM12 5.949a6.058 6.058 0 0 0-6.05 6.05A6.058 6.058 0 0 0 12 18.05 6.058 6.058 0 0 0 18.05 12 6.058 6.058 0 0 0 12 5.949Zm-.112 5.343H12c1.156 0 2.096.94 2.096 2.096a2.1 2.1 0 0 1-1.393 1.975v1.345h-1.406v-1.345a2.1 2.1 0 0 1-1.393-1.975h1.406a.69.69 0 1 0 .802-.68H12a2.099 2.099 0 0 1-2.096-2.097 2.1 2.1 0 0 1 1.393-1.974V7.29h1.406v1.346a2.1 2.1 0 0 1 1.393 1.974H12.69a.69.69 0 1 0-.802.681Z"></path><path d="m18.202 19.203.803-1.536a3.17 3.17 0 0 1 .546-.75l1.214-1.24c.385-.392.566-.95.486-1.494l-.253-1.716a3.169 3.169 0 0 1 0-.928l.255-1.715a1.776 1.776 0 0 0-.486-1.496l-1.212-1.236a3.169 3.169 0 0 1-.548-.756l-.799-1.534a1.776 1.776 0 0 0-1.274-.926L15.23 3.59c-.31-.052-.61-.15-.892-.29l-1.546-.772a1.768 1.768 0 0 0-1.576 0l-1.547.77c-.28.14-.58.237-.889.288l-1.707.287a1.776 1.776 0 0 0-1.273.924l-.804 1.536a3.17 3.17 0 0 1-.545.75l-1.215 1.24c-.384.391-.566.95-.486 1.493l.253 1.716c.045.308.045.62 0 .928l-.255 1.715c-.08.544.101 1.103.486 1.496l1.212 1.237c.22.223.404.478.549.756l.798 1.533c.255.49.731.836 1.275.927l1.704.286c.31.052.61.15.891.29l1.546.771a1.776 1.776 0 0 0 1.576.001l1.548-.77c.28-.14.58-.237.888-.289l1.708-.286a1.776 1.776 0 0 0 1.273-.924Zm-6.201.254c-4.112 0-7.457-3.346-7.457-7.457 0-4.112 3.345-7.457 7.457-7.457S19.458 7.888 19.458 12c0 4.111-3.345 7.457-7.457 7.457Z"></path></g></g><defs><clipPath id="a"><path d="M0 0h24v24H0z"></path></clipPath><clipPath id="b"><path d="M0 0h24v24H0z"></path></clipPath></defs></symbol>
<symbol fill="none" viewBox="0 0 16 16" id="search"><path fill="currentColor" d="M11.732 10.318h-.741l-.263-.253a6.095 6.095 0 0 0 1.389-5.009C11.676 2.45 9.498.366 6.87.047a6.103 6.103 0 0 0-6.823 6.82c.319 2.626 2.402 4.802 5.011 5.243a6.104 6.104 0 0 0 5.012-1.388l.253.262v.741l3.989 3.987a.992.992 0 0 0 1.398 0 .99.99 0 0 0 0-1.398l-3.979-3.996Zm-5.631 0a4.216 4.216 0 0 1-4.223-4.22A4.216 4.216 0 0 1 6.1 1.876a4.216 4.216 0 0 1 4.223 4.22 4.216 4.216 0 0 1-4.223 4.221Z"></path></symbol>
<symbol fill="none" viewBox="0 0 16 16" id="settings"><path fill="currentColor" d="M14.117 8.783c.034-.25.051-.508.051-.783 0-.267-.017-.533-.06-.783l1.74-1.317a.401.401 0 0 0 .102-.508l-1.645-2.767c-.102-.183-.317-.242-.505-.183l-2.048.8a6.093 6.093 0 0 0-1.388-.784L10.056.342A.411.411 0 0 0 9.645 0h-3.29a.402.402 0 0 0-.403.342l-.308 2.116c-.505.2-.968.475-1.388.784l-2.047-.8a.414.414 0 0 0-.506.183L.067 5.392c-.103.175-.069.391.103.508l1.739 1.317c-.043.25-.077.525-.077.783s.017.533.06.783L.152 10.1a.401.401 0 0 0-.102.508l1.645 2.767c.102.183.317.242.505.183l2.048-.8c.428.317.882.584 1.387.784l.309 2.116c.043.2.205.342.411.342h3.29a.396.396 0 0 0 .402-.342l.309-2.116c.505-.2.968-.467 1.388-.784l2.047.8c.189.067.403 0 .506-.183l1.645-2.767a.379.379 0 0 0-.103-.508l-1.722-1.317ZM8 11c-1.696 0-3.084-1.35-3.084-3S6.304 5 8 5c1.696 0 3.084 1.35 3.084 3S9.696 11 8 11Z"></path></symbol>
<symbol fill="none" viewBox="0 0 24 24" id="skip"><path fill="currentColor" d="M7.05 4.82c4.04-2.65 9.49-1.63 12.27 2.35 2.78 3.98 1.84 9.66-2.21 12.49S7.45 21.5 4.62 17.45c-.9-1.29-1.4-2.73-1.55-4.19l.56-.07 1.25-.15c.12 1.18.51 2.34 1.23 3.37 2.26 3.23 6.73 4.02 9.96 1.76 3.23-2.26 4.02-6.73 1.76-9.96-2.26-3.23-6.53-3.98-9.74-1.9l1.5 2.14H5.95l-2.07-.01H3.5l2.08-5.72 1.47 2.1Z"></path></symbol>
<symbol fill="none" viewBox="0 0 34 49" id="slider-bubble"><path fill="#fff" d="M34 17.64C34 7.948 25.724.17 15.782.85 7.446 1.423.675 8.076.045 16.329c-.705 9.222 7.256 15.593 13.007 21.79a11.413 11.413 0 0 1 2.945 7.639l-.006 2.807h2l.007-2.807c0-2.817 1.05-5.54 2.945-7.639C26.463 32.1 34 26.521 34 17.645v-.005Z"></path></symbol>
<symbol fill="none" viewBox="0 0 24 24" id="stopwatch"><path fill="currentColor" d="M12 2c-5.385 0-9.75 4.365-9.75 9.75A9.75 9.75 0 0 0 12 21.5a9.75 9.75 0 0 0 9.75-9.75C21.744 6.368 17.382 2.006 12 2Zm5.25 10.5H12a.75.75 0 0 1-.75-.75V6.5a.75.75 0 0 1 1.5 0V11h4.5a.75.75 0 0 1 0 1.5Z"></path></symbol>
<symbol viewBox="0 0 25 24" id="submit"><path fill="currentColor" d="M20.5 9.001a2.99 2.99 0 0 0-2.659-2.966 12.563 12.563 0 0 0-.342 2.966c-.004.999.11 1.995.342 2.966A2.99 2.99 0 0 0 20.5 9.001ZM12.167 17.911l-5.788-1.845 2.632 6.475a2.328 2.328 0 1 0 4.32-1.74l-1.164-2.89Z"></path><path fill="currentColor" d="M19.5 0c-.36 0-.716.063-1.054.185L3.23 5.037A3.818 3.818 0 0 0 .5 9a3.81 3.81 0 0 0 2.7 3.953l15.25 4.862c.336.121.692.184 1.05.185 2.85 0 5-3.869 5-9s-2.15-9-5-9Zm0 16c-1.416 0-3-2.994-3-7s1.584-7 3-7 3 2.994 3 7-1.584 7-3 7Z"></path></symbol>
<symbol fill="none" viewBox="0 0 18 18" id="swap"><path fill="#0C1920" fill-opacity=".95" d="m16.818 14.035-3 3a.769.769 0 0 1-1.069 0 .76.76 0 0 1 0-1.069l1.725-1.715H1.284a.75.75 0 1 1 0-1.5h13.19l-1.725-1.716a.76.76 0 0 1 1.07-1.069l3 3a.76.76 0 0 1 0 1.07Zm-13.069-6a.769.769 0 0 0 1.07 0 .76.76 0 0 0 0-1.069L3.092 5.251h13.19a.75.75 0 0 0 0-1.5H3.094l1.725-1.716A.76.76 0 0 0 3.75.966l-3 3a.76.76 0 0 0 0 1.07l3 3Z"></path></symbol>
<symbol viewBox="0 0 24 24" id="thunder">
    <path d="M7.00195 2V13H10.002V22L17.002 10H13.002L17.002 2H7.00195Z" fill="#00B0FF"></path>
  </symbol>
<symbol viewBox="0 0 24 24" id="trash"><path fill="currentColor" d="M6.857 18.222C6.857 19.2 7.63 20 8.571 20h6.858c.942 0 1.714-.8 1.714-1.778V9.333c0-.977-.772-1.777-1.714-1.777H8.57c-.942 0-1.714.8-1.714 1.777v8.89ZM17.143 4.89H15l-.609-.631a.85.85 0 0 0-.6-.258H10.21a.85.85 0 0 0-.6.258L9 4.888H6.857c-.471 0-.857.4-.857.89 0 .489.386.889.857.889h10.286c.471 0 .857-.4.857-.89 0-.488-.386-.888-.857-.888Z"></path></symbol>
<symbol fill="none" viewBox="0 0 156 156" id="unavailable"><path fill="currentColor" fill-rule="evenodd" d="M109.23 118.84A51.185 51.185 0 0 1 78 129.409c-28.392 0-51.41-23.017-51.41-51.409a51.184 51.184 0 0 1 10.57-31.23l72.07 72.07Zm9.61-9.61L46.77 37.16A51.184 51.184 0 0 1 78 26.59c28.392 0 51.409 23.018 51.409 51.41a51.185 51.185 0 0 1-10.569 31.23ZM143 78c0 35.899-29.101 65-65 65-35.898 0-65-29.101-65-65 0-35.898 29.102-65 65-65 35.899 0 65 29.102 65 65Z" clip-rule="evenodd"></path></symbol>
<symbol fill="none" viewBox="0 0 25 24" id="user"><path fill="currentColor" d="M12.5 12c2.21 0 4-1.79 4-4s-1.79-4-4-4-4 1.79-4 4 1.79 4 4 4Zm0 2c-2.67 0-8 1.34-8 4v2h16v-2c0-2.66-5.33-4-8-4Z"></path></symbol>
<symbol fill="currentColor" viewBox="0 0 20 20" id="wallet"><g fill="currentColor" clip-path="url(#a)"><path d="M10.617 4.072a2.873 2.873 0 0 1 .027-1.625H6.156a1 1 0 0 0-1 1v.625h5.46ZM7.212 11.444a2.027 2.027 0 0 0-2.024-2.025H2.25a1 1 0 0 0-1 1v2.05a1 1 0 0 0 1 1h2.938a2.027 2.027 0 0 0 2.024-2.025Zm-2.608-.64h1.16v1.172h-1.16v-1.172Z"></path><path d="M18.069 16.218a2 2 0 0 0 .586-1.415V7.946c0-.528-.21-1.036-.58-1.413l-.686-.698a1.983 1.983 0 0 0-1.414-.591H4.55a2 2 0 0 0-2 2v1.004h2.636a3.2 3.2 0 0 1 3.196 3.196 3.2 3.2 0 0 1-3.196 3.196H2.55v.966a2 2 0 0 0 2 2h11.3a2 2 0 0 0 1.415-.585l.803-.803ZM15.543 4.042a2.012 2.012 0 0 0-1.85-2.792 2.012 2.012 0 0 0-1.85 2.792h3.7Z"></path></g><defs><clipPath id="a"><path fill="#fff" d="M0 0h20v20H0z"></path></clipPath></defs></symbol>
<symbol fill="none" viewBox="0 0 44 44" id="weekly"><path fill="#fff" d="M34.833 1.833a1.834 1.834 0 0 0-3.667 0V5.5h3.667V1.833ZM12.833 1.833a1.834 1.834 0 0 0-3.667 0V5.5h3.667V1.833ZM38.5 7.333h-33a5.5 5.5 0 0 0-5.5 5.5v23.834a5.5 5.5 0 0 0 5.5 5.5h33a5.5 5.5 0 0 0 5.5-5.5V12.833a5.5 5.5 0 0 0-5.5-5.5Zm1.833 29.334A1.834 1.834 0 0 1 38.5 38.5h-33a1.834 1.834 0 0 1-1.833-1.833V16.5h36.666v20.167Z"></path><path fill="#fff" d="M13.75 20.167h-5.5a.917.917 0 0 0-.916.916v3.667c0 .506.41.917.917.917h5.5c.506 0 .916-.41.916-.917v-3.667a.917.917 0 0 0-.916-.916ZM24.75 20.167h-5.5a.917.917 0 0 0-.916.916v3.667c0 .506.41.917.917.917h5.5c.506 0 .916-.41.916-.917v-3.667a.917.917 0 0 0-.916-.916ZM35.75 20.167h-5.5a.917.917 0 0 0-.916.916v3.667c0 .506.41.917.917.917h5.5c.506 0 .916-.41.916-.917v-3.667a.917.917 0 0 0-.916-.916Z"></path></symbol>
<symbol fill="currentColor" viewBox="0 0 20 20" id="wine-glasses"><g fill="currentColor" clip-path="url(#a)"><path d="m3.642 12.39 1.762 2.26v4.178H3.52V20h4.94v-1.172H6.577v-4.177l1.763-2.26c.515-.66.821-1.453.9-2.27H2.741c.078.817.385 1.61.9 2.27ZM9.1 8.538 7.896 4.242H4.084L2.882 8.538a4.306 4.306 0 0 0-.093.411h6.403a4.3 4.3 0 0 0-.093-.411ZM17.119 8.538l-1.202-4.296h-3.813l-1.202 4.296a4.306 4.306 0 0 0-.093.411h6.403a4.336 4.336 0 0 0-.093-.411ZM16.358 12.39c.515-.66.822-1.452.9-2.269h-6.496c.078.817.384 1.61.9 2.27l1.762 2.26v4.177h-1.885V20h4.941v-1.172h-1.884v-4.177l1.762-2.26ZM6.457 1.672l.829-.828 1.14 1.141-.828.829-1.141-1.142ZM11.57 1.986 12.712.844l.828.829L12.4 2.814l-.829-.828ZM9.414 0h1.172v1.493H9.414V0Z"></path></g><defs><clipPath id="a"><path fill="#fff" d="M0 0h20v20H0z"></path></clipPath></defs></symbol>
<symbol fill="none" viewBox="0 0 14 17" id="withdraw"><path fill="currentColor" d="M4 13h6V7h4L7 0 0 7h4v6Zm-4 2h14v2H0v-2Z"></path></symbol>
</defs>
</svg>
