<svg width="128" height="128" viewBox="0 0 128 128" fill="none" xmlns="http://www.w3.org/2000/svg">
<g filter="url(#filter0_d_1_96)">
<g filter="url(#filter1_d_1_96)">
<path d="M48 24C48 19.5817 51.5817 16 56 16H104C108.418 16 112 19.5817 112 24V88C112 92.4183 108.418 96 104 96H56C51.5817 96 48 92.4183 48 88V24Z" fill="url(#paint0_linear_1_96)"/>
</g>
<g filter="url(#filter2_dd_1_96)">
<path fill-rule="evenodd" clip-rule="evenodd" d="M17.0729 27.1094C16.1868 25.7803 17.1396 24 18.737 24H36.8592C38.1966 24 39.4456 24.6684 40.1874 25.7812L55.1526 48.2289C48.1121 49.0726 41.7743 52.2023 36.9029 56.8543L17.0729 27.1094ZM81.0971 56.8543L100.927 27.1094C101.813 25.7803 100.86 24 99.2629 24H81.1407C79.8033 24 78.5544 24.6684 77.8125 25.7812L62.8474 48.2289C69.8879 49.0726 76.2256 52.2023 81.0971 56.8543Z" fill="white" fill-opacity="0.4"/>
</g>
<g filter="url(#filter3_dd_1_96)">
<path fill-rule="evenodd" clip-rule="evenodd" d="M59 112C76.6731 112 91 97.6731 91 80C91 62.3269 76.6731 48 59 48C41.3269 48 27 62.3269 27 80C27 97.6731 41.3269 112 59 112ZM59 104C72.2548 104 83 93.2548 83 80C83 66.7452 72.2548 56 59 56C45.7452 56 35 66.7452 35 80C35 93.2548 45.7452 104 59 104Z" fill="white" fill-opacity="0.4"/>
</g>
<g filter="url(#filter4_dd_1_96)">
<path d="M79 80C79 91.0457 70.0457 100 59 100C47.9543 100 39 91.0457 39 80C39 68.9543 47.9543 60 59 60C70.0457 60 79 68.9543 79 80Z" fill="white" fill-opacity="0.6"/>
</g>
</g>
<defs>
<filter id="filter0_d_1_96" x="12.7336" y="12" width="111.266" height="112" filterUnits="userSpaceOnUse" color-interpolation-filters="sRGB">
<feFlood flood-opacity="0" result="BackgroundImageFix"/>
<feColorMatrix in="SourceAlpha" type="matrix" values="0 0 0 0 0 0 0 0 0 0 0 0 0 0 0 0 0 0 127 0" result="hardAlpha"/>
<feOffset dx="4" dy="4"/>
<feGaussianBlur stdDeviation="4"/>
<feColorMatrix type="matrix" values="0 0 0 0 0.956863 0 0 0 0 0.364706 0 0 0 0 0.827451 0 0 0 0.2 0"/>
<feBlend mode="normal" in2="BackgroundImageFix" result="effect1_dropShadow_1_96"/>
<feBlend mode="normal" in="SourceGraphic" in2="effect1_dropShadow_1_96" result="shape"/>
</filter>
<filter id="filter1_d_1_96" x="40" y="8" width="80" height="96" filterUnits="userSpaceOnUse" color-interpolation-filters="sRGB">
<feFlood flood-opacity="0" result="BackgroundImageFix"/>
<feColorMatrix in="SourceAlpha" type="matrix" values="0 0 0 0 0 0 0 0 0 0 0 0 0 0 0 0 0 0 127 0" result="hardAlpha"/>
<feOffset/>
<feGaussianBlur stdDeviation="4"/>
<feComposite in2="hardAlpha" operator="out"/>
<feColorMatrix type="matrix" values="0 0 0 0 1 0 0 0 0 1 0 0 0 0 1 0 0 0 0.8 0"/>
<feBlend mode="normal" in2="BackgroundImageFix" result="effect1_dropShadow_1_96"/>
<feBlend mode="normal" in="SourceGraphic" in2="effect1_dropShadow_1_96" result="shape"/>
</filter>
<filter id="filter2_dd_1_96" x="8.73364" y="20" width="100.533" height="48.8543" filterUnits="userSpaceOnUse" color-interpolation-filters="sRGB">
<feFlood flood-opacity="0" result="BackgroundImageFix"/>
<feColorMatrix in="SourceAlpha" type="matrix" values="0 0 0 0 0 0 0 0 0 0 0 0 0 0 0 0 0 0 127 0" result="hardAlpha"/>
<feOffset/>
<feGaussianBlur stdDeviation="2"/>
<feComposite in2="hardAlpha" operator="out"/>
<feColorMatrix type="matrix" values="0 0 0 0 1 0 0 0 0 1 0 0 0 0 1 0 0 0 1 0"/>
<feBlend mode="normal" in2="BackgroundImageFix" result="effect1_dropShadow_1_96"/>
<feColorMatrix in="SourceAlpha" type="matrix" values="0 0 0 0 0 0 0 0 0 0 0 0 0 0 0 0 0 0 127 0" result="hardAlpha"/>
<feOffset dy="4"/>
<feGaussianBlur stdDeviation="4"/>
<feComposite in2="hardAlpha" operator="out"/>
<feColorMatrix type="matrix" values="0 0 0 0 1 0 0 0 0 1 0 0 0 0 1 0 0 0 1 0"/>
<feBlend mode="normal" in2="effect1_dropShadow_1_96" result="effect2_dropShadow_1_96"/>
<feBlend mode="normal" in="SourceGraphic" in2="effect2_dropShadow_1_96" result="shape"/>
</filter>
<filter id="filter3_dd_1_96" x="19" y="44" width="80" height="80" filterUnits="userSpaceOnUse" color-interpolation-filters="sRGB">
<feFlood flood-opacity="0" result="BackgroundImageFix"/>
<feColorMatrix in="SourceAlpha" type="matrix" values="0 0 0 0 0 0 0 0 0 0 0 0 0 0 0 0 0 0 127 0" result="hardAlpha"/>
<feOffset/>
<feGaussianBlur stdDeviation="2"/>
<feComposite in2="hardAlpha" operator="out"/>
<feColorMatrix type="matrix" values="0 0 0 0 1 0 0 0 0 1 0 0 0 0 1 0 0 0 1 0"/>
<feBlend mode="normal" in2="BackgroundImageFix" result="effect1_dropShadow_1_96"/>
<feColorMatrix in="SourceAlpha" type="matrix" values="0 0 0 0 0 0 0 0 0 0 0 0 0 0 0 0 0 0 127 0" result="hardAlpha"/>
<feOffset dy="4"/>
<feGaussianBlur stdDeviation="4"/>
<feComposite in2="hardAlpha" operator="out"/>
<feColorMatrix type="matrix" values="0 0 0 0 1 0 0 0 0 1 0 0 0 0 1 0 0 0 1 0"/>
<feBlend mode="normal" in2="effect1_dropShadow_1_96" result="effect2_dropShadow_1_96"/>
<feBlend mode="normal" in="SourceGraphic" in2="effect2_dropShadow_1_96" result="shape"/>
</filter>
<filter id="filter4_dd_1_96" x="31" y="56" width="56" height="56" filterUnits="userSpaceOnUse" color-interpolation-filters="sRGB">
<feFlood flood-opacity="0" result="BackgroundImageFix"/>
<feColorMatrix in="SourceAlpha" type="matrix" values="0 0 0 0 0 0 0 0 0 0 0 0 0 0 0 0 0 0 127 0" result="hardAlpha"/>
<feOffset/>
<feGaussianBlur stdDeviation="2"/>
<feComposite in2="hardAlpha" operator="out"/>
<feColorMatrix type="matrix" values="0 0 0 0 1 0 0 0 0 1 0 0 0 0 1 0 0 0 1 0"/>
<feBlend mode="normal" in2="BackgroundImageFix" result="effect1_dropShadow_1_96"/>
<feColorMatrix in="SourceAlpha" type="matrix" values="0 0 0 0 0 0 0 0 0 0 0 0 0 0 0 0 0 0 127 0" result="hardAlpha"/>
<feOffset dy="4"/>
<feGaussianBlur stdDeviation="4"/>
<feComposite in2="hardAlpha" operator="out"/>
<feColorMatrix type="matrix" values="0 0 0 0 1 0 0 0 0 1 0 0 0 0 1 0 0 0 1 0"/>
<feBlend mode="normal" in2="effect1_dropShadow_1_96" result="effect2_dropShadow_1_96"/>
<feBlend mode="normal" in="SourceGraphic" in2="effect2_dropShadow_1_96" result="shape"/>
</filter>
<linearGradient id="paint0_linear_1_96" x1="80" y1="16" x2="80" y2="96" gradientUnits="userSpaceOnUse">
<stop stop-color="#FC954B"/>
<stop offset="1" stop-color="#F45DD3"/>
</linearGradient>
</defs>
</svg>
