<svg width="128" height="128" viewBox="0 0 128 128" fill="none" xmlns="http://www.w3.org/2000/svg">
<g filter="url(#filter0_d_1_126)">
<g filter="url(#filter1_d_1_126)">
<path d="M112 58C112 80.0914 94.0914 98 72 98C49.9086 98 32 80.0914 32 58C32 35.9086 49.9086 18 72 18C94.0914 18 112 35.9086 112 58Z" fill="url(#paint0_linear_1_126)"/>
</g>
<g filter="url(#filter2_dd_1_126)">
<path fill-rule="evenodd" clip-rule="evenodd" d="M61.7524 33.1863C60.9925 31.8048 59.0074 31.8048 58.2475 33.1863L17.6301 107.036C16.897 108.369 17.8613 110 19.3825 110H100.617C102.139 110 103.103 108.369 102.37 107.036L61.7524 33.1863ZM59.9999 54.0001C63.3137 54.0001 65.9999 56.6864 65.9999 60.0001V80.0001C65.9999 83.3138 63.3137 86.0001 59.9999 86.0001C56.6862 86.0001 53.9999 83.3138 53.9999 80.0001V60.0001C53.9999 56.6864 56.6862 54.0001 59.9999 54.0001ZM65.9999 96.0001C65.9999 99.3138 63.3137 102 59.9999 102C56.6862 102 53.9999 99.3138 53.9999 96.0001C53.9999 92.6864 56.6862 90.0001 59.9999 90.0001C63.3137 90.0001 65.9999 92.6864 65.9999 96.0001Z" fill="white" fill-opacity="0.4"/>
</g>
</g>
<defs>
<filter id="filter0_d_1_126" x="13.3797" y="14" width="110.62" height="108" filterUnits="userSpaceOnUse" color-interpolation-filters="sRGB">
<feFlood flood-opacity="0" result="BackgroundImageFix"/>
<feColorMatrix in="SourceAlpha" type="matrix" values="0 0 0 0 0 0 0 0 0 0 0 0 0 0 0 0 0 0 127 0" result="hardAlpha"/>
<feOffset dx="4" dy="4"/>
<feGaussianBlur stdDeviation="4"/>
<feColorMatrix type="matrix" values="0 0 0 0 0.956863 0 0 0 0 0.364706 0 0 0 0 0.827451 0 0 0 0.2 0"/>
<feBlend mode="normal" in2="BackgroundImageFix" result="effect1_dropShadow_1_126"/>
<feBlend mode="normal" in="SourceGraphic" in2="effect1_dropShadow_1_126" result="shape"/>
</filter>
<filter id="filter1_d_1_126" x="24" y="10" width="96" height="96" filterUnits="userSpaceOnUse" color-interpolation-filters="sRGB">
<feFlood flood-opacity="0" result="BackgroundImageFix"/>
<feColorMatrix in="SourceAlpha" type="matrix" values="0 0 0 0 0 0 0 0 0 0 0 0 0 0 0 0 0 0 127 0" result="hardAlpha"/>
<feOffset/>
<feGaussianBlur stdDeviation="4"/>
<feComposite in2="hardAlpha" operator="out"/>
<feColorMatrix type="matrix" values="0 0 0 0 1 0 0 0 0 1 0 0 0 0 1 0 0 0 0.8 0"/>
<feBlend mode="normal" in2="BackgroundImageFix" result="effect1_dropShadow_1_126"/>
<feBlend mode="normal" in="SourceGraphic" in2="effect1_dropShadow_1_126" result="shape"/>
</filter>
<filter id="filter2_dd_1_126" x="9.3797" y="28.1502" width="101.241" height="93.8498" filterUnits="userSpaceOnUse" color-interpolation-filters="sRGB">
<feFlood flood-opacity="0" result="BackgroundImageFix"/>
<feColorMatrix in="SourceAlpha" type="matrix" values="0 0 0 0 0 0 0 0 0 0 0 0 0 0 0 0 0 0 127 0" result="hardAlpha"/>
<feOffset/>
<feGaussianBlur stdDeviation="2"/>
<feComposite in2="hardAlpha" operator="out"/>
<feColorMatrix type="matrix" values="0 0 0 0 1 0 0 0 0 1 0 0 0 0 1 0 0 0 1 0"/>
<feBlend mode="normal" in2="BackgroundImageFix" result="effect1_dropShadow_1_126"/>
<feColorMatrix in="SourceAlpha" type="matrix" values="0 0 0 0 0 0 0 0 0 0 0 0 0 0 0 0 0 0 127 0" result="hardAlpha"/>
<feOffset dy="4"/>
<feGaussianBlur stdDeviation="4"/>
<feComposite in2="hardAlpha" operator="out"/>
<feColorMatrix type="matrix" values="0 0 0 0 1 0 0 0 0 1 0 0 0 0 1 0 0 0 1 0"/>
<feBlend mode="normal" in2="effect1_dropShadow_1_126" result="effect2_dropShadow_1_126"/>
<feBlend mode="normal" in="SourceGraphic" in2="effect2_dropShadow_1_126" result="shape"/>
</filter>
<linearGradient id="paint0_linear_1_126" x1="72" y1="18" x2="72" y2="98" gradientUnits="userSpaceOnUse">
<stop stop-color="#FC954B"/>
<stop offset="1" stop-color="#F45DD3"/>
</linearGradient>
</defs>
</svg>
