<svg width="128" height="128" viewBox="0 0 128 128" fill="none" xmlns="http://www.w3.org/2000/svg">
<g filter="url(#filter0_d_1_278)">
<g filter="url(#filter1_d_1_278)">
<path d="M72 87.5294C94.0914 87.5294 112 71.517 112 51.7647C112 32.0124 94.0914 16 72 16C49.9086 16 32 32.0124 32 51.7647C32 59.5294 34.7674 66.7161 39.4684 72.5795L32 92L63.1111 86.6432C65.9699 87.2232 68.9449 87.5294 72 87.5294Z" fill="url(#paint0_linear_1_278)"/>
</g>
<g filter="url(#filter2_dd_1_278)">
<path fill-rule="evenodd" clip-rule="evenodd" d="M56 107.529C33.9086 107.529 16 91.517 16 71.7647C16 52.0124 33.9086 36 56 36C78.0914 36 96 52.0124 96 71.7647C96 79.5294 93.2326 86.7161 88.5316 92.5795L96 112L64.8889 106.643C62.0301 107.223 59.0551 107.529 56 107.529ZM62 74C62 77.3137 59.3137 80 56 80C52.6863 80 50 77.3137 50 74C50 70.6863 52.6863 68 56 68C59.3137 68 62 70.6863 62 74ZM42 74C42 76.2091 40.2091 78 38 78C35.7909 78 34 76.2091 34 74C34 71.7909 35.7909 70 38 70C40.2091 70 42 71.7909 42 74ZM78 74C78 76.2091 76.2091 78 74 78C71.7909 78 70 76.2091 70 74C70 71.7909 71.7909 70 74 70C76.2091 70 78 71.7909 78 74Z" fill="white" fill-opacity="0.4"/>
</g>
</g>
<defs>
<filter id="filter0_d_1_278" x="12" y="12" width="112" height="112" filterUnits="userSpaceOnUse" color-interpolation-filters="sRGB">
<feFlood flood-opacity="0" result="BackgroundImageFix"/>
<feColorMatrix in="SourceAlpha" type="matrix" values="0 0 0 0 0 0 0 0 0 0 0 0 0 0 0 0 0 0 127 0" result="hardAlpha"/>
<feOffset dx="4" dy="4"/>
<feGaussianBlur stdDeviation="4"/>
<feColorMatrix type="matrix" values="0 0 0 0 0.180392 0 0 0 0 0.764706 0 0 0 0 0.835294 0 0 0 0.4 0"/>
<feBlend mode="normal" in2="BackgroundImageFix" result="effect1_dropShadow_1_278"/>
<feBlend mode="normal" in="SourceGraphic" in2="effect1_dropShadow_1_278" result="shape"/>
</filter>
<filter id="filter1_d_1_278" x="24" y="8" width="96" height="92" filterUnits="userSpaceOnUse" color-interpolation-filters="sRGB">
<feFlood flood-opacity="0" result="BackgroundImageFix"/>
<feColorMatrix in="SourceAlpha" type="matrix" values="0 0 0 0 0 0 0 0 0 0 0 0 0 0 0 0 0 0 127 0" result="hardAlpha"/>
<feOffset/>
<feGaussianBlur stdDeviation="4"/>
<feComposite in2="hardAlpha" operator="out"/>
<feColorMatrix type="matrix" values="0 0 0 0 1 0 0 0 0 1 0 0 0 0 1 0 0 0 0.8 0"/>
<feBlend mode="normal" in2="BackgroundImageFix" result="effect1_dropShadow_1_278"/>
<feBlend mode="normal" in="SourceGraphic" in2="effect1_dropShadow_1_278" result="shape"/>
</filter>
<filter id="filter2_dd_1_278" x="8" y="32" width="96" height="92" filterUnits="userSpaceOnUse" color-interpolation-filters="sRGB">
<feFlood flood-opacity="0" result="BackgroundImageFix"/>
<feColorMatrix in="SourceAlpha" type="matrix" values="0 0 0 0 0 0 0 0 0 0 0 0 0 0 0 0 0 0 127 0" result="hardAlpha"/>
<feOffset/>
<feGaussianBlur stdDeviation="2"/>
<feComposite in2="hardAlpha" operator="out"/>
<feColorMatrix type="matrix" values="0 0 0 0 1 0 0 0 0 1 0 0 0 0 1 0 0 0 1 0"/>
<feBlend mode="normal" in2="BackgroundImageFix" result="effect1_dropShadow_1_278"/>
<feColorMatrix in="SourceAlpha" type="matrix" values="0 0 0 0 0 0 0 0 0 0 0 0 0 0 0 0 0 0 127 0" result="hardAlpha"/>
<feOffset dy="4"/>
<feGaussianBlur stdDeviation="4"/>
<feComposite in2="hardAlpha" operator="out"/>
<feColorMatrix type="matrix" values="0 0 0 0 1 0 0 0 0 1 0 0 0 0 1 0 0 0 1 0"/>
<feBlend mode="normal" in2="effect1_dropShadow_1_278" result="effect2_dropShadow_1_278"/>
<feBlend mode="normal" in="SourceGraphic" in2="effect2_dropShadow_1_278" result="shape"/>
</filter>
<linearGradient id="paint0_linear_1_278" x1="72" y1="16" x2="72" y2="92" gradientUnits="userSpaceOnUse">
<stop stop-color="#31C8D2"/>
<stop offset="1" stop-color="#1AA6E1"/>
</linearGradient>
</defs>
</svg>
