<svg xmlns="http://www.w3.org/2000/svg" width="64" height="64" fill="none"><g clip-path="url(#a)"><path fill="url(#b)" d="M67.087 36.412c3.818-18.55-8.125-36.682-26.674-40.5C21.863-7.905 3.73 4.037-.087 22.587c-3.818 18.55 8.125 36.682 26.674 40.5 18.55 3.818 36.682-8.125 40.5-26.675Z" opacity=".6" style="mix-blend-mode:color-dodge"/><path fill="url(#c)" d="M27.673 49.217c14.86 0 26.907-8.107 26.907-18.107S42.533 13.003 27.673 13.003C12.812 13.003.765 21.11.765 31.11s12.047 18.107 26.908 18.107Z" style="mix-blend-mode:color-dodge"/><path fill="url(#d)" d="M18.707 10.32c.428-.413.456-2.5.456-2.5s.064 2.201.335 2.436c.263.228 1.851.534 1.851.534s-1.517.057-1.794.313c-.192.178-.392 2.322-.392 2.322s-.157-1.909-.448-2.186c-.292-.27-1.617-.449-1.617-.449s1.282-.15 1.61-.463v-.007Z"/><path fill="url(#e)" d="M23.763 10.619a4.546 4.546 0 0 1-4.542 4.543 4.546 4.546 0 0 1-4.543-4.543 4.541 4.541 0 0 1 4.543-4.543 4.541 4.541 0 0 1 4.542 4.543Z" opacity=".6" style="mix-blend-mode:color-dodge"/><path fill="url(#f)" d="M39.795 31.587c.784-.759.837-4.59.837-4.59s.117 4.04.614 4.472c.484.418 3.399.98 3.399.98s-2.785.105-3.295.576c-.352.326-.718 4.261-.718 4.261s-.288-3.503-.824-4.013c-.536-.497-2.968-.824-2.968-.824s2.353-.274 2.955-.85v-.012Z"/><path fill="url(#g)" d="M49.078 32.135c0 4.602-3.74 8.34-8.34 8.34-4.602 0-8.341-3.738-8.341-8.34a8.338 8.338 0 0 1 8.34-8.34 8.338 8.338 0 0 1 8.34 8.34Z" opacity=".6" style="mix-blend-mode:color-dodge"/><path fill="#D2FFF1" d="M5.912 38.501s2.496-2.013 5.8-2.7c0 0 .228-12.828 1.615-13.84 1.386-1.013 5.992-1.905 5.992-1.905s.385-5.582 1.663-6.607c1.278-1.025 16.469-2.893 22.424-.506 2.725 1.085 3.255 1.254 3.243 2.314 0 1.05-.144 6.872-.82 7.777-.675.892-7.16 2.073-7.173 2.93-.012.855-.578 5.653-1.06 6.111-.483.459-.603 4.208-.603 4.208s1.519.663 2.796.458c1.266-.205 3.678-5.558 6.053-5.413 2.375.145 9.488 2.87 17.505 15.13L9.445 44.602 5.9 38.513l.012-.012Z"/><path fill="url(#h)" d="M28.505 41.805s-.783 3.7-.602 5.714c0 0 5.449 2.411 12.598 3.17 6.751.712 10.838-.517 10.838-.517l1.11-5.667s-6.378-2.146-14.878-2.82c-5.533-.435-9.066.12-9.066.12Z"/><path fill="url(#i)" d="M28.505 41.804s5.293-1.024 12.731.037c7.439 1.06 11.2 2.652 11.2 2.652s-4.4 1.013-12.912-.157c-9.319-1.278-11.031-2.544-11.031-2.544l.012.012Z"/><path fill="#DE376D" d="M31.76 43.263c-.349.53-.952 4.835-.24 5.232.71.398 3.785 1.29 7.896 1.724.663.073 1.905-5.28.687-5.449-4.738-.639-8.065-1.929-8.342-1.507Z" opacity=".7" style="mix-blend-mode:multiply"/><path fill="#fff" d="M45.155 45.276c-1.254 1.35-3.412 4.847-2.833 5.22.59.374 8.077.097 8.415-.397.337-.507.904-5.088.374-5.1-.543-.012-5.474-.241-5.956.29v-.013Z" style="mix-blend-mode:soft-light"/><path fill="#fff" d="M29 42.383c-.314.94-.723 4.244-.482 4.642.24.397 1.989 1.036 2.158.723.157-.314.542-3.942.482-4.232-.072-.325-2.013-1.53-2.146-1.133H29Z" opacity=".5" style="mix-blend-mode:soft-light"/><path fill="url(#j)" d="M30.326 42.046s9.295-1.182 20.194 2.327c0 0-6.113.747-20.194-2.327Z"/><path fill="#FF9304" d="M31.616 42.323s8.704-.12 17.372 2.134c0 0-7.583.313-17.372-2.134Z"/><path fill="#D42F55" d="M32.87 42.624s14.226.712 9.404 1.05c-4.172.288 5.92.77 5.92.77s1.578.073 2.326-.072c0 0-5.305-1.832-11.972-2.35-5.232-.41-8.222.024-8.222.024l2.544.578Z" opacity=".5" style="mix-blend-mode:multiply"/><path fill="#D42F55" d="M32.954 41.395s-3.593.096-4.449.41c0 0-.747 3.737-.602 5.714 0 0 3.484 1.35 5.533 1.857 0 0-5.063-1.664-5.329-2.086-.265-.41.447-5.04.603-5.269.157-.229 4.244-.627 4.244-.627ZM50.93 43.962s1.157.398 1.507.543l-1.11 5.666s-.59.301-2.616.494c0 0 2.062-.35 2.267-.675.205-.325 1.181-5.232 1.049-5.4-.133-.17-1.097-.616-1.097-.616v-.012Z" opacity=".8" style="mix-blend-mode:multiply"/><path fill="#FFE016" d="M37.282 44.023s2.435.843 5.16 1.048c2.712.205 7.21.085 9.102-.41 0 0-6.787.47-14.262-.638Z"/><path fill="url(#k)" d="M21.296 43.324s-.386 3.761 0 5.738c0 0 5.666 1.833 12.852 1.845 6.787 0 10.73-1.652 10.73-1.652l.518-5.75s-6.57-1.471-15.094-1.254c-5.558.144-8.994 1.073-8.994 1.073h-.012Z"/><path fill="url(#l)" d="M21.295 43.324s5.16-1.567 12.67-1.29c7.512.277 11.418 1.47 11.418 1.47s-4.268 1.471-12.852 1.194c-9.403-.301-11.236-1.374-11.236-1.374Z"/><path fill="#DE376D" d="M24.683 44.433c-.289.566-.446 4.907.302 5.232.747.326 3.906.88 8.029.88.663 0 1.35-5.45.12-5.485-4.786-.145-8.221-1.073-8.45-.64v.013Z" opacity=".7" style="mix-blend-mode:multiply"/><path fill="#fff" d="M38.21 45.035c-1.11 1.471-2.893 5.172-2.267 5.486.627.313 8.042-.748 8.331-1.278.29-.53.374-5.148-.169-5.112-.53.036-5.46.326-5.895.904Z" style="mix-blend-mode:soft-light"/><path fill="#fff" d="M21.85 43.842c-.216.976-.277 4.292 0 4.666.278.373 2.098.82 2.219.494.12-.326.132-3.979.036-4.256-.109-.313-2.158-1.302-2.255-.904Z" opacity=".5" style="mix-blend-mode:soft-light"/><path fill="url(#m)" d="M23.128 43.372s9.114-2.146 20.326.217c0 0-6.004 1.386-20.326-.217Z"/><path fill="#FF9304" d="M24.442 43.504s8.645-1.036 17.493.314c0 0-7.498 1.097-17.493-.314Z"/><path fill="#D42F55" d="M25.72 43.673s14.226-.772 9.464.06c-4.111.724 5.968.157 5.968.157s1.579-.096 2.302-.313c0 0-5.461-1.266-12.152-1.085-5.256.132-8.186.88-8.186.88l2.592.313.012-.012Z" opacity=".5" style="mix-blend-mode:multiply"/><path fill="#D42F55" d="M25.672 42.443s-3.557.47-4.377.88c0 0-.35 3.798 0 5.739 0 0 3.605.989 5.69 1.266 0 0-5.207-1.133-5.509-1.52-.301-.385-.084-5.063.06-5.304.133-.253 4.16-1.06 4.16-1.06h-.024ZM43.828 43.13s1.194.265 1.556.374l-.519 5.75s-.554.362-2.544.76c0 0 2.014-.566 2.183-.916.168-.35.627-5.329.482-5.474-.145-.144-1.157-.494-1.157-.494Z" opacity=".8" style="mix-blend-mode:multiply"/><path fill="#FFE016" d="M30.253 44.614s2.52.59 5.232.506c2.725-.084 7.186-.663 9.018-1.362 0 0-6.703 1.169-14.25.855Z"/><path fill="url(#n)" d="M59.923 53.137c-4.111.35-10.91-5.184-14.093-8.15-3.424-3.183-4.533-5.618-4.81-7.016 0 0 2.893-4.738 3.978-5.908 0 0 3.737-.301 10.115 5.51 6.377 5.823 8.367 10.223 8.415 11.393l-3.617 4.183.012-.012Z"/><path fill="url(#o)" d="M63.528 48.954c-.772.904-5.402-.82-10.272-5.196-4.87-4.377-9.223-9.959-8.27-11.707.108-.193 1.145-.952 4.617.929 3.472 1.88 7.45 5.461 10.404 8.957 3.545 4.196 4.184 6.221 3.508 7.017h.013Z"/><path fill="#fff" d="M50.748 41.021c-.976-.832-4.955-5.256-5.208-6.293-.253-1.037 10.344 4.798 11.61 5.112 1.266.313 4.014 2.941 4.858 5.003.832 2.05-4.593-1.965-6.69-2.99-2.098-1.013.216 3.243-4.558-.832h-.012Z" opacity=".5" style="mix-blend-mode:soft-light"/><path fill="url(#p)" d="M61.671 46.952c-.337.58-4.485-1.085-9.006-5.666-5.051-5.112-6.004-7.04-5.57-7.535.435-.506 4.1.543 8.765 4.883 3.605 3.351 6.318 7.438 5.811 8.318Z"/><path fill="#FF9304" d="M60.9 47.049c.204-.808-2.158-4.027-6.438-7.993-4.292-3.966-7.174-4.967-7.403-4.738-.229.229 2.158 4.087 6.884 8.21 4.726 4.123 6.968 4.521 6.968 4.521H60.9Z"/><path fill="#D42F55" d="M50.64 39.32s-4.316-4.532-3.532-5.57c.542-.734 4.135 1.17 6.365 2.858 0 0 .808 2.038.615 2.098-.193.06-4.858-3.593-5.353-2.99-.506.603 1.917 3.605 1.917 3.605h-.012Z" opacity=".5" style="mix-blend-mode:multiply"/><path fill="#fff" d="M46.324 36.066s-1.507-2.146.832-.398c.952.712 3.062 3.557 2.749 3.882-.302.326-1.085-.554-1.905-1.398-1.314-1.374-1.676-2.086-1.676-2.086ZM58.56 41.455s.965.145 1.58.94c.614.796-.193.82-.193.82s-1.158-1.483-1.387-1.748v-.012Z"/><path fill="#FFE016" d="M58.85 41.792s2.941 3.183 3.11 4.618c.169 1.435-1.868.7-3.918-.748 0 0 3.207 2.002 3.58 1.025.386-.976-2.772-4.895-2.772-4.895Z"/><path fill="#FFE016" d="M61.37 43.601s3.4 3.906 2.278 5.232c-1.133 1.314-5.474-1.374-6.354-1.965 0 0 5.365 3.255 6.185 1.736.82-1.519-2.11-4.991-2.11-4.991v-.012Z"/><path fill="#D42F55" d="M48.711 32.521s-2.544-1.47-3.713-.47c-.362.314-3.653 5.269-3.979 5.908 0 0 .049.422.314 1.06 0 0-.193-.578 0-1.193.193-.615 3.351-5.015 3.725-5.522.386-.506 2.29-.506 3.653.217ZM63.648 48.833s-2.7 3.28-3.725 4.304c0 0-1.483.145-3.641-.771 0 0 2.966.675 3.496.398.53-.278 3.87-3.93 3.87-3.93Z" opacity=".8" style="mix-blend-mode:multiply"/><path fill="#fff" d="M48.94 40.442c-.108 1.507-2.086 5.088-2.375 4.919-.301-.169-3.834-3.098-4.967-6.088-.35-.929 2.749-5.112 3.665-4.111.916 1 3.737 4.569 3.677 5.28Z" style="mix-blend-mode:soft-light"/><path fill="#E02774" d="M59.682 48.35c.94.435-1.857 4.088-2.35 4.04-.495-.06-1.182-.073-5.04-2.64-3.858-2.569-3.002-2.713-3.074-3.16-.073-.445 2.688-3.821 3.267-3.279.578.543 4.195 3.654 7.185 5.052l.012-.012Z" opacity=".2" style="mix-blend-mode:multiply"/><path fill="#fff" d="M62.877 49.472c-.458.603-3.002 3.364-3.4 3.364-.398 0-1.217-.241-1.326-.482-.109-.253 2.387-3.135 2.592-3.171.205-.024 2.46-.145 2.134.29Z" opacity=".5" style="mix-blend-mode:soft-light"/><path fill="#FFE016" d="M57.487 47.037s-6.378-4.243-9.32-7.908c-3.93-4.907-3.302-6.559-3.302-6.559s.434 2.821 3.81 6.522c3.375 3.702 8.8 7.945 8.8 7.945h.012Z"/><path fill="#D40C55" d="M48.952 47.591s7.668-1.23 10.272 1.085c2.604 2.327.711 4.449.711 4.449s-3.291.012-6.727-2.23c-3.822-2.496-4.256-3.316-4.256-3.316v.012Z" opacity=".5" style="mix-blend-mode:multiply"/><path fill="url(#q)" d="M15.449 37.513s-.47 3.749-.133 5.738c0 0 5.63 1.953 12.815 2.122 6.788.157 10.754-1.41 10.754-1.41l.64-5.74s-6.535-1.615-15.058-1.59c-5.558.024-9.018.867-9.018.867v.013Z"/><path fill="url(#r)" d="M15.449 37.512s5.196-1.446 12.695-1.012c7.498.446 11.38 1.724 11.38 1.724s-4.303 1.374-12.875.916c-9.392-.506-11.212-1.628-11.212-1.628h.012Z"/><path fill="#DE376D" d="M18.813 38.694c-.302.555-.555 4.895.193 5.244.747.35 3.882.977 8.017 1.061.663.012 1.459-5.413.241-5.485-4.774-.253-8.198-1.254-8.44-.82h-.011Z" opacity=".7" style="mix-blend-mode:multiply"/><path fill="#fff" d="M32.327 39.586c-1.145 1.447-3.002 5.112-2.387 5.437.615.326 8.053-.566 8.354-1.097.302-.53.483-5.148-.048-5.111-.542.024-5.473.205-5.92.771Z" style="mix-blend-mode:soft-light"/><path fill="#fff" d="M15.991 38.031c-.241.964-.374 4.28-.108 4.666.265.373 2.073.868 2.206.542.133-.325.217-3.978.133-4.256-.109-.325-2.134-1.35-2.23-.952Z" opacity=".5" style="mix-blend-mode:soft-light"/><path fill="url(#s)" d="M17.281 37.597s9.163-1.941 20.327.663c0 0-6.028 1.254-20.327-.663Z"/><path fill="#FF9304" d="M18.596 37.766s8.656-.844 17.48.687c0 0-7.522.928-17.48-.687Z"/><path fill="#D42F55" d="M19.874 37.959s14.238-.459 9.464.265c-4.136.639 5.967.277 5.967.277s1.58-.06 2.315-.265c0 0-5.437-1.387-12.128-1.362-5.257.024-8.198.699-8.198.699l2.592.361-.012.025Z" opacity=".5" style="mix-blend-mode:multiply"/><path fill="#D42F55" d="M19.85 36.729s-3.57.398-4.401.784c0 0-.434 3.785-.133 5.738 0 0 3.593 1.061 5.667 1.387 0 0-5.184-1.242-5.486-1.64-.29-.386.024-5.063.169-5.305.145-.24 4.171-.964 4.171-.964h.012ZM37.982 37.814s1.193.301 1.555.41l-.64 5.738s-.554.35-2.567.711c0 0 2.025-.518 2.206-.867.181-.35.736-5.317.603-5.462-.145-.157-1.145-.518-1.145-.518l-.012-.012Z" opacity=".8" style="mix-blend-mode:multiply"/><path fill="#FFE016" d="M24.382 38.996s2.495.639 5.22.627c2.725-.025 7.198-.507 9.042-1.17 0 0-6.727 1.025-14.262.543Z"/><path fill="url(#t)" d="M3.296 44.65s-.385 3.761 0 5.739c0 0 5.667 1.832 12.852 1.844 6.788 0 10.73-1.651 10.73-1.651l.518-5.751s-6.57-1.471-15.094-1.254c-5.558.145-8.993 1.073-8.993 1.073h-.013Z"/><path fill="url(#u)" d="M3.297 44.65s5.16-1.567 12.67-1.29c7.511.277 11.417 1.47 11.417 1.47s-4.268 1.471-12.851 1.194C5.129 45.723 3.297 44.65 3.297 44.65Z"/><path fill="#DE376D" d="M6.684 45.759c-.29.566-.446 4.907.301 5.232.748.326 3.906.88 8.03.88.663 0 1.35-5.45.12-5.485-4.786-.145-8.222-1.073-8.451-.64v.013Z" opacity=".7" style="mix-blend-mode:multiply"/><path fill="#fff" d="M20.223 46.362c-1.109 1.47-2.893 5.172-2.266 5.485.627.314 8.041-.747 8.33-1.278.29-.53.374-5.148-.168-5.111-.53.036-5.462.325-5.896.904Z" style="mix-blend-mode:soft-light"/><path fill="#fff" d="M21.308 46.072c.037.663.326 3.701.651 4.364.314.651 2.58.109 2.87 0 .458-.168 1.085-4.834.663-4.93-.422-.097-4.196.229-4.172.566h-.012Z"/><path fill="#fff" d="M3.851 45.168c-.217.977-.277 4.292 0 4.666.277.373 2.098.82 2.218.494.12-.326.133-3.979.036-4.256-.108-.313-2.158-1.302-2.254-.904Z" opacity=".5" style="mix-blend-mode:soft-light"/><path fill="url(#v)" d="M5.129 44.698s9.114-2.146 20.326.217c0 0-6.004 1.386-20.326-.217Z"/><path fill="#FF9304" d="M6.443 44.843s8.644-1.037 17.493.313c0 0-7.499 1.097-17.493-.313Z"/><path fill="#D42F55" d="M7.733 45.011s14.226-.771 9.464.06c-4.111.724 5.968.157 5.968.157s1.579-.096 2.302-.313c0 0-5.461-1.266-12.152-1.085-5.257.133-8.186.88-8.186.88l2.592.313.012-.012Z" opacity=".5" style="mix-blend-mode:multiply"/><path fill="#D42F55" d="M7.685 43.782s-3.556.47-4.376.88c0 0-.35 3.798 0 5.739 0 0 3.605.988 5.69 1.265 0 0-5.208-1.133-5.51-1.519-.3-.385-.084-5.063.061-5.304.133-.253 4.16-1.061 4.16-1.061h-.025ZM25.829 44.457s1.194.265 1.555.373l-.518 5.751s-.555.362-2.544.76c0 0 2.013-.567 2.182-.917.169-.35.627-5.328.482-5.473-.144-.145-1.157-.494-1.157-.494Z" opacity=".8" style="mix-blend-mode:multiply"/><path fill="#FFE016" d="M12.254 45.94s2.52.59 5.232.506c2.725-.084 7.185-.663 9.018-1.362 0 0-6.703 1.17-14.25.856Z"/><path fill="url(#w)" d="M13.121 54.282c2.773 3.05 11.526 3.63 15.866 3.63 4.678 0 7.15-1.026 8.307-1.858 0 0 1.109-5.437 1.109-7.04 0 0-2.532-2.773-11.164-2.857-8.632-.085-13.093 1.784-13.913 2.616l-.205 5.521v-.012Z"/><path fill="url(#x)" d="M13.327 48.773c-.048 1.181 4.509 3.074 11.055 3.194 6.547.109 13.54-1.024 14.021-2.941.06-.217-.192-1.483-4.014-2.472-3.822-.988-9.175-1.073-13.72-.518-5.45.663-7.294 1.712-7.342 2.749v-.012Z"/><path fill="#fff" d="M28.095 51.654c1.278.06 7.21-.47 8.101-1.06.893-.591-10.838-3.521-11.983-4.16-1.133-.639-4.955-.579-6.956.362-2.014.94 4.701 1.688 6.932 2.363 2.23.675-2.363 2.23 3.906 2.495Z" opacity=".5" style="mix-blend-mode:soft-light"/><path fill="url(#y)" d="M16.052 48.568c-.145.65 4.026 2.254 10.452 1.977 7.174-.314 9.187-1.073 9.211-1.724.024-.663-3.364-2.387-9.753-2.387-4.919 0-9.693 1.145-9.91 2.134Z"/><path fill="#FF9304" d="M16.558 49.17c.398-.723 4.316-1.483 10.163-1.47 5.847 0 8.632 1.241 8.644 1.567.012.325-4.364 1.53-10.633 1.326-6.27-.205-8.186-1.423-8.186-1.423h.012Z"/><path fill="#D42F55" d="M29.325 50.497s6.245-.386 6.378-1.676c.096-.904-3.822-1.953-6.607-2.242 0 0-1.977.94-1.88 1.12.108.17 6.003.676 5.955 1.46-.048.783-3.858 1.338-3.858 1.338h.012Z" opacity=".5" style="mix-blend-mode:multiply"/><path fill="#fff" d="M34.702 51.04s2.568-.543-.338-.857c-1.193-.132-4.665.519-4.665.965 0 .446 1.181.337 2.35.265 1.893-.108 2.653-.386 2.653-.386v.012ZM22.067 46.663s-.808-.555-1.796-.398c-.989.157-.41.735-.41.735s1.857-.301 2.206-.337Z"/><path fill="#FFE016" d="M21.633 46.7s-4.316.325-5.413 1.265c-1.097.94.892 1.785 3.376 2.122 0 0-3.701-.711-3.328-1.688.386-.976 5.365-1.688 5.365-1.688V46.7Z"/><path fill="#FFE016" d="M18.546 46.325s-5.16.543-5.22 2.279c-.06 1.736 4.943 2.724 5.992 2.881 0 0-6.149-1.266-5.715-2.941.434-1.676 4.943-2.219 4.943-2.219Z"/><path fill="#D42F55" d="M35.365 46.82s2.857.65 3.038 2.194c.06.47-.916 6.341-1.11 7.04 0 0-.325.29-.952.555 0 0 .543-.301.82-.88.277-.579.965-5.956 1.025-6.582.06-.627-1.326-1.93-2.821-2.34v.013ZM13.327 48.604s-.253 4.244-.205 5.69c0 0 .988 1.122 3.195 1.905 0 0-2.629-1.53-2.834-2.085-.204-.555-.156-5.51-.156-5.51Z" opacity=".8" style="mix-blend-mode:multiply"/><path fill="#fff" d="M29.807 52.462c-.952 1.181-1.94 5.136-1.603 5.22.325.085 4.919.338 7.788-1.073.892-.446 1.47-5.618.12-5.51-1.35.11-5.847.808-6.293 1.363h-.012Z" style="mix-blend-mode:soft-light"/><path fill="#E02774" d="M16.558 50.955c-.99-.313-1.423 4.268-1.025 4.557.398.29.916.748 5.485 1.495 4.57.748 4.039.06 4.4-.217.362-.277.64-4.63-.156-4.63s-5.57-.18-8.704-1.193v-.012Z" opacity=".2" style="mix-blend-mode:multiply"/><path fill="#fff" d="M13.46 49.593c-.073.747-.097 4.509.204 4.774.302.265 1.05.65 1.302.542.254-.108.386-3.918.254-4.087-.133-.156-1.713-1.784-1.76-1.23Z" opacity=".5" style="mix-blend-mode:soft-light"/><path fill="#FFE016" d="M19.054 51.485s7.559 1.23 12.212.555c6.221-.916 6.884-2.556 6.884-2.556s-2.242 1.772-7.233 2.182c-4.992.41-11.863-.168-11.863-.168v-.013Z"/><path fill="#D40C55" d="M13.906 54.933c2.652-.976 3.279-3.906 3.279-3.906s17.023-.518 19.7-3.472c0 0 1.193.748 1.301 1.616l6.474-1.122 4.521-.265s-4.52-3.158-7.426-7.812l-2.46.036.23-1.772-3.05-.748c-2.099 1.447-6.33 1.797-6.33 1.797s-.362 6.365-.844 7.595c-.23.554-2.508 1.435-9.102 1.64-5.944.18-6.884-.47-6.884-.47l-.205 6.269.784.638.012-.024Z" opacity=".5" style="mix-blend-mode:multiply"/><path fill="url(#z)" d="M5.14 45.096c2.773 3.05 11.526 3.629 15.866 3.629 4.678 0 7.15-1.025 8.307-1.857 0 0 1.109-5.437 1.109-7.04 0 0-2.532-2.773-11.164-2.858-8.632-.084-13.093 1.784-13.912 2.616l-.205 5.522v-.012Z"/><path fill="url(#A)" d="M5.334 39.574c-.048 1.181 4.509 3.074 11.055 3.195 6.546.108 13.539-1.025 14.021-2.942.06-.217-.193-1.483-4.015-2.471-3.821-.989-9.174-1.073-13.72-.519-5.448.663-7.293 1.712-7.341 2.749v-.012Z"/><path fill="#fff" d="M20.102 42.468c1.278.06 7.21-.47 8.102-1.061.892-.591-10.838-3.52-11.972-4.16-1.133-.639-4.955-.578-6.956.362-2.001.94 4.702 1.688 6.932 2.363 2.23.687-2.363 2.23 3.906 2.496h-.012Z" opacity=".5" style="mix-blend-mode:soft-light"/><path fill="url(#B)" d="M8.058 39.381c-.144.651 4.027 2.254 10.453 1.977 7.173-.313 9.187-1.073 9.21-1.724.025-.663-3.363-2.387-9.753-2.387-4.918 0-9.693 1.145-9.91 2.134Z"/><path fill="#FF9304" d="M8.565 39.972c.398-.723 4.316-1.483 10.163-1.47 5.847 0 8.632 1.241 8.644 1.566.012.326-4.364 1.532-10.633 1.327-6.269-.205-8.186-1.423-8.186-1.423h.012Z"/><path fill="#D42F55" d="M21.344 41.298s6.245-.386 6.378-1.675c.096-.905-3.822-1.953-6.607-2.243 0 0-1.977.94-1.88 1.121.108.17 6.003.675 5.955 1.46-.036.783-3.858 1.337-3.858 1.337h.012Z" opacity=".5" style="mix-blend-mode:multiply"/><path fill="#fff" d="M26.721 41.853s2.568-.543-.337-.856c-1.194-.133-4.666.518-4.666.964 0 .446 1.181.338 2.35.265 1.894-.108 2.653-.385 2.653-.385v.012ZM14.086 37.465s-.808-.555-1.796-.398c-.989.169-.41.735-.41.735s1.857-.301 2.206-.337Z"/><path fill="#FFE016" d="M13.64 37.513s-4.316.325-5.413 1.266c-1.097.94.892 1.784 3.376 2.121 0 0-3.701-.71-3.327-1.687.385-.977 5.364-1.688 5.364-1.688v-.012Z"/><path fill="#FFE016" d="M10.566 37.127s-5.16.543-5.22 2.279c-.072 1.736 4.943 2.712 5.992 2.881 0 0-6.149-1.266-5.715-2.942.434-1.675 4.943-2.218 4.943-2.218Z"/><path fill="#D42F55" d="M27.384 37.633s3.038.64 3.038 2.195c0 1.338-.916 6.341-1.11 7.04 0 0-.325.29-.952.555 0 0 .543-.302.82-.88.277-.579.965-5.956 1.025-6.583.06-.627-1.326-1.929-2.821-2.339v.012ZM5.334 39.405s-.254 4.244-.205 5.69c0 0 .988 1.122 3.194 1.906 0 0-2.628-1.532-2.833-2.086-.205-.555-.156-5.51-.156-5.51Z" opacity=".8" style="mix-blend-mode:multiply"/><path fill="#fff" d="M21.814 43.276c-.952 1.181-1.94 5.135-1.603 5.22.325.084 4.919.337 7.788-1.073.892-.446 1.47-5.618.12-5.51-1.35.109-5.847.808-6.293 1.363h-.012Z" style="mix-blend-mode:soft-light"/><path fill="#E02774" d="M8.564 41.757c-.988-.314-1.422 4.267-1.024 4.557.397.289.916.747 5.485 1.495 4.57.747 4.039.06 4.4-.217.362-.278.64-4.63-.156-4.63s-5.57-.18-8.705-1.194v-.011Z" opacity=".2" style="mix-blend-mode:multiply"/><path fill="#fff" d="M5.478 40.406c-.073.748-.097 4.51.205 4.774.301.266 1.049.651 1.302.543.253-.109.386-3.918.253-4.087-.133-.157-1.712-1.784-1.76-1.23Z" opacity=".5" style="mix-blend-mode:soft-light"/><path fill="#FFE016" d="M11.072 42.287s7.56 1.23 12.213.554c6.221-.916 6.884-2.556 6.884-2.556s-2.242 1.773-7.233 2.183c-4.992.41-11.864-.17-11.864-.17v-.011Z"/><path fill="#D40C55" d="M10.566 37.127c-.23.169.868.796.868.796s.47.614.422 1c-.048.398 5.003 3.605 12.454 2.05.47-.097 1.675-.338 1.675-.338s2.773.736 3.473.326c.361-.205 1.205-.808.964-1.531-.723-2.182-9.138-3.4-13.129-3.087-4.16.326-6.727.772-6.727.772v.012Z" opacity=".5" style="mix-blend-mode:multiply"/><path fill="url(#C)" d="M12.724 36.404c2.616 2.88 10.886 3.423 14.998 3.423 4.412 0 6.75-.976 7.848-1.76 0 0 1.049-5.136 1.049-6.655 0 0-2.387-2.616-10.55-2.7-8.161-.085-12.368 1.688-13.14 2.471l-.193 5.22h-.012Z"/><path fill="url(#D)" d="M12.917 31.195c-.049 1.121 4.255 2.906 10.44 3.014 6.185.109 12.791-.964 13.25-2.785.048-.205-.181-1.398-3.798-2.338-3.617-.94-8.668-1.013-12.96-.495-5.148.627-6.896 1.616-6.932 2.604Z"/><path fill="#fff" d="M26.866 33.92c1.205.048 6.811-.446 7.655-1 .844-.555-10.247-3.328-11.32-3.93-1.073-.603-4.678-.543-6.57.337-1.894.88 4.448 1.591 6.546 2.242 2.11.651-2.23 2.098 3.689 2.363v-.012Z" opacity=".5" style="mix-blend-mode:soft-light"/><path fill="url(#E)" d="M15.484 31.002c-.132.615 3.798 2.134 9.874 1.869 6.787-.29 8.68-1.013 8.704-1.628.025-.626-3.182-2.254-9.21-2.254-4.654 0-9.163 1.073-9.368 2.025v-.012Z"/><path fill="#FF9304" d="M15.967 31.569c.374-.687 4.075-1.398 9.596-1.386 5.522 0 8.162 1.181 8.174 1.482.012.314-4.123 1.447-10.042 1.254-5.92-.193-7.728-1.35-7.728-1.35Z"/><path fill="#D42F55" d="M28.035 32.823s5.896-.362 6.028-1.58c.096-.856-3.617-1.844-6.233-2.121 0 0-1.868.892-1.772 1.06.096.17 5.666.64 5.63 1.375-.036.735-3.64 1.266-3.64 1.266h-.013Z" opacity=".5" style="mix-blend-mode:multiply"/><path fill="#fff" d="M33.11 33.341s2.424-.518-.325-.807c-1.121-.12-4.412.494-4.4.916 0 .422 1.109.313 2.218.253 1.796-.096 2.508-.362 2.508-.362ZM21.175 29.194s-.76-.53-1.7-.374c-.94.157-.386.687-.386.687s1.76-.277 2.086-.313Z"/><path fill="#FFE016" d="M20.765 29.242s-4.075.301-5.123 1.194c-1.037.88.843 1.687 3.194 2 0 0-3.496-.674-3.134-1.603.361-.928 5.063-1.603 5.063-1.603v.012Z"/><path fill="#FFE016" d="M17.848 28.88s-4.87.52-4.943 2.159c-.073 1.64 4.678 2.568 5.666 2.724 0 0-5.799-1.205-5.401-2.784.41-1.58 4.666-2.098 4.666-2.098h.012Z"/><path fill="#D42F55" d="M33.738 29.35s2.7.615 2.87 2.074c.047.446-.869 5.992-1.05 6.655 0 0-.301.265-.904.53 0 0 .506-.277.772-.831.265-.543.904-5.618.964-6.221.06-.59-1.254-1.82-2.664-2.206h.012ZM12.917 31.038s-.241 4.003-.193 5.377c0 0 .94 1.061 3.014 1.809 0 0-2.483-1.447-2.676-1.965-.193-.519-.145-5.209-.145-5.209v-.012Z" opacity=".8" style="mix-blend-mode:multiply"/><path fill="#fff" d="M28.481 34.691c-.892 1.11-1.832 4.86-1.519 4.931.314.073 4.642.314 7.354-1.024.844-.422 1.387-5.305.109-5.196-1.278.108-5.522.76-5.944 1.29Z" style="mix-blend-mode:soft-light"/><path fill="#E02774" d="M15.967 33.257c-.928-.301-1.35 4.026-.964 4.304.385.277.868.711 5.184 1.41 4.316.7 3.821.049 4.159-.205.337-.265.603-4.376-.145-4.376-.747 0-5.256-.18-8.222-1.133h-.012Z" opacity=".2" style="mix-blend-mode:multiply"/><path fill="#fff" d="M13.049 31.979c-.072.711-.084 4.256.193 4.509.277.253 1 .615 1.23.518.229-.108.373-3.701.24-3.858-.132-.156-1.615-1.688-1.663-1.17Z" opacity=".5" style="mix-blend-mode:soft-light"/><path fill="#FFE016" d="M18.33 33.763s7.137 1.17 11.537.518c5.872-.868 6.498-2.41 6.498-2.41s-2.121 1.675-6.823 2.06c-4.714.387-11.212-.168-11.212-.168Z"/><path fill="#D40C55" d="M28.252 57.911s2.387-5.316 5.172-6.197c2.785-.88 3.87 4.34 3.87 4.34s-2.52 1.64-5.787 1.749l-3.255.108Z" opacity=".5" style="mix-blend-mode:multiply"/><path fill="url(#F)" d="M33.593 57.586c3.05 2.965 12.116 2.99 16.601 2.712 4.822-.301 7.306-1.519 8.44-2.46 0 0 .783-5.678.686-7.33 0 0-2.785-2.688-11.694-2.218-8.91.47-13.382 2.689-14.178 3.593l.145 5.703Z"/><path fill="url(#G)" d="M33.437 51.883c.024 1.23 4.846 2.881 11.597 2.568 6.752-.313 13.889-1.929 14.275-3.942.048-.23-.29-1.52-4.304-2.29-4.003-.773-9.525-.52-14.178.349-5.57 1.037-7.414 2.23-7.39 3.315Z"/><path fill="#fff" d="M48.856 53.909c1.314-.024 7.402-.953 8.282-1.616.88-.663-11.405-2.93-12.622-3.52-1.206-.59-5.136-.277-7.15.82-2.013 1.097 4.956 1.434 7.294 1.99 2.34.566-2.29 2.446 4.184 2.326h.012Z" opacity=".5" style="mix-blend-mode:soft-light"/><path fill="url(#H)" d="M36.233 51.51c-.108.687 4.292 2.074 10.899 1.362 7.378-.783 9.403-1.7 9.391-2.375-.012-.687-3.629-2.242-10.211-1.832-5.076.313-9.922 1.808-10.079 2.845Z"/><path fill="#FF9304" d="M36.8 52.088c.361-.771 4.352-1.808 10.38-2.17 6.028-.361 8.982.724 9.018 1.061.036.338-4.389 1.857-10.875 2.05-6.474.192-8.523-.94-8.523-.94Z"/><path fill="#D42F55" d="M50.05 52.63s6.413-.795 6.473-2.133c.036-.94-4.063-1.772-6.956-1.88 0 0-1.977 1.096-1.869 1.277.121.169 6.233.302 6.245 1.11 0 .807-3.894 1.627-3.894 1.627Z" opacity=".5" style="mix-blend-mode:multiply"/><path fill="#fff" d="M55.63 52.848s2.617-.736-.41-.868c-1.229-.06-4.773.844-4.737 1.302.036.458 1.23.265 2.447.12 1.953-.229 2.713-.566 2.713-.566l-.012.012ZM42.321 49.147s-.868-.519-1.88-.29c-1.013.23-.374.784-.374.784s1.893-.434 2.254-.494Z"/><path fill="#FFE016" d="M41.876 49.22s-4.425.614-5.51 1.65c-1.073 1.038 1.037 1.785 3.617 1.966 0 0-3.87-.494-3.532-1.531.337-1.037 5.413-2.086 5.413-2.086h.012Z"/><path fill="#FFE016" d="M38.669 49.026s-5.28.892-5.244 2.688c.036 1.797 5.28 2.484 6.365 2.593 0 0-6.414-.917-6.076-2.665.337-1.748 4.955-2.616 4.955-2.616Z"/><path fill="#D42F55" d="M56.041 48.46s2.99.482 3.28 2.061c.084.482-.531 6.595-.688 7.33 0 0-.313.313-.94.639 0 0 .542-.338.784-.952.24-.615.602-6.197.627-6.848.024-.651-1.495-1.905-3.063-2.218v-.013ZM33.436 51.715s.012 4.388.157 5.87c0 0 1.097 1.086 3.412 1.761 0 0-2.81-1.398-3.05-1.965-.241-.567-.519-5.678-.519-5.678v.012Z" opacity=".8" style="mix-blend-mode:multiply"/><path fill="#fff" d="M50.664 54.632c-.904 1.278-1.663 5.425-1.326 5.486.35.06 5.088.024 7.957-1.616.892-.518 1.145-5.883-.241-5.678-1.387.205-5.968 1.205-6.402 1.808h.012Z" style="mix-blend-mode:soft-light"/><path fill="#E02774" d="M36.92 53.933c-1.036-.265-1.193 4.485-.759 4.762.434.277.989.711 5.75 1.181 4.763.47 4.172-.205 4.522-.506.35-.301.361-4.81-.458-4.762-.82.048-5.751.169-9.055-.675Z" opacity=".2" style="mix-blend-mode:multiply"/><path fill="#fff" d="M33.64 52.727c-.023.784.194 4.654.52 4.907.325.253 1.132.603 1.373.47.254-.132.145-4.075 0-4.231-.144-.157-1.868-1.736-1.892-1.158v.012Z" opacity=".5" style="mix-blend-mode:soft-light"/><path fill="#FFE016" d="M39.524 54.319s7.873.783 12.623-.23c6.353-1.338 6.932-3.074 6.932-3.074s-2.194 1.965-7.306 2.713c-5.112.747-12.237.59-12.237.59h-.012Z"/><path fill="#fff" d="M30.133 33.836s.783-.326.976-2.038c0 0 .024 1.724 1.073 2.001 0 0-.94.712-.989 2.002 0 0-.072-1.568-1.06-1.965Z"/><path fill="url(#I)" d="M31.242 45.494c.38 0 .687-5.252.687-11.73 0-6.48-.307-11.731-.687-11.731-.38 0-.687 5.252-.687 11.73 0 6.479.308 11.73.687 11.73Z" style="mix-blend-mode:screen"/><path fill="url(#J)" d="M31.242 34.45c-4.1 0-7.427-.313-7.427-.687 0-.373 3.328-.687 7.427-.687s7.426.313 7.426.687c0 .374-3.327.687-7.426.687Z" style="mix-blend-mode:screen"/><path fill="url(#K)" d="M31.013 33.98c-2.604-2.604-4.605-4.81-4.485-4.93.12-.121 2.327 1.88 4.931 4.484s4.606 4.81 4.485 4.93c-.12.122-2.327-1.88-4.93-4.484Z" style="mix-blend-mode:screen"/><path fill="url(#L)" d="M31.47 33.98c-2.603 2.604-4.81 4.606-4.93 4.485-.12-.12 1.88-2.327 4.485-4.931 2.592-2.592 4.81-4.605 4.93-4.485.121.12-1.88 2.327-4.484 4.931Z" style="mix-blend-mode:screen"/><path fill="url(#M)" d="M12.7 29.339c2.81 3.086 11.67 3.677 16.071 3.677 4.738 0 7.246-1.05 8.415-1.88 0 0 1.121-5.51 1.121-7.138 0 0-2.568-2.81-11.308-2.893-8.74-.085-13.262 1.808-14.094 2.64l-.205 5.594Z"/><path fill="url(#N)" d="M12.905 23.745c-.06 1.205 4.569 3.122 11.2 3.23 6.63.11 13.707-1.036 14.201-2.99.06-.216-.192-1.494-4.063-2.507-3.87-1.012-9.295-1.085-13.9-.53-5.51.663-7.39 1.736-7.438 2.785v.012Z"/><path fill="#fff" d="M27.866 26.675c1.29.06 7.294-.483 8.199-1.073.904-.591-10.983-3.569-12.129-4.22-1.145-.65-5.015-.59-7.052.362-2.038.952 4.762 1.7 7.016 2.399 2.255.7-2.399 2.254 3.954 2.532h.012Z" opacity=".5" style="mix-blend-mode:soft-light"/><path fill="url(#O)" d="M15.666 23.552c-.145.663 4.075 2.29 10.585 2.013 7.27-.313 9.307-1.085 9.331-1.748.024-.663-3.412-2.423-9.874-2.423-4.99 0-9.813 1.157-10.042 2.17v-.012Z"/><path fill="#FF9304" d="M16.184 24.155c.41-.736 4.377-1.495 10.296-1.495 5.92 0 8.74 1.266 8.765 1.591.012.326-4.413 1.543-10.766 1.338-6.354-.205-8.282-1.446-8.282-1.446l-.013.012Z"/><path fill="#D42F55" d="M29.12 25.493s6.317-.386 6.462-1.7c.097-.916-3.87-1.99-6.69-2.267 0 0-2.014.953-1.906 1.134.109.18 6.076.687 6.04 1.47-.036.796-3.906 1.363-3.906 1.363Z" opacity=".5" style="mix-blend-mode:multiply"/><path fill="#fff" d="M34.557 26.048s2.604-.555-.35-.868c-1.205-.133-4.725.53-4.725.976 0 .446 1.193.338 2.387.277 1.917-.108 2.688-.385 2.688-.385ZM21.766 21.61s-.82-.566-1.82-.397c-1.001.169-.422.735-.422.735s1.88-.301 2.23-.337h.012Z"/><path fill="#FFE016" d="M21.32 21.659s-4.376.325-5.486 1.278c-1.109.952.905 1.808 3.424 2.146 0 0-3.749-.723-3.363-1.712.386-.989 5.437-1.712 5.437-1.712h-.012Z"/><path fill="#FFE016" d="M18.197 21.273s-5.22.555-5.292 2.315c-.073 1.76 5.015 2.749 6.076 2.918 0 0-6.221-1.29-5.787-2.978.434-1.688 5.003-2.255 5.003-2.255Z"/><path fill="#D42F55" d="M35.233 21.78s3.074.65 3.074 2.218c0 1.35-.928 6.426-1.121 7.137 0 0-.326.29-.965.567 0 0 .543-.302.82-.88.277-.591.976-6.028 1.037-6.667.06-.64-1.35-1.953-2.858-2.363l.013-.012ZM12.905 23.576s-.253 4.292-.205 5.763c0 0 1 1.133 3.231 1.929 0 0-2.664-1.544-2.87-2.11-.204-.567-.156-5.582-.156-5.582Z" opacity=".8" style="mix-blend-mode:multiply"/><path fill="#fff" d="M29.603 27.494c-.965 1.194-1.965 5.208-1.628 5.292.338.085 4.98.338 7.885-1.097.904-.446 1.483-5.69.12-5.57-1.374.121-5.92.808-6.377 1.375Z" style="mix-blend-mode:soft-light"/><path fill="#E02774" d="M16.184 25.963c-1-.325-1.446 4.316-1.036 4.617.41.302.928.76 5.557 1.508 4.63.747 4.1.06 4.461-.218.362-.277.651-4.69-.157-4.69-.807 0-5.63-.192-8.813-1.217h-.012Z" opacity=".2" style="mix-blend-mode:multiply"/><path fill="#fff" d="M13.05 24.589c-.073.76-.097 4.569.204 4.834.302.277 1.073.663 1.314.555.241-.109.398-3.979.254-4.136-.145-.168-1.724-1.808-1.785-1.253h.012Z" opacity=".5" style="mix-blend-mode:soft-light"/><path fill="#FFE016" d="M18.716 26.506s7.656 1.241 12.37.554c6.293-.928 6.968-2.592 6.968-2.592s-2.267 1.796-7.318 2.206c-5.052.422-12.008-.18-12.008-.18l-.012.012Z"/><path fill="#D40C55" d="M18.197 21.273c-.229.169.88.796.88.796s.47.615.422 1.012c-.048.398 5.064 3.654 12.61 2.086l1.7-.337s2.81.747 3.521.337c.362-.217 1.218-.82.977-1.555-.724-2.218-9.26-3.436-13.298-3.122-4.22.325-6.812.783-6.812.783Z" opacity=".5" style="mix-blend-mode:multiply"/><path fill="url(#P)" d="M20.488 21.008c2.81 3.086 11.67 3.677 16.07 3.677 4.739 0 7.246-1.049 8.416-1.88 0 0 1.121-5.51 1.121-7.138 0 0-2.568-2.809-11.309-2.893-8.74-.085-13.261 1.808-14.093 2.64l-.205 5.594Z"/><path fill="url(#Q)" d="M20.693 15.414c-.06 1.205 4.57 3.122 11.2 3.23 6.63.11 13.707-1.036 14.202-2.989.06-.217-.193-1.495-4.063-2.508-3.87-1.012-9.295-1.085-13.9-.53-5.51.663-7.39 1.736-7.439 2.785v.012Z"/><path fill="#fff" d="M35.654 18.344c1.29.06 7.294-.483 8.198-1.073.904-.591-10.983-3.569-12.128-4.22-1.145-.65-5.015-.59-7.053.362-2.037.952 4.762 1.7 7.017 2.399 2.254.7-2.4 2.254 3.954 2.532h.012Z" opacity=".5" style="mix-blend-mode:soft-light"/><path fill="url(#R)" d="M23.454 15.209c-.145.663 4.075 2.29 10.585 2.013 7.27-.313 9.307-1.085 9.331-1.748.024-.663-3.412-2.423-9.874-2.423-4.99 0-9.813 1.157-10.042 2.17v-.012Z"/><path fill="#FF9304" d="M23.973 15.824c.41-.736 4.376-1.495 10.295-1.495 5.92 0 8.74 1.266 8.765 1.591.012.326-4.413 1.543-10.766 1.339-6.354-.205-8.282-1.447-8.282-1.447l-.012.012Z"/><path fill="#D42F55" d="M36.908 17.162s6.318-.386 6.462-1.7c.097-.916-3.87-1.989-6.69-2.266 0 0-2.014.952-1.906 1.133.109.181 6.077.687 6.04 1.471-.036.796-3.906 1.362-3.906 1.362Z" opacity=".5" style="mix-blend-mode:multiply"/><path fill="#fff" d="M42.345 17.717s2.604-.555-.35-.868c-1.205-.133-4.725.53-4.725.976 0 .446 1.193.338 2.387.278 1.917-.109 2.688-.386 2.688-.386ZM29.554 13.28s-.82-.567-1.82-.398c-1 .169-.422.736-.422.736s1.88-.302 2.23-.338h.012Z"/><path fill="#FFE016" d="M29.108 13.329s-4.377.325-5.486 1.277c-1.109.953.905 1.809 3.424 2.146 0 0-3.75-.723-3.363-1.712.385-.988 5.437-1.711 5.437-1.711h-.012Z"/><path fill="#FFE016" d="M25.986 12.93s-5.22.555-5.293 2.315c-.072 1.76 5.015 2.749 6.076 2.918 0 0-6.22-1.29-5.786-2.978.433-1.688 5.003-2.255 5.003-2.255Z"/><path fill="#D42F55" d="M43.02 13.449s2.894.663 3.074 2.218c.06.482-.928 6.426-1.12 7.137 0 0-.326.29-.965.567 0 0 .542-.301.82-.88.277-.59.976-6.028 1.036-6.667.06-.64-1.35-1.953-2.857-2.363l.012-.012ZM20.693 15.245s-.253 4.292-.205 5.763c0 0 1 1.133 3.231 1.929 0 0-2.664-1.543-2.87-2.11-.204-.567-.156-5.582-.156-5.582Z" opacity=".8" style="mix-blend-mode:multiply"/><path fill="#fff" d="M37.39 19.163c-.964 1.194-1.965 5.209-1.627 5.293.337.085 4.979.338 7.884-1.097.905-.446 1.483-5.69.121-5.57-1.362.12-5.92.808-6.378 1.374Z" style="mix-blend-mode:soft-light"/><path fill="#E02774" d="M23.973 17.632c-1.001-.325-1.447 4.316-1.037 4.618.41.301.928.76 5.558 1.507 4.629.747 4.099.06 4.46-.217.362-.278.651-4.69-.157-4.69-.807 0-5.63-.193-8.812-1.218h-.012Z" opacity=".2" style="mix-blend-mode:multiply"/><path fill="#fff" d="M20.838 16.246c-.073.76-.097 4.569.205 4.834.301.278 1.073.663 1.314.555.253-.109.398-3.979.253-4.135-.145-.17-1.724-1.809-1.784-1.254h.012Z" opacity=".5" style="mix-blend-mode:soft-light"/><path fill="#FFE016" d="M26.504 18.163s7.656 1.241 12.37.554c6.293-.928 6.968-2.592 6.968-2.592s-2.267 1.797-7.318 2.206c-5.051.422-12.008-.18-12.008-.18l-.012.012Z"/></g><defs><linearGradient id="d" x1="23.328" x2="18.124" y1="10.619" y2="10.619" gradientUnits="userSpaceOnUse"><stop stop-color="#655ED6"/><stop offset="1" stop-color="#C88FF0"/></linearGradient><linearGradient id="f" x1="48.279" x2="38.723" y1="32.136" y2="32.136" gradientUnits="userSpaceOnUse"><stop stop-color="#655ED6"/><stop offset="1" stop-color="#C88FF0"/></linearGradient><linearGradient id="h" x1="28.01" x2="52.146" y1="45.061" y2="47.594" gradientUnits="userSpaceOnUse"><stop offset=".05" stop-color="#FF3F00"/><stop offset="1" stop-color="#FF6A03"/></linearGradient><linearGradient id="i" x1="29.934" x2="51.057" y1="38.62" y2="47.807" gradientUnits="userSpaceOnUse"><stop stop-color="#FFA900"/><stop offset="1" stop-color="#FFC600"/></linearGradient><linearGradient id="j" x1="30.354" x2="50.581" y1="42.022" y2="44.144" gradientUnits="userSpaceOnUse"><stop stop-color="#FF7C04"/><stop offset="1" stop-color="#D92000"/></linearGradient><linearGradient id="k" x1="21.115" x2="45.384" y1="46.567" y2="46.567" gradientUnits="userSpaceOnUse"><stop offset=".05" stop-color="#FF3F00"/><stop offset="1" stop-color="#FF6A03"/></linearGradient><linearGradient id="l" x1="22.356" x2="44.31" y1="39.972" y2="46.904" gradientUnits="userSpaceOnUse"><stop stop-color="#FFA900"/><stop offset="1" stop-color="#FFC600"/></linearGradient><linearGradient id="m" x1="23.128" x2="43.454" y1="43.311" y2="43.311" gradientUnits="userSpaceOnUse"><stop stop-color="#FF7C04"/><stop offset="1" stop-color="#D92000"/></linearGradient><linearGradient id="n" x1="61.47" x2="42.953" y1="51.34" y2="34.127" gradientUnits="userSpaceOnUse"><stop stop-color="#FF9600"/><stop offset="1" stop-color="#FFA900"/></linearGradient><linearGradient id="o" x1="65.178" x2="43.476" y1="45.438" y2="35.14" gradientUnits="userSpaceOnUse"><stop stop-color="#FFCD00"/><stop offset="1" stop-color="#FFE834"/></linearGradient><linearGradient id="p" x1="61.73" x2="47.319" y1="46.775" y2="33.379" gradientUnits="userSpaceOnUse"><stop stop-color="#FF7C04"/><stop offset="1" stop-color="#D92000"/></linearGradient><linearGradient id="q" x1="15.191" x2="39.454" y1="40.749" y2="41.283" gradientUnits="userSpaceOnUse"><stop offset=".05" stop-color="#FF3F00"/><stop offset="1" stop-color="#FF6A03"/></linearGradient><linearGradient id="r" x1="16.578" x2="38.374" y1="34.171" y2="41.584" gradientUnits="userSpaceOnUse"><stop stop-color="#FFA900"/><stop offset="1" stop-color="#FFC600"/></linearGradient><linearGradient id="s" x1="17.276" x2="37.597" y1="37.527" y2="37.974" gradientUnits="userSpaceOnUse"><stop stop-color="#FF7C04"/><stop offset="1" stop-color="#D92000"/></linearGradient><linearGradient id="t" x1="3.128" x2="27.396" y1="47.893" y2="47.893" gradientUnits="userSpaceOnUse"><stop offset=".05" stop-color="#FF3F00"/><stop offset="1" stop-color="#FF6A03"/></linearGradient><linearGradient id="u" x1="4.357" x2="26.323" y1="41.298" y2="48.23" gradientUnits="userSpaceOnUse"><stop stop-color="#FFA900"/><stop offset="1" stop-color="#FFC600"/></linearGradient><linearGradient id="v" x1="5.129" x2="25.467" y1="44.638" y2="44.638" gradientUnits="userSpaceOnUse"><stop stop-color="#FF7C04"/><stop offset="1" stop-color="#D92000"/></linearGradient><linearGradient id="w" x1="13.121" x2="38.403" y1="52.028" y2="52.028" gradientUnits="userSpaceOnUse"><stop stop-color="#FF9600"/><stop offset="1" stop-color="#FFA900"/></linearGradient><linearGradient id="x" x1="14.424" x2="37.33" y1="45.18" y2="52.413" gradientUnits="userSpaceOnUse"><stop stop-color="#FFCD00"/><stop offset="1" stop-color="#FFE834"/></linearGradient><linearGradient id="y" x1="16.04" x2="35.715" y1="48.507" y2="48.507" gradientUnits="userSpaceOnUse"><stop stop-color="#FF7C04"/><stop offset="1" stop-color="#D92000"/></linearGradient><linearGradient id="z" x1="5.141" x2="30.422" y1="42.841" y2="42.841" gradientUnits="userSpaceOnUse"><stop stop-color="#FF9600"/><stop offset="1" stop-color="#FFA900"/></linearGradient><linearGradient id="A" x1="6.431" x2="29.349" y1="35.993" y2="43.215" gradientUnits="userSpaceOnUse"><stop stop-color="#FFCD00"/><stop offset="1" stop-color="#FFE834"/></linearGradient><linearGradient id="B" x1="8.058" x2="27.722" y1="39.309" y2="39.309" gradientUnits="userSpaceOnUse"><stop stop-color="#FF7C04"/><stop offset="1" stop-color="#D92000"/></linearGradient><linearGradient id="C" x1="12.724" x2="36.607" y1="34.282" y2="34.282" gradientUnits="userSpaceOnUse"><stop stop-color="#FF9600"/><stop offset="1" stop-color="#FFA900"/></linearGradient><linearGradient id="D" x1="13.954" x2="35.594" y1="27.808" y2="34.631" gradientUnits="userSpaceOnUse"><stop stop-color="#FFCD00"/><stop offset="1" stop-color="#FFE834"/></linearGradient><linearGradient id="E" x1="15.484" x2="34.062" y1="30.942" y2="30.942" gradientUnits="userSpaceOnUse"><stop stop-color="#FF7C04"/><stop offset="1" stop-color="#D92000"/></linearGradient><linearGradient id="F" x1="33.44" x2="59.502" y1="55.267" y2="53.632" gradientUnits="userSpaceOnUse"><stop stop-color="#FF9600"/><stop offset="1" stop-color="#FFA900"/></linearGradient><linearGradient id="G" x1="34.332" x2="58.42" y1="48.12" y2="54.098" gradientUnits="userSpaceOnUse"><stop stop-color="#FFCD00"/><stop offset="1" stop-color="#FFE834"/></linearGradient><linearGradient id="H" x1="36.219" x2="56.494" y1="51.445" y2="50.173" gradientUnits="userSpaceOnUse"><stop stop-color="#FF7C04"/><stop offset="1" stop-color="#D92000"/></linearGradient><linearGradient id="M" x1="12.7" x2="38.307" y1="27.06" y2="27.06" gradientUnits="userSpaceOnUse"><stop stop-color="#FF9600"/><stop offset="1" stop-color="#FFA900"/></linearGradient><linearGradient id="N" x1="14.026" x2="37.221" y1="20.116" y2="27.446" gradientUnits="userSpaceOnUse"><stop stop-color="#FFCD00"/><stop offset="1" stop-color="#FFE834"/></linearGradient><linearGradient id="O" x1="15.666" x2="35.582" y1="23.48" y2="23.48" gradientUnits="userSpaceOnUse"><stop stop-color="#FF7C04"/><stop offset="1" stop-color="#D92000"/></linearGradient><linearGradient id="P" x1="20.488" x2="46.095" y1="18.717" y2="18.717" gradientUnits="userSpaceOnUse"><stop stop-color="#FF9600"/><stop offset="1" stop-color="#FFA900"/></linearGradient><linearGradient id="Q" x1="21.814" x2="45.01" y1="11.785" y2="19.103" gradientUnits="userSpaceOnUse"><stop stop-color="#FFCD00"/><stop offset="1" stop-color="#FFE834"/></linearGradient><linearGradient id="R" x1="23.454" x2="43.37" y1="15.149" y2="15.149" gradientUnits="userSpaceOnUse"><stop stop-color="#FF7C04"/><stop offset="1" stop-color="#D92000"/></linearGradient><radialGradient id="b" cx="0" cy="0" r="1" gradientTransform="translate(33.5 29.502) scale(34.2912)" gradientUnits="userSpaceOnUse"><stop offset=".03" stop-color="#8E37E2"/><stop offset=".13" stop-color="#8433D2"/><stop offset=".33" stop-color="#6B29AB"/><stop offset=".6" stop-color="#43196A"/><stop offset=".93" stop-color="#0C0413"/><stop offset="1"/></radialGradient><radialGradient id="c" cx="0" cy="0" r="1" gradientTransform="matrix(26.9792 0 0 18.1068 26.14 31.11)" gradientUnits="userSpaceOnUse"><stop stop-color="#FFFB00"/><stop offset="1"/></radialGradient><radialGradient id="e" cx="0" cy="0" r="1" gradientTransform="translate(19.22 10.619) scale(4.54273)" gradientUnits="userSpaceOnUse"><stop stop-color="#27A0D7"/><stop offset=".1" stop-color="#2495C9"/><stop offset=".3" stop-color="#1E7BA5"/><stop offset=".57" stop-color="#13506B"/><stop offset=".89" stop-color="#05151C"/><stop offset="1"/></radialGradient><radialGradient id="g" cx="0" cy="0" r="1" gradientTransform="translate(40.737 32.135) scale(8.34047)" gradientUnits="userSpaceOnUse"><stop stop-color="#27A0D7"/><stop offset=".1" stop-color="#2495C9"/><stop offset=".3" stop-color="#1E7BA5"/><stop offset=".57" stop-color="#13506B"/><stop offset=".89" stop-color="#05151C"/><stop offset="1"/></radialGradient><radialGradient id="I" cx="0" cy="0" r="1" gradientTransform="matrix(.68863 0 0 11.7068 23.173 50.034)" gradientUnits="userSpaceOnUse"><stop stop-color="#FFFB00"/><stop offset="1"/></radialGradient><radialGradient id="J" cx="0" cy="0" r="1" gradientTransform="matrix(0 .68863 -7.40282 0 5.757 12.96)" gradientUnits="userSpaceOnUse"><stop stop-color="#FFFB00"/><stop offset="1"/></radialGradient><radialGradient id="K" cx="0" cy="0" r="1" gradientTransform="rotate(134.999 26.048 -1.78) scale(.3096 6.65623)" gradientUnits="userSpaceOnUse"><stop stop-color="#FFFB00"/><stop offset=".04" stop-color="#EAE600"/><stop offset=".15" stop-color="#B4B100"/><stop offset=".26" stop-color="#848100"/><stop offset=".37" stop-color="#5B5900"/><stop offset=".49" stop-color="#3A3900"/><stop offset=".61" stop-color="#202000"/><stop offset=".73" stop-color="#0E0E00"/><stop offset=".86" stop-color="#030300"/><stop offset="1"/></radialGradient><radialGradient id="L" cx="0" cy="0" r="1" gradientTransform="rotate(45.001 22.125 -122.656) scale(.3096 6.65623)" gradientUnits="userSpaceOnUse"><stop stop-color="#FFFB00"/><stop offset=".04" stop-color="#EAE600"/><stop offset=".15" stop-color="#B4B100"/><stop offset=".26" stop-color="#848100"/><stop offset=".37" stop-color="#5B5900"/><stop offset=".49" stop-color="#3A3900"/><stop offset=".61" stop-color="#202000"/><stop offset=".73" stop-color="#0E0E00"/><stop offset=".86" stop-color="#030300"/><stop offset="1"/></radialGradient><clipPath id="a"><path fill="#fff" d="M0 0h64v64H0z"/></clipPath></defs></svg>