<svg xmlns="http://www.w3.org/2000/svg" width="64" height="64" fill="none"><g clip-path="url(#a)"><path fill="url(#b)" fill-rule="evenodd" d="M63.8 33.21 51.99 49.422l-20.01 10.607-18.805-10.802 3.846-7.838-8.45 2.234L.76 33.618l3.41-16.814L20.574 8.8l12.006 11.21L45.587 8.8l14.61 7.401L63.8 33.21Z" clip-rule="evenodd"/><path fill="url(#c)" fill-rule="evenodd" d="M32.183 26.41 19.176 15.405l-9.412 7.207 2.807 12.404 3.264 4.75 2.535.447v2.205l14.007 11.21 14.007-10.21L56.797 32.21 53.99 21.408l-8.004-3.002-13.803 8.004Z" clip-rule="evenodd"/><path fill="url(#d)" fill-rule="evenodd" d="M32.183 26.41 19.176 15.405l-9.412 7.207 2.807 12.404 3.264 4.75 2.535.447v2.205l14.007 11.21 14.007-10.21L56.797 32.21 53.99 21.408l-8.004-3.002-13.803 8.004Z" clip-rule="evenodd" opacity=".72" style="mix-blend-mode:screen"/><path fill="#EE8991" fill-rule="evenodd" d="M32.183 26.41 19.176 15.405l-9.412 7.207 2.807 12.404 3.264 4.75 2.535.447v2.205l14.007 11.21 14.007-10.21L56.797 32.21 53.99 21.408l-8.004-3.002-13.803 8.004Z" clip-rule="evenodd" opacity=".28" style="mix-blend-mode:screen"/><path fill="#C74867" fill-rule="evenodd" d="m49.366 40.213-16.98 13.405-13.802-10.802-.204-2.603-3.06-.903-2.943-4.799s17.008-7.508 36.989 5.702Z" clip-rule="evenodd" opacity=".3" style="mix-blend-mode:multiply"/><path fill="url(#e)" fill-rule="evenodd" d="M10.289 22.612c5.04-4.07 12.239-2.623 21.292 3.604L19.176 15.56l-8.887 7.052Z" clip-rule="evenodd" opacity=".72" style="mix-blend-mode:screen"/><path fill="#C74867" fill-rule="evenodd" d="M25.18 44.817c-.399.797 6.002 6.751 7.401 6.401 1.399-.35 15.211-9.325 13.006-10.16-2.205-.835-20.01 2.963-20.408 3.76Z" clip-rule="evenodd" opacity=".3" style="mix-blend-mode:multiply"/><path fill="url(#f)" fill-rule="evenodd" d="m4.17 16.803 5.594 5.81 9.412-7.208 1.4-6.605-16.407 8.003Z" clip-rule="evenodd"/><path fill="#EE8991" fill-rule="evenodd" d="M4.567 17.007s.797 1 1.603 1.797c.806.797 4.119 3.798 4.119 3.798l9.208-7.207 1.088-6.605-16.018 8.217Z" clip-rule="evenodd" opacity=".28" style="mix-blend-mode:screen"/><path fill="url(#g)" fill-rule="evenodd" d="M12.571 35.016.76 33.618l3.41-16.815 5.594 5.81 2.807 12.403Z" clip-rule="evenodd"/><path fill="#B33645" d="M7.569 30.616c-4.799 0-6.8 3.001-6.8 3.001l10.316 1.137c.282.068 1.282-4.138-3.516-4.138Z" opacity=".3" style="mix-blend-mode:multiply"/><path fill="#B33645" fill-rule="evenodd" d="m4.17 16.803 6.119 5.8 1.525 9.043s-3.43-1.836-5.343-5.741C4.567 22 4.17 16.803 4.17 16.803Z" clip-rule="evenodd" opacity=".3" style="mix-blend-mode:multiply"/><path fill="url(#h)" fill-rule="evenodd" d="m18.37 40.213-2 .408-7.8 3.001L.76 33.617l11.811 1.4 3.264 4.75 2.535.446Z" clip-rule="evenodd"/><path fill="#C74867" fill-rule="evenodd" d="M8.57 43.622 4.401 38.27c-2.214-2.166 2.254-2.875 8.17-3.254l3.263 4.75 2.535.447-1.35 1.175-8.45 2.234Z" clip-rule="evenodd" opacity=".3" style="mix-blend-mode:multiply"/><path fill="url(#i)" fill-rule="evenodd" d="m18.37 40.213-5.197 9.014L31.98 60.03l.398-6.402L18.37 42.418v-2.205Z" clip-rule="evenodd"/><path fill="#C74867" fill-rule="evenodd" d="m13.174 49.227 5.196-6.81 14.007 11.21-.398 6.401-18.805-10.801Z" clip-rule="evenodd" opacity=".3" style="mix-blend-mode:multiply"/><path fill="url(#j)" fill-rule="evenodd" d="m32.377 53.627-.398 6.401 20.01-10.607-5.605-6.003-14.007 10.21Z" clip-rule="evenodd"/><path fill="#C74867" fill-rule="evenodd" d="m31.979 60.028 20.01-10.607-5.605-6.003-14.007 10.21-.398 6.4Z" clip-rule="evenodd" opacity=".3" style="mix-blend-mode:multiply"/><path fill="#881A64" fill-rule="evenodd" d="M33.679 53.627s-1.7 4.799.097 4.4c1.797-.398 17.222-7.741 16.814-8.373-.408-.63-4.468-5.157-4.468-5.157s-12.346 8.334-12.453 9.13h.01Z" clip-rule="evenodd" opacity=".5" style="mix-blend-mode:multiply"/><path fill="#B33645" fill-rule="evenodd" d="M46.384 43.418c-.466 3.546-5.41 8.966-14.405 16.61l.398-6.4 14.007-10.21Z" clip-rule="evenodd" opacity=".3" style="mix-blend-mode:multiply"/><path fill="url(#k)" fill-rule="evenodd" d="m56.797 32.209 7.003 1L51.99 49.421l-5.605-6.003L56.797 32.21Z" clip-rule="evenodd"/><path fill="#B33645" fill-rule="evenodd" d="M56.797 32.811c-.146.078-7.897 8.636-8.898 10.607-.165.32 3.691 4.42 4.1 4.002.398-.417 11.005-12.802 10.004-13.006-1-.204-4.39-2.02-5.206-1.603Z" clip-rule="evenodd" opacity=".3" style="mix-blend-mode:multiply"/><path fill="url(#l)" fill-rule="evenodd" d="m53.99 21.407 6.207-5.206L63.8 33.209l-7.003-1-2.807-10.802Z" clip-rule="evenodd"/><path fill="url(#m)" fill-rule="evenodd" d="M45.986 18.406 45.588 8.8 60.197 16.2l-6.207 5.207-8.004-3.002Z" clip-rule="evenodd"/><path fill="url(#n)" fill-rule="evenodd" d="m32.581 20.009-.398 6.401 13.803-8.004-.398-9.606L32.58 20.009Z" clip-rule="evenodd"/><path fill="url(#o)" fill-rule="evenodd" d="m20.575 8.8-1.398 6.605L32.183 26.41l.398-6.401-12.006-11.21Z" clip-rule="evenodd"/><path fill="#B33645" fill-rule="evenodd" d="m20.575 8.8 12.006 11.209-.398 6.197-12.696-10.801L20.575 8.8Z" clip-rule="evenodd" opacity=".3" style="mix-blend-mode:multiply"/><path fill="#B33645" fill-rule="evenodd" d="m32.581 20.009-.398 6.207-8.12-6.674c-1.293-4.205-.409-5.954 3.914-3.836l4.614 4.303h-.01Z" clip-rule="evenodd" opacity=".3" style="mix-blend-mode:multiply"/><path fill="#fff" fill-rule="evenodd" d="M12.571 35.016S9.783 23.661 9.58 23.07c-.204-.593-3.409-4.255-3.409-4.255s3.681 3.215 4.119 3.05c.437-.165 5.507-3.953 5.293-3.7-.204.252-4.138 3.953-4.662 4.75-.243.378-.34 2.874.252 5.701.661 3.176 1.4 6.401 1.4 6.401Z" clip-rule="evenodd"/><path fill="#881A64" fill-rule="evenodd" d="M60.197 16.201 45.587 8.8l.069.806c4.439 1.67 9.16 3.827 14.346 6.79 1.127 6.294 4.274 15.182 1.477 16.415-2.866 6.936-6.227 12.774-11.433 14.512.155 2.497-3.341 3.72-5.245 5.1-8.286 5.983-12.23 5.119-12.404 1.204-2.215 7.946-11.598-.213-19.214-4.4l8.208 4.799 10.607 6.003 20.01-10.608L63.81 33.21 60.206 16.2h-.01Z" clip-rule="evenodd" opacity=".5" style="mix-blend-mode:multiply"/><path fill="#fff" fill-rule="evenodd" d="M24.062 19.533s3.43 3.264 5.926 5.274c.932.748 1.797 1.603 2.205 1.603.408 0 2.7-.981 5.002-2.4 1.982-1.223 4.09-2.748 5.799-3.797 1.399-.855 2.564-1.37 3.002-1.399 1.602-.126 3.205 1 3.4.797-.797-.399-3.206-1.4-3.4-2.205-.292-1.185-.399-6.77-.399-6.77s.04 5.517-.204 6.974c-.068.408-.942 1.408-2.399 2.399-1.72 1.165-4.196 2.37-6.207 3.604-2.428 1.486-4.284 2.68-4.604 2.603-.233-.058-1-.768-2.001-1.603-2.428-2.02-6.12-5.07-6.12-5.07v-.01ZM20.478 9.246s-1.107 4.556-1.506 5.556c-.398 1-2.205 2.283-2.205 2.439 0 .155 2.001-1.74 2.4-1.69.398.048 2.603 2.049 2.603 2.049s-1.962-1.797-2.283-2.205c-.32-.408.991-6.158.991-6.158v.01ZM16.573 17.406c-.32 0-.796.398-.796.602 0 .204 1.059-.602.796-.602ZM.76 33.618s11.238 1.738 11.442 1.136c.204-.602-.437-3.341-.437-3.341s.826 3.827 1.02 3.914c.184.088-12.025-1.71-12.025-1.71Z" clip-rule="evenodd"/><path fill="url(#p)" fill-rule="evenodd" d="M6.967 18.805s2.797 3.001 3.205 2.797c.398-.204 7.683-5.77 7.15-5.682-.545.087-10.151 2.282-10.346 2.885h-.01Z" clip-rule="evenodd" style="mix-blend-mode:screen"/><path fill="url(#q)" fill-rule="evenodd" d="M4.17 18.911c-.35-.087-2.798 13.502-2.604 13.9.204.398 5.187 1.205 4.895.797-.29-.398-1.894-14.6-2.292-14.706v.01Z" clip-rule="evenodd" style="mix-blend-mode:screen"/><path fill="url(#r)" fill-rule="evenodd" d="m31.979 60.029 20.01-10.608-4.002-4.196-15.61 8.402-.398 6.401Z" clip-rule="evenodd" style="mix-blend-mode:screen"/><path fill="#771544" fill-rule="evenodd" d="m13.174 49.227 5.196-6.809v-2.205l-2.535-.447-7.266 3.857 8.451-2.235-3.846 7.84Z" clip-rule="evenodd" opacity=".5" style="mix-blend-mode:multiply"/><path fill="#771544" d="m8.57 43.623 7.265-3.857 2.535.447-1.35 1.175-8.45 2.235Z" opacity=".5" style="mix-blend-mode:multiply"/><path fill="#fff" fill-rule="evenodd" d="M13.475 36.328s2.302 3.496 2.117 3.438c-.418.447-3.613 2.05-3.613 2.05l4.03-1.982 2.38.389s-1.7-.544-2.447-.875c-.748-.33-2.448-3.02-2.448-3.02h-.02ZM13.174 49.227s4.798-6.207 5.002-6.8c.204-.602.204-1.32.204-1.36 0-.038 0 .36.204 1.157.039.175 2.496 2.137 3.001 2.603 1.846 1.71 3.002 2.4 3.818 3.215-.214.389-6.42-5.216-6.82-5.216-.397 0-5.4 6.401-5.4 6.401h-.01Z" clip-rule="evenodd"/><path fill="#ED7FB8" fill-rule="evenodd" d="m26.55 48.955.63.864 3.06 2.099-3.166-2.691-.525-.272ZM32.377 53.627l9.005-6.4 1.903-1.545-4.099 2.545-6.809 5.4Z" clip-rule="evenodd" style="mix-blend-mode:screen"/><path fill="#fff" fill-rule="evenodd" d="M20.575 8.8s-9.402 5.002-11.607 6.002c-2.205 1.001-4.799 2.002-4.799 2.002L20.575 8.8Z" clip-rule="evenodd"/><path fill="#ED7FB8" fill-rule="evenodd" d="m32.581 20.009 13.006-11.21s-3.001 3.002-6.4 5.8c-3.4 2.797-6.606 5.4-6.606 5.4v.01Z" clip-rule="evenodd" style="mix-blend-mode:screen"/><path fill="#C74867" fill-rule="evenodd" d="m53.99 21.407 6.207-5.206L63.8 33.209l-7.003-1-2.807-10.802Z" clip-rule="evenodd" opacity=".3" style="mix-blend-mode:multiply"/><path fill="#E9332D" d="m53.99 21.407 2.797 11.404c-.194-8.771.981-13.006 5.605-5.799l-2.205-10.801-6.207 5.206.01-.01Z" style="mix-blend-mode:darken"/><path fill="url(#s)" fill-rule="evenodd" d="M19.944 42.36c.631 2.059 12.239 9.81 12.239 9.81s12.608-8.654 13.404-9.5c.797-.845 9.704-9.053 9.607-11.452-.097-2.399-35.882 9.082-35.25 11.151v-.01Z" clip-rule="evenodd" style="mix-blend-mode:screen"/><path fill="#EB699E" fill-rule="evenodd" d="M16.195 12.636c-2.186.496-6.936 4.167-3.08 2.769 3.856-1.4 4.702-3.138 3.08-2.769ZM39.662 15.405c-2.73 1.31-1.836 1.719-.68 1.204 1.156-.515 2.759-2.205.68-1.204ZM51.008 13.307c-1.195-.243-3.012 1.088-1.215 1.495 1.797.408 3.633-1 1.215-1.495Z" clip-rule="evenodd" opacity=".55"/><path fill="#EE8991" fill-rule="evenodd" d="M19.497 14.404s1.078-2.457 2.283-2.127c1.204.33 10.801 7.732 10.801 7.732L20.575 8.799l-1.078 5.605Z" clip-rule="evenodd" opacity=".28" style="mix-blend-mode:screen"/><path fill="#B33645" fill-rule="evenodd" d="M20.575 16.483s4.323 3.118 7.266 3.516c2.943.398 4.74 0 4.74 0l-.398 6.207-11.608-9.723Z" clip-rule="evenodd" opacity=".3" style="mix-blend-mode:multiply"/><path fill="url(#t)" fill-rule="evenodd" d="M31.58 29.985S20.975 17.007 19.178 17.61c-1.797.602-7.723 5.954-7.762 6.178-.038.223 2.487 13.093 3.828 13.763 1.34.67 8.275 6.946 8.275 6.946l8.47 6.74-.398-21.252h-.01Z" clip-rule="evenodd" opacity=".72" style="mix-blend-mode:screen"/><path fill="url(#u)" fill-rule="evenodd" d="M32.785 27.614s12.006-7.605 13.21-7.605c1.205 0 6.606 2 6.907 2.603.3.602 2.506 9.607 2.302 9.607-.204 0-9.374 11.21-9.374 11.21l-13.24 9.207s-3-23.01.205-25.012l-.01-.01Z" clip-rule="evenodd" opacity=".72" style="mix-blend-mode:screen"/><path fill="url(#v)" fill-rule="evenodd" d="M45.986 10.053c.087.398.621 7.149 1.01 7.353.388.204 6.187 2.797 6.488 2.603.302-.204 5.605-3.769 4.06-4.09-1.553-.31-11.762-6.818-11.558-5.867Z" clip-rule="evenodd" style="mix-blend-mode:screen"/><path fill="#ED7FB8" fill-rule="evenodd" d="m46.384 43.418 7.606-7.1 2.797-3.536 5.265.194-5.265-1.311-2.797-10.248s2.04 9.685 1.923 10.248c-.117.563-2.924 4.663-2.924 4.663l-6.595 7.1-.01-.01Z" clip-rule="evenodd" style="mix-blend-mode:screen"/><path fill="#881A64" fill-rule="evenodd" d="M20.177 44.817c3.205 2.205 11.054 8.208 11.132 9.005.077.796.048 4.992-.438 5.002-.485 0-15.463-8.198-15.279-8.703.185-.496 1.39-7.509 4.585-5.304ZM2.566 34.618c.408-.515 9.607.913 9.801 1.36.204.447 3.225 3.73 2.798 3.846-.428.107-6.401 3.206-6.605 3.002-.204-.204-6.411-7.684-6.003-8.208h.01Z" clip-rule="evenodd" opacity=".5" style="mix-blend-mode:multiply"/><path fill="#ED7FB8" fill-rule="evenodd" d="m46.384 43.418 5.605 6.003-5.061-6.003 3.681-3.943-4.225 3.943Z" clip-rule="evenodd" style="mix-blend-mode:screen"/><path fill="url(#w)" fill-rule="evenodd" d="M6.17 17.405s3.118 4.08 3.856 3.944c.748-.146 8.344-6.42 8.344-6.78 0-.36 1.642-4.983 1.127-4.973-.524 0-13.725 7.207-13.327 7.81Z" clip-rule="evenodd" opacity=".72" style="mix-blend-mode:screen"/><path fill="url(#x)" fill-rule="evenodd" d="M33.28 20.019S44.209 9.664 44.5 10.635c.291.972.913 6.839 0 7.402-.913.563-10.52 6.974-10.821 6.673-.301-.3-.398-4.691-.398-4.691Z" clip-rule="evenodd" opacity=".72" style="mix-blend-mode:screen"/><path fill="#ED7FB8" fill-rule="evenodd" d="m17.574 51.626 14.405 8.403 17.805-9.403s-14.405 7.605-16.008 7.402c-1.603-.204-1.399-4.4-1.399-4.4s-.078 4.4-1.04 5.196c-.96.806-13.773-7.198-13.773-7.198h.01Z" clip-rule="evenodd" style="mix-blend-mode:screen"/><path fill="url(#y)" fill-rule="evenodd" d="M24.062 41.845c7.052 5.77 8.743-10.413 5.032-14.823-3.71-4.41-10.112-5.809-12.113-4.41-2 1.399.768 14.065 7.081 19.233Z" clip-rule="evenodd" style="mix-blend-mode:screen"/><path fill="url(#z)" fill-rule="evenodd" d="M29.346 53.229c.234-.797-8.77-9.004-10.772-9.403-2-.398-3.672 5.605-3.137 6.003.534.398 13.676 4.206 13.91 3.4Z" clip-rule="evenodd" style="mix-blend-mode:screen"/><path fill="#B33645" d="M9.366 23.204s-4.74-5.604-4.973-5.701c-.234-.098.174 7.508 2.768 9.305 2.603 1.797 2.205-3.604 2.205-3.604Z" opacity=".3" style="mix-blend-mode:multiply"/><path fill="#ED7FB8" fill-rule="evenodd" d="M29.58 29.013c-1.137-.563-3.585 1.146-2.098 1.875 1.486.728 4.099-.874 2.098-1.875ZM40.672 23.923c-1.884-.573-5.128 3.604-2.807 3.05 2.322-.553 4.498-2.535 2.807-3.05Z" clip-rule="evenodd" style="mix-blend-mode:screen"/><path fill="url(#A)" fill-rule="evenodd" d="m45.986 18.61-13.803 8.004-13.006-11.005-9.403 7.207L12.57 35.22l3.264 4.75.515.087c3.147-2.632 6.605-4.963 10.228-7.042 8.83-4.886 18.145-7.907 27.868-9.655l-.456-1.748-8.004-3.002Z" clip-rule="evenodd" opacity=".72" style="mix-blend-mode:screen"/><path fill="#fff" fill-rule="evenodd" d="M54.98 27.022c-.34-.534.059 4.672.933 4.633.884-.039-.554-4.021-.932-4.633Z" clip-rule="evenodd"/><path fill="#ED7FB8" fill-rule="evenodd" d="m53.99 21.407 6.207-5.206s-4.906 3.798-6.207 4.206c-1.302.398-3.002 0-3.002 0l3.002 1ZM50.6 19.922l-.991-.156.777.437h.408l-.194-.281ZM31.309 52.685l1.156.874-.486 6.47-2.798-1.603s2.205.398 2.604-.204c.398-.602.602-4.604.602-4.604l-1.078-.943v.01Z" clip-rule="evenodd" style="mix-blend-mode:screen"/><path fill="#B33645" d="M54.446 21.718s5.547-5.196 5.75-5.05c.205.145-.602 9.946-2.603 10.344-2 .398-3.147-5.294-3.147-5.294ZM32.95 20.203s-.223 5.469 0 5.236c.223-.233 4.837-2.623 6.43-3.837s-3.38-3.924-3.895-3.458c-.505.456-2.535 2.06-2.535 2.06Z" opacity=".3" style="mix-blend-mode:multiply"/><path fill="#ED7FB8" fill-rule="evenodd" d="m29.91 51.646 2.467 1.972 3.206-2.4s-1.623 1.01-3.012 1.108c-1.389.097-2.661-.68-2.661-.68Z" clip-rule="evenodd" style="mix-blend-mode:screen"/><path fill="url(#B)" fill-rule="evenodd" d="M31.687 25.992c-5.303 4.585-10.14 9.257-14.356 14.037l-1.496-.263-.777-1.127c4.478-2.428 12.278-9.771 14.959-14.055l1.67 1.408Z" clip-rule="evenodd" style="mix-blend-mode:screen"/><path fill="url(#C)" fill-rule="evenodd" d="M45.102 18.921c-8.956 8.014-16.523 16.921-22.71 26.703l-1.71-1.36c4.517-4.818 14.512-16.397 19.408-22.439l5.002-2.904h.01Z" clip-rule="evenodd" style="mix-blend-mode:screen"/><path fill="url(#D)" fill-rule="evenodd" d="M24.907 20.252A2135.05 2135.05 0 0 0 12.076 32.82l-.476-2.127c4.458-3.099 8.44-6.984 12.035-11.52l1.282 1.078h-.01Z" clip-rule="evenodd" style="mix-blend-mode:screen"/><path fill="#ED7FB8" d="m13.174 49.227 3.846-7.839 1.35-1.175v2.205l-5.197 6.81Z" opacity=".5" style="mix-blend-mode:screen"/><path fill="#FFFFDA" d="M37.38 15.803 45.587 8.8s.797 9.606.399 9.606-13.24 7.8-13.24 7.8l4.634-10.403Z" style="mix-blend-mode:overlay"/><path fill="#FFFFDA" d="m12.445 35.502-3.02-12.715 9.402-7.208 13.006 11.006 13.803-8.004c-2.156 15.755-8.004 40.418-33.2 16.92h.009Z" opacity=".2" style="mix-blend-mode:overlay"/><path fill="#ED7FB8" fill-rule="evenodd" d="M17.778 48.42c1.253.661 2.088-.32.602-.796-2.05-.66-2.37-.136-.602.797ZM4.917 21.35c-.748.058-1.69 3.962-.35 4.264 1.35.291 1.098-4.323.35-4.265Z" clip-rule="evenodd" style="mix-blend-mode:screen"/><path fill="#FFFFDA" fill-rule="evenodd" d="M51.989 49.421s-3.342-5.206 2.234-10.102c5.566-4.905 9.577-6.1 9.577-6.1L51.998 49.431l-.01-.01ZM34.582 58.63s5.799-5.207 10.403-7.402c4.604-2.195 7.004-1.797 7.004-1.797l-17.407 9.208v-.01Z" clip-rule="evenodd" opacity=".2" style="mix-blend-mode:overlay"/><path fill="url(#E)" fill-rule="evenodd" d="m13.174 49.227 5.196-6.809v-2.205l-5.197 9.014Z" clip-rule="evenodd" style="mix-blend-mode:screen"/><path fill="url(#F)" fill-rule="evenodd" d="M4.703 38.018s3.06 4.915 3.866 5.06c.797.146 6.605-2.457 6.605-3.254 0-.796-9.529-1.797-10.461-1.797l-.01-.01Z" clip-rule="evenodd" style="mix-blend-mode:screen"/><path fill="url(#G)" d="M47.792 32.753c8.493 0 15.377-6.884 15.377-15.377C63.169 8.884 56.285 2 47.792 2 39.3 2 32.416 8.884 32.416 17.377c0 8.492 6.884 15.376 15.376 15.376Z" style="mix-blend-mode:screen"/><path fill="url(#H)" d="M11.377 51.966c8.492 0 15.376-6.884 15.376-15.376 0-8.492-6.884-15.377-15.377-15.377C2.884 21.213-4 28.098-4 36.59s6.884 15.376 15.377 15.376Z" style="mix-blend-mode:screen"/><path fill="url(#I)" fill-rule="evenodd" d="M12.202 22.505A2.3 2.3 0 0 1 9.9 24.807a2.3 2.3 0 0 1-2.302-2.302A2.3 2.3 0 0 1 9.9 20.203a2.3 2.3 0 0 1 2.302 2.302Z" clip-rule="evenodd" style="mix-blend-mode:screen"/><path fill="url(#J)" fill-rule="evenodd" d="M10.852 22.505a.953.953 0 0 1-.952.952.953.953 0 0 1-.952-.952c0-.524.428-.952.952-.952.525 0 .952.428.952.952Z" clip-rule="evenodd" style="mix-blend-mode:screen"/><path fill="url(#K)" fill-rule="evenodd" d="M10.405 22.505a.502.502 0 0 1-.505.505.502.502 0 0 1-.505-.505c0-.281.223-.505.505-.505.282 0 .505.224.505.505Z" clip-rule="evenodd" style="mix-blend-mode:screen"/><path fill="url(#L)" fill-rule="evenodd" d="M48.22 18.309a2.506 2.506 0 0 1-2.506 2.506 2.5 2.5 0 0 1-2.506-2.506 2.5 2.5 0 0 1 2.506-2.506 2.5 2.5 0 0 1 2.506 2.506Z" clip-rule="evenodd" style="mix-blend-mode:screen"/><path fill="url(#M)" fill-rule="evenodd" d="M46.753 18.309a1.03 1.03 0 0 1-1.03 1.03c-.563 0-1.03-.467-1.03-1.03 0-.564.467-1.03 1.03-1.03.564 0 1.03.466 1.03 1.03Z" clip-rule="evenodd" style="mix-blend-mode:screen"/><path fill="url(#N)" fill-rule="evenodd" d="M46.267 18.309a.543.543 0 1 1-1.088 0 .543.543 0 1 1 1.088 0Z" clip-rule="evenodd" style="mix-blend-mode:screen"/><path fill="url(#O)" fill-rule="evenodd" d="M40.303 22.146c.36.7-.913 2.069-2.846 3.05-1.933.98-3.778 1.224-4.138.524-.36-.699.913-2.069 2.846-3.05 1.933-.99 3.779-1.224 4.138-.524Z" clip-rule="evenodd" style="mix-blend-mode:screen"/><path fill="url(#P)" fill-rule="evenodd" d="M38.264 23.195c.145.291-.38.855-1.176 1.263-.796.408-1.564.505-1.71.213-.145-.291.38-.854 1.176-1.262.796-.408 1.564-.505 1.71-.214Z" clip-rule="evenodd" style="mix-blend-mode:screen"/><path fill="url(#Q)" fill-rule="evenodd" d="M37.584 23.545c.077.155-.205.456-.622.67-.418.213-.826.272-.904.116-.077-.155.204-.456.622-.67.418-.213.826-.272.904-.116Z" clip-rule="evenodd" style="mix-blend-mode:screen"/><path fill="url(#R)" fill-rule="evenodd" d="M56.37 34.968c-1.06.165-2.244-1.768-2.652-4.313-.408-2.555.116-4.76 1.165-4.934 1.06-.166 2.244 1.767 2.652 4.312.408 2.555-.116 4.76-1.165 4.935Z" clip-rule="evenodd" style="mix-blend-mode:screen"/><path fill="url(#S)" fill-rule="evenodd" d="M55.932 32.258c-.437.068-.932-.729-1.097-1.788-.165-1.058.048-1.972.485-2.04.438-.068.933.729 1.098 1.788.165 1.058-.048 1.972-.486 2.04Z" clip-rule="evenodd" style="mix-blend-mode:screen"/><path fill="url(#T)" fill-rule="evenodd" d="M55.787 31.354c-.233.04-.496-.388-.583-.942-.088-.563.029-1.04.252-1.078.233-.039.496.388.583.942.088.564-.029 1.04-.252 1.078Z" clip-rule="evenodd" style="mix-blend-mode:screen"/><path fill="url(#U)" fill-rule="evenodd" d="M63.8 33.21 51.99 49.422l-20.01 10.607-18.805-10.802 3.846-7.839-8.45 2.235L.76 33.617l3.41-16.815L20.574 8.8l12.006 11.209 13.006-11.21 14.61 7.402L63.8 33.21Z" clip-rule="evenodd" style="mix-blend-mode:screen"/><path fill="#F8DDD9" d="M8.57 43.622-.038 33.413l3.798-17.406 16.814-7.81L32.581 20 20.371 9.596c-4.643 7.023-9.558 11.336-15.211 8.208C3.42 24.079 1.886 30.1 2.285 33.724l6.673 8.296 7.003-2.205-7.401 3.798.01.01Z" style="mix-blend-mode:overlay"/><path fill="#FFFFDA" d="m13.97 48.42 18.009 11.608-18.805-10.8.796-.807Z" style="mix-blend-mode:overlay"/></g><defs><linearGradient id="b" x1="-4.476" x2="16.058" y1="56.678" y2="41.816" gradientUnits="userSpaceOnUse"><stop stop-color="#E93848"/><stop offset=".19" stop-color="#E53650"/><stop offset=".49" stop-color="#DC3265"/><stop offset=".53" stop-color="#DB3269"/><stop offset=".73" stop-color="#BD2A6F"/><stop offset="1" stop-color="#901E79"/></linearGradient><linearGradient id="c" x1="29.366" x2="41.78" y1="7.022" y2="71.704" gradientUnits="userSpaceOnUse"><stop stop-color="#DC4B27"/><stop offset=".12" stop-color="#DB472F"/><stop offset=".3" stop-color="#DB3F44"/><stop offset=".53" stop-color="#DB3269"/><stop offset=".73" stop-color="#BD2A6F"/><stop offset="1" stop-color="#901E79"/></linearGradient><linearGradient id="d" x1="42.45" x2="27.889" y1="45.487" y2="18.047" gradientUnits="userSpaceOnUse"><stop offset=".24"/><stop offset="1" stop-color="#C54D63"/></linearGradient><linearGradient id="e" x1="22.023" x2="18.147" y1="30.237" y2="9.499" gradientUnits="userSpaceOnUse"><stop offset=".24"/><stop offset=".99" stop-color="#EE8BA3"/></linearGradient><linearGradient id="f" x1="9.715" x2="19.05" y1="19.212" y2="4.36" gradientUnits="userSpaceOnUse"><stop stop-color="#DC4B27"/><stop offset=".12" stop-color="#DB472F"/><stop offset=".3" stop-color="#DB3F44"/><stop offset=".53" stop-color="#DB3269"/><stop offset=".73" stop-color="#BD2A6F"/><stop offset="1" stop-color="#901E79"/></linearGradient><linearGradient id="g" x1="12.387" x2="-14.044" y1="24.973" y2="31.17" gradientUnits="userSpaceOnUse"><stop stop-color="#E93848"/><stop offset=".19" stop-color="#E53650"/><stop offset=".49" stop-color="#DC3265"/><stop offset=".53" stop-color="#DB3269"/><stop offset=".73" stop-color="#BD2A6F"/><stop offset="1" stop-color="#901E79"/></linearGradient><linearGradient id="h" x1="-8.157" x2="23.829" y1="39.523" y2="37.26" gradientUnits="userSpaceOnUse"><stop stop-color="#DC4B27"/><stop offset=".12" stop-color="#DB472F"/><stop offset=".3" stop-color="#DB3F44"/><stop offset=".53" stop-color="#DB3269"/><stop offset=".73" stop-color="#BD2A6F"/><stop offset="1" stop-color="#901E79"/></linearGradient><linearGradient id="i" x1="7.258" x2="27.54" y1="58.63" y2="49.004" gradientUnits="userSpaceOnUse"><stop stop-color="#DC4B27"/><stop offset=".12" stop-color="#DB472F"/><stop offset=".3" stop-color="#DB3F44"/><stop offset=".53" stop-color="#DB3269"/><stop offset=".73" stop-color="#BD2A6F"/><stop offset="1" stop-color="#901E79"/></linearGradient><linearGradient id="j" x1="51.96" x2="39.526" y1="71.286" y2="50.636" gradientUnits="userSpaceOnUse"><stop stop-color="#DC4B27"/><stop offset=".12" stop-color="#DB472F"/><stop offset=".3" stop-color="#DB3F44"/><stop offset=".53" stop-color="#DB3269"/><stop offset=".73" stop-color="#BD2A6F"/><stop offset="1" stop-color="#901E79"/></linearGradient><linearGradient id="k" x1="70.512" x2="52.474" y1="51.189" y2="37.075" gradientUnits="userSpaceOnUse"><stop stop-color="#DC4B27"/><stop offset=".12" stop-color="#DB472F"/><stop offset=".3" stop-color="#DB3F44"/><stop offset=".53" stop-color="#DB3269"/><stop offset=".73" stop-color="#BD2A6F"/><stop offset="1" stop-color="#901E79"/></linearGradient><linearGradient id="l" x1="39.361" x2="67.258" y1="33.355" y2="22.699" gradientUnits="userSpaceOnUse"><stop stop-color="#DC4B27"/><stop offset=".03" stop-color="#DC4A27"/><stop offset=".14" stop-color="#DB462F"/><stop offset=".33" stop-color="#DB3E47"/><stop offset=".53" stop-color="#DB3269"/><stop offset=".73" stop-color="#BD2A6F"/><stop offset="1" stop-color="#901E79"/></linearGradient><linearGradient id="m" x1="53.436" x2="49.959" y1="8.129" y2="36.026" gradientUnits="userSpaceOnUse"><stop stop-color="#DC4B27"/><stop offset=".12" stop-color="#DB472F"/><stop offset=".3" stop-color="#DB3F44"/><stop offset=".53" stop-color="#DB3269"/><stop offset=".73" stop-color="#BD2A6F"/><stop offset="1" stop-color="#901E79"/></linearGradient><linearGradient id="n" x1="52.708" x2="29.288" y1="8.188" y2="26.517" gradientUnits="userSpaceOnUse"><stop stop-color="#DC4B27"/><stop offset=".12" stop-color="#DB472F"/><stop offset=".3" stop-color="#DB3F44"/><stop offset=".53" stop-color="#DB3269"/><stop offset=".73" stop-color="#BD2A6F"/><stop offset="1" stop-color="#901E79"/></linearGradient><linearGradient id="o" x1="6.17" x2="31.882" y1="4.166" y2="21.262" gradientUnits="userSpaceOnUse"><stop stop-color="#DC4B27"/><stop offset=".12" stop-color="#DB472F"/><stop offset=".3" stop-color="#DB3F44"/><stop offset=".53" stop-color="#DB3269"/><stop offset=".73" stop-color="#BD2A6F"/><stop offset="1" stop-color="#901E79"/></linearGradient><linearGradient id="p" x1="14.417" x2="9.385" y1="14.579" y2="20.796" gradientUnits="userSpaceOnUse"><stop stop-color="#E93E45"/><stop offset="1"/></linearGradient><linearGradient id="q" x1="3.343" x2="3.936" y1="21.262" y2="31.762" gradientUnits="userSpaceOnUse"><stop stop-color="#E93E45"/><stop offset="1"/></linearGradient><linearGradient id="r" x1="45.549" x2="39.798" y1="61.544" y2="50.548" gradientUnits="userSpaceOnUse"><stop offset=".02" stop-color="#EA44F5"/><stop offset="1"/></linearGradient><linearGradient id="s" x1="45.811" x2="28.375" y1="27.041" y2="48.586" gradientUnits="userSpaceOnUse"><stop stop-color="#E93E45"/><stop offset="1"/></linearGradient><linearGradient id="t" x1="25.995" x2="14.854" y1="38.202" y2="19.523" gradientUnits="userSpaceOnUse"><stop offset=".24"/><stop offset=".99" stop-color="#EE8BA3"/></linearGradient><linearGradient id="u" x1="42.236" x2="47.598" y1="35.162" y2="16.735" gradientUnits="userSpaceOnUse"><stop offset=".24"/><stop offset=".99" stop-color="#EE8BA3"/></linearGradient><linearGradient id="v" x1="46.918" x2="56.399" y1="14.618" y2="15.861" gradientUnits="userSpaceOnUse"><stop stop-color="#E93E45"/><stop offset="1"/></linearGradient><linearGradient id="w" x1="-5.68" x2="20.974" y1="22.175" y2="13.433" gradientUnits="userSpaceOnUse"><stop offset=".24"/><stop offset=".99" stop-color="#EE8BA3"/></linearGradient><linearGradient id="x" x1="35.214" x2="48.21" y1="22.865" y2="9.314" gradientUnits="userSpaceOnUse"><stop offset=".24"/><stop offset=".99" stop-color="#EE8BA3"/></linearGradient><linearGradient id="y" x1="16.331" x2="31.008" y1="32.578" y2="32.578" gradientUnits="userSpaceOnUse"><stop stop-color="#E93E45"/><stop offset="1"/></linearGradient><linearGradient id="z" x1="19.283" x2="23.198" y1="43.01" y2="53.715" gradientUnits="userSpaceOnUse"><stop stop-color="#E93E45"/><stop offset="1"/></linearGradient><linearGradient id="A" x1="34.563" x2="28.2" y1="31.83" y2="14.832" gradientUnits="userSpaceOnUse"><stop offset=".24"/><stop offset=".99" stop-color="#EE8BA3"/></linearGradient><linearGradient id="B" x1="29.512" x2="8.832" y1="25.983" y2="47.323" gradientUnits="userSpaceOnUse"><stop stop-color="#E93E45"/><stop offset="1"/></linearGradient><linearGradient id="C" x1="34.271" x2="13.591" y1="30.597" y2="51.937" gradientUnits="userSpaceOnUse"><stop stop-color="#E93E45"/><stop offset="1"/></linearGradient><linearGradient id="D" x1="23.45" x2="2.761" y1="20.106" y2="41.437" gradientUnits="userSpaceOnUse"><stop stop-color="#E93E45"/><stop offset="1"/></linearGradient><linearGradient id="E" x1="18.186" x2="12.717" y1="41.573" y2="49.052" gradientUnits="userSpaceOnUse"><stop stop-color="#E93E45"/><stop offset="1"/></linearGradient><linearGradient id="F" x1="8.453" x2="9.929" y1="44.924" y2="38.95" gradientUnits="userSpaceOnUse"><stop stop-color="#E93E45"/><stop offset="1"/></linearGradient><radialGradient id="G" cx="0" cy="0" r="1" gradientTransform="translate(47.792 17.377) scale(15.3765)" gradientUnits="userSpaceOnUse"><stop stop-color="#E93323"/><stop offset=".04" stop-color="#DA2F20"/><stop offset=".24" stop-color="#992117"/><stop offset=".43" stop-color="#62150E"/><stop offset=".6" stop-color="#370C08"/><stop offset=".76" stop-color="#190503"/><stop offset=".89" stop-color="#060101"/><stop offset=".98"/></radialGradient><radialGradient id="H" cx="0" cy="0" r="1" gradientTransform="matrix(.48568 0 0 .48568 11.377 36.59)" gradientUnits="userSpaceOnUse"><stop stop-color="#E93323"/><stop offset=".04" stop-color="#DA2F20"/><stop offset=".24" stop-color="#992117"/><stop offset=".43" stop-color="#62150E"/><stop offset=".6" stop-color="#370C08"/><stop offset=".76" stop-color="#190503"/><stop offset=".89" stop-color="#060101"/><stop offset=".98"/></radialGradient><radialGradient id="I" cx="0" cy="0" r="1" gradientTransform="translate(9.9 22.505) scale(2.3021)" gradientUnits="userSpaceOnUse"><stop stop-color="#EB61C6"/><stop offset=".07" stop-color="#CB53AB"/><stop offset=".21" stop-color="#953D7E"/><stop offset=".34" stop-color="#672A57"/><stop offset=".48" stop-color="#421B38"/><stop offset=".61" stop-color="#250F1F"/><stop offset=".74" stop-color="#10060E"/><stop offset=".87" stop-color="#040103"/><stop offset="1"/></radialGradient><radialGradient id="J" cx="0" cy="0" r="1" gradientTransform="matrix(.95192 0 0 .95192 9.9 22.505)" gradientUnits="userSpaceOnUse"><stop offset=".59" stop-color="#EC7396"/><stop offset=".62" stop-color="#CB6381"/><stop offset=".67" stop-color="#95495F"/><stop offset=".73" stop-color="#673242"/><stop offset=".78" stop-color="#42202A"/><stop offset=".84" stop-color="#251217"/><stop offset=".89" stop-color="#10080A"/><stop offset=".95" stop-color="#040202"/><stop offset="1"/></radialGradient><radialGradient id="K" cx="0" cy="0" r="1" gradientTransform="translate(9.9 22.505) scale(.5051)" gradientUnits="userSpaceOnUse"><stop offset=".84" stop-color="#fff"/><stop offset=".86" stop-color="#CBCBCB"/><stop offset=".88" stop-color="#959595"/><stop offset=".9" stop-color="#686868"/><stop offset=".92" stop-color="#424242"/><stop offset=".94" stop-color="#252525"/><stop offset=".96" stop-color="#101010"/><stop offset=".98" stop-color="#040404"/><stop offset="1"/></radialGradient><radialGradient id="L" cx="0" cy="0" r="1" gradientTransform="translate(45.723 18.309) scale(2.50608)" gradientUnits="userSpaceOnUse"><stop stop-color="#EB61C6"/><stop offset=".07" stop-color="#CB53AB"/><stop offset=".21" stop-color="#953D7E"/><stop offset=".34" stop-color="#672A57"/><stop offset=".48" stop-color="#421B38"/><stop offset=".61" stop-color="#250F1F"/><stop offset=".74" stop-color="#10060E"/><stop offset=".87" stop-color="#040103"/><stop offset="1"/></radialGradient><radialGradient id="M" cx="0" cy="0" r="1" gradientTransform="translate(45.724 18.309) scale(1.02963)" gradientUnits="userSpaceOnUse"><stop offset=".59" stop-color="#EC7396"/><stop offset=".62" stop-color="#CB6381"/><stop offset=".67" stop-color="#95495F"/><stop offset=".73" stop-color="#673242"/><stop offset=".78" stop-color="#42202A"/><stop offset=".84" stop-color="#251217"/><stop offset=".89" stop-color="#10080A"/><stop offset=".95" stop-color="#040202"/><stop offset="1"/></radialGradient><radialGradient id="N" cx="0" cy="0" r="1" gradientTransform="matrix(.54396 0 0 .54396 45.723 18.309)" gradientUnits="userSpaceOnUse"><stop offset=".84" stop-color="#fff"/><stop offset=".86" stop-color="#CBCBCB"/><stop offset=".88" stop-color="#959595"/><stop offset=".9" stop-color="#686868"/><stop offset=".92" stop-color="#424242"/><stop offset=".94" stop-color="#252525"/><stop offset=".96" stop-color="#101010"/><stop offset=".98" stop-color="#040404"/><stop offset="1"/></radialGradient><radialGradient id="O" cx="0" cy="0" r="1" gradientTransform="rotate(-27.11 70 -64.008) scale(3.93455 1.42847)" gradientUnits="userSpaceOnUse"><stop stop-color="#EB61C6"/><stop offset=".07" stop-color="#CB53AB"/><stop offset=".21" stop-color="#953D7E"/><stop offset=".34" stop-color="#672A57"/><stop offset=".48" stop-color="#421B38"/><stop offset=".61" stop-color="#250F1F"/><stop offset=".74" stop-color="#10060E"/><stop offset=".87" stop-color="#040103"/><stop offset="1"/></radialGradient><radialGradient id="P" cx="0" cy="0" r="1" gradientTransform="rotate(-27.11 70 -64.008) scale(1.61652 .58689)" gradientUnits="userSpaceOnUse"><stop offset=".59" stop-color="#EC7396"/><stop offset=".62" stop-color="#CB6381"/><stop offset=".67" stop-color="#95495F"/><stop offset=".73" stop-color="#673242"/><stop offset=".78" stop-color="#42202A"/><stop offset=".84" stop-color="#251217"/><stop offset=".89" stop-color="#10080A"/><stop offset=".95" stop-color="#040202"/><stop offset="1"/></radialGradient><radialGradient id="Q" cx="0" cy="0" r="1" gradientTransform="matrix(.76018 -.38917 .1413 .27599 36.86 24.867)" gradientUnits="userSpaceOnUse"><stop offset=".84" stop-color="#fff"/><stop offset=".86" stop-color="#CBCBCB"/><stop offset=".88" stop-color="#959595"/><stop offset=".9" stop-color="#686868"/><stop offset=".92" stop-color="#424242"/><stop offset=".94" stop-color="#252525"/><stop offset=".96" stop-color="#101010"/><stop offset=".98" stop-color="#040404"/><stop offset="1"/></radialGradient><radialGradient id="R" cx="0" cy="0" r="1" gradientTransform="rotate(80.87 8.447 47.265) scale(4.68638 1.92969)" gradientUnits="userSpaceOnUse"><stop stop-color="#EB61C6"/><stop offset=".07" stop-color="#CB53AB"/><stop offset=".21" stop-color="#953D7E"/><stop offset=".34" stop-color="#672A57"/><stop offset=".48" stop-color="#421B38"/><stop offset=".61" stop-color="#250F1F"/><stop offset=".74" stop-color="#10060E"/><stop offset=".87" stop-color="#040103"/><stop offset="1"/></radialGradient><radialGradient id="S" cx="0" cy="0" r="1" gradientTransform="matrix(.30551 1.90102 -.78277 .1258 53.773 31.425)" gradientUnits="userSpaceOnUse"><stop offset=".59" stop-color="#EC7396"/><stop offset=".62" stop-color="#CB6381"/><stop offset=".67" stop-color="#95495F"/><stop offset=".73" stop-color="#673242"/><stop offset=".78" stop-color="#42202A"/><stop offset=".84" stop-color="#251217"/><stop offset=".89" stop-color="#10080A"/><stop offset=".95" stop-color="#040202"/><stop offset="1"/></radialGradient><radialGradient id="T" cx="0" cy="0" r="1" gradientTransform="matrix(.1614 1.00431 -.41354 .06646 53.773 31.426)" gradientUnits="userSpaceOnUse"><stop offset=".84" stop-color="#fff"/><stop offset=".86" stop-color="#CBCBCB"/><stop offset=".88" stop-color="#959595"/><stop offset=".9" stop-color="#686868"/><stop offset=".92" stop-color="#424242"/><stop offset=".94" stop-color="#252525"/><stop offset=".96" stop-color="#101010"/><stop offset=".98" stop-color="#040404"/><stop offset="1"/></radialGradient><radialGradient id="U" cx="0" cy="0" r="1" gradientTransform="translate(31.037 62.234) scale(26.3722)" gradientUnits="userSpaceOnUse"><stop stop-color="#E93323"/><stop offset=".04" stop-color="#DA2F20"/><stop offset=".24" stop-color="#992117"/><stop offset=".43" stop-color="#62150E"/><stop offset=".6" stop-color="#370C08"/><stop offset=".76" stop-color="#190503"/><stop offset=".89" stop-color="#060101"/><stop offset=".98"/></radialGradient><clipPath id="a"><path fill="#fff" d="M0 0h64v64H0z"/></clipPath></defs></svg>