<svg width="128" height="128" viewBox="0 0 128 128" fill="none" xmlns="http://www.w3.org/2000/svg">
<g filter="url(#filter0_d_1_466)">
<g filter="url(#filter1_d_1_466)">
<path d="M32 34C32 29.5817 35.5817 26 40 26H104C108.418 26 112 29.5817 112 34V78C112 82.4183 108.418 86 104 86H40C35.5817 86 32 82.4183 32 78V34Z" fill="url(#paint0_linear_1_466)"/>
</g>
<g filter="url(#filter2_dd_1_466)">
<path d="M16 50C16 45.5817 19.5817 42 24 42H88C92.4183 42 96 45.5817 96 50V94C96 98.4183 92.4183 102 88 102H24C19.5817 102 16 98.4183 16 94V50Z" fill="white" fill-opacity="0.4"/>
</g>
<g filter="url(#filter3_dd_1_466)">
<path d="M24 76C24 73.7909 25.7909 72 28 72H38C40.2091 72 42 73.7909 42 76C42 78.2091 40.2091 80 38 80H28C25.7909 80 24 78.2091 24 76Z" fill="white" fill-opacity="0.4"/>
</g>
<g filter="url(#filter4_dd_1_466)">
<path d="M24 62C24 59.7909 25.7909 58 28 58H44C46.2091 58 48 59.7909 48 62C48 64.2091 46.2091 66 44 66H28C25.7909 66 24 64.2091 24 62Z" fill="white" fill-opacity="0.4"/>
</g>
<g filter="url(#filter5_dd_1_466)">
<path d="M24 90C24 87.7909 25.7909 86 28 86H36C38.2091 86 40 87.7909 40 90C40 92.2091 38.2091 94 36 94H28C25.7909 94 24 92.2091 24 90Z" fill="white" fill-opacity="0.4"/>
</g>
<g filter="url(#filter6_dd_1_466)">
<path d="M51 38C51 36.8954 51.8954 36 53 36H59C60.1046 36 61 36.8954 61 38V46C61 47.1046 60.1046 48 59 48H53C51.8954 48 51 47.1046 51 46V38Z" fill="white" fill-opacity="0.6"/>
</g>
<g filter="url(#filter7_dd_1_466)">
<path d="M53.9043 85.1929C58.7353 80.7148 63.0675 78 70 78C76.9325 78 81.2647 80.7148 86.0957 85.1929C88.2417 87.1821 88.5739 90.4188 87.0924 92.7943C86.5587 93.6499 85.5354 94 84.5269 94H55.4731C54.4646 94 53.4413 93.6499 52.9076 92.7943C51.4261 90.4188 51.7583 87.1821 53.9043 85.1929Z" fill="white" fill-opacity="0.4"/>
</g>
<g filter="url(#filter8_dd_1_466)">
<path d="M70 74C74.9706 74 79 69.9706 79 65C79 60.0294 74.9706 56 70 56C65.0294 56 61 60.0294 61 65C61 69.9706 65.0294 74 70 74Z" fill="white" fill-opacity="0.4"/>
</g>
</g>
<defs>
<filter id="filter0_d_1_466" x="12" y="22" width="112" height="92" filterUnits="userSpaceOnUse" color-interpolation-filters="sRGB">
<feFlood flood-opacity="0" result="BackgroundImageFix"/>
<feColorMatrix in="SourceAlpha" type="matrix" values="0 0 0 0 0 0 0 0 0 0 0 0 0 0 0 0 0 0 127 0" result="hardAlpha"/>
<feOffset dx="4" dy="4"/>
<feGaussianBlur stdDeviation="4"/>
<feColorMatrix type="matrix" values="0 0 0 0 0.180392 0 0 0 0 0.764706 0 0 0 0 0.835294 0 0 0 0.4 0"/>
<feBlend mode="normal" in2="BackgroundImageFix" result="effect1_dropShadow_1_466"/>
<feBlend mode="normal" in="SourceGraphic" in2="effect1_dropShadow_1_466" result="shape"/>
</filter>
<filter id="filter1_d_1_466" x="24" y="18" width="96" height="76" filterUnits="userSpaceOnUse" color-interpolation-filters="sRGB">
<feFlood flood-opacity="0" result="BackgroundImageFix"/>
<feColorMatrix in="SourceAlpha" type="matrix" values="0 0 0 0 0 0 0 0 0 0 0 0 0 0 0 0 0 0 127 0" result="hardAlpha"/>
<feOffset/>
<feGaussianBlur stdDeviation="4"/>
<feComposite in2="hardAlpha" operator="out"/>
<feColorMatrix type="matrix" values="0 0 0 0 1 0 0 0 0 1 0 0 0 0 1 0 0 0 0.8 0"/>
<feBlend mode="normal" in2="BackgroundImageFix" result="effect1_dropShadow_1_466"/>
<feBlend mode="normal" in="SourceGraphic" in2="effect1_dropShadow_1_466" result="shape"/>
</filter>
<filter id="filter2_dd_1_466" x="8" y="38" width="96" height="76" filterUnits="userSpaceOnUse" color-interpolation-filters="sRGB">
<feFlood flood-opacity="0" result="BackgroundImageFix"/>
<feColorMatrix in="SourceAlpha" type="matrix" values="0 0 0 0 0 0 0 0 0 0 0 0 0 0 0 0 0 0 127 0" result="hardAlpha"/>
<feOffset/>
<feGaussianBlur stdDeviation="2"/>
<feComposite in2="hardAlpha" operator="out"/>
<feColorMatrix type="matrix" values="0 0 0 0 1 0 0 0 0 1 0 0 0 0 1 0 0 0 1 0"/>
<feBlend mode="normal" in2="BackgroundImageFix" result="effect1_dropShadow_1_466"/>
<feColorMatrix in="SourceAlpha" type="matrix" values="0 0 0 0 0 0 0 0 0 0 0 0 0 0 0 0 0 0 127 0" result="hardAlpha"/>
<feOffset dy="4"/>
<feGaussianBlur stdDeviation="4"/>
<feComposite in2="hardAlpha" operator="out"/>
<feColorMatrix type="matrix" values="0 0 0 0 1 0 0 0 0 1 0 0 0 0 1 0 0 0 1 0"/>
<feBlend mode="normal" in2="effect1_dropShadow_1_466" result="effect2_dropShadow_1_466"/>
<feBlend mode="normal" in="SourceGraphic" in2="effect2_dropShadow_1_466" result="shape"/>
</filter>
<filter id="filter3_dd_1_466" x="16" y="68" width="34" height="24" filterUnits="userSpaceOnUse" color-interpolation-filters="sRGB">
<feFlood flood-opacity="0" result="BackgroundImageFix"/>
<feColorMatrix in="SourceAlpha" type="matrix" values="0 0 0 0 0 0 0 0 0 0 0 0 0 0 0 0 0 0 127 0" result="hardAlpha"/>
<feOffset/>
<feGaussianBlur stdDeviation="2"/>
<feComposite in2="hardAlpha" operator="out"/>
<feColorMatrix type="matrix" values="0 0 0 0 1 0 0 0 0 1 0 0 0 0 1 0 0 0 1 0"/>
<feBlend mode="normal" in2="BackgroundImageFix" result="effect1_dropShadow_1_466"/>
<feColorMatrix in="SourceAlpha" type="matrix" values="0 0 0 0 0 0 0 0 0 0 0 0 0 0 0 0 0 0 127 0" result="hardAlpha"/>
<feOffset dy="4"/>
<feGaussianBlur stdDeviation="4"/>
<feComposite in2="hardAlpha" operator="out"/>
<feColorMatrix type="matrix" values="0 0 0 0 1 0 0 0 0 1 0 0 0 0 1 0 0 0 1 0"/>
<feBlend mode="normal" in2="effect1_dropShadow_1_466" result="effect2_dropShadow_1_466"/>
<feBlend mode="normal" in="SourceGraphic" in2="effect2_dropShadow_1_466" result="shape"/>
</filter>
<filter id="filter4_dd_1_466" x="16" y="54" width="40" height="24" filterUnits="userSpaceOnUse" color-interpolation-filters="sRGB">
<feFlood flood-opacity="0" result="BackgroundImageFix"/>
<feColorMatrix in="SourceAlpha" type="matrix" values="0 0 0 0 0 0 0 0 0 0 0 0 0 0 0 0 0 0 127 0" result="hardAlpha"/>
<feOffset/>
<feGaussianBlur stdDeviation="2"/>
<feComposite in2="hardAlpha" operator="out"/>
<feColorMatrix type="matrix" values="0 0 0 0 1 0 0 0 0 1 0 0 0 0 1 0 0 0 1 0"/>
<feBlend mode="normal" in2="BackgroundImageFix" result="effect1_dropShadow_1_466"/>
<feColorMatrix in="SourceAlpha" type="matrix" values="0 0 0 0 0 0 0 0 0 0 0 0 0 0 0 0 0 0 127 0" result="hardAlpha"/>
<feOffset dy="4"/>
<feGaussianBlur stdDeviation="4"/>
<feComposite in2="hardAlpha" operator="out"/>
<feColorMatrix type="matrix" values="0 0 0 0 1 0 0 0 0 1 0 0 0 0 1 0 0 0 1 0"/>
<feBlend mode="normal" in2="effect1_dropShadow_1_466" result="effect2_dropShadow_1_466"/>
<feBlend mode="normal" in="SourceGraphic" in2="effect2_dropShadow_1_466" result="shape"/>
</filter>
<filter id="filter5_dd_1_466" x="16" y="82" width="32" height="24" filterUnits="userSpaceOnUse" color-interpolation-filters="sRGB">
<feFlood flood-opacity="0" result="BackgroundImageFix"/>
<feColorMatrix in="SourceAlpha" type="matrix" values="0 0 0 0 0 0 0 0 0 0 0 0 0 0 0 0 0 0 127 0" result="hardAlpha"/>
<feOffset/>
<feGaussianBlur stdDeviation="2"/>
<feComposite in2="hardAlpha" operator="out"/>
<feColorMatrix type="matrix" values="0 0 0 0 1 0 0 0 0 1 0 0 0 0 1 0 0 0 1 0"/>
<feBlend mode="normal" in2="BackgroundImageFix" result="effect1_dropShadow_1_466"/>
<feColorMatrix in="SourceAlpha" type="matrix" values="0 0 0 0 0 0 0 0 0 0 0 0 0 0 0 0 0 0 127 0" result="hardAlpha"/>
<feOffset dy="4"/>
<feGaussianBlur stdDeviation="4"/>
<feComposite in2="hardAlpha" operator="out"/>
<feColorMatrix type="matrix" values="0 0 0 0 1 0 0 0 0 1 0 0 0 0 1 0 0 0 1 0"/>
<feBlend mode="normal" in2="effect1_dropShadow_1_466" result="effect2_dropShadow_1_466"/>
<feBlend mode="normal" in="SourceGraphic" in2="effect2_dropShadow_1_466" result="shape"/>
</filter>
<filter id="filter6_dd_1_466" x="43" y="32" width="26" height="28" filterUnits="userSpaceOnUse" color-interpolation-filters="sRGB">
<feFlood flood-opacity="0" result="BackgroundImageFix"/>
<feColorMatrix in="SourceAlpha" type="matrix" values="0 0 0 0 0 0 0 0 0 0 0 0 0 0 0 0 0 0 127 0" result="hardAlpha"/>
<feOffset/>
<feGaussianBlur stdDeviation="2"/>
<feComposite in2="hardAlpha" operator="out"/>
<feColorMatrix type="matrix" values="0 0 0 0 1 0 0 0 0 1 0 0 0 0 1 0 0 0 1 0"/>
<feBlend mode="normal" in2="BackgroundImageFix" result="effect1_dropShadow_1_466"/>
<feColorMatrix in="SourceAlpha" type="matrix" values="0 0 0 0 0 0 0 0 0 0 0 0 0 0 0 0 0 0 127 0" result="hardAlpha"/>
<feOffset dy="4"/>
<feGaussianBlur stdDeviation="4"/>
<feComposite in2="hardAlpha" operator="out"/>
<feColorMatrix type="matrix" values="0 0 0 0 1 0 0 0 0 1 0 0 0 0 1 0 0 0 1 0"/>
<feBlend mode="normal" in2="effect1_dropShadow_1_466" result="effect2_dropShadow_1_466"/>
<feBlend mode="normal" in="SourceGraphic" in2="effect2_dropShadow_1_466" result="shape"/>
</filter>
<filter id="filter7_dd_1_466" x="44" y="74" width="52" height="32" filterUnits="userSpaceOnUse" color-interpolation-filters="sRGB">
<feFlood flood-opacity="0" result="BackgroundImageFix"/>
<feColorMatrix in="SourceAlpha" type="matrix" values="0 0 0 0 0 0 0 0 0 0 0 0 0 0 0 0 0 0 127 0" result="hardAlpha"/>
<feOffset/>
<feGaussianBlur stdDeviation="2"/>
<feComposite in2="hardAlpha" operator="out"/>
<feColorMatrix type="matrix" values="0 0 0 0 1 0 0 0 0 1 0 0 0 0 1 0 0 0 1 0"/>
<feBlend mode="normal" in2="BackgroundImageFix" result="effect1_dropShadow_1_466"/>
<feColorMatrix in="SourceAlpha" type="matrix" values="0 0 0 0 0 0 0 0 0 0 0 0 0 0 0 0 0 0 127 0" result="hardAlpha"/>
<feOffset dy="4"/>
<feGaussianBlur stdDeviation="4"/>
<feComposite in2="hardAlpha" operator="out"/>
<feColorMatrix type="matrix" values="0 0 0 0 1 0 0 0 0 1 0 0 0 0 1 0 0 0 1 0"/>
<feBlend mode="normal" in2="effect1_dropShadow_1_466" result="effect2_dropShadow_1_466"/>
<feBlend mode="normal" in="SourceGraphic" in2="effect2_dropShadow_1_466" result="shape"/>
</filter>
<filter id="filter8_dd_1_466" x="53" y="52" width="34" height="34" filterUnits="userSpaceOnUse" color-interpolation-filters="sRGB">
<feFlood flood-opacity="0" result="BackgroundImageFix"/>
<feColorMatrix in="SourceAlpha" type="matrix" values="0 0 0 0 0 0 0 0 0 0 0 0 0 0 0 0 0 0 127 0" result="hardAlpha"/>
<feOffset/>
<feGaussianBlur stdDeviation="2"/>
<feComposite in2="hardAlpha" operator="out"/>
<feColorMatrix type="matrix" values="0 0 0 0 1 0 0 0 0 1 0 0 0 0 1 0 0 0 1 0"/>
<feBlend mode="normal" in2="BackgroundImageFix" result="effect1_dropShadow_1_466"/>
<feColorMatrix in="SourceAlpha" type="matrix" values="0 0 0 0 0 0 0 0 0 0 0 0 0 0 0 0 0 0 127 0" result="hardAlpha"/>
<feOffset dy="4"/>
<feGaussianBlur stdDeviation="4"/>
<feComposite in2="hardAlpha" operator="out"/>
<feColorMatrix type="matrix" values="0 0 0 0 1 0 0 0 0 1 0 0 0 0 1 0 0 0 1 0"/>
<feBlend mode="normal" in2="effect1_dropShadow_1_466" result="effect2_dropShadow_1_466"/>
<feBlend mode="normal" in="SourceGraphic" in2="effect2_dropShadow_1_466" result="shape"/>
</filter>
<linearGradient id="paint0_linear_1_466" x1="72" y1="26" x2="72" y2="86" gradientUnits="userSpaceOnUse">
<stop stop-color="#31C8D2"/>
<stop offset="1" stop-color="#1AA6E1"/>
</linearGradient>
</defs>
</svg>
