<svg xmlns="http://www.w3.org/2000/svg" width="64" height="64" fill="none"><g clip-path="url(#a)"><path fill="url(#b)" d="M62.654 32.143c2.829-17.88-9.373-34.667-27.252-37.495C17.522-8.182.735 4.02-2.093 21.9c-2.829 17.879 9.372 34.666 27.252 37.495 17.88 2.828 34.666-9.373 37.495-27.252Z" opacity=".3" style="mix-blend-mode:color-dodge"/><path fill="url(#c)" d="M26.68 21.784c-1.033 1.032-2.095 3.555.087 5.727 2.182 2.182 4.364 3.818 5.747 5.21l2.415-2.687 2.689-2.416c-1.393-1.393-3.03-3.575-5.212-5.747-2.181-2.172-4.694-1.12-5.727-.087Z"/><path fill="#6E5066" d="M25.5 24.482s-.155 1.695 1.267 3.03c1.08 1.012 4.5 4.051 4.5 4.051l.75.078s-3.137-2.308-4.92-4.558c-.876-1.101-1.597-2.601-1.597-2.601Z" opacity=".5" style="mix-blend-mode:multiply"/><path fill="#423E75" d="m9.76 12.55 7.257-7.257s-4.335-.74-6.36 1.198C8.551 8.498 9.76 12.55 9.76 12.55Z"/><path fill="url(#d)" d="M9.282 5.419C4.5 9.773 8.172 15.978 8.172 15.978l3.555-3.556c-1.023-.925-1.218-3.195-.282-4.51 1.344-.915 3.74-1.227 4.802 0l3.097-3.097s-5.63-3.41-10.062.614v-.01Z"/><path fill="url(#e)" d="M14.309 10.31c-7.17 7.168-8.543 18.593-2.494 26.25 6.809 8.62 20.182 9.233 29.065.36 8.884-8.884 7.393-22.93-1.12-29.67-7.568-6-18.282-4.11-25.451 3.069v-.01ZM35.24 31.29c-5.387 5.386-14.445 4.12-18.702-.809-3.954-4.587-1.363-9.837 3.39-14.6 4.763-4.764 11.026-6.458 15.692-2.436 5.016 4.335 5.006 12.458-.38 17.845Z"/><path fill="url(#f)" d="M12.935 8.605c-7.071 7.071-8.484 18.243-2.6 25.665 6.603 8.338 19.665 8.816 28.393.078 8.727-8.727 7.393-22.412-.867-28.938-7.354-5.815-17.864-3.887-24.936 3.185l.01.01Zm20.328 20.318c-5.289 5.29-14.143 4.15-18.273-.623-3.847-4.452-2.26-10.598 2.387-15.244C22.023 8.41 29.24 7.611 33.77 11.507c4.87 4.189 4.792 12.117-.497 17.416h-.01Z"/><path fill="#CADAFC" d="M16.987 31.387c.487 1.062-4.091 5.211-6.146 3.059-1.987-2.085-5.932-8.202-2.26-17.864C11.484 8.936 19.987 2.41 27.964 2.478c8.582.068 13.052 7.208 14.397 9.39 1.383 2.25-2.757 9.496-3.595 8.113-.818-1.363-1.431-7.334-7.237-10.393-5.045-2.659-13.432.254-16.792 5.435-3.419 5.27-3.35 8.056-1.023 12.176.964 1.714 2.757 3.078 3.273 4.188Z" opacity=".9" style="mix-blend-mode:soft-light"/><path fill="#7F6593" d="M18.087 33.248c-1.548.565-4.938 2.98-4.46 3.585.486.604 9.204 6.233 18.594 1.441 7.773-3.974 10.724-11.396 11.425-13.86.692-2.426.39-8.065-.76-7.179-1.149.887-4.753 4.559-5.58 6.701-.838 2.163-3.624 6.517-5.933 8.066-6.419 4.324-12.38.925-13.286 1.256v-.01Z" opacity=".2" style="mix-blend-mode:multiply"/><path fill="#D1D9E8" d="M6.964 26.907S5.737 19.232 9.838 12.9c3.584-5.542 10.188-9.214 10.188-9.214s-7.071 2.377-11.26 10.286c-3.74 7.052-1.802 12.935-1.802 12.935ZM18.838 31.144s4.344 4.442 10.92 1.296c6.75-3.224 7.382-10.832 7.382-10.832s-.876 6.79-8.143 10.013c-3.76 1.666-10.159-.487-10.159-.487v.01Z"/><path fill="#D1D9E8" d="M25.354 9.092s-6.029-.526-9.905 3.419c-3.877 3.945-3.585 7.929-2.582 11.036 0 0-.4-5.67 3.799-9.75 4.208-4.091 8.679-4.705 8.679-4.705h.01Z"/><path fill="#fff" d="M19.627 4.581c-.643 1.296 5.075 1.267 5.513.712.438-.556.789-2.767-.195-2.835-.974-.068-4.812 1.091-5.318 2.123ZM26.162 33.325c.078.614 2.543.955 3.877-.185 1.334-1.14 1.237-1.83.545-1.85-.691-.03-4.49 1.46-4.422 2.045v-.01Z"/><path fill="#fff" d="M13.617 18.666s1.452 1.266 2.776 1.52c0 0 2.153-3.176 4.773-5.445 0 0-1.753-1.383-2.6-2.552 0 0-3.449 2.464-4.949 6.487v-.01Z" style="mix-blend-mode:soft-light"/><path fill="#fff" d="M14.386 16.708c-.38-.866.594-2.347 1.237-2.717.643-.37 1.043-.594 1.043-.195 0 .4-2.202 3.098-2.29 2.912h.01Z"/><path fill="#25425C" d="M13.724 19.241c.41.214 2.299 1.179 2.123 1.48-.165.293-1.792 2.66-1.402 6.254 0 0-1.968-2.825-1.51-5.22.458-2.358.448-2.68.78-2.504l.01-.01ZM19.052 12.325c.292.312 1.87 2.104 2.328 1.88.468-.224 4.072-3.565 8.328-3.409.78.03-.526-1.656-3.438-1.266-2.845.38-7.656 2.338-7.228 2.795h.01Z" opacity=".5" style="mix-blend-mode:soft-light"/><path fill="#fff" d="M9.185 5.78c-.292.886.653 1.285 1.452 1.46 1.354.312 5.532-1.938 5.98-2.327.448-.39-1.13-1.383-2.883-1.354-1.724.03-4.373 1.656-4.558 2.21l.01.01Z" style="mix-blend-mode:soft-light"/><path fill="#25425C" d="M7.715 7.718c-.692 1.188-.4 6.058.477 5.376 3.165-2.483 2.474-3.672 2.59-4.558.108-.886-2.25-2.201-3.067-.808v-.01Z" opacity=".5" style="mix-blend-mode:soft-light"/><path fill="#D1D9E8" d="M11.153 7.874c-.458.565-.263 2.776-.263 2.776s-.234-1.208.497-2.64c.068-.136.72-.672 2.444-.896 0 0-2.104.058-2.678.77v-.01Z"/><path fill="#64FFDA" d="M8.513 6.17s-3.467 3.671-.575 9.545c0 0-2.61 5.143-.857 11.747 0 0-1.48-6.936 1.17-11.942.126-.244-.088-.614-.186-.828-.37-.877-1.062-2.766-.906-4.9.137-1.957 1.344-3.613 1.344-3.613l.01-.01Z" opacity=".5" style="mix-blend-mode:multiply"/><path fill="#fff" d="M11.23 4.971c-.038.253 2.377-.175 2.436-.409.136-.643-.341-1.023-1.013-.808-.984.311-1.383.993-1.422 1.217Z"/><path fill="#6E5066" d="M37.481 37.796c.068-2.338 3.322-6.4 6.75-8.572a3.833 3.833 0 0 1 1.685-.555c-.545 2.24-2.64 6.224-5.279 8.455l-3.166.672h.01Z" opacity=".5" style="mix-blend-mode:multiply"/><path fill="url(#g)" d="M48.352 52.748s.029.078.029.097c0 .03-.03.069-.069.137 0 0 0 .01-.01.02-.71 1.188-6.214 8.356-6.214 8.356-.487-.243-2.405-2.045-2.405-2.045l1.402-2.464 2.23-3.926-2.561-2.454s-4.49 4.607-4.695 4.52c-.263-.108-1.247-1.374-1.247-1.374l-2.016-2.805 6.633-5.903s.575-.302 1.179-.429c.584-.116 7.257 7.208 7.744 8.26v.01Z"/><path fill="#64FFDA" d="M41.514 45.91c.077.555 4.431 5.104 4.616 5.162.185.059 1.452-1.45 1.452-1.45l-4.89-4.89-1.188 1.188.01-.01Z"/><path fill="#0777AA" d="M48.351 52.748s.04.058.03.097c0 .02-.03.059-.069.137 0 0 0 .01-.01.02-.71 1.187-6.214 8.356-6.214 8.356-.487-.243-2.406-2.045-2.406-2.045l1.403-2.465 4.792-4.607c.526.02 2.211.263 2.474.517v-.01Z"/><path fill="url(#h)" d="M45.877 52.241c-.107.312-6.02 6.858-6.195 7.072-.175.224-2.805-2.747-2.902-3.078-.098-.331 3.974-4.607 3.974-4.607-.04-.185-1.705-1.85-1.705-1.85s-3.945 3.778-4.256 3.827c-.263.039-2.017-2.805-2.017-2.805s2.874-2.874 6.634-5.893c.146-.117 6.555 7.033 6.458 7.325l.01.01Z"/><path fill="#fff" d="M40.188 59.352c.322.72 1.715 1.53 1.987 1.198.273-.321 2.026-4.9 1.608-4.84-.42.057-3.906 2.93-3.595 3.642Z" style="mix-blend-mode:soft-light"/><path fill="#6E5066" d="M36.78 56.235s2.308 3.292 5.308 5.114c0 0-1.89-1.53-2.153-2.25 0 0-2.23-1.676-3.156-2.864Z" opacity=".5" style="mix-blend-mode:multiply"/><path fill="#fff" d="M33.078 50.926c.215.682 1.53 2.503 2.017 2.133.487-.36 2.795-2.367 2.99-2.96.195-.595-.536-2.991-1.13-2.709-.594.283-4.023 3.078-3.877 3.536ZM37.189 56.079c-.098.574 2.571 2.62 2.717 2.561.74-.292 3.672-3.584 3.458-4.052-.204-.467-2.289-2.668-2.883-2.084-.594.584-3.195 2.98-3.292 3.575Z" style="mix-blend-mode:soft-light"/><path fill="#6E5066" d="m33.166 50.449-.38.37s-.03.253.711 1.49c.76 1.286 2.29 2.912 2.445 2.903.156-.01.955-.916.955-.916s-.643.643-.945.448c-.292-.185-.916-1.032-.984-1.11-.068-.078.273-.39.273-.39s-.302.487-.906-.273c-.584-.74-1.53-1.948-1.451-2.094.078-.156.272-.428.272-.428h.01Z" opacity=".5" style="mix-blend-mode:multiply"/><path fill="#25425C" d="m40.227 51.005-1.168-1.218s-1.958 1.958-2.406 3.487c-.458 1.588.77.516.77.516l2.804-2.795v.01Z" opacity=".5" style="mix-blend-mode:soft-light"/><path fill="url(#i)" d="M42.497 32.77s-1.655.984-2.844 2.173c-1.188 1.188-2.172 2.844-2.172 2.844l9.955 10.753 2.746-3.058 3.059-2.747-10.753-9.954.01-.01Z"/><path fill="url(#j)" d="M44.29 40.154c-2.017 2.016-2.786 4.13-2.786 4.13l6.321 7.441 3.41-4.617 5.756-3.068-8.23-6.906s-2.358.897-4.481 3.01l.01.01Z"/><path fill="url(#k)" d="M56.991 44.04c1.003.837-.468 3.419-3.195 5.62-2.581 2.084-5.211 2.951-5.97 2.055-.731-.867.506-3.127 2.863-5.172 2.474-2.143 5.338-3.331 6.302-2.513v.01Z"/><path fill="#25425C" d="M51.147 46.621c-1.072 1.023-1.607 4.705-.935 4.588.691-.126 6.214-2.854 6.672-6.34.107-.819-3.059-.79-5.737 1.762v-.01Z" opacity=".5" style="mix-blend-mode:soft-light"/><path fill="#0777AA" d="M37.442 46.563c1.217-.828 2.503-.477 3.974 1.072 1.47 1.548 3.71 3.983 3.789 4.46.078.478-1.198 2.358-1.198 2.358s1.782-1.432 2.298-1.16c.517.273-2.561 5.894-2.425 5.718.136-.175 4.685-5.805 4.5-6.165-.185-.36-1.695-2.23-1.695-2.23l.059-.166-4.49-5.29-.293.293s-1.081-1.033-1.354-.965c-.263.069-1.178.429-1.178.429l-1.987 1.646Z" opacity=".5" style="mix-blend-mode:soft-light"/><path fill="#fff" d="M38.581 57.248c1.227-.672 1.9-.127 1.987.107.088.244-.516 1.023-.818.818-.302-.204-1.47-.76-1.169-.925ZM34.247 52.046c.175.672.672.74.983.468.322-.273-1.197-1.296-.983-.468Z"/><path fill="url(#l)" d="M50.767 38.82c1.402-.565 2.522-.546 3.107.038.584.585.35 2.854.35 2.854l-3.447-2.893h-.01Z"/><path fill="#fff" d="M45.039 21.393c.584.585 1.023.76 1.354.497.331-.263.565-2.805-.662-5.036-.858-1.548-.838 4.384-.682 4.54h-.01Z" style="mix-blend-mode:soft-light"/><path fill="#25425C" d="M24.887 41.634c.156 1.656 4.967 1.549 9.477-.72.838-.42.643-2.913-.048-2.748-.692.156-3.283 1.52-5.864 2.134-2.581.613-3.604.954-3.565 1.344v-.01ZM41.864 31.923c.165.652 1.539.808 1.919.429 2.737-2.728 3-9.673 2.668-9.76-.34-.088-.983.155-1.402.662-.429.497-3.244 8.435-3.185 8.679v-.01Z" opacity=".5" style="mix-blend-mode:soft-light"/><path fill="#6E5066" d="M13.607 38.517s5.572 3.925 11.455 4.383c5.64.439 12.663-3.35 12.663-3.35s-4.988 3.993-12.712 3.72c-6.828-.243-11.406-4.753-11.406-4.753Z" opacity=".5" style="mix-blend-mode:multiply"/><path fill="#fff" d="M26.942 22.036c1.432 1.276 6.204 6.117 6.71 5.786.507-.331 1.774-2.084 1.54-2.454-.458-.731-3.04-3.663-4.218-4.218-1.178-.555-4.412.555-4.042.896l.01-.01Z" style="mix-blend-mode:soft-light"/><path fill="#6E5066" d="M26.553 22.29c-1.403 1.402 3.847 6.02 4.87 6.789.448.331 1.948-.662 1.792-.818-.536-.536-6.175-6.458-6.672-5.971h.01Z" opacity=".5" style="mix-blend-mode:multiply"/><path fill="#fff" d="M26.63 26.205c.428.867 3.877 4.208 4.344 4.101.468-.097.925-.02-2.59-3.146-1.413-1.257-1.959-1.373-1.754-.955ZM45.41 39.472c.127.438 6.02 5.97 6.292 5.864.273-.108 3.643-1.578 3.74-2.046.098-.468-6.35-5.864-6.74-5.912-.39-.049-3.458 1.558-3.292 2.094Z" style="mix-blend-mode:soft-light"/><path fill="#7F6593" d="M43.949 40.748c-.03.272 5.678 6.496 6.078 6.263.399-.244 1.451-1.286 1.295-1.51-.156-.224-5.766-5.572-6.078-5.766-.302-.195-1.256.574-1.305 1.013h.01Z" opacity=".2" style="mix-blend-mode:multiply"/><path fill="#fff" d="M41.874 44.206c.458.633 5.084 6.653 5.493 6.35.42-.301 1.452-2.444 1.286-2.707-.156-.263-5.893-4.13-6.185-4.266-.292-.137-.809.34-.594.623Z" style="mix-blend-mode:soft-light"/><path fill="#fff" d="M51.127 40.612c.097.984 1.763 3.253 2.27 3.292.584.049 1.792-.292 1.538-.916-.253-.623-3.896-3.243-3.808-2.386v.01Z"/><path fill="#fff" d="M39.984 34.63c.253.614 4.344 4.978 4.753 4.783.41-.195 2.542-1.578 2.581-1.763.04-.175-4.753-4.636-5.055-4.724 0 0-1.032.701-1.383.964-.214.166-.886.74-.886.74h-.01Z" style="mix-blend-mode:soft-light"/><path fill="url(#m)" d="M39.653 34.942s-.886 1.004-.877 1.11c.03.322 4.55 5.027 4.793 4.813.243-.215 1.217-1.11.983-1.276-.224-.166-4.665-4.403-4.909-4.647h.01Z"/><path fill="#fff" d="M37.646 37.68c.312.458 3.974 4.617 4.13 4.54.156-.079-3.234-5.553-3.536-5.533-.077 0-.594.983-.594.983v.01Z" style="mix-blend-mode:soft-light"/><path fill="#D1D9E8" d="M41.796 43.621s1.296-1.938 3.049-3.487c1.763-1.549 3.263-2.708 3.263-2.708s-2.24 1.14-3.828 2.718c-1.588 1.587-2.494 3.477-2.494 3.477h.01Z"/><path fill="#fff" d="M45.02 39.482c-.439.467 1.344-.487 1.48-1.1 0 0-1.14.72-1.48 1.1Z" style="mix-blend-mode:soft-light"/><path fill="#D1D9E8" d="M47.855 50.079s.526-2.543 2.854-4.335c2.327-1.792 5.045-1.928 5.045-1.928s-2.59.477-4.743 2.483c-2.163 2.007-3.147 3.79-3.147 3.79l-.01-.01Z"/><path fill="#423E75" d="M44.338 21.364c-.75.224-1.178 4.16-.35 4.189.828.029 2.932-4.958.35-4.189ZM42.205 25.475c-.808.497-.292 1.724.321 1.704.614-.019 1.461-2.795-.321-1.704Z"/><path fill="#D1D9E8" d="M41.786 26.215s.088 1.48.78 1.247c.691-.234.652-1.315.652-1.315s-.117.789-.72.74c-.605-.049-.712-.672-.712-.672ZM43.54 23.955s-.137 1.88.448 1.87c.584-.019 1.47-2.717 1.47-2.717s-.837 1.919-1.344 2.065c-.506.146-.574-1.208-.574-1.208v-.01Z"/><path fill="#6E5066" d="M43.792 23.313c.819.76 1.929-.321 1.744-1.48-.088-.526-1.091-.653-1.364-.205-.263.448-.565 1.51-.39 1.675l.01.01ZM41.845 25.913c-.234.663 1.432.263 1.422-.321-.01-.585-1.208-.283-1.422.321Z" opacity=".5" style="mix-blend-mode:multiply"/><path fill="#423E75" d="M7.48 25.27c-.37 1.666.215 3.838.819 3.4.604-.439 1.286-3.078.838-3.945-.448-.867-1.374-.721-1.656.535v.01Z"/><path fill="#D1D9E8" d="M7.441 27.375s-.029 1.792.692 1.733c.73-.049 1.1-2.932 1.1-2.932s-.7 2.416-1.14 2.29c-.437-.127-.652-1.101-.652-1.101v.01Z"/><path fill="#6E5066" d="M7.363 26.195c.02 1.354 1.978-.078 1.9-1.013-.078-.935-1.939-1.412-1.9 1.013ZM42.634 32.907s-3.244 1.12-5.026 5.026l-.137-.137s.74-2.561 2.504-4.315c1.665-1.665 2.513-.7 2.513-.7l.136.126h.01Z" opacity=".5" style="mix-blend-mode:multiply"/><path fill="#fff" d="M27.994 21.131c-.653.575 2.98.282 2.99.02 0-.264-1.773-1.082-2.99-.02Z"/><path fill="#fff" d="M52.452 39.9c.925.049 1.46-.886.837-1.188-.623-.302-2.279-.137-2.113.146.166.282.906 1.023 1.286 1.042h-.01Z" style="mix-blend-mode:soft-light"/><path fill="url(#n)" d="M52.705 40.222c.458.584 1.003 1.14 1.286.993.273-.136.146-1.957-.127-1.83-.263.126-1.324.613-1.159.837Z"/><g opacity=".3"><path fill="url(#o)" d="M52.092 49.573c-21.692-.049-39.263-3.604-39.254-7.939 0-4.334 17.601-7.811 39.283-7.773 21.692.05 39.264 3.605 39.254 7.939-.01 4.334-17.6 7.812-39.283 7.773Z" opacity=".8" style="mix-blend-mode:color-dodge"/><path fill="url(#p)" d="M39.049 40.748c2.678 21.526 1.363 39.4-2.942 39.935-4.305.536-9.964-16.48-12.643-37.997-2.678-21.516-1.363-39.4 2.942-39.935 4.305-.536 9.964 16.48 12.643 37.997Z" opacity=".8" style="mix-blend-mode:color-dodge"/><path fill="url(#q)" d="M34.754 44.44c-7.52 9.652-15.176 16.256-17.104 14.756-1.929-1.5 2.6-10.548 10.11-20.201 7.52-9.653 15.176-16.257 17.104-14.757 1.929 1.5-2.6 10.549-10.11 20.202Z" opacity=".8" style="mix-blend-mode:color-dodge"/></g><path fill="url(#r)" d="M21.497 46.096c11.168 0 20.221-9.054 20.221-20.221 0-11.168-9.053-20.221-20.22-20.221-11.169 0-20.222 9.053-20.222 20.22 0 11.168 9.053 20.222 20.221 20.222Z" opacity=".6" style="mix-blend-mode:color-dodge"/><path fill="url(#s)" d="M25.014 14.38c-4.481-4.938-7.325-9.662-6.332-10.558.984-.896 5.426 2.377 9.906 7.305 4.48 4.939 7.325 9.663 6.331 10.559-.983.896-5.425-2.377-9.905-7.305Z" opacity=".8" style="mix-blend-mode:color-dodge"/><path fill="url(#t)" d="M28.637 14.322c-4.335 5.065-8.67 8.474-9.682 7.607-1.013-.867 1.675-5.678 6.01-10.743 4.334-5.065 8.668-8.474 9.682-7.608 1.013.867-1.676 5.679-6.01 10.744Z" opacity=".8" style="mix-blend-mode:color-dodge"/><path fill="url(#u)" d="M26.913 14.118c-3.75.292-6.838-.078-6.896-.828-.059-.75 2.931-1.598 6.681-1.89 3.75-.292 6.838.078 6.896.828.059.75-2.931 1.597-6.681 1.89Z" opacity=".8" style="mix-blend-mode:color-dodge"/></g><defs><linearGradient id="c" x1="37.134" x2="24.103" y1="33.639" y2="17.825" gradientUnits="userSpaceOnUse"><stop stop-color="#84759B"/><stop offset=".39" stop-color="#96A9D0"/><stop offset="1" stop-color="#D8DFED"/></linearGradient><linearGradient id="d" x1="17.259" x2="5.732" y1="13.695" y2="2.358" gradientUnits="userSpaceOnUse"><stop stop-color="#5586BF"/><stop offset=".39" stop-color="#5182E7"/><stop offset="1" stop-color="#7BA5F9"/></linearGradient><linearGradient id="e" x1="41.941" x2="16.588" y1="38.102" y2="12.749" gradientUnits="userSpaceOnUse"><stop stop-color="#2BBEC3"/><stop offset=".53" stop-color="#2B9BDA"/><stop offset="1" stop-color="#347FC5"/></linearGradient><linearGradient id="f" x1="38.358" x2="2.688" y1="33.647" y2="-.775" gradientUnits="userSpaceOnUse"><stop stop-color="#5586BF"/><stop offset=".39" stop-color="#5182E7"/><stop offset="1" stop-color="#7BA5F9"/></linearGradient><linearGradient id="g" x1="45.785" x2="30.302" y1="58.278" y2="44.23" gradientUnits="userSpaceOnUse"><stop stop-color="#5586BF"/><stop offset="0" stop-color="#434A8A"/><stop offset="1" stop-color="#7BF9F9"/></linearGradient><linearGradient id="h" x1="43.696" x2="30.493" y1="56.694" y2="44.904" gradientUnits="userSpaceOnUse"><stop stop-color="#5586BF"/><stop offset=".39" stop-color="#5182E7"/><stop offset="1" stop-color="#7BA5F9"/></linearGradient><linearGradient id="i" x1="50.616" x2="36.087" y1="45.663" y2="31.391" gradientUnits="userSpaceOnUse"><stop stop-color="#5586BF"/><stop offset=".39" stop-color="#1E4CAA"/><stop offset="1" stop-color="#7BA5F9"/></linearGradient><linearGradient id="j" x1="54.412" x2="40.978" y1="49.063" y2="35.049" gradientUnits="userSpaceOnUse"><stop stop-color="#5586BF"/><stop offset=".39" stop-color="#5182E7"/><stop offset="1" stop-color="#7BA5F9"/></linearGradient><linearGradient id="k" x1="55.693" x2="48.12" y1="50.553" y2="41.858" gradientUnits="userSpaceOnUse"><stop stop-color="#5586BF"/><stop offset=".39" stop-color="#5182E7"/><stop offset="1" stop-color="#7BA5F9"/></linearGradient><linearGradient id="l" x1="50.957" x2="53.381" y1="42.09" y2="39.17" gradientUnits="userSpaceOnUse"><stop stop-color="#84759B"/><stop offset=".39" stop-color="#96A9D0"/><stop offset="1" stop-color="#D8DFED"/></linearGradient><linearGradient id="m" x1="43.62" x2="38.16" y1="39.79" y2="34.529" gradientUnits="userSpaceOnUse"><stop stop-color="#5586BF"/><stop offset=".39" stop-color="#5182E7"/><stop offset="1" stop-color="#7BA5F9"/></linearGradient><linearGradient id="n" x1="53.901" x2="52.243" y1="40.9" y2="39.626" gradientUnits="userSpaceOnUse"><stop stop-color="#5586BF"/><stop offset=".39" stop-color="#5182E7"/><stop offset="1" stop-color="#7BA5F9"/></linearGradient><radialGradient id="b" cx="0" cy="0" r="1" gradientTransform="translate(30.282 27.012) scale(32.7763)" gradientUnits="userSpaceOnUse"><stop stop-color="#0FF"/><stop offset=".09" stop-color="#00F1F1"/><stop offset=".26" stop-color="#00CDCD"/><stop offset=".49" stop-color="#009393"/><stop offset=".77" stop-color="#044"/><stop offset="1"/></radialGradient><radialGradient id="o" cx="0" cy="0" r="1" gradientTransform="rotate(90.11 5.185 46.747) scale(7.85268 39.2634)" gradientUnits="userSpaceOnUse"><stop stop-color="#705AB5"/><stop offset=".14" stop-color="#5C4994"/><stop offset=".44" stop-color="#342A55"/><stop offset=".69" stop-color="#181327"/><stop offset=".89" stop-color="#06050A"/><stop offset="1"/></radialGradient><radialGradient id="p" cx="0" cy="0" r="1" gradientTransform="matrix(7.79263 -.96924 4.84621 38.96317 31.11 41.781)" gradientUnits="userSpaceOnUse"><stop stop-color="#705AB5"/><stop offset=".14" stop-color="#5C4994"/><stop offset=".44" stop-color="#342A55"/><stop offset=".69" stop-color="#181327"/><stop offset=".89" stop-color="#06050A"/><stop offset="1"/></radialGradient><radialGradient id="q" cx="0" cy="0" r="1" gradientTransform="matrix(3.4951 2.72184 -13.60922 17.47552 31.288 41.77)" gradientUnits="userSpaceOnUse"><stop stop-color="#705AB5"/><stop offset=".14" stop-color="#5C4994"/><stop offset=".44" stop-color="#342A55"/><stop offset=".69" stop-color="#181327"/><stop offset=".89" stop-color="#06050A"/><stop offset="1"/></radialGradient><radialGradient id="r" cx="0" cy="0" r="1" gradientTransform="translate(21.497 25.875) scale(20.221)" gradientUnits="userSpaceOnUse"><stop stop-color="#27A0D7"/><stop offset=".1" stop-color="#2495C9"/><stop offset=".3" stop-color="#1E7BA5"/><stop offset=".57" stop-color="#13506B"/><stop offset=".89" stop-color="#05151C"/><stop offset="1"/></radialGradient><radialGradient id="s" cx="0" cy="0" r="1" gradientTransform="matrix(-1.7878 1.62449 -8.1224 -8.93894 27.116 12.674)" gradientUnits="userSpaceOnUse"><stop stop-color="#705AB5"/><stop offset=".14" stop-color="#5C4994"/><stop offset=".44" stop-color="#342A55"/><stop offset=".69" stop-color="#181327"/><stop offset=".89" stop-color="#06050A"/><stop offset="1"/></radialGradient><radialGradient id="t" cx="0" cy="0" r="1" gradientTransform="matrix(1.8363 1.56945 -7.84724 9.18144 26.908 12.794)" gradientUnits="userSpaceOnUse"><stop stop-color="#705AB5"/><stop offset=".14" stop-color="#5C4994"/><stop offset=".44" stop-color="#342A55"/><stop offset=".69" stop-color="#181327"/><stop offset=".89" stop-color="#06050A"/><stop offset="1"/></radialGradient><radialGradient id="u" cx="0" cy="0" r="1" gradientTransform="rotate(85.53 6.465 21.01) scale(1.3617 6.80851)" gradientUnits="userSpaceOnUse"><stop stop-color="#705AB5"/><stop offset=".14" stop-color="#5C4994"/><stop offset=".44" stop-color="#342A55"/><stop offset=".69" stop-color="#181327"/><stop offset=".89" stop-color="#06050A"/><stop offset="1"/></radialGradient><clipPath id="a"><path fill="#fff" d="M0 0h64v64H0z"/></clipPath></defs></svg>