<svg xmlns="http://www.w3.org/2000/svg" width="64" height="64" fill="none"><g clip-path="url(#a)"><path fill="url(#b)" fill-rule="evenodd" d="m43.593 3.832-7.59-.402-18.287.614-2.41.927-.57-.927-5.649-.01 2.601 14.98 6.028 8.585L21.39 37.3l8.797.19-2.233 23.756 12.883-12.38 3.282-7.982 3.851-2.981 8.429-10.717 2.12-2.958-.613-1.15-2.534.134-2.2-1.06-11.531-.76 1.261-8.16-.402-3.383 1.094-6.017Z" clip-rule="evenodd"/><path fill="url(#c)" fill-rule="evenodd" d="m58.519 24.228-2.121 2.958-8.429 10.717-3.851 2.98-3.282 7.982-12.883 12.38.29-17.102 1.943-6.653-8.797-.19-3.673-9.7-6.028-8.585L9.087 4.033l5.649.011.57.927 2.4-.927 18.296-.614 7.591.402L42.5 9.85l.402 3.383-1.261 8.16 11.531.76 2.2 1.06 2.534-.134.614 1.15Z" clip-rule="evenodd"/><path fill="url(#d)" fill-rule="evenodd" d="M47.97 37.902c-.391.301-6.598 3.45-6.598 3.45l-3.305 6.418-10.114 13.474 12.883-12.38 3.282-7.982 3.851-2.97v-.01Z" clip-rule="evenodd"/><path fill="url(#e)" fill-rule="evenodd" d="M22.137 26.381s10.46 3.06 10.717 4.99c.257 1.932-2.97 6.107-2.97 6.107l-7.032-1.876-.704-9.232-.01.011Z" clip-rule="evenodd" style="mix-blend-mode:screen"/><path fill="url(#f)" fill-rule="evenodd" d="M20.686 11.524c-.491.38 1.73 20.887 7.267 20.306C33.49 31.25 43.55 6.511 42.488 5.473c-1.06-1.038-21.143 5.537-21.802 6.05Z" clip-rule="evenodd" style="mix-blend-mode:screen"/><path fill="url(#g)" fill-rule="evenodd" d="M43.593 3.832 23.31 8.822 19.424 9.86l-8.372-3.516-1.965-2.31 5.649.01.57.927 2.4-.927 18.296-.614 7.591.402Z" clip-rule="evenodd" style="mix-blend-mode:screen"/><path fill="#BF5376" fill-rule="evenodd" d="m22.84 35.614 7.346 1.876-8.797-.19-3.673-9.701-6.028-8.585L9.087 4.033l1.965 2.31 8.372 3.517.123 9.891 2.59 6.631.703 9.232ZM27.953 61.246l.29-17.102 1.943-6.653 4.845-.28-4.253 7.592-2.825 16.443Z" clip-rule="evenodd" opacity=".35" style="mix-blend-mode:multiply"/><path fill="url(#h)" fill-rule="evenodd" d="m57.905 23.078-2.479.547-3.337-.67-11.175 1.73.726-3.293 11.531.76 2.2 1.06 2.534-.134Z" clip-rule="evenodd" style="mix-blend-mode:screen"/><path fill="#BF5376" fill-rule="evenodd" d="m11.688 19.014 7.86.737 2.59 6.631-4.422 1.217-6.028-8.585Z" clip-rule="evenodd" opacity=".35" style="mix-blend-mode:multiply"/><path fill="#BF5376" fill-rule="evenodd" d="m11.688 19.014 7.86.737s1.808 4.722-1.061 5.303c-2.87.58-6.799-6.04-6.799-6.04Z" clip-rule="evenodd" opacity=".35" style="mix-blend-mode:multiply"/><path fill="#EA485A" fill-rule="evenodd" d="m21.39 37.3 1.45-1.686 7.346 1.875-8.797-.19ZM28.244 44.144l2.534.659 4.253-7.591-4.845.279-1.942 6.653Z" clip-rule="evenodd" opacity=".5" style="mix-blend-mode:multiply"/><path fill="#BF5376" fill-rule="evenodd" d="M30.085 43.374c1.374.09 4.946-6.163 4.946-6.163l-4.845.29s-1.474 5.795-.1 5.884v-.011Z" clip-rule="evenodd" opacity=".35" style="mix-blend-mode:multiply"/><path fill="#FCF552" fill-rule="evenodd" d="M30.733 45.047s-1.15 11.532-.134 11.532 10.047-8.273 10.047-8.273l3.472-7.423-3.282 7.981-12.883 12.38 2.78-16.197Z" clip-rule="evenodd" style="mix-blend-mode:overlay"/><path fill="#FFFDAA" fill-rule="evenodd" d="M29.192 55.396s-.468 3.617 0 3.483c.47-.134 5.258-3.885 5.258-3.885l-6.508 6.296 1.24-5.905.01.01Z" clip-rule="evenodd"/><path fill="#FCF552" fill-rule="evenodd" d="m12.537 6.97 7.055 2.299 4.811-.826 18.107-4.32L28.39 8.197l-.871 3.818-3.07 2.39.737 6.351-1.932-5.983.826-2.467s-.19-2.992-.982-2.892c-.793.1-3.662.436-3.662.436l-6.898-2.892v.011ZM40.914 24.686l11.152-2.21 3.372 1.15 2.478-.548-2.356.983s-3.728-.692-3.851-.793c-.123-.1-5.425.95-5.425.95l-5.37.468Z" clip-rule="evenodd" style="mix-blend-mode:overlay"/><path fill="#F09D38" fill-rule="evenodd" d="M42.5 9.849c-.503.223-9.992 6.63-9.992 6.63 4.153-2.12 8.305-4.241 10.393-3.248L42.5 9.838v.01Z" clip-rule="evenodd" style="mix-blend-mode:multiply"/><path fill="#FCF552" fill-rule="evenodd" d="m19.436 10.34-.213 6.14.112 3.26 2.802 6.642-2.277-6.475-.424-9.567Z" clip-rule="evenodd"/><path fill="#FFFDD3" fill-rule="evenodd" d="m30.733 45.048-2.78 16.199s2.266-2.635 1.853-4.98c-.413-2.344 1.362-11.185.927-11.207v-.012Z" clip-rule="evenodd"/><path fill="#BF5376" fill-rule="evenodd" d="m42.5 9.85-9.992 6.63 10.136-5.414L42.5 9.85ZM11.052 6.344l.636 12.67L9.087 4.033l1.965 2.31Z" clip-rule="evenodd" opacity=".35" style="mix-blend-mode:multiply"/><path fill="#FCF552" fill-rule="evenodd" d="M32.508 16.48s5.492-3.784 7.68-3.84c2.188-.056 2.713.592 2.713.592l-.257 1.652c-2.355-2.389-6.15-.659-10.136 1.596Z" clip-rule="evenodd" opacity=".9" style="mix-blend-mode:soft-light"/><path fill="#FFFDAA" fill-rule="evenodd" d="M12.358 6.957s6.676 3.55 6.877 3.55c.2 0 4.733-1.284 4.543-1.284-.19 0-3.762.257-4.633.123-.87-.134-6.508-2.534-6.787-2.389Z" clip-rule="evenodd"/><path fill="#FFFDAA" fill-rule="evenodd" d="M18.375 9.86c.648-.033 1.172 10.07.949 9.88-.313-.268.647-9.165.1-9.388-.547-.223-1.06-.491-1.06-.491h.011ZM23.42 9.246c.336-.223 1.307 2.623.838 2.913l-1.016 2.613s1.43 3.907 1.407 3.829c-.022-.078-.76-3.918-.703-4.052.055-.134 3.192-3.204 3.192-3.204L25.095 8.72l-1.685.514.01.01Z" clip-rule="evenodd"/><path fill="url(#i)" fill-rule="evenodd" d="M35.634 27.855c.29-.112 7.401-2.445 12.916-3.36 2.802-.47 5.838-.179 6.062.167.67 1.05-11.142 15.562-12.492 15.618-1.351.056-10.047-11.13-6.486-12.436v.01Z" clip-rule="evenodd" style="mix-blend-mode:screen"/><path fill="url(#j)" fill-rule="evenodd" d="M31.492 45.627c-1.987 5.738-3.16 13.798-2.914 13.899.425.167 11.7-10.416 12.068-11.22.38-.803 2.177-9.276 2.947-9.6.77-.324 13.832-13.285 12.336-13.274-1.496 0-19.971 7.491-19.893 11.13.067 3.249-3.874 7.123-4.544 9.076v-.01Z" clip-rule="evenodd" style="mix-blend-mode:screen"/><path fill="#BF5376" fill-rule="evenodd" d="M11.789 8.074c.044.602.312 9.98 2.49 10.292 2.176.313 5.112-7.245 3.784-7.859-1.318-.614-6.319-3.092-6.274-2.433Z" clip-rule="evenodd" opacity=".35" style="mix-blend-mode:multiply"/><path fill="#FCF552" fill-rule="evenodd" d="M22.137 26.382s-.045 8.987.223 9.232c.268.246 7.513 1.876 7.513 1.876l5.147-.28s-4.7.056-5.526-.2c-.826-.257-6.05-1.597-6.252-2.546-.19-.948-1.105-8.07-1.105-8.07v-.012Z" clip-rule="evenodd" style="mix-blend-mode:overlay"/><path fill="url(#k)" fill-rule="evenodd" d="M44.118 40.884s-.023-4.432 4.398-9.031c4.421-4.61 9.992-7.614 9.992-7.614l-10.55 13.676-3.851 2.97h.01Z" clip-rule="evenodd" style="mix-blend-mode:screen"/><path fill="url(#l)" fill-rule="evenodd" d="M43.593 3.832h-.011c-.458.067-10.55.603-15.629 1.273-5.157.68-10.237-1.06-10.237-1.06l18.286-.615 7.591.402Z" clip-rule="evenodd" style="mix-blend-mode:screen"/><path fill="url(#m)" fill-rule="evenodd" d="M34.25 7.963c-2.021.268-13.62 4.834-13.564 5.448.056.603 2.366 20.429 3.662 21.076 1.294.648 9.12.592 9.176-2.143.056-2.735 8.54-25.788 6.664-25.386-1.875.402-5.95 1.005-5.95 1.005h.011Z" clip-rule="evenodd" style="mix-blend-mode:screen"/><path fill="#FFFDD3" fill-rule="evenodd" d="M19.224 10.229c.658-.313-3.617-2.68-4.32-2.267-.704.413 3.66 2.58 4.32 2.267ZM22.35 29.965c-.48-.044.223 5.638.49 5.649.268 0-.089-5.615-.49-5.649Z" clip-rule="evenodd"/><path fill="#FFFDAA" fill-rule="evenodd" d="M34.216 38.572c-.491.782-4.12 7.435-3.438 6.23.245-.425 1.35-1.329 1.897-2.322.994-1.809 1.54-3.908 1.54-3.908ZM45.603 23.904c.033-.056 5.269-1.306 5.894-1.429.625-.134 3.617.982 3.684 1.005.078.022 2.724-.402 2.724-.402l-2.278.826s-3.025-.971-3.873-.904c-.849.067-6.151.904-6.151.904ZM42.901 24.229c-.87.067-2.356.658-1.016.457 1.34-.2 2.01-.524 1.016-.457ZM51.318 25.02c-1.942.124-6.709 3.049-2.724 2 3.986-1.05 7.692-2.323 2.724-2ZM21.412 9.849c.67-.223 4.152-.592 5.559-1.116 1.407-.525-3.606.156-4.834.591-1.239.425-.726.525-.726.525ZM33.524 6.645c3.181-.848 8.685-2.232 9.377-2.522.692-.29-8.406 1.82-9.701 2.266-1.295.446-3.539 1.283.324.256Z" clip-rule="evenodd"/><path fill="#FFFDD3" fill-rule="evenodd" d="M50.035 23.044c2.176-.424 4.554-1.239 1.964-.748-2.59.491-4.432.86-4.175 1.038.257.179 2.2-.301 2.2-.301l.01.011Z" clip-rule="evenodd"/><path fill="url(#n)" fill-rule="evenodd" d="M9.087 4.033s4.253 7.48 3.896 10.181c-.357 2.702-1.295 4.8-1.295 4.8L9.087 4.022v.011Z" clip-rule="evenodd" style="mix-blend-mode:screen"/><path fill="#BF5376" fill-rule="evenodd" d="m41.494 22.063-.58 2.623s3.583-.804 3.807-1.641c.212-.837-3.227-.982-3.227-.982ZM34.785 37.635c-.335-.145-2.902 1.295-3.148 2.255-.2.782-.09 3.595 0 3.54.09-.057 3.148-5.795 3.148-5.795Z" clip-rule="evenodd" opacity=".35" style="mix-blend-mode:multiply"/><path fill="#F09D38" fill-rule="evenodd" d="M34.283 38.171c-.514.034-2.724 1.395-2.545 2.121.178.726 1.049.815 1.429.246.38-.57 1.35-2.378 1.127-2.367h-.011Z" clip-rule="evenodd" style="mix-blend-mode:multiply"/><path fill="url(#o)" fill-rule="evenodd" d="M31.727 39.78c-.146.055-.447 1.73-.458 2.89 0 .514.19 1.15.223 1.14.112-.034 1.675-3.272 1.675-3.272s-1.05 2.144-1.53 2.278c-.469.134.023-3.014.09-3.037Z" clip-rule="evenodd" style="mix-blend-mode:screen"/><path fill="#BF5376" fill-rule="evenodd" d="m15.305 4.97 1.362 1.005s1.116-1.954 1.05-1.931c-.068.022-2.4.926-2.4.926h-.012Z" clip-rule="evenodd" opacity=".35" style="mix-blend-mode:multiply"/><path fill="#BF5376" fill-rule="evenodd" d="m15.305 4.97.502.369s1.965-1.329 1.898-1.295c-.067.022-2.4.926-2.4.926Z" clip-rule="evenodd" opacity=".35" style="mix-blend-mode:multiply"/><path fill="url(#p)" fill-rule="evenodd" d="M55.694 7.438c0 5.76-12.47 10.438-27.852 10.438C12.458 17.876 0 13.198 0 7.438 0 1.678 12.47-3 27.853-3 43.225-3 55.694 1.677 55.694 7.438Z" clip-rule="evenodd" style="mix-blend-mode:screen"/><path fill="url(#q)" fill-rule="evenodd" d="M21.98 72.911c-7.412-3.628-8.137-17.381-1.607-30.722 6.53-13.329 17.84-21.199 25.252-17.56 7.413 3.628 8.138 17.382 1.608 30.722-6.531 13.33-17.84 21.2-25.252 17.56Z" clip-rule="evenodd" style="mix-blend-mode:screen"/><path fill="url(#r)" fill-rule="evenodd" d="M62.571 23.223c.915 4.063-2.724 8.339-8.127 9.555-5.403 1.217-10.516-1.094-11.431-5.157-.916-4.064 2.724-8.34 8.127-9.556 5.403-1.217 10.527 1.094 11.431 5.157Z" clip-rule="evenodd" style="mix-blend-mode:screen"/></g><defs><linearGradient id="b" x1="9.087" x2="58.519" y1="32.344" y2="32.344" gradientUnits="userSpaceOnUse"><stop stop-color="#F1A53B"/><stop offset="1" stop-color="#F3BA4F"/></linearGradient><linearGradient id="c" x1="24.191" x2="43.247" y1="-9.508" y2="44.858" gradientUnits="userSpaceOnUse"><stop offset=".03" stop-color="#EC6B2C"/><stop offset=".37" stop-color="#F1A53B"/><stop offset=".73" stop-color="#F3BA4F"/><stop offset=".97" stop-color="#F6D04F"/></linearGradient><linearGradient id="d" x1="27.953" x2="47.969" y1="49.579" y2="49.579" gradientUnits="userSpaceOnUse"><stop stop-color="#EC6B2C"/><stop offset=".15" stop-color="#ED772F"/><stop offset=".42" stop-color="#F09937"/><stop offset=".57" stop-color="#F2B03D"/><stop offset=".68" stop-color="#F1AA3B"/><stop offset="1" stop-color="#F09D38"/></linearGradient><linearGradient id="e" x1="36.248" x2="23.968" y1="21.369" y2="34.039" gradientUnits="userSpaceOnUse"><stop stop-color="#FCF552"/><stop offset=".1" stop-color="#E9E34C"/><stop offset=".32" stop-color="#BAB43C"/><stop offset=".61" stop-color="#6D6A23"/><stop offset=".98" stop-color="#050401"/><stop offset="1"/></linearGradient><linearGradient id="f" x1="32.24" x2="30.934" y1="-10.803" y2="28.526" gradientUnits="userSpaceOnUse"><stop stop-color="#FCF552"/><stop offset=".1" stop-color="#E9E34C"/><stop offset=".32" stop-color="#BAB43C"/><stop offset=".61" stop-color="#6D6A23"/><stop offset=".98" stop-color="#050401"/><stop offset="1"/></linearGradient><linearGradient id="g" x1="41.26" x2="8.953" y1="-.789" y2="9.436" gradientUnits="userSpaceOnUse"><stop stop-color="#FCF552"/><stop offset=".1" stop-color="#E9E34C"/><stop offset=".32" stop-color="#BAB43C"/><stop offset=".61" stop-color="#6D6A23"/><stop offset=".98" stop-color="#050401"/><stop offset="1"/></linearGradient><linearGradient id="h" x1="59.803" x2="37.409" y1="19.874" y2="25.143" gradientUnits="userSpaceOnUse"><stop stop-color="#FCF552"/><stop offset=".1" stop-color="#E9E34C"/><stop offset=".32" stop-color="#BAB43C"/><stop offset=".61" stop-color="#6D6A23"/><stop offset=".98" stop-color="#050401"/><stop offset="1"/></linearGradient><linearGradient id="i" x1="47.5" x2="44.676" y1="49.847" y2="26.828" gradientUnits="userSpaceOnUse"><stop stop-color="#FCF552"/><stop offset=".1" stop-color="#E9E34C"/><stop offset=".32" stop-color="#BAB43C"/><stop offset=".61" stop-color="#6D6A23"/><stop offset=".98" stop-color="#050401"/><stop offset="1"/></linearGradient><linearGradient id="j" x1="38.425" x2="43.169" y1="62.484" y2="37.188" gradientUnits="userSpaceOnUse"><stop stop-color="#FCF552"/><stop offset=".1" stop-color="#E9E34C"/><stop offset=".32" stop-color="#BAB43C"/><stop offset=".61" stop-color="#6D6A23"/><stop offset=".98" stop-color="#050401"/><stop offset="1"/></linearGradient><linearGradient id="k" x1="49.956" x2="52.859" y1="21.851" y2="44.557" gradientUnits="userSpaceOnUse"><stop stop-color="#FCF552"/><stop offset=".1" stop-color="#E9E34C"/><stop offset=".32" stop-color="#BAB43C"/><stop offset=".61" stop-color="#6D6A23"/><stop offset=".98" stop-color="#050401"/><stop offset="1"/></linearGradient><linearGradient id="l" x1="37.933" x2="18.565" y1=".718" y2="9.28" gradientUnits="userSpaceOnUse"><stop stop-color="#FCF552"/><stop offset=".1" stop-color="#E9E34C"/><stop offset=".32" stop-color="#BAB43C"/><stop offset=".61" stop-color="#6D6A23"/><stop offset=".98" stop-color="#050401"/><stop offset="1"/></linearGradient><linearGradient id="m" x1="55.538" x2="22.84" y1="2.582" y2="26.293" gradientUnits="userSpaceOnUse"><stop offset=".02" stop-color="#EA44F5"/><stop offset="1"/></linearGradient><linearGradient id="n" x1=".726" x2="13.876" y1="17.775" y2="9.258" gradientUnits="userSpaceOnUse"><stop offset=".02" stop-color="#EA44F5"/><stop offset="1"/></linearGradient><linearGradient id="o" x1="31.269" x2="33.167" y1="41.8" y2="41.8" gradientUnits="userSpaceOnUse"><stop stop-color="#FCF552"/><stop offset=".1" stop-color="#E9E34C"/><stop offset=".32" stop-color="#BAB43C"/><stop offset=".61" stop-color="#6D6A23"/><stop offset=".98" stop-color="#050401"/><stop offset="1"/></linearGradient><radialGradient id="p" cx="0" cy="0" r="1" gradientTransform="matrix(27.8546 0 0 10.4054 28.163 7.122)" gradientUnits="userSpaceOnUse"><stop stop-color="#EC702D"/><stop offset=".09" stop-color="#C45D25"/><stop offset=".22" stop-color="#90441B"/><stop offset=".35" stop-color="#642F13"/><stop offset=".48" stop-color="#401E0C"/><stop offset=".61" stop-color="#231106"/><stop offset=".74" stop-color="#0F0703"/><stop offset=".87" stop-color="#030100"/><stop offset="1"/></radialGradient><radialGradient id="q" cx="0" cy="0" r="1" gradientTransform="rotate(116.1 2.338 33.946) scale(26.8396 14.9745)" gradientUnits="userSpaceOnUse"><stop stop-color="#EC702D"/><stop offset=".07" stop-color="#BE5A24"/><stop offset=".15" stop-color="#92451B"/><stop offset=".23" stop-color="#6A3214"/><stop offset=".32" stop-color="#49220E"/><stop offset=".42" stop-color="#2E1608"/><stop offset=".52" stop-color="#190C04"/><stop offset=".64" stop-color="#0B0502"/><stop offset=".78" stop-color="#020100"/><stop offset="1"/></radialGradient><radialGradient id="r" cx="0" cy="0" r="1" gradientTransform="matrix(9.76078 -2.19253 1.64756 7.3347 51.78 24.663)" gradientUnits="userSpaceOnUse"><stop stop-color="#EC702D"/><stop offset=".02" stop-color="#E66D2B"/><stop offset=".3" stop-color="#95471C"/><stop offset=".54" stop-color="#552810"/><stop offset=".75" stop-color="#271207"/><stop offset=".91" stop-color="#0A0502"/><stop offset="1"/></radialGradient><clipPath id="a"><path fill="#fff" d="M0 0h64v64H0z"/></clipPath></defs></svg>