<svg xmlns="http://www.w3.org/2000/svg" width="64" height="64" fill="none"><path fill="#404C29" d="M61.668 25.955h-1.572l-55.353 3.75-1.192.976 21.657 6.955s22.755-.535 36.45-11.681h.01Z"/><path fill="url(#a)" d="M62.685 19.308c-9.626 9.729-33.368 12.01-38.217 11.372-7.305-.965-14.31-4.777-18.544-7.479 0 0-.02 0-.03-.02a54.211 54.211 0 0 1-3.267-2.23c-.175-.123-.319-.236-.422-.308A2.868 2.868 0 0 1 2 20.48c.205.041.4.072.616.103h.01s.032 0 .062.01C12.715 21.938 35.091 13 35.091 13c4.12 1.993 10.89 3.555 16.704 4.623 0 0-.02.041-.04.103a.72.72 0 0 0 0 .421c.04.216.184.473.533.73.278.195.74.195 1.233.112a8.342 8.342 0 0 0 1.572-.483c.246-.092.431-.174.524-.226 4.11.668 7.078 1.018 7.078 1.018l-.01.01Z"/><path fill="url(#b)" d="m62.685 19.308-.894 5.209s-15.39 12.163-36.676 11.26l-.647-5.086s28.139-1.449 38.217-11.373v-.01Z"/><path fill="url(#c)" d="M25.218 37.636s26.33-5.168 36.45-11.681l-1.562 15.358s-17.886 5.538-34.364 6.904l-.524-10.581Z"/><path fill="url(#d)" d="M25.115 35.766c-10.13-.976-21.944-6.79-21.944-6.79l-.37-2.733-.78-5.764c.071.062.133.113.205.165.134.113.277.226.421.328a39.56 39.56 0 0 0 3.267 2.22c.01 0 .02.01.031.02 8.136 4.91 18.543 7.479 18.543 7.479l.648 5.085-.02-.01Z"/><path fill="url(#e)" d="M25.218 37.636S10.588 32.16 3.562 30.68l2.28 13.89s14.599 3.586 19.9 3.657l-.524-10.581v-.01Z"/><path fill="#404C29" d="m23.266 39.906 2.106.72s20.619-4.223 35.813-9.843c0 0-17.999 7.438-35.864 8.804l-2.045.33-.01-.011Z"/><path fill="url(#f)" d="M38.203 23.551c-6.174 2.353-14.239-1.243-10.602-3.103 6.462-3.318 16.941.689 10.602 3.103Z"/><path fill="#D8EC38" d="M54.24 22.215c-5.065-.893-2.178-2.547-.74-3.215-.492.082-.955.082-1.232-.113-.35-.247-.493-.504-.534-.73l-13.53-3.04c-2.148.616-3.946.873-5.302.955-1.828.102-2.856-.093-2.856-.093-3.071 1.192-18.82 5.117-18.82 5.117 4.972 1.951-1.52 3.102-1.52 3.102l9.985 4.253c8.588-1.643 9.852.72 9.852.72 11.486.472 25.386-6.853 25.386-6.853-.247-.03-.473-.072-.689-.103ZM40.053 24.24c-8.568 3.236-19.807-1.726-14.773-4.325 2.537-1.315 5.516-1.808 8.29-1.777 6.483.082 11.845 3.072 7.91 5.434-.38.226-.852.452-1.417.668h-.01Z"/><path fill="url(#g)" d="M38.203 23.551c-6.174 2.353-14.239-1.243-10.602-3.103 6.462-3.318 16.941.689 10.602 3.103Z"/><path fill="#D8EC38" d="M38.203 23.551c-6.174 2.353-14.239-1.243-10.602-3.103 6.462-3.318 16.941.689 10.602 3.103Z"/><path fill="url(#h)" d="M25.362 40.625S52.966 35.971 64 30.783l-2.743-.811-.082.811s-9.328 4.675-35.813 9.842Z"/><path fill="#91A674" d="M26.245 46.276c-.945-.144 2.302-6.144 13.006-9.267 11.116-3.257 20.496-4.993 20.496-4.993s.503 4.633-4.839 8.691c-5.096 3.863-22.58 6.514-28.652 5.569h-.01Z" opacity=".3" style="mix-blend-mode:multiply"/><path fill="#9193BA" d="M6.192 42.002c.914 1.818 17.228 6.102 18.389 6.164 1.16.062.452-6.01.483-7.089.02-1.089-18.37-4.16-19.006-4.407-.637-.247 17.907 2.907 18.564 2.62.668-.298-7.736-4.14-13.037-5.753-5.404-1.644-7.715-2.158-7.715-2.158s1.17 8.322 2.332 10.623h-.01Z" opacity=".3" style="mix-blend-mode:multiply"/><path fill="#9193BA" d="M3.86 24.332c.349-2.353 18.543 6 19.9 6.708 1.057.545 1.437 4.52-.073 4.428-1.51-.103-17.434-1.808-19.828-11.126v-.01Z" opacity=".5" style="mix-blend-mode:multiply"/><path fill="#91A674" d="M28.865 39.238c-.421-.976 25.776-8.989 29.721-11.054 4.037-2.127 1.551 2.6 1.551 2.6s-14.444 6.235-31.272 8.454Z" opacity=".3" style="mix-blend-mode:multiply"/><path fill="#91A674" d="M26.132 30.568s8.126 4.191 15.698 2.465c7.726-1.757 15.39-4.202 17.167-6.595 1.828-2.456 3.082-6.555 3.082-6.555S47.224 30.681 26.122 30.557l.01.01Z" opacity=".3" style="mix-blend-mode:multiply"/><path fill="#912774" d="M18.294 34.533s6.184 2.517 7.14 2.743c.965.226 9.215-1.757 9.215-1.757s-8.311 1.593-16.366-.986h.01ZM4.743 29.705c-1.192.976 5.918 2.928 5.918 2.928l2.116.246-8.044-3.174h.01Z" opacity=".5" style="mix-blend-mode:multiply"/><path fill="#9193BA" d="M2.01 20.48c.195.04.4.071.617.102v.39l.164 5.27-.78-5.763ZM35.09 13s-.708 1.305-13.17 5.342C10.63 22 3.49 20.746 2.7 20.592 12.715 21.938 35.09 13 35.09 13Z" opacity=".5" style="mix-blend-mode:multiply"/><path fill="#91A674" d="M60.137 20.48c-.554.41-2.897 1.109-5.897 1.735-3.945.822-9.04 1.531-12.77 1.346-1.951-.092-3.523-.431-4.366-1.14-1.592-1.336-2.825-2.887-3.544-4.294-.37-.75-.606-1.449-.658-2.055-.092-.945.247-1.644 1.12-1.89 0 0 10.078 1.828 17.732 3.554a.721.721 0 0 0 0 .421c.041.216.185.473.534.73.278.195.74.195 1.233.113a8.35 8.35 0 0 0 1.572-.483c3.35.842 5.589 1.582 5.065 1.962h-.02Z" opacity=".5" style="mix-blend-mode:multiply"/><path fill="#912774" d="M60.106 41.314s-4.89.914-13.879 3.02c-8.465 1.983-20.485 3.883-20.485 3.883s20.577-2.393 34.364-6.903ZM5.842 44.57l19.9 3.657s-9.575-1.078-19.9-3.657Z" opacity=".5" style="mix-blend-mode:multiply"/><path fill="#655174" d="M25.906 40.625S51.117 36.3 56.131 35.92c5.034-.38 4.828-3.04 4.828-3.04l.164-.895s-10.314 3.925-35.227 8.64h.01Z" opacity=".5" style="mix-blend-mode:multiply"/><path fill="url(#i)" d="M64 30.783v.596s-13.736 5.106-30.902 7.808c0 0 19.889-4.12 30.902-8.414v.01Z"/><path fill="#543404" d="M17.266 18.804s8.907 7.983 18.698 10.397c0 0 .483 7.12.154 17.66 0 0 .678-14.989.123-18.39-.554-3.4-12.76-9.584-18.975-9.667Z" opacity=".5" style="mix-blend-mode:multiply"/><path fill="#6B3381" d="m32.851 47.375 4.469-.699s-.75 1.726-2.106 1.84c-1.356.112-2.363-1.141-2.363-1.141Z"/><path fill="url(#j)" d="M45.652 46.04a2.54 2.54 0 0 1-.093.41c-.072.216-.308.421-.678.606-.503.257-1.243.483-2.096.678h-.04c-.853.206-1.83.37-2.774.504-.658.102-1.295.185-1.88.246a90.707 90.707 0 0 1-2.744.267h-.061s.647-.308 1.017-3.277c.38-2.98.74-15.739.092-17.382-2.198-5.558-18.82-10.007-18.82-10.007s.842-.4 2.177-.863c1.49-.513 3.586-1.11 5.825-1.274h.021c.113 0 .247-.02.36-.02a15.26 15.26 0 0 1 2.167.03c2.127.196 5.065 1.192 8.363 2.384 4.674 1.675 9.647 3.832 10.232 5.579.956 2.814-.462 18.934-1.058 22.098l-.01.02Z"/><path fill="url(#k)" d="M39.96 48.258c-.657.103-1.294.185-1.88.247 1.52-.34 1.551-20.835 1.079-22.55-.462-1.726-14.65-8.63-19.427-8.702l1.746-.298s16.838 5.98 18.934 8.548c2.086 2.558-.154 22.365-.442 22.755h-.01Z"/><path fill="url(#l)" d="M44.87 47.077c-.503.257-1.242.483-2.095.678h-.123c1.53-.257 1.561-20.834 1.099-22.56-.473-1.726-14.835-8.928-19.622-9l1.428-.236h.02l.298-.051s.02 0 .062.02c1.14.421 17.033 6.339 19.057 8.815 1.983 2.434.298 20.238-.113 22.313l-.01.021Z"/><path fill="#907A98" d="M17.266 18.804s14.013 1.983 18.975 9.668c0 0 .483 15.215-.123 18.389-.606 3.175-3.277.524-3.277.524l-1.007.195s3.565 2.486 4.274.596c.719-1.89.565-17.28.534-19.807-.031-2.527-11.29-9.42-19.109-10.232l-.277.678.01-.01Z"/><path fill="#925189" d="M36.662 28.359c-.174-2.805 9.246-4.336 10.048-3.452.801.884-.072 19.94-1.418 21.554-1.1 1.325-7.982 2.054-8.63 1.695-.914-.504.535-11.188 0-19.807v.01Z" opacity=".5" style="mix-blend-mode:multiply"/><path fill="#925189" d="M36.909 28.122c-.75 1.911 3.698 2.26 6.534.124 2.835-2.127 3.79-3.298 2.496-3.576-1.304-.277-8.147 1.223-9.02 3.442l-.01.01Z" opacity=".3" style="mix-blend-mode:multiply"/><path fill="#D46BAA" d="M35.029 17.85c-5.404-1.686-9.01.266-9.123 1.458-.113 1.192 6.996 4.335 8.753 5.979 1.767 1.654 10.469-1.86 10.52-2.383.051-.524-5.414-3.576-10.16-5.055h.01Z" opacity=".2" style="mix-blend-mode:multiply"/><path fill="#925189" d="M45.641 46.05c-.03.184-.061.328-.092.41-.483 1.531-9.39 2.25-10.233 2.322.689-.102 5.96-.616 8.517-1.469 1.336-.442 1.757-1.181 1.798-1.263h.01Z" opacity=".8" style="mix-blend-mode:multiply"/><path fill="#C2E238" d="M8.513 24.65S18.9 29.057 23.75 29.972c4.86.914 12.235-.576 12.235-.576s-8.013 1.654-11.506 1.295c-3.493-.36-15.965-6.03-15.965-6.03v-.011Z"/><path fill="#A7B138" d="M22.249 39.773s2.311.903 3.123.852c.812-.04 6.986-1.438 6.986-1.438s-6.75 1.397-10.099.575l-.01.01Z"/><path fill="#C2D138" d="M50.388 34.533s3.616-.914 5.968-1.315c2.353-.41 7.305-2.538 7.305-2.538s-1.829-.544-2.116-.626c-.288-.082-.37.73-.37.73s-7.366 3.112-10.787 3.749Z"/><path fill="#91A622" d="m4.743 29.705-2.332 1.078s7.212 1.398 12.462 3.206L4.62 30.259l.133-.544-.01-.01Z"/><path fill="url(#m)" d="M2.4 30.783 2.7 31.8s15.225 2.702 22.519 5.846c0 0-12.996-5.383-22.807-6.852l-.01-.01Z"/><path fill="#9193BA" d="M4.61 35.92s9.472 2.301 14.064 2.671c4.592.37-11.517-3.02-14.064-2.671Z" opacity=".5" style="mix-blend-mode:multiply"/><path fill="url(#n)" d="M51.754 17.736s.616 1.664 2.476 1.15c0 0-2.743.894-2.476-1.15Z"/><path fill="#526800" d="M51.22 25.729c-.966.082 1.11-1.336 2.805-1.069 0 0-2.425 1.038-2.805 1.069ZM6.243 23.356s3.986.154 2.27 1.284l-2.27-1.284ZM8.945 22.451c-.78.596.452.453.76.196s-.216-.606-.76-.196Z"/><path fill="#526100" d="M55.216 34.215s.144-.74 1.346-1.182c1.202-.452 2.414 0 2.414 0s-2.106.956-3.76 1.182Z"/><path fill="#9193BA" d="M20.924 30.29c-1.428-.154 3.133 4.058 3.637 4.438.503.38.226-2.445-.535-3.441-.76-.997-3.102-.997-3.102-.997ZM17.06 38.817c-1.972-.226 4.059 4.705 5.528 5.753 1.47 1.048 2.496-2.507 2.353-3.246-.144-.75-5.137-2.199-7.88-2.507ZM62.685 19.308s-1.726 1.716-3.288 2.589c-1.561.863 1.264.144 1.86.267.596.123.524 2.353.524 2.353s.709-3.514.894-5.209h.01Z" opacity=".5" style="mix-blend-mode:multiply"/><defs><linearGradient id="a" x1="2.01" x2="62.685" y1="21.897" y2="21.897" gradientUnits="userSpaceOnUse"><stop stop-color="#84A61D"/><stop offset="1" stop-color="#B5CE45"/></linearGradient><linearGradient id="b" x1="24.468" x2="62.685" y1="27.558" y2="27.558" gradientUnits="userSpaceOnUse"><stop stop-color="#848D04"/><stop offset="1" stop-color="#829A45"/></linearGradient><linearGradient id="c" x1="25.218" x2="61.668" y1="37.091" y2="37.091" gradientUnits="userSpaceOnUse"><stop stop-color="#848D04"/><stop offset="1" stop-color="#829A45"/></linearGradient><linearGradient id="d" x1="2.01" x2="25.115" y1="28.122" y2="28.122" gradientUnits="userSpaceOnUse"><stop stop-color="#427038"/><stop offset=".99" stop-color="#635C06"/></linearGradient><linearGradient id="e" x1="3.551" x2="25.742" y1="39.454" y2="39.454" gradientUnits="userSpaceOnUse"><stop stop-color="#427038"/><stop offset=".99" stop-color="#635C06"/></linearGradient><linearGradient id="f" x1="26.697" x2="40.166" y1="21.753" y2="21.753" gradientUnits="userSpaceOnUse"><stop stop-color="#D8EC38"/><stop offset=".99" stop-color="#FFF47C"/></linearGradient><linearGradient id="g" x1="26.697" x2="40.166" y1="21.753" y2="21.753" gradientUnits="userSpaceOnUse"><stop stop-color="#84A61D"/><stop offset="1" stop-color="#B5CE45"/></linearGradient><linearGradient id="h" x1="25.362" x2="64" y1="35.304" y2="35.304" gradientUnits="userSpaceOnUse"><stop stop-color="#84A61D"/><stop offset="1" stop-color="#B5CE45"/></linearGradient><linearGradient id="i" x1="33.108" x2="64" y1="34.985" y2="34.985" gradientUnits="userSpaceOnUse"><stop stop-color="#848D04"/><stop offset="1" stop-color="#829A45"/></linearGradient><linearGradient id="j" x1="32.286" x2="32.286" y1="48.792" y2="15.928" gradientUnits="userSpaceOnUse"><stop stop-color="#F8E1F2"/><stop offset="1" stop-color="#fff"/></linearGradient><linearGradient id="k" x1="30.498" x2="30.498" y1="48.505" y2="16.955" gradientUnits="userSpaceOnUse"><stop stop-color="#DE0086"/><stop offset="1" stop-color="#FF003B"/></linearGradient><linearGradient id="l" x1="35.029" x2="35.029" y1="47.765" y2="15.928" gradientUnits="userSpaceOnUse"><stop stop-color="#DE0086"/><stop offset="1" stop-color="#FF003B"/></linearGradient><linearGradient id="m" x1="2.401" x2="25.218" y1="34.215" y2="34.215" gradientUnits="userSpaceOnUse"><stop stop-color="#427038"/><stop offset=".99" stop-color="#635C06"/></linearGradient><linearGradient id="n" x1="51.733" x2="54.23" y1="18.404" y2="18.404" gradientUnits="userSpaceOnUse"><stop stop-color="#427038"/><stop offset=".99" stop-color="#635C06"/></linearGradient></defs></svg>