<svg xmlns="http://www.w3.org/2000/svg" width="64" height="64" fill="none"><g clip-path="url(#a)"><path fill="#D2FFF1" d="M.427 54.15s1.208-3.486 1.6-4.954c.394-1.468-.883-11.716 0-13.71.885-1.998 10.48-8.106 11.476-9.624.997-1.517 0-8.043 1.238-8.652 1.232-.613 8.494-.167 9.383-.535.889-.368 5.799-2.278 5.799-2.278s.481-1.773 1.615-1.797c1.135-.025 5.107.265 6.462 1.198 1.35.933 2.976 3.447 4.027 5.057 1.05 1.61 8.538 2.122 8.97 3.123.433 1.002-2.415 8.952-.746 10.523 1.67 1.571 11.26 6.88 12.354 10.12 1.1 3.24-.162 7.773 0 9.025.163 1.252 2.76 2.946.457 3.746L.427 54.15Z"/><path fill="url(#b)" d="M32.435 48.396c12.124-4.855 18.018-18.619 13.164-30.743C40.744 5.528 26.98-.366 14.856 4.489 2.73 9.343-3.163 23.107 1.692 35.232 6.546 47.356 20.31 53.25 32.435 48.396Z" opacity=".6" style="mix-blend-mode:color-dodge"/><path fill="url(#c)" d="M61.108 51.68c4.144 2.47 2.445 4.498 2.445 4.498a1557.694 1557.694 0 0 1-18.698.01h-.01c-13.179-.069-27.782-.31-36.537-.835h-.03c-4.954-.3-8.013-.692-7.846-1.198.687-2.136 2.48-3.51 2.504-4.7.03-1.168-.962-9.515.187-13.684.118-.427.334-.86.628-1.291 1.581-2.323 5.377-4.63 7.906-6.212 1.31-.82 2.293-1.453 2.465-1.802.451-.933.417-3.05.412-4.93 0-1.841.02-3.466.565-3.653 8.16-2.764 34.97 3.85 35.133 4.87.167 1.042-1.297 7.553-1.223 9.168.005.157.133.364.358.61 1.96 2.17 11.667 7.689 13.204 11.656.128.334.201.653.201.963.03 4.596-1.61 6.476-1.66 6.535l-.004-.005Z"/><path fill="#A82548" d="M14.505 24.831c6.098 8.942 23.593 12.236 28.651 10.09 4.886-2.077 6.192-5.975 6.192-5.975s-.256 1.07-.344 2.965c0 0-6.796 10.17-20.014 6.035-9.31-2.912-14.873-11.49-14.873-11.49l.388-1.63v.005ZM2.676 45.35c16.19 8.22 54.081 8.495 59.409 4.435l-.977 1.895 1.65 1.223s-15.296-.658-9.448 3.422l-45.036-.977s6.707-.187 5.779-3.118c-.894-2.813-11.122-2.774-11.122-2.774l-.255-4.1v-.005Z" opacity=".5" style="mix-blend-mode:multiply"/><path fill="#64FFDA" d="M62.767 45.145c.03 4.596-1.61 6.476-1.66 6.535 0 0-7.443.3-7.787 4.527 0 .04-.01.079-.01.118 0 0-3.437-.054-8.46-.137h-.01c-11.023-.187-29.658-.535-36.537-.835h-.03c.08-.02 6.134-1.473 4.002-3.668-2.081-2.14-8.352-4.183-9.344-2.23.03-1.168-.962-9.515.187-13.684.118-.427.334-.86.628-1.291 33.37 30.419 52.412 15.359 58.82 9.712.128.334.201.653.201.962v-.01Z" opacity=".8" style="mix-blend-mode:multiply"/><path fill="#A82548" d="M16.665 18.747c-1.08 4.125 13.003 16.174 24.979 13.032 6.363-1.67 8.514-7.68 5.578-8.966-8.981-3.933-30.031-6.089-30.557-4.066ZM10.714 55.441c21.443-4.846 39.233-1.679 41.614.403.923.805-41.614-.403-41.614-.403Z" opacity=".5" style="mix-blend-mode:multiply"/><path fill="#0041E9" d="M16.606 38.938C13.43 42.812 23.294 50.89 39.282 51.68c22.096 1.095 15.82-16.758 10.586-17.701-5.155-.928-2.381 4.571-15.629 4.96-6.462.19-15.781-2.26-17.633 0Z" opacity=".3" style="mix-blend-mode:soft-light"/><path fill="#64FFDA" d="M49.363 32.525s-5.73 8.716-20.373 5.421c-13.925-3.133-10.262-11.971-17.338-9.683 1.311-.82 2.293-1.453 2.465-1.802.452-.933.417-3.05.412-4.93 11.039 15.124 25.41 13.99 28.627 13.395 5.357-.992 7.07-12.172 7.07-12.172.168 1.04-1.295 7.552-1.222 9.167.005.157.133.364.359.61v-.006Z" opacity=".4" style="mix-blend-mode:multiply"/><path fill="#E9E900" d="M20.618 26.687c.638 3.639 12.993 10.655 22.65 7.783 1.99-.59 4.872-4.434 2.736-3.982-2.15.456-2.45 2.455-9.094 2.15-6.609-.304-16.479-7.002-16.297-5.95h.005Z" opacity=".3" style="mix-blend-mode:soft-light"/><path fill="#A82548" d="M17.048 18.389c-2.126 1.998 3.973 8.303 8.009 9.418 4.115 1.139 5.529-8.824 1.777-9.418-3.707-.59-9.403-.359-9.786 0ZM37.411 20.402c-1.797 3.796 3.074 11.23 4.96 11.048 1.88-.182 7.684-4.316 5.21-8.087-.929-1.414-9.841-3.663-10.17-2.961Z" opacity=".3" style="mix-blend-mode:multiply"/><path fill="#2C1561" d="M28.195 34.72c2.062 1.07.702 2.386-.624 2.279-1.326-.108-2.136-3.713.624-2.279ZM40.868 36.154c-4.272-.575-4.61 2.239-2.333 2.313 2.279.073 4.297-2.048 2.333-2.313Z" opacity=".4" style="mix-blend-mode:multiply"/><path fill="#24514D" d="M28.126 36.964c6.285 4.208 4.272 9.285.721 13.386 0 0-2.901 2.018-1.63 5.528l3.727.148s-1.615-1.346 2.072-7.194c3.688-5.853-4.453-12.752-4.453-12.752l-.437.89v-.006Z" opacity=".6" style="mix-blend-mode:multiply"/><path fill="#64FFDA" d="M28.852 35.147c3.055 3.388 5.544 9.58 3.305 12.197-2.239 2.613-5.652 3.924-5.445 5.318 0 0-2.127 2.873-3.398-.206 0 0 .82-1.753 4.851-3.82 8.072-4.135-1.33-12.865-1.33-12.865s-.197-.928.48-1.169c.747-.265 1.459.462 1.533.545h.005Z"/><path fill="#672B88" d="M26.471 52.593c-.904-2.018-3.79-.348-2.494.61 1.3.952 2.686-.173 2.494-.61ZM28.852 35.147c-1.153-.53-1.915.653-1.915.653l.511.585c-.123.147-.628.147-.628.147s-1.13-1.748.127-2.057c.953-.236 1.905.672 1.905.672Z" opacity=".6" style="mix-blend-mode:multiply"/><path fill="#24514D" d="M41.894 43.328s-4.257-3.8-.766-5.745l-1.61.78c-2.303 1.493-3.747 3.963-.717 6.413 0 0 1.978.776 3.088-1.448h.005Z" opacity=".6" style="mix-blend-mode:multiply"/><path fill="#C32B8C" d="M35.997 53.026c-3.432.854-2.976 3.054-2.976 3.054l11.18-.246s-6.716-3.177-8.204-2.808Z" opacity=".8" style="mix-blend-mode:multiply"/><path fill="#64FFDA" d="M39.405 36.085c-2.716.157-5.112 1.483-4.69 4.38.423 2.897 3.275 5.092 3.275 5.092s1.783-.245 1.886-1.91c0 0-3.393-2.465-3.639-4.238-.25-1.772 3.634-2.406 4.896-1.826 0 0 1.831-1.709-1.728-1.498Z"/><path fill="#672B88" d="M39.405 36.085c1.86.462.75 1.297.75 1.297s-.79-.094-1.59.122c0 0 1.021.285.962.855 0 0 2.53-.757 2.077-1.832-.348-.84-2.2-.447-2.2-.447v.005Z" opacity=".6" style="mix-blend-mode:multiply"/><path fill="#E9E900" d="M11.593 29.844c-11.81 5.303.86 6.33 1.96 2.961 1.104-3.373.048-3.86-1.96-2.96Z" opacity=".3" style="mix-blend-mode:soft-light"/><path fill="#E9CA9D" d="M57.258 41.275c-1.797 1.955 1.179 4.704 1.562 2.185.383-2.519-.673-3.152-1.562-2.185ZM13.577 33.846c-.398.918.85.953 1.114 0 .265-.952-.731-.889-1.114 0Z" opacity=".5" style="mix-blend-mode:soft-light"/><mask id="d" width="35" height="24" x="16" y="9" maskUnits="userSpaceOnUse" style="mask-type:luminance"><path fill="#fff" d="M16.886 19.292C16.41 24.561 30.7 35.138 41.187 31.897c5.799-1.792 5.863-4.488 5.863-4.488 9.378-6.477-1.026-14.927-3.187-15.546-6.03-1.728-19.567-2.48-24.934-2.76-1.95-.098-1.994 9.605-2.043 10.184v.005Z"/></mask><g mask="url(#d)"><path fill="url(#e)" d="M20.25 19.65s.476 1.503.952 2.19c0 0 2.465-.24 5.21-1.433 2.593-1.125 3.82-2.411 3.82-2.411l-.756-2.278s-2.75.53-5.966 2.028c-2.097.977-3.255 1.905-3.255 1.905h-.005Z"/><path fill="url(#f)" d="M20.25 19.65s1.709-1.453 4.62-2.597c2.912-1.144 4.601-1.335 4.601-1.335s-1.384 1.271-4.704 2.592c-3.638 1.449-4.517 1.34-4.517 1.34Z"/><path fill="#DE376D" d="M21.728 19.513c-.02.265.648 1.945.987 1.945.338 0 1.635-.31 3.211-.997.25-.108-.393-2.303-.87-2.111-1.845.736-3.319.957-3.328 1.163Z" opacity=".7" style="mix-blend-mode:multiply"/><path fill="#fff" d="M26.991 17.495c-.176.746-.245 2.455.045 2.47.29.015 2.946-1.62 2.965-1.87.02-.251-.716-2.029-.913-1.926-.196.104-2.033 1.032-2.102 1.326h.005Z" style="mix-blend-mode:soft-light"/><path fill="#fff" d="M20.544 19.759c.079.407.61 1.684.776 1.777.167.093.933-.034.928-.181-.01-.148-.614-1.542-.692-1.63-.094-.104-1.041-.138-1.007.029l-.005.005Z" opacity=".5" style="mix-blend-mode:soft-light"/><path fill="url(#g)" d="M20.957 19.366s3.123-2.337 7.792-3.3c0 0-2.062 1.527-7.792 3.3Z"/><path fill="#FF9304" d="M21.482 19.199s3.123-1.832 6.727-2.789c0 0-2.68 1.665-6.727 2.789Z"/><path fill="#2FB6D4" d="M21.998 19.052s5.298-2.662 3.623-1.552c-1.448.962 2.303-.933 2.303-.933s.59-.3.825-.5c0 0-2.298.427-4.817 1.605-1.978.923-2.975 1.694-2.975 1.694l1.04-.314Z" opacity=".5" style="mix-blend-mode:multiply"/><path fill="#2FB6D4" d="M21.777 18.59s-1.282.771-1.527 1.06c0 0 .496 1.503.952 2.19 0 0 1.542-.225 2.382-.46 0 0-2.175.436-2.357.338-.182-.098-.874-1.915-.86-2.033.01-.118 1.41-1.095 1.41-1.095ZM28.813 15.835s.501-.098.658-.113l.756 2.279s-.147.23-.844.717c0 0 .672-.55.682-.712.01-.162-.648-2.136-.726-2.17-.079-.035-.526 0-.526 0Z" opacity=".8" style="mix-blend-mode:multiply"/><path fill="#FFE016" d="M23.883 18.654s1.056-.192 2.082-.678c1.026-.486 2.627-1.448 3.212-2.018 0 0-2.362 1.562-5.294 2.696Z"/><path fill="url(#h)" d="M39.93 30.787s-.079 1.571.123 2.386c0 0 2.396.639 5.381.487 2.824-.148 4.425-.919 4.425-.919l.088-2.4s-2.76-.472-6.3-.192c-2.303.181-3.717.643-3.717.643v-.005Z"/><path fill="url(#i)" d="M39.93 30.787s2.111-.766 5.24-.81c3.127-.05 4.777.363 4.777.363s-1.743.703-5.313.776c-3.913.079-4.699-.329-4.699-.329h-.005Z"/><path fill="#DE376D" d="M41.364 31.17c-.108.24-.079 2.048.24 2.17.32.123 1.64.285 3.359.192.275-.015.442-2.293-.074-2.283-1.988.044-3.442-.265-3.525-.079Z" opacity=".7" style="mix-blend-mode:multiply"/><path fill="#fff" d="M47 31.126c-.426.638-1.09 2.214-.824 2.327.265.118 3.329-.486 3.437-.712.108-.23.044-2.15-.182-2.12-.225.029-2.263.255-2.43.505Z" style="mix-blend-mode:soft-light"/><path fill="#fff" d="M40.176 30.988c-.07.408-.02 1.788.103 1.94.122.152.888.3.933.157.044-.137-.035-1.66-.079-1.768-.054-.127-.928-.495-.957-.324v-.005Z" opacity=".5" style="mix-blend-mode:soft-light"/><path fill="url(#j)" d="M40.696 30.763s3.742-1.09 8.456-.354c0 0-2.465.707-8.456.354Z"/><path fill="#FF9304" d="M41.246 30.792s3.57-.619 7.277-.255c0 0-3.094.618-7.277.255Z"/><path fill="#2FB6D4" d="M41.781 30.836s5.892-.633 3.933-.181c-1.694.392 2.485-.07 2.485-.07s.658-.073.953-.18c0 0-2.299-.408-5.073-.188-2.18.172-3.383.546-3.383.546l1.085.073Z" opacity=".5" style="mix-blend-mode:multiply"/><path fill="#2FB6D4" d="M41.732 30.326s-1.468.274-1.802.461c0 0-.064 1.581.123 2.386 0 0 1.522.33 2.391.403 0 0-2.19-.358-2.323-.51-.132-.153-.142-2.102-.093-2.21.05-.108 1.704-.53 1.704-.53ZM49.294 30.213s.5.088.658.122l-.088 2.401s-.221.163-1.041.374c0 0 .824-.28.888-.428.064-.147.143-2.229.079-2.288-.064-.059-.491-.181-.491-.181h-.005Z" opacity=".8" style="mix-blend-mode:multiply"/><path fill="#FFE016" d="M43.681 31.126s1.056.191 2.186.098c1.129-.093 2.97-.432 3.717-.76 0 0-2.76.633-5.903.667v-.005Z"/><path fill="url(#k)" d="M18.266 24.59s-.26 1.552-.147 2.387c0 0 2.308.903 5.293 1.09 2.818.177 4.498-.413 4.498-.413l.358-2.371s-2.69-.78-6.236-.904c-2.313-.083-3.766.216-3.766.216v-.005Z"/><path fill="url(#l)" d="M18.266 24.59s2.185-.52 5.298-.216c3.113.305 4.71.904 4.71.904s-1.813.5-5.368.172c-3.899-.364-4.635-.86-4.635-.86h-.005Z"/><path fill="#DE376D" d="M19.646 25.135c-.133.226-.31 2.028-.005 2.18.3.158 1.6.467 3.314.57.275.015.698-2.23.187-2.278-1.984-.182-3.388-.653-3.496-.476v.004Z" opacity=".7" style="mix-blend-mode:multiply"/><path fill="#fff" d="M25.253 25.734c-.496.585-1.33 2.077-1.08 2.22.25.147 3.359-.103 3.496-.32.133-.215.285-2.13.059-2.125-.226 0-2.278 0-2.475.225Z" style="mix-blend-mode:soft-light"/><path fill="#fff" d="M25.71 25.636c0 .275.04 1.547.157 1.832.113.28 1.066.108 1.193.073.192-.058.57-1.978.398-2.032-.172-.054-1.748-.01-1.748.127Z"/><path fill="#fff" d="M18.482 24.821c-.113.398-.226 1.778-.118 1.935.103.162.85.398.909.26.059-.137.157-1.65.122-1.768-.039-.132-.864-.599-.913-.432v.005Z" opacity=".5" style="mix-blend-mode:soft-light"/><path fill="url(#m)" d="M19.027 24.66s3.845-.664 8.44.603c0 0-2.528.422-8.44-.604Z"/><path fill="#FF9304" d="M19.572 24.748s3.614-.212 7.262.57c0 0-3.142.264-7.262-.57Z"/><path fill="#2FB6D4" d="M20.098 24.85s5.926.04 3.928.266c-1.729.196 2.474.216 2.474.216s.658 0 .968-.069c0 0-2.24-.663-5.018-.761-2.185-.079-3.423.157-3.423.157l1.07.197v-.005Z" opacity=".5" style="mix-blend-mode:multiply"/><path fill="#2FB6D4" d="M20.107 24.34s-1.492.108-1.84.255c0 0-.241 1.567-.148 2.387 0 0 1.473.5 2.332.668 0 0-2.136-.604-2.254-.771-.117-.167.094-2.107.158-2.205.063-.098 1.752-.334 1.752-.334ZM27.63 25.086s.49.143.638.197l-.358 2.371s-.236.138-1.076.256c0 0 .85-.182.928-.324.079-.143.393-2.2.34-2.264-.055-.064-.467-.236-.467-.236h-.005Z" opacity=".8" style="mix-blend-mode:multiply"/><path fill="#FFE016" d="M21.954 25.351s1.03.31 2.16.344c1.134.035 3-.093 3.781-.339 0 0-2.814.32-5.941-.005Z"/><path fill="url(#n)" d="M19.513 21.644s-.26 1.552-.147 2.387c0 0 2.308.903 5.293 1.09 2.819.177 4.498-.413 4.498-.413l.358-2.371s-2.69-.781-6.236-.904c-2.312-.083-3.766.216-3.766.216v-.005Z"/><path fill="url(#o)" d="M19.513 21.644s2.185-.52 5.298-.216c3.113.305 4.71.904 4.71.904s-1.813.5-5.368.171c-3.898-.363-4.635-.859-4.635-.859h-.005Z"/><path fill="#DE376D" d="M20.893 22.19c-.133.225-.31 2.027-.005 2.18.3.156 1.6.466 3.314.569.275.015.698-2.23.187-2.278-1.984-.182-3.388-.653-3.496-.477v.005Z" opacity=".7" style="mix-blend-mode:multiply"/><path fill="#fff" d="M26.5 22.788c-.495.585-1.33 2.077-1.08 2.22.25.147 3.359-.103 3.496-.32.133-.215.285-2.13.06-2.126-.227 0-2.28 0-2.476.226Z" style="mix-blend-mode:soft-light"/><path fill="#fff" d="M26.957 22.69c0 .275.04 1.547.157 1.832.113.28 1.066.108 1.194.073.191-.059.57-1.979.397-2.033-.172-.054-1.748-.01-1.748.128Z"/><path fill="#fff" d="M19.734 21.875c-.113.398-.226 1.777-.118 1.935.104.162.85.397.909.26.059-.133.157-1.65.123-1.768-.04-.132-.865-.599-.914-.432v.005Z" opacity=".5" style="mix-blend-mode:soft-light"/><path fill="url(#p)" d="M20.274 21.713s3.845-.663 8.441.604c0 0-2.529.422-8.44-.604Z"/><path fill="#FF9304" d="M20.82 21.801s3.613-.21 7.262.57c0 0-3.143.265-7.263-.57Z"/><path fill="#2FB6D4" d="M21.345 21.904s5.926.04 3.928.266c-1.729.196 2.475.216 2.475.216s.658 0 .967-.07c0 0-2.24-.662-5.018-.76-2.185-.079-3.423.157-3.423.157l1.07.196v-.005Z" opacity=".5" style="mix-blend-mode:multiply"/><path fill="#2FB6D4" d="M21.36 21.394s-1.493.108-1.842.255c0 0-.24 1.566-.147 2.386 0 0 1.473.501 2.332.668 0 0-2.136-.604-2.254-.77-.117-.168.094-2.107.158-2.205.063-.099 1.753-.334 1.753-.334ZM28.882 22.14s.491.142.638.197l-.358 2.371s-.236.138-1.075.256c0 0 .849-.182.928-.325.078-.142.392-2.2.338-2.263-.054-.064-.466-.236-.466-.236h-.005Z" opacity=".8" style="mix-blend-mode:multiply"/><path fill="#FFE016" d="M23.206 22.405s1.03.31 2.16.344c1.134.034 3-.093 3.781-.339 0 0-2.813.32-5.941-.005Z"/><path fill="url(#q)" d="M24.57 19.887s-.52 1.487-.55 2.322c0 0 2.122 1.287 5.034 1.974 2.75.653 4.503.358 4.503.358l.76-2.278s-2.518-1.228-5.995-1.954c-2.263-.472-3.746-.427-3.746-.427l-.005.005Z"/><path fill="url(#r)" d="M24.57 19.887s2.24-.143 5.255.687c3.015.83 4.483 1.689 4.483 1.689s-1.871.187-5.318-.746c-3.78-1.022-4.42-1.635-4.42-1.635v.005Z"/><path fill="#DE376D" d="M25.838 20.657c-.172.202-.649 1.945-.378 2.151.27.206 1.497.732 3.167 1.13.27.063 1.065-2.078.57-2.21-1.926-.516-3.232-1.223-3.364-1.066l.005-.005Z" opacity=".7" style="mix-blend-mode:multiply"/><path fill="#fff" d="M31.259 22.194c-.59.491-1.665 1.817-1.444 2.004.22.186 3.33.466 3.496.28.167-.187.643-2.053.422-2.087-.22-.035-2.244-.388-2.474-.197Z" style="mix-blend-mode:soft-light"/><path fill="#fff" d="M31.725 22.18c-.05.27-.221 1.532-.157 1.831.064.295 1.031.29 1.164.275.2-.025.898-1.856.736-1.935-.162-.083-1.719-.309-1.743-.171Z"/><path fill="#fff" d="M24.743 20.147c-.182.373-.52 1.713-.447 1.89.078.177.766.535.85.413.083-.123.431-1.601.422-1.719-.015-.138-.752-.737-.825-.58v-.004Z" opacity=".5" style="mix-blend-mode:soft-light"/><path fill="url(#s)" d="M25.307 20.078s3.9 0 8.215 2.033c0 0-2.563-.015-8.215-2.033Z"/><path fill="#FF9304" d="M25.828 20.26s3.6.407 7.056 1.797c0 0-3.143-.275-7.056-1.797Z"/><path fill="#2FB6D4" d="M26.329 20.451s5.833 1.046 3.83.933c-1.738-.098 2.4.634 2.4.634s.654.113.963.093c0 0-2.092-1.036-4.817-1.606-2.14-.447-3.398-.427-3.398-.427l1.022.373Z" opacity=".5" style="mix-blend-mode:multiply"/><path fill="#2FB6D4" d="M26.427 19.95s-1.488-.147-1.856-.064c0 0-.506 1.503-.55 2.323 0 0 1.37.746 2.185 1.056 0 0-2.003-.958-2.087-1.14-.083-.186.452-2.057.53-2.145.079-.089 1.783-.035 1.783-.035l-.005.005ZM33.714 21.963s.456.226.594.305l-.761 2.278s-.26.094-1.105.064c0 0 .869-.034.972-.162.103-.123.761-2.102.717-2.175-.044-.074-.422-.314-.422-.314l.005.005Z" opacity=".8" style="mix-blend-mode:multiply"/><path fill="#FFE016" d="M28.077 21.261s.962.482 2.072.707c1.11.226 2.97.418 3.78.31 0 0-2.823-.167-5.852-1.017Z"/><path fill="url(#t)" d="M38.766 24.674s.172 1.566.501 2.337c0 0 2.465.25 5.391-.383 2.76-.594 4.218-1.615 4.218-1.615l-.294-2.382s-2.799-.024-6.25.815c-2.25.545-3.566 1.228-3.566 1.228Z"/><path fill="url(#u)" d="M38.766 24.674s1.964-1.09 5.043-1.64c3.079-.545 4.778-.403 4.778-.403s-1.61.973-5.122 1.616c-3.85.702-4.694.427-4.694.427h-.005Z"/><path fill="#DE376D" d="M40.24 24.826c-.07.255.25 2.033.584 2.102.334.069 1.664.02 3.343-.344.27-.059.07-2.332-.437-2.244-1.959.358-3.442.285-3.496.486h.005Z" opacity=".7" style="mix-blend-mode:multiply"/><path fill="#fff" d="M45.798 23.883c-.32.698-.722 2.357-.442 2.431.28.074 3.206-1.012 3.275-1.252.069-.246-.3-2.126-.516-2.067-.216.063-2.195.613-2.322.888h.005Z" style="mix-blend-mode:soft-light"/><path fill="#fff" d="M46.215 23.667c.074.265.457 1.478.648 1.719.187.24 1.056-.182 1.169-.25.172-.109.015-2.063-.167-2.068-.182 0-1.684.462-1.65.6Z"/><path fill="#fff" d="M39.036 24.836c0 .412.265 1.768.408 1.895.147.128.923.152.943.005.02-.147-.3-1.63-.359-1.733-.073-.118-.992-.344-.997-.167h.005Z" opacity=".5" style="mix-blend-mode:soft-light"/><path fill="url(#v)" d="M39.517 24.532s3.521-1.675 8.289-1.7c0 0-2.323 1.09-8.288 1.7Z"/><path fill="#FF9304" d="M40.063 24.477s3.422-1.178 7.144-1.414c0 0-2.956 1.105-7.145 1.415Z"/><path fill="#2FB6D4" d="M40.598 24.433s5.715-1.566 3.854-.805c-1.61.658 2.44-.462 2.44-.462s.634-.181.909-.329c0 0-2.337-.034-5.038.624-2.126.516-3.25 1.075-3.25 1.075l1.08-.103h.005Z" opacity=".5" style="mix-blend-mode:multiply"/><path fill="#2FB6D4" d="M40.47 23.933s-1.404.505-1.704.74c0 0 .192 1.572.501 2.338 0 0 1.557.084 2.426.015 0 0-2.22 0-2.377-.133-.157-.127-.476-2.052-.442-2.165.035-.113 1.596-.796 1.596-.796ZM47.914 22.616s.51 0 .668.015l.294 2.382s-.191.196-.967.535c0 0 .771-.408.805-.565.035-.157-.216-2.224-.285-2.273-.073-.05-.515-.103-.515-.103v.01Z" opacity=".8" style="mix-blend-mode:multiply"/><path fill="#FFE016" d="M42.523 24.414s1.075.02 2.175-.256c1.1-.275 2.862-.898 3.545-1.345 0 0-2.622 1.065-5.72 1.6Z"/><path fill="url(#w)" d="M38.658 34.995c1.709.516 5.087-1.227 6.708-2.2 1.738-1.046 2.425-1.978 2.67-2.543 0 0-.805-2.269-1.158-2.863 0 0-1.557-.461-4.788 1.434-3.226 1.895-4.463 3.584-4.586 4.075l1.16 2.097h-.006Z"/><path fill="url(#x)" d="M37.5 32.904c.245.451 2.361.137 4.821-1.282 2.455-1.42 4.803-3.403 4.552-4.228-.03-.093-.403-.506-2.043-.02-1.64.487-3.648 1.65-5.214 2.873-1.876 1.463-2.328 2.264-2.112 2.661l-.005-.005Z"/><path fill="#fff" d="M43.632 30.674c.486-.265 2.573-1.787 2.77-2.204.2-.418-4.817 1.114-5.377 1.129-.565.015-1.97.889-2.504 1.684-.535.795 2.12-.427 3.103-.668.982-.24-.383 1.356 2.008.06Z" opacity=".5" style="mix-blend-mode:soft-light"/><path fill="url(#y)" d="M38.467 32.22c.093.276 1.998-.058 4.326-1.595 2.597-1.718 3.172-2.45 3.034-2.7-.137-.251-1.787-.138-4.154 1.286-1.827 1.1-3.349 2.588-3.206 3.01Z"/><path fill="#FF9304" d="M38.79 32.329c-.014-.358 1.273-1.512 3.448-2.814 2.175-1.3 3.486-1.463 3.565-1.345.078.118-1.277 1.542-3.654 2.868-2.376 1.325-3.358 1.296-3.358 1.296v-.005Z"/><path fill="#2FB6D4" d="M43.834 29.967s2.234-1.537 1.998-2.047c-.167-.359-1.856.127-2.956.643 0 0-.525.795-.447.835.079.044 2.382-1.09 2.539-.791.157.3-1.134 1.36-1.134 1.36Z" opacity=".5" style="mix-blend-mode:multiply"/><path fill="#fff" d="M45.95 28.97s.83-.775-.32-.24c-.47.216-1.615 1.237-1.517 1.4.104.166.511-.138.933-.428.683-.462.899-.732.899-.732h.005ZM40.279 30.164s-.423-.03-.757.255c-.329.285.01.363.01.363s.624-.525.742-.618h.005Z"/><path fill="#FFE016" d="M40.126 30.281s-1.532 1.085-1.728 1.68c-.197.594.732.461 1.728.034 0 0-1.537.56-1.61.113-.074-.447 1.615-1.827 1.615-1.827h-.005Z"/><path fill="#FFE016" d="M38.894 30.826s-1.792 1.356-1.434 2.014c.364.658 2.445-.094 2.873-.266 0 0-2.568.899-2.78.182-.21-.717 1.34-1.93 1.34-1.93Z"/><path fill="#2FB6D4" d="M45.258 27.257s1.207-.398 1.62.132c.128.162 1.075 2.559 1.159 2.863 0 0-.06.177-.231.422 0 0 .133-.23.108-.505-.025-.276-.972-2.426-1.09-2.677-.118-.25-.923-.417-1.566-.235Z" opacity=".8" style="mix-blend-mode:multiply"/><path fill="#fff" d="M44.447 30.596c-.088.648.428 2.342.57 2.298.142-.044 1.9-.972 2.651-2.141.236-.363-.707-2.416-1.188-2.072-.481.343-1.993 1.605-2.033 1.91v.005Z" style="mix-blend-mode:soft-light"/><path fill="#E02774" d="M39.188 32.992c-.437.103.423 1.9.639 1.925.216.02.506.073 2.371-.673 1.866-.746 1.513-.884 1.586-1.066.074-.181-.795-1.86-1.094-1.684-.295.177-2.107 1.174-3.502 1.498Z" opacity=".2" style="mix-blend-mode:multiply"/><path fill="#FFE016" d="M40.24 32.629s3.083-1.233 4.66-2.524c2.106-1.729 1.983-2.485 1.983-2.485s-.437 1.159-2.2 2.426c-1.763 1.267-4.444 2.583-4.444 2.583Z"/><path fill="url(#z)" d="M33.134 32.152c1.243 1.36 5.16 1.616 7.11 1.61 2.092 0 3.202-.466 3.717-.839 0 0 .491-2.435.491-3.152 0 0-1.134-1.238-5.003-1.272-3.864-.03-5.858.81-6.226 1.178l-.089 2.47v.005Z"/><path fill="url(#A)" d="M33.218 29.677c-.025.53 2.023 1.375 4.954 1.42 2.932.044 6.06-.467 6.276-1.331.024-.098-.089-.663-1.798-1.105-1.713-.442-4.11-.476-6.142-.226-2.436.3-3.266.771-3.285 1.238l-.005.004Z"/><path fill="#fff" d="M39.832 30.959c.57.025 3.226-.216 3.624-.481.397-.265-4.857-1.571-5.367-1.856-.506-.285-2.215-.256-3.113.167-.899.422 2.106.751 3.103 1.055.997.305-1.056.997 1.748 1.115h.005Z" opacity=".5" style="mix-blend-mode:soft-light"/><path fill="url(#B)" d="M34.435 29.589c-.063.29 1.802 1.007 4.68.879 3.216-.142 4.11-.486 4.124-.78.01-.295-1.512-1.071-4.365-1.066-2.204 0-4.34.515-4.439.962v.005Z"/><path fill="#FF9304" d="M34.666 29.854c.177-.324 1.93-.668 4.547-.668s3.864.55 3.874.698c.005.147-1.95.687-4.758.599-2.808-.084-3.663-.634-3.663-.634v.005Z"/><path fill="#2FB6D4" d="M40.387 30.439s2.794-.177 2.858-.757c.044-.407-1.714-.874-2.956-.996 0 0-.89.422-.84.5.044.079 2.686.3 2.671.648-.02.35-1.723.605-1.723.605h-.01Z" opacity=".5" style="mix-blend-mode:multiply"/><path fill="#fff" d="M42.793 30.684s1.149-.245-.153-.383c-.53-.054-2.086.236-2.086.437s.525.147 1.05.118c.85-.05 1.189-.172 1.189-.172ZM37.131 28.73s-.358-.25-.805-.172c-.447.078-.182.329-.182.329s.83-.138.987-.152v-.005Z"/><path fill="#FFE016" d="M36.935 28.75s-1.935.147-2.426.569c-.491.422.403.795 1.512.948 0 0-1.66-.32-1.487-.756.172-.438 2.4-.762 2.4-.762Z"/><path fill="#FFE016" d="M35.555 28.578s-2.308.245-2.337 1.026c-.03.776 2.214 1.213 2.686 1.286 0 0-2.75-.564-2.559-1.316.192-.751 2.21-.997 2.21-.997Z"/><path fill="#2FB6D4" d="M43.087 28.794s1.194.314 1.37.918c.06.201-.412 2.897-.496 3.211 0 0-.142.128-.427.25 0 0 .24-.132.364-.392.122-.26.427-2.667.451-2.947.03-.28-.599-.859-1.262-1.04ZM33.218 29.604s-.108 1.9-.084 2.548c0 0 .447.501 1.43.855 0 0-1.18-.683-1.268-.928-.088-.25-.073-2.47-.073-2.47l-.005-.005Z" opacity=".8" style="mix-blend-mode:multiply"/><path fill="#fff" d="M40.598 31.322c-.422.53-.864 2.303-.717 2.343.147.034 2.2.147 3.481-.486.398-.197.653-2.515.05-2.466-.605.055-2.618.364-2.814.614v-.005Z" style="mix-blend-mode:soft-light"/><path fill="#E02774" d="M34.666 30.654c-.442-.142-.633 1.91-.456 2.043.176.133.412.334 2.46.663 2.047.33 1.811.02 1.969-.103.157-.123.284-2.072-.074-2.072s-2.49-.079-3.899-.53Z" opacity=".2" style="mix-blend-mode:multiply"/><path fill="#fff" d="M33.282 30.046c-.035.338-.04 2.018.093 2.136.132.122.471.29.584.24.113-.049.172-1.758.113-1.831-.064-.074-.766-.8-.79-.55v.005Z" opacity=".5" style="mix-blend-mode:soft-light"/><path fill="#FFE016" d="M35.786 30.89s3.388.545 5.465.236c2.784-.413 3.079-1.15 3.079-1.15s-1.002.796-3.236.983c-2.234.187-5.313-.069-5.313-.069h.005Z"/><path fill="url(#C)" d="M34.323 13.454c-.58.025-3.064.295-3.207.57-.142.275.658 7.336 1.208 9.354.113.417 8.5-1.434 9.241-2.549.202-.304-1.227-4.203-1.483-4.542-.255-.334-1.149-1.178-1.4-1.276-.25-.099-2.813-1.395-3.142-1.464a6.27 6.27 0 0 0-1.217-.093Z"/><path fill="#700000" d="M32.55 16.69c-.201.442-.196 4.277-.221 4.728-.025.457-1.733-6.751-.972-7.267.56-.378 4.08.526 4.728 1.468 6.182 8.976-3.211.933-2.74 1.832.467.898 6.531 3.408 6.457 3.462-.073.054-6.795 2.288-7.075 2.111-.28-.177-.26-3.481.118-5.514.162-.86 4.424-.476 2.985-1.7-.702-.593-3.103.502-3.28.885v-.005Z" opacity=".5" style="mix-blend-mode:multiply"/><path fill="#FF5793" d="M38.61 17.038c0 .167.544 3.35.672 3.452.132.104 2.318.256 2.288.089-.03-.172-1.08-3.855-1.35-3.855s-1.61.157-1.61.32v-.006Z" opacity=".5" style="mix-blend-mode:screen"/><path fill="#FF001A" d="M38.997 20.323c.069-.166-.535-3.201-.638-3.338-.103-.138-2.784-1.523-2.97-1.469-.188.054-2.844 1.38-2.682 1.65.162.27 2.77 1.96 4.144 2.568 1.375.614 2.102.688 2.146.59Z" style="mix-blend-mode:darken"/><path fill="#F7B" d="M38.58 16.773c-.275-.113-2.956-1.374-3.148-1.645-.186-.27-1.046-1.438-.933-1.561.113-.118.776-.123 1.041-.025.265.099 3.03 1.459 3.241 1.567.216.108 1.149.987 1.228 1.178.078.197-1.017.653-1.43.481v.005Z" style="mix-blend-mode:screen"/><path fill="#B80066" d="M32.452 17.205c-.167-.48-1.252-2.911-1.292-2.754-.039.157.673 6.835 1.07 8.303.06.206.28-5.377.222-5.549Z" opacity=".5" style="mix-blend-mode:multiply"/><path fill="#960066" d="M32.727 17.407c-.108.044-.26 4.375-.231 5.637.005.226 6.138-2.333 6.093-2.446-.044-.113-1.63-.648-3.191-1.487-1.562-.84-2.529-1.758-2.671-1.7v-.004Z" opacity=".5" style="mix-blend-mode:multiply"/><path fill="#B80066" d="M32.584 16.916c-.181-.02-1.453-2.593-1.384-2.838.069-.246 3.083-.614 3.147-.54.064.073 1.105 1.625.923 1.797-.181.171-2.514 1.595-2.686 1.58Z" opacity=".5" style="mix-blend-mode:multiply"/><path fill="#FF5793" d="M33.38 22.96c.373-.358 5.298-2.263 5.882-2.273.585-.01 2.097.059 1.989.265-.108.206-2.254 1.04-4.12 1.512s-4.021.766-3.746.501l-.005-.005Z" opacity=".5" style="mix-blend-mode:screen"/><path fill="#960066" d="M39.06 20.711c-.436.128-2.09 1.032-2.125 1.184-.035.152 1.551.181 2.352-.054 1.262-.373 2.111-.722 1.944-.958-.167-.235-1.905-.25-2.165-.177l-.005.005Z" opacity=".5" style="mix-blend-mode:multiply"/><path fill="#FF249C" d="M38.776 20.55c-.368-.241-.908-.187-3.668-1.685-1.713-.933-2.263-1.699-2.455-1.497-.191.2 1.468 2.592.894 4.86-.221.87 3.678-.942 4.095-1.144.412-.2 1.31-.422 1.134-.535ZM34.818 15.133c-.79-1.114-3.329-.692-3.24-.201.083.491.785 1.625 1.065 1.733.28.108 2.593-.942 2.18-1.532h-.005Z" opacity=".5" style="mix-blend-mode:multiply"/><path fill="#DE5634" d="M38.864 18.114c.359 3.059 1.562 2.116 1.582 1.895.137-1.635-.899-2.858-.958-2.877-.088-.03-.702.31-.623.977v.005Z" opacity=".5" style="mix-blend-mode:screen"/><path fill="#FF8390" d="M38.58 16.773c-.334-.093-2.922-1.541-3.03-1.708-.108-.172-.054-1.415.192-1.43.245-.019 2.926 1.307 3.108 1.474.098.088 1.247 1.036 1.237 1.178-.01.128-1.065.614-1.507.491v-.005Z" opacity=".92" style="mix-blend-mode:screen"/><path fill="#960066" d="M39.1 20.147c-.265-1.031-.471-3.383-1.055-3.266-2.937.6-4.798-.152-4.945.177-.147.33 2.003 1.724 3.437 2.44 1.434.712 2.73 1.302 2.558.649h.005Z" opacity=".5" style="mix-blend-mode:multiply"/><path fill="url(#D)" d="M32.275 22.376c-.04-1.562.182-4.365-.108-4.886-.29-.525-.624.108-.54.771.083.663.653 4.262.648 4.115Z" style="mix-blend-mode:screen"/><path fill="#FF5793" d="M35.83 15.654c-.643 0-2.681 1.237-2.755 1.537-.073.3 4.095 2.641 4.925 2.799.83.157.157-2.843-.201-3.221-.358-.379-1.478-1.12-1.97-1.12v.005Z" opacity=".5" style="mix-blend-mode:screen"/><path fill="url(#E)" d="M34.249 13.636c-.6-.143-3.103.186-3.05.447.055.255.526 1.355.801 1.546.275.192 3.025-.329 2.976-.751-.05-.422-.413-1.164-.727-1.237v-.005Z" style="mix-blend-mode:screen"/><path fill="url(#F)" d="M38.717 19.906c.015-.948-.078-2.828-.54-2.784-.462.044-4.178.594-4.09.918.088.324 4.61 2.932 4.625 1.866h.005Z" style="mix-blend-mode:screen"/><path fill="url(#G)" d="M37.072 21.38c-.496.205-3.648 1.448-3.692 1.58-.04.133 3.191-.417 3.746-.5 3.433-.506 5.21-2.122 1.508-1.493-.31.054-.968.167-1.562.412Z" style="mix-blend-mode:screen"/><path fill="#7A0033" d="M41.462 20.058c-.408-1.502-1.218-3.515-1.375-3.77-.157-.256-1.03-1.066-1.237-1.18-.206-.117-3.05-1.521-3.305-1.56-.727-.109-3.098-.04-3.903.264 0 0 3.108-.26 3.938-.142.466.069 2.946 1.213 3.461 1.748.516.535.948 1.031 1.194 1.547.387.825 1.232 3.088 1.232 3.088l-.005.005Z" opacity=".5" style="mix-blend-mode:multiply"/><path fill="#960066" d="M32.746 13.616c-.918.152-1.458.334-1.507.815-.05.481.604 5.667.815 6.919.211 1.252.368 1.826.643 1.831.167 0 5.22-.795 6.08-1.075 0 0-6.055 1.704-6.443 1.272-.152-.167-1.395-9.06-1.188-9.29.206-.231 1.61-.472 1.61-.472h-.01Z" opacity=".5" style="mix-blend-mode:multiply"/><path fill="#FF8CCA" d="M33.164 16.41c-.27-.103-.653.412-1.075-.388-.143-.27.304 1.291.392 1.414.089.123.86-.962.688-1.026h-.005ZM35.432 15.133c-.275-.113-.461.315-.697.565-.236.25 1.218-.01 1.193-.143-.024-.132-.304-.343-.496-.422ZM39.046 16.793c-.26.074-1.114-.403-1.183-.28-.069.128.741 1.15.776 1.05.034-.097.75-.868.407-.77ZM39.488 20.544c-.275-.117-.535-1.217-.604-1.09-.069.128.133.501-.074.663-.206.162-.564.069-.456.246.108.181.77.324.903.319.133 0 .535-.005.226-.143l.005.005Z"/><path fill="#FF5793" d="M34.858 20.908c-1.733-.123-1.88-3.442-2.072-3.045-.197.403-.398 4.321-.103 4.803.3.48 3.407-1.67 2.175-1.758Z" opacity=".5" style="mix-blend-mode:screen"/><path fill="#fff" d="M39.537 16.606c-.186-.152-1.478-.854-1.733-.938-.255-.083-1.385-.127-1.233.045.153.172 1.636 1.06 2.136 1.09.501.03 1.056-.015.83-.202v.005ZM36.832 21.576c-.113-.025-2.804.898-2.726 1.03.084.133 1.798-.137 2.063-.348.265-.211.918-.628.663-.682Z"/><path fill="url(#H)" d="M35.28 18.757c-.167-1.257-1.434-1.124-1.4-.83.025.201 1.484 1.444 1.4.83Z"/><path fill="#960066" d="M34.868 17.962c-.914-.629-.629.28-.526.442.103.162.884.721.919.486.068-.433-.305-.87-.393-.928Z" opacity=".5" style="mix-blend-mode:multiply"/><path fill="#FF5E66" d="M34.121 17.74c-.24.02-.334.123-.122.354.152.172.309.305.309.305s-.123-.26-.147-.364c-.035-.167-.015-.294-.04-.294Z"/><path fill="url(#I)" d="M20.328 27.541c1.012 1.474 4.734 2.23 6.605 2.485 2.008.275 3.132-.024 3.677-.314 0 0 .796-2.269.89-2.961 0 0-.924-1.336-4.631-1.88-3.703-.54-5.726 0-6.128.304l-.408 2.357-.005.01Z"/><path fill="url(#J)" d="M20.74 25.184c-.092.506 1.759 1.587 4.562 2.019 2.804.432 5.873.353 6.197-.442.035-.089 0-.648-1.581-1.297-1.586-.648-3.88-.996-5.863-1.026-2.376-.034-3.236.305-3.314.752v-.006Z"/><path fill="#fff" d="M26.913 27.286c.545.098 3.123.216 3.54.02.418-.201-4.448-2.146-4.9-2.49-.452-.338-2.092-.54-3.01-.255-.918.285 1.92.997 2.838 1.424.918.427-1.144.815 1.532 1.301Z" opacity=".5" style="mix-blend-mode:soft-light"/><path fill="url(#K)" d="M21.92 25.258c-.099.27 1.595 1.208 4.37 1.463 3.103.29 4.006.08 4.055-.2.05-.28-1.306-1.224-4.046-1.602-2.116-.29-4.227-.078-4.385.34h.005Z"/><path fill="#FF9304" d="M22.106 25.543c.216-.29 1.94-.383 4.448-.034 2.51.348 3.634 1.04 3.624 1.183-.015.142-1.959.403-4.64-.054-2.68-.457-3.432-1.09-3.432-1.09v-.005Z"/><path fill="#2FB6D4" d="M27.512 26.864s2.706.201 2.838-.344c.093-.383-1.527-1.065-2.705-1.35 0 0-.909.29-.874.368.034.079 2.538.643 2.474.972-.064.334-1.733.349-1.733.349v.005Z" opacity=".5" style="mix-blend-mode:multiply"/><path fill="#fff" d="M29.79 27.414s1.135-.084-.093-.388c-.506-.123-2.033-.05-2.057.142-.025.192.486.211.992.256.82.064 1.158-.01 1.158-.01ZM24.62 24.787s-.314-.285-.746-.275c-.437.015-.221.29-.221.29s.815-.02.967-.015Z"/><path fill="#FFE016" d="M24.428 24.782s-1.875-.113-2.4.226c-.526.338.28.82 1.325 1.11 0 0-1.552-.526-1.326-.924.221-.397 2.401-.412 2.401-.412Z"/><path fill="#FFE016" d="M23.127 24.438s-2.244-.069-2.376.673c-.133.741 1.964 1.458 2.406 1.59 0 0-2.564-.903-2.279-1.6.285-.692 2.254-.663 2.254-.663h-.005Z"/><path fill="#2FB6D4" d="M30.32 25.636s1.189.447 1.18 1.12c0 .206-.767 2.671-.89 2.96 0 0-.157.104-.441.182 0 0 .25-.098.402-.328.152-.231.761-2.5.825-2.765.064-.265-.457-.904-1.075-1.169ZM20.75 25.111s-.353 1.807-.417 2.43c0 0 .359.54 1.257 1.007 0 0-1.04-.81-1.095-1.06-.054-.25.256-2.377.256-2.377Z" opacity=".8" style="mix-blend-mode:multiply"/><path fill="#fff" d="M27.6 27.738c-.476.452-1.134 2.097-.996 2.15.137.055 2.091.433 3.407-.004.408-.138.963-2.328.373-2.357-.589-.03-2.558 0-2.784.216v-.005Z" style="mix-blend-mode:soft-light"/><path fill="#E02774" d="M21.998 26.309c-.408-.196-.86 1.748-.707 1.895.152.148.348.373 2.268.963 1.92.589 1.734.26 1.9.162.172-.098.546-1.95.202-1.999-.344-.049-2.377-.407-3.668-1.026l.005.005Z" opacity=".2" style="mix-blend-mode:multiply"/><path fill="#fff" d="M20.75 25.543c-.073.32-.304 1.93-.19 2.062.112.133.412.344.524.31.114-.035.398-1.665.35-1.739-.05-.078-.63-.869-.683-.633Z" opacity=".5" style="mix-blend-mode:soft-light"/><path fill="#FFE016" d="M23.044 26.687s3.177.972 5.21.953c2.725-.03 3.103-.693 3.103-.693s-1.066.629-3.231.511c-2.166-.118-5.082-.77-5.082-.77Z"/><path fill="url(#L)" d="M26.48 32.437c.767 1.68 4.415 3.123 6.271 3.717 1.994.638 3.187.54 3.796.344 0 0 1.218-2.166 1.434-2.848 0 0-.698-1.527-4.37-2.745-3.668-1.218-5.824-1.031-6.29-.79l-.84 2.327v-.005Z"/><path fill="url(#M)" d="M27.32 30.11c-.186.495 1.503 1.93 4.277 2.872 2.775.943 5.907 1.42 6.384.663.054-.084.122-.658-1.375-1.6-1.498-.944-3.766-1.715-5.78-2.102-2.41-.467-3.343-.27-3.506.166Z"/><path fill="#fff" d="M33.223 33.36c.535.197 3.137.786 3.599.658.461-.128-4.14-2.985-4.537-3.413-.398-.427-2.033-.923-3.015-.8-.982.123 1.773 1.36 2.632 1.96.854.598-1.311.623 1.32 1.6v-.005Z" opacity=".5" style="mix-blend-mode:soft-light"/><path fill="url(#N)" d="M28.509 30.394c-.152.26 1.404 1.513 4.183 2.279 3.103.85 4.061.8 4.164.525.103-.275-1.11-1.483-3.83-2.352-2.097-.673-4.287-.84-4.517-.447v-.005Z"/><path fill="#FF9304" d="M28.646 30.723c.27-.255 2.043-.039 4.532.766 2.49.806 3.511 1.714 3.472 1.856-.04.143-2.067.054-4.714-.888-2.646-.943-3.295-1.729-3.295-1.729l.005-.005Z"/><path fill="#2FB6D4" d="M33.91 33.036s2.715.692 2.951.162c.167-.373-1.36-1.36-2.51-1.86 0 0-.971.132-.952.22.02.088 2.465 1.11 2.343 1.439-.123.329-1.827.044-1.827.044l-.005-.005Z" opacity=".5" style="mix-blend-mode:multiply"/><path fill="#fff" d="M31.337 30.404s-.265-.348-.712-.412c-.447-.064-.275.255-.275.255s.835.128.987.157Z"/><path fill="#FFE016" d="M31.146 30.365s-1.886-.452-2.485-.201c-.6.25.137.883 1.149 1.365 0 0-1.483-.81-1.183-1.179.3-.368 2.519.015 2.519.015Z"/><path fill="#FFE016" d="M29.884 29.78s-2.274-.47-2.539.256c-.265.731 1.738 1.836 2.16 2.052 0 0-2.445-1.384-2.032-2.037.412-.653 2.41-.27 2.41-.27Z"/><path fill="#2FB6D4" d="M36.984 32.3s1.036.667 1.021 1.296c-.005.211-1.282 2.632-1.463 2.902 0 0-.177.078-.481.108 0 0 .27-.054.466-.26.197-.207 1.223-2.406 1.336-2.667.113-.26-.305-1.001-.884-1.38h.005ZM27.345 30.036s-.687 1.772-.864 2.396c0 0 .27.614 1.1 1.252 0 0-.914-1.011-.923-1.276-.01-.266.687-2.372.687-2.372Z" opacity=".8" style="mix-blend-mode:multiply"/><path fill="#E02774" d="M28.4 31.485c-.377-.27-1.192 1.62-1.06 1.801.128.182.29.442 2.136 1.385 1.846.943 1.714.58 1.905.51.192-.068.909-1.885.565-1.993-.339-.108-2.347-.84-3.545-1.704Z" opacity=".2" style="mix-blend-mode:multiply"/><path fill="#fff" d="M27.267 30.478c-.133.31-.659 1.91-.565 2.062.088.157.358.422.481.408.123-.015.702-1.62.668-1.709-.035-.088-.481-.997-.58-.766l-.005.005Z" opacity=".5" style="mix-blend-mode:soft-light"/><path fill="#FFE016" d="M29.393 32.054s3.054 1.561 5.13 1.905c2.775.462 3.28-.147 3.28-.147s-1.197.447-3.377-.06c-2.18-.505-5.033-1.698-5.033-1.698Z"/><path fill="url(#O)" d="M23.937 29.997c1.243 1.36 5.161 1.615 7.11 1.61 2.092 0 3.202-.466 3.717-.84 0 0 .491-2.435.491-3.152 0 0-1.134-1.237-5.003-1.272-3.864-.03-5.858.81-6.226 1.179l-.089 2.47v.005Z"/><path fill="url(#P)" d="M24.02 27.527c-.024.53 2.024 1.375 4.955 1.419 2.932.044 6.06-.467 6.276-1.33.024-.099-.089-.664-1.798-1.106-1.713-.442-4.11-.476-6.142-.226-2.436.3-3.266.771-3.285 1.238l-.005.005Z"/><path fill="#fff" d="M30.635 28.808c.57.025 3.226-.216 3.624-.48.397-.266-4.857-1.572-5.367-1.857-.506-.285-2.215-.255-3.113.167-.899.422 2.106.751 3.103 1.056.997.304-1.056.997 1.748 1.114h.005Z" opacity=".5" style="mix-blend-mode:soft-light"/><path fill="url(#Q)" d="M25.243 27.433c-.063.29 1.803 1.007 4.68.88 3.216-.143 4.11-.487 4.125-.781.01-.295-1.513-1.07-4.366-1.066-2.204 0-4.34.516-4.439.963v.005Z"/><path fill="#FF9304" d="M25.47 27.704c.176-.325 1.93-.668 4.546-.668 2.617 0 3.865.55 3.874.697.005.147-1.949.688-4.758.6-2.808-.084-3.663-.634-3.663-.634v.005Z"/><path fill="#2FB6D4" d="M31.19 28.288s2.794-.177 2.858-.756c.044-.408-1.714-.874-2.956-.997 0 0-.89.422-.84.5.044.08 2.686.3 2.671.649-.02.348-1.723.604-1.723.604h-.01Z" opacity=".5" style="mix-blend-mode:multiply"/><path fill="#fff" d="M33.596 28.529s1.149-.246-.152-.384c-.53-.053-2.087.236-2.087.438 0 .2.525.147 1.05.117.85-.049 1.189-.171 1.189-.171ZM27.94 26.574s-.36-.25-.806-.172c-.442.074-.182.33-.182.33s.83-.138.987-.153v-.005Z"/><path fill="#FFE016" d="M27.738 26.594s-1.935.147-2.426.57c-.49.422.403.795 1.512.947 0 0-1.66-.319-1.487-.756.172-.437 2.4-.761 2.4-.761Z"/><path fill="#FFE016" d="M26.358 26.427s-2.308.245-2.337 1.026c-.03.776 2.214 1.213 2.686 1.287 0 0-2.75-.565-2.559-1.316.192-.752 2.21-.997 2.21-.997Z"/><path fill="#2FB6D4" d="M33.89 26.638s1.194.314 1.37.918c.06.202-.412 2.897-.496 3.212 0 0-.142.127-.427.25 0 0 .24-.133.364-.393.122-.26.427-2.666.451-2.946.025-.28-.599-.86-1.262-1.04ZM24.02 27.448s-.107 1.9-.083 2.549c0 0 .447.5 1.43.854 0 0-1.18-.682-1.268-.933-.088-.25-.073-2.47-.073-2.47h-.005Z" opacity=".8" style="mix-blend-mode:multiply"/><path fill="#fff" d="M31.406 29.167c-.422.53-.864 2.303-.717 2.342.147.034 2.2.147 3.486-.486.398-.197.653-2.514.05-2.465-.605.054-2.618.363-2.814.614l-.005-.005Z" style="mix-blend-mode:soft-light"/><path fill="#E02774" d="M25.47 28.504c-.443-.143-.634 1.91-.457 2.043.176.132.412.334 2.46.662 2.047.33 1.812.02 1.969-.103.162-.122.285-2.072-.074-2.072-.358 0-2.49-.078-3.899-.53Z" opacity=".2" style="mix-blend-mode:multiply"/><path fill="#fff" d="M24.085 27.895c-.035.339-.04 2.018.093 2.136.133.123.471.29.584.24.113-.049.172-1.757.113-1.83-.064-.075-.766-.801-.79-.55v.004Z" opacity=".5" style="mix-blend-mode:soft-light"/><path fill="#FFE016" d="M26.594 28.74s3.388.545 5.465.235c2.784-.412 3.079-1.149 3.079-1.149s-1.002.796-3.236.982c-2.234.187-5.313-.068-5.313-.068h.005Z"/><path fill="url(#R)" d="M28.524 26.991c1.242 1.36 5.16 1.616 7.11 1.611 2.091 0 3.201-.466 3.717-.84 0 0 .49-2.435.49-3.152 0 0-1.134-1.237-5.003-1.272-3.864-.03-5.858.81-6.226 1.179l-.088 2.47v.005Z"/><path fill="url(#S)" d="M28.607 24.522c-.024.53 2.023 1.375 4.955 1.419 2.93.044 6.059-.467 6.275-1.33.024-.1-.089-.664-1.797-1.106-1.714-.442-4.11-.476-6.143-.226-2.436.3-3.265.771-3.285 1.238l-.005.005Z"/><path fill="#fff" d="M35.221 25.803c.57.025 3.226-.216 3.624-.48.398-.266-4.856-1.572-5.367-1.857-.51-.285-2.215-.255-3.113.167-.899.422 2.106.751 3.103 1.056.997.304-1.056.996 1.748 1.114h.005Z" opacity=".5" style="mix-blend-mode:soft-light"/><path fill="url(#T)" d="M29.825 24.428c-.064.29 1.802 1.007 4.68.88 3.215-.143 4.109-.487 4.124-.781.01-.295-1.513-1.07-4.365-1.066-2.205 0-4.341.516-4.44.963v.004Z"/><path fill="#FF9304" d="M30.055 24.698c.177-.324 1.93-.667 4.547-.667 2.618 0 3.865.55 3.875.697.005.147-1.95.687-4.758.599-2.81-.084-3.664-.634-3.664-.634v.005Z"/><path fill="#2FB6D4" d="M35.776 25.283s2.794-.177 2.858-.756c.044-.408-1.714-.875-2.956-.997 0 0-.889.422-.84.5.044.08 2.686.3 2.671.649-.02.348-1.723.604-1.723.604h-.01Z" opacity=".5" style="mix-blend-mode:multiply"/><path fill="#fff" d="M38.182 25.523s1.149-.245-.152-.383c-.53-.054-2.087.236-2.087.437 0 .202.525.148 1.05.118.85-.049 1.189-.172 1.189-.172ZM32.52 23.57s-.358-.251-.805-.173c-.447.079-.181.33-.181.33s.83-.138.986-.153v-.005Z"/><path fill="#FFE016" d="M32.324 23.589s-1.935.147-2.426.57c-.49.422.403.795 1.513.947 0 0-1.66-.32-1.488-.756.172-.437 2.401-.761 2.401-.761Z"/><path fill="#FFE016" d="M30.944 23.422s-2.308.245-2.337 1.026c-.03.776 2.215 1.213 2.686 1.287 0 0-2.75-.565-2.558-1.316.191-.752 2.21-.997 2.21-.997Z"/><path fill="#2FB6D4" d="M38.477 23.633s1.193.314 1.37.918c.058.202-.413 2.897-.496 3.211 0 0-.143.128-.428.25 0 0 .241-.132.364-.392s.427-2.666.452-2.946c.024-.28-.6-.86-1.262-1.041ZM28.607 24.448s-.108 1.9-.084 2.548c0 0 .447.501 1.43.855 0 0-1.18-.683-1.267-.928-.089-.246-.074-2.47-.074-2.47l-.005-.005Z" opacity=".8" style="mix-blend-mode:multiply"/><path fill="#fff" d="M35.987 26.167c-.422.53-.864 2.302-.717 2.342.147.034 2.2.147 3.486-.486.398-.197.654-2.514.05-2.465-.604.054-2.618.363-2.814.614l-.005-.005Z" style="mix-blend-mode:soft-light"/><path fill="#E02774" d="M30.055 25.499c-.442-.143-.633 1.91-.456 2.042.177.133.412.334 2.46.663 2.047.33 1.812.02 1.969-.103.157-.123.285-2.072-.074-2.072-.358 0-2.49-.078-3.899-.53Z" opacity=".2" style="mix-blend-mode:multiply"/><path fill="#fff" d="M28.67 24.89c-.034.339-.039 2.018.094 2.136.133.118.471.29.584.24.113-.049.172-1.757.113-1.831-.059-.074-.766-.8-.79-.55v.005Z" opacity=".5" style="mix-blend-mode:soft-light"/><path fill="#FFE016" d="M31.175 25.735s3.388.544 5.465.235c2.784-.412 3.079-1.149 3.079-1.149s-1.002.796-3.236.982c-2.234.187-5.313-.069-5.313-.069h.005Z"/><path fill="url(#U)" d="M31.23 23.982c1.241 1.36 5.16 1.615 7.11 1.61 2.09 0 3.2-.466 3.716-.84 0 0 .491-2.435.491-3.152 0 0-1.134-1.237-5.003-1.272-3.865-.03-5.858.81-6.226 1.179l-.089 2.47v.005Z"/><path fill="url(#V)" d="M31.317 21.507c-.024.53 2.023 1.375 4.955 1.419 2.931.044 6.06-.467 6.275-1.33.025-.099-.088-.664-1.797-1.106-1.714-.442-4.11-.476-6.143-.225-2.435.299-3.265.77-3.285 1.237l-.005.005Z"/><path fill="#fff" d="M37.932 22.788c.57.025 3.226-.216 3.623-.48.398-.266-4.856-1.572-5.367-1.857-.505-.285-2.214-.255-3.113.167-.898.422 2.107.751 3.104 1.056.996.304-1.056.997 1.748 1.114h.005Z" opacity=".5" style="mix-blend-mode:soft-light"/><path fill="url(#W)" d="M32.535 21.418c-.064.29 1.802 1.007 4.68.88 3.216-.143 4.11-.487 4.124-.781.01-.295-1.512-1.07-4.365-1.066-2.205 0-4.34.516-4.439.962v.005Z"/><path fill="#FF9304" d="M32.766 21.683c.177-.323 1.93-.667 4.547-.667s3.864.55 3.874.697c.005.147-1.95.687-4.758.599-2.809-.083-3.663-.633-3.663-.633v.005Z"/><path fill="#2FB6D4" d="M38.486 22.273s2.794-.177 2.858-.756c.044-.408-1.714-.875-2.956-.997 0 0-.889.422-.84.5.045.08 2.686.3 2.672.649-.02.348-1.724.604-1.724.604h-.01Z" opacity=".5" style="mix-blend-mode:multiply"/><path fill="#fff" d="M40.892 22.513s1.15-.245-.152-.383c-.53-.054-2.087.236-2.087.437 0 .202.526.148 1.051.118.85-.049 1.188-.172 1.188-.172ZM35.23 20.56s-.357-.251-.804-.173c-.442.074-.182.33-.182.33s.83-.138.987-.153v-.005Z"/><path fill="#FFE016" d="M35.035 20.579s-1.935.147-2.426.57c-.491.422.403.795 1.512.947 0 0-1.66-.32-1.488-.756.172-.437 2.402-.761 2.402-.761Z"/><path fill="#FFE016" d="M33.655 20.407s-2.308.245-2.338 1.026c-.029.776 2.215 1.213 2.686 1.287 0 0-2.75-.565-2.558-1.316.192-.752 2.21-.997 2.21-.997Z"/><path fill="#2FB6D4" d="M41.187 20.623s1.193.314 1.37.918c.059.201-.412 2.897-.496 3.211 0 0-.142.128-.427.25 0 0 .24-.132.363-.392s.428-2.666.452-2.946c.025-.28-.599-.86-1.262-1.041ZM31.317 21.433s-.108 1.9-.083 2.549c0 0 .447.5 1.429.854 0 0-1.179-.683-1.267-.928-.088-.25-.074-2.47-.074-2.47l-.005-.005Z" opacity=".8" style="mix-blend-mode:multiply"/><path fill="#fff" d="M38.698 23.152c-.423.53-.865 2.303-.717 2.342.147.034 2.2.147 3.486-.486.398-.197.653-2.514.05-2.465-.605.054-2.618.363-2.815.614l-.004-.005Z" style="mix-blend-mode:soft-light"/><path fill="#E02774" d="M32.766 22.484c-.442-.143-.633 1.91-.457 2.042.177.133.413.334 2.46.663 2.048.33 1.812.02 1.97-.103.162-.122.284-2.072-.074-2.072-.359 0-2.49-.078-3.899-.53Z" opacity=".2" style="mix-blend-mode:multiply"/><path fill="#fff" d="M31.381 21.88c-.034.339-.039 2.018.094 2.136.132.123.471.29.584.24.113-.049.172-1.757.113-1.831-.064-.074-.766-.8-.79-.55v.005Z" opacity=".5" style="mix-blend-mode:soft-light"/><path fill="#FFE016" d="M33.886 22.72s3.388.545 5.465.235c2.784-.412 3.078-1.149 3.078-1.149s-1.001.796-3.236.982c-2.234.187-5.312-.068-5.312-.068h.005Z"/><path fill="url(#X)" d="M34.617 36.022c1.42 1.085 5.195.653 7.051.314 1.994-.364 2.97-.997 3.398-1.439 0 0 .05-2.406-.074-3.088 0 0-1.296-.983-4.983-.35-3.688.634-5.446 1.778-5.73 2.196l.343 2.371-.005-.005Z"/><path fill="url(#Y)" d="M34.273 33.655c.07.51 2.16.962 4.965.5 2.798-.461 5.69-1.487 5.75-2.347.005-.098-.197-.618-1.906-.74-1.708-.124-3.997.254-5.892.844-2.268.702-2.98 1.296-2.917 1.743Z"/><path fill="#fff" d="M40.794 33.738c.55-.073 3.035-.76 3.374-1.08.338-.32-4.896-.658-5.431-.845-.535-.186-2.156.138-2.941.693-.786.555 2.136.353 3.137.471 1.002.118-.834 1.135 1.861.761Z" opacity=".5" style="mix-blend-mode:soft-light"/><path fill="url(#Z)" d="M35.417 33.355c-.01.29 1.891.648 4.611.035 3.04-.688 3.835-1.17 3.796-1.454-.04-.285-1.62-.756-4.346-.26-2.101.383-4.046 1.237-4.06 1.684v-.005Z"/><path fill="#FF9304" d="M35.683 33.571c.113-.343 1.728-.967 4.218-1.419 2.494-.452 3.78-.137 3.81 0 .03.138-1.738.992-4.43 1.39-2.69.402-3.598.03-3.598.03Z"/><path fill="#2FB6D4" d="M41.236 33.144s2.632-.648 2.593-1.208c-.03-.393-1.783-.54-2.99-.442 0 0-.771.555-.718.624.06.069 2.613-.177 2.657.157.044.339-1.542.87-1.542.87Z" opacity=".5" style="mix-blend-mode:multiply"/><path fill="#fff" d="M37.838 32.074s-.388-.177-.795-.03c-.408.148-.118.344-.118.344s.77-.27.913-.314Z"/><path fill="#FFE016" d="M37.657 32.128s-1.817.476-2.215.957c-.398.486.52.693 1.606.643 0 0-1.635-.014-1.547-.461.088-.447 2.156-1.14 2.156-1.14Z"/><path fill="#FFE016" d="M36.311 32.201s-2.155.634-2.052 1.38c.103.746 2.322.776 2.779.766 0 0-2.72-.064-2.666-.81.054-.746 1.934-1.33 1.934-1.33l.005-.006Z"/><path fill="#2FB6D4" d="M43.524 31.111s1.272.054 1.468.697c.06.197.104 2.775.074 3.089 0 0-.118.147-.363.314 0 0 .206-.167.28-.437.073-.27-.054-2.612-.074-2.887-.02-.275-.717-.717-1.385-.776Z" opacity=".8" style="mix-blend-mode:multiply"/><path fill="#FFE016" d="M36.93 34.367s3.32-.064 5.249-.717c2.583-.874 2.735-1.625 2.735-1.625s-.82.928-2.912 1.492c-2.092.565-5.072.85-5.072.85Z"/><path fill="url(#aa)" d="M37.072 32.687c1.69.585 5.136-1.011 6.791-1.915 1.778-.972 2.51-1.875 2.774-2.43 0 0-.707-2.298-1.04-2.912 0 0-1.538-.53-4.842 1.233-3.305 1.762-4.61 3.392-4.753 3.879l1.07 2.14v.005Z"/><path fill="url(#ab)" d="M36.002 30.542c.226.461 2.357.235 4.87-1.08 2.515-1.317 4.94-3.197 4.73-4.032-.025-.093-.379-.525-2.043-.108-1.665.417-3.717 1.493-5.333 2.647-1.934 1.38-2.42 2.165-2.224 2.568v.005Z"/><path fill="#fff" d="M42.223 28.578c.496-.246 2.642-1.675 2.863-2.087.216-.408-4.856.908-5.421.898-.565-.01-2.004.806-2.573 1.581-.57.771 2.14-.333 3.128-.535.992-.201-.437 1.336 2.003.143Z" opacity=".5" style="mix-blend-mode:soft-light"/><path fill="url(#ac)" d="M36.998 29.903c.08.28 1.999.025 4.39-1.414 2.666-1.605 3.275-2.313 3.148-2.568-.128-.255-1.778-.211-4.208 1.115-1.876 1.021-3.452 2.445-3.33 2.872v-.005Z"/><path fill="#FF9304" d="M37.318 30.026c0-.358 1.335-1.458 3.565-2.666 2.224-1.208 3.545-1.316 3.618-1.198.074.118-1.34 1.483-3.77 2.71-2.431 1.223-3.408 1.154-3.408 1.154h-.005Z"/><path fill="#2FB6D4" d="M42.454 27.88s2.298-1.438 2.082-1.959c-.152-.363-1.861.05-2.98.516 0 0-.56.77-.482.815.074.044 2.426-.987 2.573-.683.147.305-1.188 1.311-1.188 1.311h-.005Z" opacity=".5" style="mix-blend-mode:multiply"/><path fill="#fff" d="M44.61 26.972s.864-.742-.31-.255c-.481.196-1.664 1.168-1.571 1.335.093.167.515-.118.952-.383.703-.432.928-.692.928-.692v-.005ZM38.894 27.924s-.422-.044-.766.221c-.344.27 0 .364 0 .364s.643-.501.77-.585h-.004Z"/><path fill="#FFE016" d="M38.737 28.037s-1.576 1.022-1.802 1.606c-.226.584.712.491 1.723.108 0 0-1.561.496-1.615.044-.054-.452 1.689-1.758 1.689-1.758h.005Z"/><path fill="#FFE016" d="M37.485 28.528s-1.852 1.277-1.518 1.955c.334.677 2.446.01 2.878-.148 0 0-2.603.791-2.784.064-.182-.727 1.419-1.87 1.419-1.87h.005Z"/><path fill="#2FB6D4" d="M43.986 25.229s1.223-.344 1.61.201c.118.167.968 2.602 1.041 2.912 0 0-.063.177-.245.407 0 0 .142-.226.127-.5-.014-.275-.869-2.465-.977-2.716-.108-.255-.908-.457-1.556-.304ZM35.967 30.478s.786 1.664 1.105 2.204c0 0 .61.221 1.61.064 0 0-1.315-.034-1.507-.206-.191-.172-1.203-2.067-1.203-2.067l-.005.005Z" opacity=".8" style="mix-blend-mode:multiply"/><path fill="#fff" d="M43.043 28.533c-.118.643.329 2.357.471 2.323.143-.04 1.94-.894 2.74-2.023.25-.354-.604-2.445-1.1-2.121-.49.324-2.057 1.517-2.111 1.821Z" style="mix-blend-mode:soft-light"/><path fill="#E02774" d="M37.686 30.704c-.442.083.344 1.92.555 1.949.21.03.506.093 2.396-.57 1.895-.667 1.552-.82 1.63-.996.079-.177-.717-1.896-1.021-1.729-.305.167-2.156 1.085-3.56 1.35v-.004Z" opacity=".2" style="mix-blend-mode:multiply"/><path fill="#fff" d="M36.228 30.826c.127.3.898 1.734 1.07 1.773.167.04.535.03.609-.064.074-.093-.663-1.576-.751-1.605-.084-.035-1.022-.325-.928-.104Z" opacity=".5" style="mix-blend-mode:soft-light"/><path fill="#FFE016" d="M38.747 30.39s3.132-1.1 4.763-2.323c2.175-1.64 2.086-2.401 2.086-2.401s-.486 1.139-2.298 2.327c-1.812 1.193-4.551 2.396-4.551 2.396Z"/><path fill="url(#ad)" d="M26.663 25.823c1.762-.28 4.05-3.32 5.082-4.896 1.11-1.694 1.326-2.838 1.296-3.451 0 0-1.709-1.694-2.293-2.073 0 0-1.606.26-3.688 3.374-2.082 3.113-2.46 5.17-2.357 5.666l1.955 1.385.005-.005Z"/><path fill="url(#ae)" d="M24.708 24.438c.418.3 2.19-.903 3.781-3.25 1.596-2.348 2.843-5.151 2.259-5.785-.064-.068-.584-.28-1.851.87-1.267 1.149-2.568 3.073-3.447 4.85-1.056 2.132-1.11 3.055-.747 3.315h.005Z"/><path fill="#fff" d="M29.26 19.769c.324-.447 1.537-2.725 1.537-3.192 0-.462-3.85 3.098-4.35 3.354-.501.255-1.385 1.66-1.523 2.607-.137.948 1.729-1.306 2.505-1.95.776-.643.245 1.385 1.831-.824v.005Z" opacity=".5" style="mix-blend-mode:soft-light"/><path fill="url(#af)" d="M25.283 23.402c.201.206 1.772-.923 3.201-3.32 1.591-2.675 1.792-3.584 1.562-3.75-.231-.168-1.67.652-3.182 2.965-1.169 1.787-1.886 3.786-1.576 4.105h-.005Z"/><path fill="#FF9304" d="M25.622 23.358c-.172-.32.486-1.92 1.88-4.036 1.395-2.116 2.5-2.833 2.622-2.765.123.074-.48 1.945-2.042 4.17-1.562 2.223-2.46 2.626-2.46 2.626v.005Z"/><path fill="#2FB6D4" d="M29.137 19.042s1.346-2.357.909-2.71c-.305-.25-1.616.923-2.382 1.86 0 0-.127.943-.039.948.088 0 1.67-2.018 1.945-1.817.274.202-.428 1.719-.428 1.719h-.005Z" opacity=".5" style="mix-blend-mode:multiply"/><path fill="#fff" d="M30.61 17.225s.413-1.06-.392-.078c-.33.402-.919 1.816-.756 1.92.162.103.402-.35.657-.791.413-.712.491-1.05.491-1.05ZM26.02 20.765s-.393.157-.57.56c-.177.398.167.324.167.324s.334-.746.402-.879v-.005Z"/><path fill="#FFE016" d="M25.931 20.937s-.908 1.645-.83 2.264c.079.619.86.098 1.571-.722 0 0-1.139 1.174-1.404.805-.265-.373.658-2.347.658-2.347h.005Z"/><path fill="#FFE016" d="M25.062 21.963s-1.026 1.999-.413 2.436c.614.437 2.16-1.149 2.47-1.488 0 0-1.92 1.925-2.42 1.375-.506-.555.368-2.323.368-2.323h-.005Z"/><path fill="#2FB6D4" d="M29.236 15.983s.918-.884 1.517-.585c.181.094 2.082 1.837 2.293 2.073 0 0 .025.186-.025.476 0 0 .02-.265-.122-.5-.143-.237-1.93-1.764-2.146-1.936-.216-.171-1.017.025-1.517.467v.005ZM24.65 24.399s1.477 1.095 2.013 1.424c0 0 .643-.093 1.448-.702 0 0-1.178.594-1.429.53-.25-.059-2.037-1.252-2.037-1.252h.004Z" opacity=".8" style="mix-blend-mode:multiply"/><path fill="#fff" d="M29.962 19.337c.201.623 1.405 1.924 1.513 1.821.108-.098 1.291-1.704 1.458-3.079.054-.427-1.69-1.865-1.97-1.35-.279.516-1.094 2.308-1 2.603v.005Z" style="mix-blend-mode:soft-light"/><path fill="#E02774" d="M26.27 23.785c-.349.285 1.208 1.527 1.409 1.454.201-.074.486-.158 1.841-1.636 1.356-1.482.982-1.453.963-1.65-.015-.196-1.527-1.33-1.719-1.04-.191.29-1.39 1.974-2.5 2.872h.006Z" opacity=".2" style="mix-blend-mode:multiply"/><path fill="#fff" d="M25.042 24.586c.255.206 1.61 1.104 1.783 1.06.167-.044.486-.226.505-.344.02-.117-1.33-1.075-1.419-1.06-.093.01-1.05.196-.864.344h-.005Z" opacity=".5" style="mix-blend-mode:soft-light"/><path fill="#FFE016" d="M27.055 23.005s2.24-2.45 3.099-4.297c1.144-2.47.707-3.103.707-3.103s.108 1.232-.923 3.137c-1.036 1.905-2.878 4.262-2.878 4.262h-.005Z"/></g><path fill="url(#ag)" d="M35.305 56.183c1.203 1.32 4.993 1.571 6.879 1.571 2.028 0 3.098-.447 3.599-.805 0 0 .481-2.357.481-3.054 0 0-1.095-1.199-4.841-1.238-3.742-.039-5.677.776-6.03 1.13l-.088 2.39v.006Z"/><path fill="url(#ah)" d="M35.393 53.792c-.025.515 1.954 1.335 4.792 1.384 2.838.05 5.868-.442 6.08-1.276.024-.094-.084-.644-1.739-1.07-1.655-.428-3.977-.467-5.946-.227-2.362.285-3.163.742-3.182 1.194l-.005-.005Z"/><path fill="#fff" d="M41.796 55.044c.55.024 3.123-.206 3.51-.462.389-.255-4.698-1.527-5.19-1.802-.49-.275-2.145-.25-3.014.157-.87.408 2.037.727 3.005 1.027.967.294-1.026.962 1.694 1.085l-.005-.005Z" opacity=".5" style="mix-blend-mode:soft-light"/><path fill="url(#ai)" d="M36.571 53.703c-.063.285 1.744.977 4.532.86 3.114-.133 3.983-.462 3.992-.752.01-.285-1.458-1.036-4.227-1.036-2.136 0-4.203.496-4.297.928Z"/><path fill="#FF9304" d="M36.792 53.964c.172-.315 1.871-.644 4.405-.639 2.533 0 3.741.54 3.746.683.005.142-1.89.662-4.605.574-2.72-.088-3.546-.618-3.546-.618Z"/><path fill="#D42F55" d="M42.331 54.543s2.706-.167 2.765-.727c.039-.393-1.655-.85-2.863-.972 0 0-.86.407-.815.486.044.074 2.602.29 2.583.629-.02.338-1.67.579-1.67.579v.005Z" opacity=".5" style="mix-blend-mode:multiply"/><path fill="#fff" d="M44.658 54.779s1.115-.236-.147-.374c-.515-.054-2.023.226-2.018.423 0 .191.51.147 1.021.117.825-.044 1.15-.166 1.15-.166h-.006ZM39.184 52.878s-.349-.24-.776-.172c-.427.074-.177.315-.177.315s.805-.128.957-.148l-.004.005Z"/><path fill="#FFE016" d="M38.992 52.898s-1.87.142-2.347.545c-.476.403.388.77 1.463.918 0 0-1.605-.31-1.438-.731.166-.423 2.322-.732 2.322-.732Z"/><path fill="#FFE016" d="M37.657 52.731s-2.235.236-2.264.987c-.03.751 2.146 1.178 2.597 1.252 0 0-2.661-.55-2.474-1.277.186-.726 2.14-.962 2.14-.962Z"/><path fill="#D42F55" d="M44.948 52.947s1.243.285 1.316.948c.025.206-.398 2.75-.481 3.054 0 0-.138.123-.412.24 0 0 .235-.127.353-.378.118-.25.418-2.578.442-2.852.03-.275-.58-.835-1.223-1.012h.005ZM35.393 53.718s-.108 1.836-.089 2.465c0 0 .433.486 1.385.825 0 0-1.139-.663-1.227-.904-.089-.24-.07-2.391-.07-2.391v.005Z" opacity=".8" style="mix-blend-mode:multiply"/><path fill="#fff" d="M42.537 55.397c-.412.51-.84 2.23-.697 2.264.142.034 2.131.147 3.373-.467.388-.191.639-2.435.05-2.386-.585.049-2.534.349-2.726.59Z" style="mix-blend-mode:soft-light"/><path fill="#E02774" d="M36.792 54.74c-.427-.138-.618 1.846-.447 1.973.172.128.398.324 2.377.648 1.984.324 1.753.025 1.905-.093.152-.118.275-2.008-.069-2.008-.343 0-2.41-.079-3.77-.52h.004Z" opacity=".2" style="mix-blend-mode:multiply"/><path fill="#fff" d="M35.452 54.15c-.03.324-.04 1.954.088 2.072.128.118.457.285.565.236.108-.05.172-1.7.108-1.773-.059-.069-.742-.776-.761-.535Z" opacity=".5" style="mix-blend-mode:soft-light"/><path fill="#FFE016" d="M37.877 54.97s3.276.535 5.294.236c2.695-.398 2.98-1.11 2.98-1.11s-.972.766-3.133.943c-2.16.176-5.14-.074-5.14-.074v.005Z"/><path fill="#D40C55" d="M41.864 57.754s1.037-2.303 2.245-2.686c1.207-.383 1.674 1.88 1.674 1.88s-1.095.713-2.51.757l-1.413.05h.005Z" opacity=".5" style="mix-blend-mode:multiply"/><path fill="url(#aj)" d="M44.177 57.617c1.326 1.286 5.25 1.296 7.194 1.173 2.087-.132 3.167-.663 3.658-1.065 0 0 .344-2.46.3-3.177 0 0-1.208-1.169-5.068-.963-3.86.206-5.799 1.164-6.143 1.557l.064 2.47-.005.005Z"/><path fill="url(#ak)" d="M44.114 55.147c.01.53 2.101 1.252 5.028 1.114 2.926-.132 6.02-.834 6.187-1.708.02-.099-.128-.658-1.866-.992-1.739-.334-4.13-.221-6.148.152-2.416.447-3.211.967-3.206 1.434h.005Z"/><path fill="#fff" d="M50.791 56.02c.57-.009 3.207-.412 3.59-.701.383-.29-4.945-1.272-5.47-1.523-.526-.255-2.23-.117-3.099.354-.869.476 2.151.619 3.163.864 1.016.246-.997 1.06 1.816 1.007Z" opacity=".5" style="mix-blend-mode:soft-light"/><path fill="url(#al)" d="M45.321 54.98c-.044.294 1.861.898 4.724.594 3.201-.339 4.076-.737 4.07-1.031-.004-.295-1.57-.972-4.424-.796-2.2.138-4.3.781-4.37 1.233Z"/><path fill="#FF9304" d="M45.567 55.23c.157-.338 1.886-.78 4.498-.942 2.612-.158 3.894.314 3.908.461.015.147-1.905.805-4.714.889-2.808.083-3.697-.408-3.697-.408h.005Z"/><path fill="#D42F55" d="M51.312 55.466s2.78-.344 2.804-.928c.02-.408-1.763-.766-3.015-.815 0 0-.86.476-.81.55.049.073 2.7.132 2.705.48 0 .35-1.684.708-1.684.708v.005Z" opacity=".5" style="mix-blend-mode:multiply"/><path fill="#fff" d="M53.728 55.564s1.134-.314-.177-.373c-.535-.025-2.072.363-2.057.565.014.2.535.117 1.06.054.845-.099 1.174-.246 1.174-.246ZM47.963 53.958s-.373-.225-.815-.122c-.437.103-.162.339-.162.339s.82-.187.977-.212v-.005Z"/><path fill="#FFE016" d="M47.767 53.988s-1.92.265-2.387.717c-.466.452.452.77 1.567.854 0 0-1.675-.216-1.532-.663.142-.447 2.347-.908 2.347-.908h.005Z"/><path fill="#FFE016" d="M46.377 53.904s-2.288.388-2.273 1.164c.014.776 2.288 1.076 2.76 1.12 0 0-2.78-.398-2.637-1.154.147-.761 2.145-1.13 2.145-1.13h.005Z"/><path fill="#D42F55" d="M53.91 53.659s1.207.24 1.423.835c.074.196-.235 2.916-.3 3.236 0 0-.137.137-.407.275 0 0 .231-.148.34-.413.107-.265.26-2.686.274-2.97.01-.285-.648-.826-1.326-.963h-.005ZM44.109 55.068s.005 1.9.068 2.549c0 0 .477.471 1.478.76 0 0-1.217-.608-1.325-.849-.103-.245-.226-2.46-.226-2.46h.005Z" opacity=".8" style="mix-blend-mode:multiply"/><path fill="#fff" d="M51.582 56.335c-.388.555-.722 2.352-.575 2.382.153.029 2.205.014 3.447-.703.388-.22.501-2.553-.103-2.465-.599.089-2.587.52-2.774.786h.005Z" style="mix-blend-mode:soft-light"/><path fill="#E02774" d="M45.616 56.03c-.452-.112-.516 1.945-.329 2.068s.432.31 2.494.51c2.063.202 1.807-.088 1.96-.22.152-.133.157-2.087-.202-2.068-.358.02-2.49.074-3.923-.29Z" opacity=".2" style="mix-blend-mode:multiply"/><path fill="#fff" d="M44.197 55.51c-.01.339.084 2.018.226 2.126.142.108.49.26.599.206.108-.053.064-1.762 0-1.831-.064-.069-.81-.751-.82-.5h-.005Z" opacity=".5" style="mix-blend-mode:soft-light"/><path fill="#FFE016" d="M46.75 56.198s3.413.338 5.47-.099c2.755-.584 3-1.335 3-1.335s-.952.854-3.167 1.178c-2.214.324-5.303.256-5.303.256Z"/><path fill="url(#am)" d="M25.857 1.831c.187-.176.197-1.08.197-1.08s.024.953.142 1.051c.113.098.8.23.8.23s-.653.025-.775.133c-.084.074-.168 1.002-.168 1.002s-.068-.825-.191-.943c-.128-.118-.697-.191-.697-.191s.555-.064.697-.202h-.005Z"/><path fill="url(#an)" d="M28.037 1.96a1.958 1.958 0 1 1-3.916 0 1.958 1.958 0 0 1 3.916 0Z" opacity=".6" style="mix-blend-mode:color-dodge"/><path fill="url(#ao)" d="M47.9 10.459c.294-.285.313-1.724.313-1.724s.045 1.518.231 1.68c.182.157 1.277.368 1.277.368s-1.046.04-1.237.216c-.133.123-.27 1.6-.27 1.6s-.109-1.315-.31-1.507c-.201-.186-1.115-.31-1.115-.31s.884-.102 1.11-.318v-.005Z"/><path fill="url(#ap)" d="M51.386 10.665a3.135 3.135 0 0 1-3.133 3.133 3.135 3.135 0 0 1-3.133-3.133 3.135 3.135 0 0 1 3.133-3.133 3.135 3.135 0 0 1 3.133 3.133Z" opacity=".6" style="mix-blend-mode:color-dodge"/><path fill="url(#aq)" d="M49.623 16.567c.147-.137.157-.85.157-.85s.02.752.113.83c.088.079.628.182.628.182s-.515.02-.609.108c-.068.059-.132.79-.132.79s-.054-.647-.152-.74c-.099-.094-.55-.153-.55-.153s.437-.05.55-.157l-.005-.01Z"/><path fill="url(#ar)" d="M51.346 16.67a1.547 1.547 0 1 1-3.093 0 1.547 1.547 0 0 1 3.093 0Z" opacity=".6" style="mix-blend-mode:color-dodge"/></g><defs><linearGradient id="e" x1="20.722" x2="29.982" y1="20.923" y2="16.889" gradientUnits="userSpaceOnUse"><stop offset=".05" stop-color="#FF3F00"/><stop offset="1" stop-color="#FF6A03"/></linearGradient><linearGradient id="f" x1="20.098" x2="29.627" y1="18.201" y2="17.194" gradientUnits="userSpaceOnUse"><stop stop-color="#FFA900"/><stop offset="1" stop-color="#FFC600"/></linearGradient><linearGradient id="g" x1="20.946" x2="28.702" y1="19.347" y2="15.968" gradientUnits="userSpaceOnUse"><stop stop-color="#FF7C04"/><stop offset="1" stop-color="#D92000"/></linearGradient><linearGradient id="h" x1="39.921" x2="50.007" y1="32.12" y2="31.591" gradientUnits="userSpaceOnUse"><stop offset=".05" stop-color="#FF3F00"/><stop offset="1" stop-color="#FF6A03"/></linearGradient><linearGradient id="i" x1="40.292" x2="49.569" y1="29.352" y2="31.752" gradientUnits="userSpaceOnUse"><stop stop-color="#FFA900"/><stop offset="1" stop-color="#FFC600"/></linearGradient><linearGradient id="j" x1="40.684" x2="49.137" y1="30.723" y2="30.28" gradientUnits="userSpaceOnUse"><stop stop-color="#FF7C04"/><stop offset="1" stop-color="#D92000"/></linearGradient><linearGradient id="k" x1="18.106" x2="28.188" y1="25.935" y2="26.552" gradientUnits="userSpaceOnUse"><stop offset=".05" stop-color="#FF3F00"/><stop offset="1" stop-color="#FF6A03"/></linearGradient><linearGradient id="l" x1="18.788" x2="27.733" y1="23.227" y2="26.662" gradientUnits="userSpaceOnUse"><stop stop-color="#FFA900"/><stop offset="1" stop-color="#FFC600"/></linearGradient><linearGradient id="m" x1="19.022" x2="27.467" y1="24.634" y2="25.15" gradientUnits="userSpaceOnUse"><stop stop-color="#FF7C04"/><stop offset="1" stop-color="#D92000"/></linearGradient><linearGradient id="n" x1="19.354" x2="29.435" y1="22.991" y2="23.608" gradientUnits="userSpaceOnUse"><stop offset=".05" stop-color="#FF3F00"/><stop offset="1" stop-color="#FF6A03"/></linearGradient><linearGradient id="o" x1="20.036" x2="28.981" y1="20.278" y2="23.718" gradientUnits="userSpaceOnUse"><stop stop-color="#FFA900"/><stop offset="1" stop-color="#FFC600"/></linearGradient><linearGradient id="p" x1="20.27" x2="28.719" y1="21.684" y2="22.201" gradientUnits="userSpaceOnUse"><stop stop-color="#FF7C04"/><stop offset="1" stop-color="#D92000"/></linearGradient><linearGradient id="q" x1="24.193" x2="34.023" y1="21.188" y2="23.51" gradientUnits="userSpaceOnUse"><stop offset=".05" stop-color="#FF3F00"/><stop offset="1" stop-color="#FF6A03"/></linearGradient><linearGradient id="r" x1="25.326" x2="33.555" y1="18.635" y2="23.546" gradientUnits="userSpaceOnUse"><stop stop-color="#FFA900"/><stop offset="1" stop-color="#FFC600"/></linearGradient><linearGradient id="s" x1="25.317" x2="33.551" y1="20.061" y2="22.006" gradientUnits="userSpaceOnUse"><stop stop-color="#FF7C04"/><stop offset="1" stop-color="#D92000"/></linearGradient><linearGradient id="t" x1="38.998" x2="48.871" y1="26.012" y2="23.879" gradientUnits="userSpaceOnUse"><stop offset=".05" stop-color="#FF3F00"/><stop offset="1" stop-color="#FF6A03"/></linearGradient><linearGradient id="u" x1="38.922" x2="48.463" y1="23.22" y2="24.108" gradientUnits="userSpaceOnUse"><stop stop-color="#FFA900"/><stop offset="1" stop-color="#FFC600"/></linearGradient><linearGradient id="v" x1="39.528" x2="47.802" y1="24.511" y2="22.723" gradientUnits="userSpaceOnUse"><stop stop-color="#FF7C04"/><stop offset="1" stop-color="#D92000"/></linearGradient><linearGradient id="w" x1="38.214" x2="47.607" y1="34.132" y2="28.485" gradientUnits="userSpaceOnUse"><stop stop-color="#FF9600"/><stop offset="1" stop-color="#FFA900"/></linearGradient><linearGradient id="x" x1="37.167" x2="47.297" y1="31.295" y2="28.866" gradientUnits="userSpaceOnUse"><stop stop-color="#FFCD00"/><stop offset="1" stop-color="#FFE834"/></linearGradient><linearGradient id="y" x1="38.513" x2="45.819" y1="32.17" y2="27.779" gradientUnits="userSpaceOnUse"><stop stop-color="#FF7C04"/><stop offset="1" stop-color="#D92000"/></linearGradient><linearGradient id="z" x1="33.132" x2="44.45" y1="31.137" y2="31.119" gradientUnits="userSpaceOnUse"><stop stop-color="#FF9600"/><stop offset="1" stop-color="#FFA900"/></linearGradient><linearGradient id="A" x1="33.707" x2="43.969" y1="28.067" y2="31.292" gradientUnits="userSpaceOnUse"><stop stop-color="#FFCD00"/><stop offset="1" stop-color="#FFE834"/></linearGradient><linearGradient id="B" x1="34.436" x2="43.24" y1="29.554" y2="29.54" gradientUnits="userSpaceOnUse"><stop stop-color="#FF7C04"/><stop offset="1" stop-color="#D92000"/></linearGradient><linearGradient id="C" x1="32.629" x2="37.878" y1="23.716" y2="14.873" gradientUnits="userSpaceOnUse"><stop stop-color="#FF7AB0"/><stop offset=".56" stop-color="#EB0029"/><stop offset="1" stop-color="#9A00BF"/></linearGradient><linearGradient id="D" x1="32.164" x2="31.799" y1="18.669" y2="21.619" gradientUnits="userSpaceOnUse"><stop offset=".02" stop-color="#FF2CFE"/><stop offset=".45" stop-color="#8E188D"/><stop offset="1"/></linearGradient><linearGradient id="E" x1="33.033" x2="33.26" y1="13.608" y2="15.544" gradientUnits="userSpaceOnUse"><stop offset=".02" stop-color="#FF1400"/><stop offset="1"/></linearGradient><linearGradient id="F" x1="38.979" x2="34.829" y1="18.941" y2="17.278" gradientUnits="userSpaceOnUse"><stop offset=".02" stop-color="#FF2CFE"/><stop offset="1"/></linearGradient><linearGradient id="G" x1="36.975" x2="37.142" y1="21.114" y2="22.538" gradientUnits="userSpaceOnUse"><stop offset=".02" stop-color="#FF1400"/><stop offset="1"/></linearGradient><linearGradient id="H" x1="34.409" x2="34.972" y1="18.499" y2="18.077" gradientUnits="userSpaceOnUse"><stop stop-color="#FF134B"/><stop offset="1" stop-color="#97003B"/></linearGradient><linearGradient id="I" x1="20.405" x2="31.264" y1="26.587" y2="28.069" gradientUnits="userSpaceOnUse"><stop stop-color="#FF9600"/><stop offset="1" stop-color="#FFA900"/></linearGradient><linearGradient id="J" x1="21.366" x2="30.78" y1="23.72" y2="28.166" gradientUnits="userSpaceOnUse"><stop stop-color="#FFCD00"/><stop offset="1" stop-color="#FFE834"/></linearGradient><linearGradient id="K" x1="21.868" x2="30.314" y1="25.241" y2="26.393" gradientUnits="userSpaceOnUse"><stop stop-color="#FF7C04"/><stop offset="1" stop-color="#D92000"/></linearGradient><linearGradient id="L" x1="26.78" x2="37.556" y1="31.445" y2="34.907" gradientUnits="userSpaceOnUse"><stop stop-color="#FF9600"/><stop offset="1" stop-color="#FFA900"/></linearGradient><linearGradient id="M" x1="28.275" x2="37.05" y1="28.702" y2="34.925" gradientUnits="userSpaceOnUse"><stop stop-color="#FFCD00"/><stop offset="1" stop-color="#FFE834"/></linearGradient><linearGradient id="N" x1="28.505" x2="36.892" y1="30.344" y2="33.038" gradientUnits="userSpaceOnUse"><stop stop-color="#FF7C04"/><stop offset="1" stop-color="#D92000"/></linearGradient><linearGradient id="O" x1="23.937" x2="35.255" y1="28.986" y2="28.968" gradientUnits="userSpaceOnUse"><stop stop-color="#FF9600"/><stop offset="1" stop-color="#FFA900"/></linearGradient><linearGradient id="P" x1="24.511" x2="34.774" y1="25.916" y2="29.136" gradientUnits="userSpaceOnUse"><stop stop-color="#FFCD00"/><stop offset="1" stop-color="#FFE834"/></linearGradient><linearGradient id="Q" x1="25.24" x2="34.044" y1="27.403" y2="27.389" gradientUnits="userSpaceOnUse"><stop stop-color="#FF7C04"/><stop offset="1" stop-color="#D92000"/></linearGradient><linearGradient id="R" x1="28.518" x2="39.841" y1="25.979" y2="25.961" gradientUnits="userSpaceOnUse"><stop stop-color="#FF9600"/><stop offset="1" stop-color="#FFA900"/></linearGradient><linearGradient id="S" x1="29.098" x2="39.36" y1="22.909" y2="26.133" gradientUnits="userSpaceOnUse"><stop stop-color="#FFCD00"/><stop offset="1" stop-color="#FFE834"/></linearGradient><linearGradient id="T" x1="29.827" x2="38.631" y1="24.395" y2="24.382" gradientUnits="userSpaceOnUse"><stop stop-color="#FF7C04"/><stop offset="1" stop-color="#D92000"/></linearGradient><linearGradient id="U" x1="31.229" x2="42.552" y1="22.969" y2="22.951" gradientUnits="userSpaceOnUse"><stop stop-color="#FF9600"/><stop offset="1" stop-color="#FFA900"/></linearGradient><linearGradient id="V" x1="31.808" x2="42.071" y1="19.899" y2="23.119" gradientUnits="userSpaceOnUse"><stop stop-color="#FFCD00"/><stop offset="1" stop-color="#FFE834"/></linearGradient><linearGradient id="W" x1="32.538" x2="41.342" y1="21.386" y2="21.372" gradientUnits="userSpaceOnUse"><stop stop-color="#FF7C04"/><stop offset="1" stop-color="#D92000"/></linearGradient><linearGradient id="X" x1="34.382" x2="45.164" y1="34.908" y2="32.945" gradientUnits="userSpaceOnUse"><stop stop-color="#FF9600"/><stop offset="1" stop-color="#FFA900"/></linearGradient><linearGradient id="Y" x1="34.405" x2="44.734" y1="31.884" y2="33.188" gradientUnits="userSpaceOnUse"><stop stop-color="#FFCD00"/><stop offset="1" stop-color="#FFE834"/></linearGradient><linearGradient id="Z" x1="35.353" x2="43.74" y1="33.174" y2="31.647" gradientUnits="userSpaceOnUse"><stop stop-color="#FF7C04"/><stop offset="1" stop-color="#D92000"/></linearGradient><linearGradient id="aa" x1="36.444" x2="46.068" y1="31.659" y2="26.414" gradientUnits="userSpaceOnUse"><stop stop-color="#FF9600"/><stop offset="1" stop-color="#FFA900"/></linearGradient><linearGradient id="ab" x1="35.519" x2="45.738" y1="28.78" y2="26.784" gradientUnits="userSpaceOnUse"><stop stop-color="#FFCD00"/><stop offset="1" stop-color="#FFE834"/></linearGradient><linearGradient id="ac" x1="36.826" x2="44.311" y1="29.711" y2="25.632" gradientUnits="userSpaceOnUse"><stop stop-color="#FF7C04"/><stop offset="1" stop-color="#D92000"/></linearGradient><linearGradient id="ad" x1="25.83" x2="31.833" y1="25.215" y2="16.046" gradientUnits="userSpaceOnUse"><stop stop-color="#FF9600"/><stop offset="1" stop-color="#FFA900"/></linearGradient><linearGradient id="ae" x1="23.654" x2="31.713" y1="23.116" y2="16.525" gradientUnits="userSpaceOnUse"><stop stop-color="#FFCD00"/><stop offset="1" stop-color="#FFE834"/></linearGradient><linearGradient id="af" x1="25.247" x2="29.915" y1="23.319" y2="16.187" gradientUnits="userSpaceOnUse"><stop stop-color="#FF7C04"/><stop offset="1" stop-color="#D92000"/></linearGradient><linearGradient id="ag" x1="35.305" x2="46.264" y1="55.206" y2="55.206" gradientUnits="userSpaceOnUse"><stop stop-color="#FF9600"/><stop offset="1" stop-color="#FFA900"/></linearGradient><linearGradient id="ah" x1="35.869" x2="45.798" y1="52.24" y2="55.373" gradientUnits="userSpaceOnUse"><stop stop-color="#FFCD00"/><stop offset="1" stop-color="#FFE834"/></linearGradient><linearGradient id="ai" x1="36.571" x2="45.096" y1="53.679" y2="53.679" gradientUnits="userSpaceOnUse"><stop stop-color="#FF7C04"/><stop offset="1" stop-color="#D92000"/></linearGradient><linearGradient id="aj" x1="44.112" x2="55.413" y1="56.615" y2="55.906" gradientUnits="userSpaceOnUse"><stop stop-color="#FF9600"/><stop offset="1" stop-color="#FFA900"/></linearGradient><linearGradient id="ak" x1="44.503" x2="54.943" y1="53.516" y2="56.103" gradientUnits="userSpaceOnUse"><stop stop-color="#FFCD00"/><stop offset="1" stop-color="#FFE834"/></linearGradient><linearGradient id="al" x1="45.322" x2="54.108" y1="54.955" y2="54.404" gradientUnits="userSpaceOnUse"><stop stop-color="#FF7C04"/><stop offset="1" stop-color="#D92000"/></linearGradient><linearGradient id="am" x1="27.851" x2="25.602" y1="1.959" y2="1.959" gradientUnits="userSpaceOnUse"><stop stop-color="#655ED6"/><stop offset="1" stop-color="#C88FF0"/></linearGradient><linearGradient id="ao" x1="51.086" x2="47.496" y1="10.665" y2="10.665" gradientUnits="userSpaceOnUse"><stop stop-color="#655ED6"/><stop offset="1" stop-color="#C88FF0"/></linearGradient><linearGradient id="aq" x1="51.199" x2="49.426" y1="16.67" y2="16.67" gradientUnits="userSpaceOnUse"><stop stop-color="#655ED6"/><stop offset="1" stop-color="#C88FF0"/></linearGradient><radialGradient id="b" cx="0" cy="0" r="1" gradientTransform="translate(23.648 26.443) scale(23.6477)" gradientUnits="userSpaceOnUse"><stop offset=".03" stop-color="#8E37E2"/><stop offset=".13" stop-color="#8433D2"/><stop offset=".33" stop-color="#6B29AB"/><stop offset=".6" stop-color="#43196A"/><stop offset=".93" stop-color="#0C0413"/><stop offset="1"/></radialGradient><radialGradient id="c" cx="0" cy="0" r="1" gradientTransform="translate(32.32 44.29) scale(27.9098)" gradientUnits="userSpaceOnUse"><stop stop-color="#0CAEB8"/><stop offset="1" stop-color="#0C5B6C"/></radialGradient><radialGradient id="an" cx="0" cy="0" r="1" gradientTransform="translate(26.078 1.96) scale(1.95918)" gradientUnits="userSpaceOnUse"><stop stop-color="#27A0D7"/><stop offset=".1" stop-color="#2495C9"/><stop offset=".3" stop-color="#1E7BA5"/><stop offset=".57" stop-color="#13506B"/><stop offset=".89" stop-color="#05151C"/><stop offset="1"/></radialGradient><radialGradient id="ap" cx="0" cy="0" r="1" gradientTransform="translate(48.253 10.665) scale(3.13273)" gradientUnits="userSpaceOnUse"><stop stop-color="#27A0D7"/><stop offset=".1" stop-color="#2495C9"/><stop offset=".3" stop-color="#1E7BA5"/><stop offset=".57" stop-color="#13506B"/><stop offset=".89" stop-color="#05151C"/><stop offset="1"/></radialGradient><radialGradient id="ar" cx="0" cy="0" r="1" gradientTransform="translate(49.8 16.67) scale(1.54672)" gradientUnits="userSpaceOnUse"><stop stop-color="#27A0D7"/><stop offset=".1" stop-color="#2495C9"/><stop offset=".3" stop-color="#1E7BA5"/><stop offset=".57" stop-color="#13506B"/><stop offset=".89" stop-color="#05151C"/><stop offset="1"/></radialGradient><clipPath id="a"><path fill="#fff" d="M0 0h64v64H0z"/></clipPath></defs></svg>