<svg width="128" height="128" viewBox="0 0 128 128" fill="none" xmlns="http://www.w3.org/2000/svg">
<g filter="url(#filter0_d_1_536)">
<g filter="url(#filter1_d_1_536)">
<path d="M112 56C112 78.0914 94.0914 96 72 96C49.9086 96 32 78.0914 32 56C32 33.9086 49.9086 16 72 16C94.0914 16 112 33.9086 112 56Z" fill="url(#paint0_linear_1_536)"/>
</g>
<g filter="url(#filter2_dd_1_536)">
<path d="M96 72C96 94.0914 78.0914 112 56 112C33.9086 112 16 94.0914 16 72C16 49.9086 33.9086 32 56 32C78.0914 32 96 49.9086 96 72Z" fill="white" fill-opacity="0.4"/>
</g>
<g filter="url(#filter3_dd_1_536)">
<path fill-rule="evenodd" clip-rule="evenodd" d="M55.0062 103.985C53.1535 103.928 52.6777 101.531 54.1386 100.39C62.5755 93.8015 67.9999 83.5342 67.9999 72C67.9999 60.4658 62.5755 50.1985 54.1386 43.6099C52.6777 42.4691 53.1535 40.0717 55.0062 40.0151C55.3362 40.0051 55.6675 40 55.9999 40C73.673 40 87.9999 54.3269 87.9999 72C87.9999 89.6731 73.673 104 55.9999 104C55.6675 104 55.3362 103.995 55.0062 103.985Z" fill="white" fill-opacity="0.6"/>
</g>
</g>
<defs>
<filter id="filter0_d_1_536" x="12" y="12" width="112" height="112" filterUnits="userSpaceOnUse" color-interpolation-filters="sRGB">
<feFlood flood-opacity="0" result="BackgroundImageFix"/>
<feColorMatrix in="SourceAlpha" type="matrix" values="0 0 0 0 0 0 0 0 0 0 0 0 0 0 0 0 0 0 127 0" result="hardAlpha"/>
<feOffset dx="4" dy="4"/>
<feGaussianBlur stdDeviation="4"/>
<feColorMatrix type="matrix" values="0 0 0 0 0.984314 0 0 0 0 0.54902 0 0 0 0 0.305882 0 0 0 0.4 0"/>
<feBlend mode="normal" in2="BackgroundImageFix" result="effect1_dropShadow_1_536"/>
<feBlend mode="normal" in="SourceGraphic" in2="effect1_dropShadow_1_536" result="shape"/>
</filter>
<filter id="filter1_d_1_536" x="24" y="8" width="96" height="96" filterUnits="userSpaceOnUse" color-interpolation-filters="sRGB">
<feFlood flood-opacity="0" result="BackgroundImageFix"/>
<feColorMatrix in="SourceAlpha" type="matrix" values="0 0 0 0 0 0 0 0 0 0 0 0 0 0 0 0 0 0 127 0" result="hardAlpha"/>
<feOffset/>
<feGaussianBlur stdDeviation="4"/>
<feComposite in2="hardAlpha" operator="out"/>
<feColorMatrix type="matrix" values="0 0 0 0 1 0 0 0 0 1 0 0 0 0 1 0 0 0 0.8 0"/>
<feBlend mode="normal" in2="BackgroundImageFix" result="effect1_dropShadow_1_536"/>
<feBlend mode="normal" in="SourceGraphic" in2="effect1_dropShadow_1_536" result="shape"/>
</filter>
<filter id="filter2_dd_1_536" x="8" y="28" width="96" height="96" filterUnits="userSpaceOnUse" color-interpolation-filters="sRGB">
<feFlood flood-opacity="0" result="BackgroundImageFix"/>
<feColorMatrix in="SourceAlpha" type="matrix" values="0 0 0 0 0 0 0 0 0 0 0 0 0 0 0 0 0 0 127 0" result="hardAlpha"/>
<feOffset/>
<feGaussianBlur stdDeviation="2"/>
<feComposite in2="hardAlpha" operator="out"/>
<feColorMatrix type="matrix" values="0 0 0 0 1 0 0 0 0 1 0 0 0 0 1 0 0 0 1 0"/>
<feBlend mode="normal" in2="BackgroundImageFix" result="effect1_dropShadow_1_536"/>
<feColorMatrix in="SourceAlpha" type="matrix" values="0 0 0 0 0 0 0 0 0 0 0 0 0 0 0 0 0 0 127 0" result="hardAlpha"/>
<feOffset dy="4"/>
<feGaussianBlur stdDeviation="4"/>
<feComposite in2="hardAlpha" operator="out"/>
<feColorMatrix type="matrix" values="0 0 0 0 1 0 0 0 0 1 0 0 0 0 1 0 0 0 1 0"/>
<feBlend mode="normal" in2="effect1_dropShadow_1_536" result="effect2_dropShadow_1_536"/>
<feBlend mode="normal" in="SourceGraphic" in2="effect2_dropShadow_1_536" result="shape"/>
</filter>
<filter id="filter3_dd_1_536" x="45.2793" y="36" width="50.7206" height="80" filterUnits="userSpaceOnUse" color-interpolation-filters="sRGB">
<feFlood flood-opacity="0" result="BackgroundImageFix"/>
<feColorMatrix in="SourceAlpha" type="matrix" values="0 0 0 0 0 0 0 0 0 0 0 0 0 0 0 0 0 0 127 0" result="hardAlpha"/>
<feOffset/>
<feGaussianBlur stdDeviation="2"/>
<feComposite in2="hardAlpha" operator="out"/>
<feColorMatrix type="matrix" values="0 0 0 0 1 0 0 0 0 1 0 0 0 0 1 0 0 0 1 0"/>
<feBlend mode="normal" in2="BackgroundImageFix" result="effect1_dropShadow_1_536"/>
<feColorMatrix in="SourceAlpha" type="matrix" values="0 0 0 0 0 0 0 0 0 0 0 0 0 0 0 0 0 0 127 0" result="hardAlpha"/>
<feOffset dy="4"/>
<feGaussianBlur stdDeviation="4"/>
<feComposite in2="hardAlpha" operator="out"/>
<feColorMatrix type="matrix" values="0 0 0 0 1 0 0 0 0 1 0 0 0 0 1 0 0 0 1 0"/>
<feBlend mode="normal" in2="effect1_dropShadow_1_536" result="effect2_dropShadow_1_536"/>
<feBlend mode="normal" in="SourceGraphic" in2="effect2_dropShadow_1_536" result="shape"/>
</filter>
<linearGradient id="paint0_linear_1_536" x1="72" y1="16" x2="72" y2="96" gradientUnits="userSpaceOnUse">
<stop stop-color="#FA9E49"/>
<stop offset="1" stop-color="#FA5B5B"/>
</linearGradient>
</defs>
</svg>
