<svg width="128" height="128" viewBox="0 0 128 128" fill="none" xmlns="http://www.w3.org/2000/svg">
<g filter="url(#filter0_d_1_556)">
<g filter="url(#filter1_d_1_556)">
<path d="M112 56C112 78.0914 94.0914 96 72 96C49.9086 96 32 78.0914 32 56C32 33.9086 49.9086 16 72 16C94.0914 16 112 33.9086 112 56Z" fill="url(#paint0_linear_1_556)"/>
</g>
<g filter="url(#filter2_dd_1_556)">
<path fill-rule="evenodd" clip-rule="evenodd" d="M56 112C78.0914 112 96 94.0914 96 72C96 49.9086 78.0914 32 56 32C33.9086 32 16 49.9086 16 72C16 94.0914 33.9086 112 56 112ZM62.2183 51.8411C62.0213 52.1822 61.8675 52.5364 61.7551 52.8974C55.1763 51.6691 50.4573 56.3706 48.6883 59.4345L41.1041 72.5708L34.3609 68.6776C32.926 67.8492 31.0912 68.3408 30.2628 69.7757C29.4343 71.2105 29.926 73.0453 31.3609 73.8737L67.3253 94.6378C68.7602 95.4662 70.5949 94.9746 71.4234 93.5397C72.2518 92.1049 71.7602 90.2701 70.3253 89.4417L63.5819 85.5484L71.1661 72.412C72.9117 69.3885 74.6021 63.0795 70.4628 58.0288C70.7448 57.734 70.9963 57.4011 71.2094 57.0321C72.6429 54.5493 71.7922 51.3745 69.3093 49.941C66.8265 48.5076 63.6517 49.3582 62.2183 51.8411ZM44.5219 92.9091C42.0391 91.4756 41.1884 88.3008 42.6219 85.818L51.613 91.009C50.1795 93.4919 47.0048 94.3425 44.5219 92.9091Z" fill="white" fill-opacity="0.4"/>
</g>
</g>
<defs>
<filter id="filter0_d_1_556" x="12" y="12" width="112" height="112" filterUnits="userSpaceOnUse" color-interpolation-filters="sRGB">
<feFlood flood-opacity="0" result="BackgroundImageFix"/>
<feColorMatrix in="SourceAlpha" type="matrix" values="0 0 0 0 0 0 0 0 0 0 0 0 0 0 0 0 0 0 127 0" result="hardAlpha"/>
<feOffset dx="4" dy="4"/>
<feGaussianBlur stdDeviation="4"/>
<feColorMatrix type="matrix" values="0 0 0 0 0.956863 0 0 0 0 0.364706 0 0 0 0 0.827451 0 0 0 0.2 0"/>
<feBlend mode="normal" in2="BackgroundImageFix" result="effect1_dropShadow_1_556"/>
<feBlend mode="normal" in="SourceGraphic" in2="effect1_dropShadow_1_556" result="shape"/>
</filter>
<filter id="filter1_d_1_556" x="24" y="8" width="96" height="96" filterUnits="userSpaceOnUse" color-interpolation-filters="sRGB">
<feFlood flood-opacity="0" result="BackgroundImageFix"/>
<feColorMatrix in="SourceAlpha" type="matrix" values="0 0 0 0 0 0 0 0 0 0 0 0 0 0 0 0 0 0 127 0" result="hardAlpha"/>
<feOffset/>
<feGaussianBlur stdDeviation="4"/>
<feComposite in2="hardAlpha" operator="out"/>
<feColorMatrix type="matrix" values="0 0 0 0 1 0 0 0 0 1 0 0 0 0 1 0 0 0 0.8 0"/>
<feBlend mode="normal" in2="BackgroundImageFix" result="effect1_dropShadow_1_556"/>
<feBlend mode="normal" in="SourceGraphic" in2="effect1_dropShadow_1_556" result="shape"/>
</filter>
<filter id="filter2_dd_1_556" x="8" y="28" width="96" height="96" filterUnits="userSpaceOnUse" color-interpolation-filters="sRGB">
<feFlood flood-opacity="0" result="BackgroundImageFix"/>
<feColorMatrix in="SourceAlpha" type="matrix" values="0 0 0 0 0 0 0 0 0 0 0 0 0 0 0 0 0 0 127 0" result="hardAlpha"/>
<feOffset/>
<feGaussianBlur stdDeviation="2"/>
<feComposite in2="hardAlpha" operator="out"/>
<feColorMatrix type="matrix" values="0 0 0 0 1 0 0 0 0 1 0 0 0 0 1 0 0 0 1 0"/>
<feBlend mode="normal" in2="BackgroundImageFix" result="effect1_dropShadow_1_556"/>
<feColorMatrix in="SourceAlpha" type="matrix" values="0 0 0 0 0 0 0 0 0 0 0 0 0 0 0 0 0 0 127 0" result="hardAlpha"/>
<feOffset dy="4"/>
<feGaussianBlur stdDeviation="4"/>
<feComposite in2="hardAlpha" operator="out"/>
<feColorMatrix type="matrix" values="0 0 0 0 1 0 0 0 0 1 0 0 0 0 1 0 0 0 1 0"/>
<feBlend mode="normal" in2="effect1_dropShadow_1_556" result="effect2_dropShadow_1_556"/>
<feBlend mode="normal" in="SourceGraphic" in2="effect2_dropShadow_1_556" result="shape"/>
</filter>
<linearGradient id="paint0_linear_1_556" x1="72" y1="16" x2="72" y2="96" gradientUnits="userSpaceOnUse">
<stop stop-color="#FC954B"/>
<stop offset="1" stop-color="#F45DD3"/>
</linearGradient>
</defs>
</svg>
