<svg width="128" height="128" viewBox="0 0 128 128" fill="none" xmlns="http://www.w3.org/2000/svg">
<g filter="url(#filter0_d_1_606)">
<g filter="url(#filter1_d_1_606)">
<g filter="url(#filter2_d_1_606)">
<path d="M112 56C112 78.0914 94.0914 96 72 96C49.9086 96 32 78.0914 32 56C32 33.9086 49.9086 16 72 16C94.0914 16 112 33.9086 112 56Z" fill="url(#paint0_linear_1_606)"/>
</g>
<g filter="url(#filter3_dd_1_606)">
<path d="M96 72C96 94.0914 78.0914 112 56 112C33.9086 112 16 94.0914 16 72C16 49.9086 33.9086 32 56 32C78.0914 32 96 49.9086 96 72Z" fill="white" fill-opacity="0.4"/>
</g>
<g filter="url(#filter4_dd_1_606)">
<path d="M82 72C82 69.2386 79.5823 67 76.6 67H61V51.4001C61 48.4177 58.7614 46.0001 56 46.0001C53.2386 46.0001 51 48.4177 51 51.4001V67H35.4C32.4177 67 30 69.2386 30 72C30 74.7614 32.4177 77 35.4 77H51V92.6001C51 95.5824 53.2386 98.0001 56 98.0001C58.7614 98.0001 61 95.5824 61 92.6001V77H76.6C79.5823 77 82 74.7614 82 72Z" fill="white" fill-opacity="0.6"/>
</g>
</g>
</g>
<defs>
<filter id="filter0_d_1_606" x="8" y="8" width="112" height="112" filterUnits="userSpaceOnUse" color-interpolation-filters="sRGB">
<feFlood flood-opacity="0" result="BackgroundImageFix"/>
<feColorMatrix in="SourceAlpha" type="matrix" values="0 0 0 0 0 0 0 0 0 0 0 0 0 0 0 0 0 0 127 0" result="hardAlpha"/>
<feOffset/>
<feGaussianBlur stdDeviation="4"/>
<feComposite in2="hardAlpha" operator="out"/>
<feColorMatrix type="matrix" values="0 0 0 0 1 0 0 0 0 1 0 0 0 0 1 0 0 0 0.8 0"/>
<feBlend mode="normal" in2="BackgroundImageFix" result="effect1_dropShadow_1_606"/>
<feBlend mode="normal" in="SourceGraphic" in2="effect1_dropShadow_1_606" result="shape"/>
</filter>
<filter id="filter1_d_1_606" x="12" y="12" width="112" height="112" filterUnits="userSpaceOnUse" color-interpolation-filters="sRGB">
<feFlood flood-opacity="0" result="BackgroundImageFix"/>
<feColorMatrix in="SourceAlpha" type="matrix" values="0 0 0 0 0 0 0 0 0 0 0 0 0 0 0 0 0 0 127 0" result="hardAlpha"/>
<feOffset dx="4" dy="4"/>
<feGaussianBlur stdDeviation="4"/>
<feColorMatrix type="matrix" values="0 0 0 0 0.545098 0 0 0 0 0.823529 0 0 0 0 0.192157 0 0 0 0.4 0"/>
<feBlend mode="normal" in2="BackgroundImageFix" result="effect1_dropShadow_1_606"/>
<feBlend mode="normal" in="SourceGraphic" in2="effect1_dropShadow_1_606" result="shape"/>
</filter>
<filter id="filter2_d_1_606" x="24" y="8" width="96" height="96" filterUnits="userSpaceOnUse" color-interpolation-filters="sRGB">
<feFlood flood-opacity="0" result="BackgroundImageFix"/>
<feColorMatrix in="SourceAlpha" type="matrix" values="0 0 0 0 0 0 0 0 0 0 0 0 0 0 0 0 0 0 127 0" result="hardAlpha"/>
<feOffset/>
<feGaussianBlur stdDeviation="4"/>
<feComposite in2="hardAlpha" operator="out"/>
<feColorMatrix type="matrix" values="0 0 0 0 1 0 0 0 0 1 0 0 0 0 1 0 0 0 0.8 0"/>
<feBlend mode="normal" in2="BackgroundImageFix" result="effect1_dropShadow_1_606"/>
<feBlend mode="normal" in="SourceGraphic" in2="effect1_dropShadow_1_606" result="shape"/>
</filter>
<filter id="filter3_dd_1_606" x="8" y="28" width="96" height="96" filterUnits="userSpaceOnUse" color-interpolation-filters="sRGB">
<feFlood flood-opacity="0" result="BackgroundImageFix"/>
<feColorMatrix in="SourceAlpha" type="matrix" values="0 0 0 0 0 0 0 0 0 0 0 0 0 0 0 0 0 0 127 0" result="hardAlpha"/>
<feOffset/>
<feGaussianBlur stdDeviation="2"/>
<feComposite in2="hardAlpha" operator="out"/>
<feColorMatrix type="matrix" values="0 0 0 0 1 0 0 0 0 1 0 0 0 0 1 0 0 0 1 0"/>
<feBlend mode="normal" in2="BackgroundImageFix" result="effect1_dropShadow_1_606"/>
<feColorMatrix in="SourceAlpha" type="matrix" values="0 0 0 0 0 0 0 0 0 0 0 0 0 0 0 0 0 0 127 0" result="hardAlpha"/>
<feOffset dy="4"/>
<feGaussianBlur stdDeviation="4"/>
<feComposite in2="hardAlpha" operator="out"/>
<feColorMatrix type="matrix" values="0 0 0 0 1 0 0 0 0 1 0 0 0 0 1 0 0 0 1 0"/>
<feBlend mode="normal" in2="effect1_dropShadow_1_606" result="effect2_dropShadow_1_606"/>
<feBlend mode="normal" in="SourceGraphic" in2="effect2_dropShadow_1_606" result="shape"/>
</filter>
<filter id="filter4_dd_1_606" x="22" y="42.0001" width="68" height="68" filterUnits="userSpaceOnUse" color-interpolation-filters="sRGB">
<feFlood flood-opacity="0" result="BackgroundImageFix"/>
<feColorMatrix in="SourceAlpha" type="matrix" values="0 0 0 0 0 0 0 0 0 0 0 0 0 0 0 0 0 0 127 0" result="hardAlpha"/>
<feOffset/>
<feGaussianBlur stdDeviation="2"/>
<feComposite in2="hardAlpha" operator="out"/>
<feColorMatrix type="matrix" values="0 0 0 0 1 0 0 0 0 1 0 0 0 0 1 0 0 0 1 0"/>
<feBlend mode="normal" in2="BackgroundImageFix" result="effect1_dropShadow_1_606"/>
<feColorMatrix in="SourceAlpha" type="matrix" values="0 0 0 0 0 0 0 0 0 0 0 0 0 0 0 0 0 0 127 0" result="hardAlpha"/>
<feOffset dy="4"/>
<feGaussianBlur stdDeviation="4"/>
<feComposite in2="hardAlpha" operator="out"/>
<feColorMatrix type="matrix" values="0 0 0 0 1 0 0 0 0 1 0 0 0 0 1 0 0 0 1 0"/>
<feBlend mode="normal" in2="effect1_dropShadow_1_606" result="effect2_dropShadow_1_606"/>
<feBlend mode="normal" in="SourceGraphic" in2="effect2_dropShadow_1_606" result="shape"/>
</filter>
<linearGradient id="paint0_linear_1_606" x1="72" y1="16" x2="72" y2="96" gradientUnits="userSpaceOnUse">
<stop stop-color="#93DF32"/>
<stop offset="1" stop-color="#70BD0D"/>
</linearGradient>
</defs>
</svg>
