<svg width="128" height="128" viewBox="0 0 128 128" fill="none" xmlns="http://www.w3.org/2000/svg">
<g filter="url(#filter0_d_1_615)">
<g filter="url(#filter1_d_1_615)">
<path d="M32 34C32 29.5817 35.5817 26 40 26H104C108.418 26 112 29.5817 112 34V78C112 82.4183 108.418 86 104 86H40C35.5817 86 32 82.4183 32 78V34Z" fill="url(#paint0_linear_1_615)"/>
</g>
<g filter="url(#filter2_dd_1_615)">
<path d="M16 50C16 45.5817 19.5817 42 24 42H88C92.4183 42 96 45.5817 96 50V94C96 98.4183 92.4183 102 88 102H24C19.5817 102 16 98.4183 16 94V50Z" fill="white" fill-opacity="0.4"/>
</g>
<g filter="url(#filter3_dd_1_615)">
<path fill-rule="evenodd" clip-rule="evenodd" d="M24 42H88C92.4183 42 96 45.5817 96 50V62L58.9711 76.8115C57.0638 77.5745 54.9362 77.5745 53.0289 76.8115L16 62V50C16 45.5817 19.5817 42 24 42ZM56 70C58.2091 70 60 68.2091 60 66C60 63.7909 58.2091 62 56 62C53.7909 62 52 63.7909 52 66C52 68.2091 53.7909 70 56 70Z" fill="white" fill-opacity="0.6"/>
</g>
<g filter="url(#filter4_dd_1_615)">
<path d="M64.777 42C63.8676 37.992 60.2832 35 56 35C51.7169 35 48.1325 37.992 47.223 42H41.1322C42.11 34.6613 48.3939 29 56 29C63.6062 29 69.8901 34.6613 70.8679 42H64.777Z" fill="white" fill-opacity="0.6"/>
</g>
</g>
<defs>
<filter id="filter0_d_1_615" x="12" y="22" width="112" height="92" filterUnits="userSpaceOnUse" color-interpolation-filters="sRGB">
<feFlood flood-opacity="0" result="BackgroundImageFix"/>
<feColorMatrix in="SourceAlpha" type="matrix" values="0 0 0 0 0 0 0 0 0 0 0 0 0 0 0 0 0 0 127 0" result="hardAlpha"/>
<feOffset dx="4" dy="4"/>
<feGaussianBlur stdDeviation="4"/>
<feColorMatrix type="matrix" values="0 0 0 0 1 0 0 0 0 0.627451 0 0 0 0 0.0705882 0 0 0 0.4 0"/>
<feBlend mode="normal" in2="BackgroundImageFix" result="effect1_dropShadow_1_615"/>
<feBlend mode="normal" in="SourceGraphic" in2="effect1_dropShadow_1_615" result="shape"/>
</filter>
<filter id="filter1_d_1_615" x="24" y="18" width="96" height="76" filterUnits="userSpaceOnUse" color-interpolation-filters="sRGB">
<feFlood flood-opacity="0" result="BackgroundImageFix"/>
<feColorMatrix in="SourceAlpha" type="matrix" values="0 0 0 0 0 0 0 0 0 0 0 0 0 0 0 0 0 0 127 0" result="hardAlpha"/>
<feOffset/>
<feGaussianBlur stdDeviation="4"/>
<feComposite in2="hardAlpha" operator="out"/>
<feColorMatrix type="matrix" values="0 0 0 0 1 0 0 0 0 1 0 0 0 0 1 0 0 0 0.8 0"/>
<feBlend mode="normal" in2="BackgroundImageFix" result="effect1_dropShadow_1_615"/>
<feBlend mode="normal" in="SourceGraphic" in2="effect1_dropShadow_1_615" result="shape"/>
</filter>
<filter id="filter2_dd_1_615" x="8" y="38" width="96" height="76" filterUnits="userSpaceOnUse" color-interpolation-filters="sRGB">
<feFlood flood-opacity="0" result="BackgroundImageFix"/>
<feColorMatrix in="SourceAlpha" type="matrix" values="0 0 0 0 0 0 0 0 0 0 0 0 0 0 0 0 0 0 127 0" result="hardAlpha"/>
<feOffset/>
<feGaussianBlur stdDeviation="2"/>
<feComposite in2="hardAlpha" operator="out"/>
<feColorMatrix type="matrix" values="0 0 0 0 1 0 0 0 0 1 0 0 0 0 1 0 0 0 1 0"/>
<feBlend mode="normal" in2="BackgroundImageFix" result="effect1_dropShadow_1_615"/>
<feColorMatrix in="SourceAlpha" type="matrix" values="0 0 0 0 0 0 0 0 0 0 0 0 0 0 0 0 0 0 127 0" result="hardAlpha"/>
<feOffset dy="4"/>
<feGaussianBlur stdDeviation="4"/>
<feComposite in2="hardAlpha" operator="out"/>
<feColorMatrix type="matrix" values="0 0 0 0 1 0 0 0 0 1 0 0 0 0 1 0 0 0 1 0"/>
<feBlend mode="normal" in2="effect1_dropShadow_1_615" result="effect2_dropShadow_1_615"/>
<feBlend mode="normal" in="SourceGraphic" in2="effect2_dropShadow_1_615" result="shape"/>
</filter>
<filter id="filter3_dd_1_615" x="8" y="38" width="96" height="51.3837" filterUnits="userSpaceOnUse" color-interpolation-filters="sRGB">
<feFlood flood-opacity="0" result="BackgroundImageFix"/>
<feColorMatrix in="SourceAlpha" type="matrix" values="0 0 0 0 0 0 0 0 0 0 0 0 0 0 0 0 0 0 127 0" result="hardAlpha"/>
<feOffset/>
<feGaussianBlur stdDeviation="2"/>
<feComposite in2="hardAlpha" operator="out"/>
<feColorMatrix type="matrix" values="0 0 0 0 1 0 0 0 0 1 0 0 0 0 1 0 0 0 1 0"/>
<feBlend mode="normal" in2="BackgroundImageFix" result="effect1_dropShadow_1_615"/>
<feColorMatrix in="SourceAlpha" type="matrix" values="0 0 0 0 0 0 0 0 0 0 0 0 0 0 0 0 0 0 127 0" result="hardAlpha"/>
<feOffset dy="4"/>
<feGaussianBlur stdDeviation="4"/>
<feComposite in2="hardAlpha" operator="out"/>
<feColorMatrix type="matrix" values="0 0 0 0 1 0 0 0 0 1 0 0 0 0 1 0 0 0 1 0"/>
<feBlend mode="normal" in2="effect1_dropShadow_1_615" result="effect2_dropShadow_1_615"/>
<feBlend mode="normal" in="SourceGraphic" in2="effect2_dropShadow_1_615" result="shape"/>
</filter>
<filter id="filter4_dd_1_615" x="33.1322" y="25" width="45.7357" height="29" filterUnits="userSpaceOnUse" color-interpolation-filters="sRGB">
<feFlood flood-opacity="0" result="BackgroundImageFix"/>
<feColorMatrix in="SourceAlpha" type="matrix" values="0 0 0 0 0 0 0 0 0 0 0 0 0 0 0 0 0 0 127 0" result="hardAlpha"/>
<feOffset/>
<feGaussianBlur stdDeviation="2"/>
<feComposite in2="hardAlpha" operator="out"/>
<feColorMatrix type="matrix" values="0 0 0 0 1 0 0 0 0 1 0 0 0 0 1 0 0 0 1 0"/>
<feBlend mode="normal" in2="BackgroundImageFix" result="effect1_dropShadow_1_615"/>
<feColorMatrix in="SourceAlpha" type="matrix" values="0 0 0 0 0 0 0 0 0 0 0 0 0 0 0 0 0 0 127 0" result="hardAlpha"/>
<feOffset dy="4"/>
<feGaussianBlur stdDeviation="4"/>
<feComposite in2="hardAlpha" operator="out"/>
<feColorMatrix type="matrix" values="0 0 0 0 1 0 0 0 0 1 0 0 0 0 1 0 0 0 1 0"/>
<feBlend mode="normal" in2="effect1_dropShadow_1_615" result="effect2_dropShadow_1_615"/>
<feBlend mode="normal" in="SourceGraphic" in2="effect2_dropShadow_1_615" result="shape"/>
</filter>
<linearGradient id="paint0_linear_1_615" x1="72" y1="26" x2="72" y2="86" gradientUnits="userSpaceOnUse">
<stop stop-color="#FFBC0E"/>
<stop offset="1" stop-color="#FF7C1E"/>
</linearGradient>
</defs>
</svg>
