<svg width="128" height="128" viewBox="0 0 128 128" fill="none" xmlns="http://www.w3.org/2000/svg">
<g filter="url(#filter0_d_1_657)">
<g filter="url(#filter1_d_1_657)">
<path d="M32 28C32 23.5817 35.5817 20 40 20H104C108.418 20 112 23.5817 112 28V72C112 76.4183 108.418 80 104 80H40C35.5817 80 32 76.4183 32 72V28Z" fill="url(#paint0_linear_1_657)"/>
</g>
<g filter="url(#filter2_dd_1_657)">
<path d="M16 40C16 37.7909 17.7909 36 20 36H92C94.2091 36 96 37.7909 96 40V48C96 50.2091 94.2091 52 92 52H20C17.7909 52 16 50.2091 16 48V40Z" fill="white" fill-opacity="0.4"/>
</g>
<g filter="url(#filter3_dd_1_657)">
<path d="M16 58C16 56.8954 16.8954 56 18 56H86C87.1046 56 88 56.8954 88 58V66C88 67.1046 87.1046 68 86 68H18C16.8954 68 16 67.1046 16 66V58Z" fill="white" fill-opacity="0.4"/>
</g>
<g filter="url(#filter4_dd_1_657)">
<path d="M16 74C16 72.8954 16.8954 72 18 72H54C55.1046 72 56 72.8954 56 74V78C56 79.1046 55.1046 80 54 80H18C16.8954 80 16 79.1046 16 78V74Z" fill="white" fill-opacity="0.4"/>
</g>
<g filter="url(#filter5_dd_1_657)">
<path d="M67.6851 100.763C72.3788 108.392 80.9463 108.355 85.8715 107.768C95.7215 106.593 102.621 101.052 100.669 82.4125C100.126 77.2349 96.1619 75.0867 91.5079 78.263C89.7345 73.2323 81.1607 74.6919 81.6578 79.438L80.5732 69.0828C80.1666 65.1996 78.0285 61.5229 73.6037 62.0507C69.1789 62.5786 69.221 67.8158 69.7334 72.7103L71.661 91.115L67.4251 86.3781C66.0583 85.2306 62.4774 81.9881 59.6308 83.3761C56.7843 84.7641 56.3439 87.7 57.8463 90.1418C59.3487 92.5837 64.6803 95.8795 67.6851 100.763Z" fill="white" fill-opacity="0.6"/>
</g>
</g>
<defs>
<filter id="filter0_d_1_657" x="12" y="16" width="112" height="104" filterUnits="userSpaceOnUse" color-interpolation-filters="sRGB">
<feFlood flood-opacity="0" result="BackgroundImageFix"/>
<feColorMatrix in="SourceAlpha" type="matrix" values="0 0 0 0 0 0 0 0 0 0 0 0 0 0 0 0 0 0 127 0" result="hardAlpha"/>
<feOffset dx="4" dy="4"/>
<feGaussianBlur stdDeviation="4"/>
<feColorMatrix type="matrix" values="0 0 0 0 0.615686 0 0 0 0 0.407843 0 0 0 0 0.952941 0 0 0 0.4 0"/>
<feBlend mode="normal" in2="BackgroundImageFix" result="effect1_dropShadow_1_657"/>
<feBlend mode="normal" in="SourceGraphic" in2="effect1_dropShadow_1_657" result="shape"/>
</filter>
<filter id="filter1_d_1_657" x="24" y="12" width="96" height="76" filterUnits="userSpaceOnUse" color-interpolation-filters="sRGB">
<feFlood flood-opacity="0" result="BackgroundImageFix"/>
<feColorMatrix in="SourceAlpha" type="matrix" values="0 0 0 0 0 0 0 0 0 0 0 0 0 0 0 0 0 0 127 0" result="hardAlpha"/>
<feOffset/>
<feGaussianBlur stdDeviation="4"/>
<feComposite in2="hardAlpha" operator="out"/>
<feColorMatrix type="matrix" values="0 0 0 0 1 0 0 0 0 1 0 0 0 0 1 0 0 0 0.8 0"/>
<feBlend mode="normal" in2="BackgroundImageFix" result="effect1_dropShadow_1_657"/>
<feBlend mode="normal" in="SourceGraphic" in2="effect1_dropShadow_1_657" result="shape"/>
</filter>
<filter id="filter2_dd_1_657" x="8" y="32" width="96" height="32" filterUnits="userSpaceOnUse" color-interpolation-filters="sRGB">
<feFlood flood-opacity="0" result="BackgroundImageFix"/>
<feColorMatrix in="SourceAlpha" type="matrix" values="0 0 0 0 0 0 0 0 0 0 0 0 0 0 0 0 0 0 127 0" result="hardAlpha"/>
<feOffset/>
<feGaussianBlur stdDeviation="2"/>
<feComposite in2="hardAlpha" operator="out"/>
<feColorMatrix type="matrix" values="0 0 0 0 1 0 0 0 0 1 0 0 0 0 1 0 0 0 1 0"/>
<feBlend mode="normal" in2="BackgroundImageFix" result="effect1_dropShadow_1_657"/>
<feColorMatrix in="SourceAlpha" type="matrix" values="0 0 0 0 0 0 0 0 0 0 0 0 0 0 0 0 0 0 127 0" result="hardAlpha"/>
<feOffset dy="4"/>
<feGaussianBlur stdDeviation="4"/>
<feComposite in2="hardAlpha" operator="out"/>
<feColorMatrix type="matrix" values="0 0 0 0 1 0 0 0 0 1 0 0 0 0 1 0 0 0 1 0"/>
<feBlend mode="normal" in2="effect1_dropShadow_1_657" result="effect2_dropShadow_1_657"/>
<feBlend mode="normal" in="SourceGraphic" in2="effect2_dropShadow_1_657" result="shape"/>
</filter>
<filter id="filter3_dd_1_657" x="8" y="52" width="88" height="28" filterUnits="userSpaceOnUse" color-interpolation-filters="sRGB">
<feFlood flood-opacity="0" result="BackgroundImageFix"/>
<feColorMatrix in="SourceAlpha" type="matrix" values="0 0 0 0 0 0 0 0 0 0 0 0 0 0 0 0 0 0 127 0" result="hardAlpha"/>
<feOffset/>
<feGaussianBlur stdDeviation="2"/>
<feComposite in2="hardAlpha" operator="out"/>
<feColorMatrix type="matrix" values="0 0 0 0 1 0 0 0 0 1 0 0 0 0 1 0 0 0 1 0"/>
<feBlend mode="normal" in2="BackgroundImageFix" result="effect1_dropShadow_1_657"/>
<feColorMatrix in="SourceAlpha" type="matrix" values="0 0 0 0 0 0 0 0 0 0 0 0 0 0 0 0 0 0 127 0" result="hardAlpha"/>
<feOffset dy="4"/>
<feGaussianBlur stdDeviation="4"/>
<feComposite in2="hardAlpha" operator="out"/>
<feColorMatrix type="matrix" values="0 0 0 0 1 0 0 0 0 1 0 0 0 0 1 0 0 0 1 0"/>
<feBlend mode="normal" in2="effect1_dropShadow_1_657" result="effect2_dropShadow_1_657"/>
<feBlend mode="normal" in="SourceGraphic" in2="effect2_dropShadow_1_657" result="shape"/>
</filter>
<filter id="filter4_dd_1_657" x="8" y="68" width="56" height="24" filterUnits="userSpaceOnUse" color-interpolation-filters="sRGB">
<feFlood flood-opacity="0" result="BackgroundImageFix"/>
<feColorMatrix in="SourceAlpha" type="matrix" values="0 0 0 0 0 0 0 0 0 0 0 0 0 0 0 0 0 0 127 0" result="hardAlpha"/>
<feOffset/>
<feGaussianBlur stdDeviation="2"/>
<feComposite in2="hardAlpha" operator="out"/>
<feColorMatrix type="matrix" values="0 0 0 0 1 0 0 0 0 1 0 0 0 0 1 0 0 0 1 0"/>
<feBlend mode="normal" in2="BackgroundImageFix" result="effect1_dropShadow_1_657"/>
<feColorMatrix in="SourceAlpha" type="matrix" values="0 0 0 0 0 0 0 0 0 0 0 0 0 0 0 0 0 0 127 0" result="hardAlpha"/>
<feOffset dy="4"/>
<feGaussianBlur stdDeviation="4"/>
<feComposite in2="hardAlpha" operator="out"/>
<feColorMatrix type="matrix" values="0 0 0 0 1 0 0 0 0 1 0 0 0 0 1 0 0 0 1 0"/>
<feBlend mode="normal" in2="effect1_dropShadow_1_657" result="effect2_dropShadow_1_657"/>
<feBlend mode="normal" in="SourceGraphic" in2="effect2_dropShadow_1_657" result="shape"/>
</filter>
<filter id="filter5_dd_1_657" x="49" y="58" width="60.0002" height="61.9998" filterUnits="userSpaceOnUse" color-interpolation-filters="sRGB">
<feFlood flood-opacity="0" result="BackgroundImageFix"/>
<feColorMatrix in="SourceAlpha" type="matrix" values="0 0 0 0 0 0 0 0 0 0 0 0 0 0 0 0 0 0 127 0" result="hardAlpha"/>
<feOffset/>
<feGaussianBlur stdDeviation="2"/>
<feComposite in2="hardAlpha" operator="out"/>
<feColorMatrix type="matrix" values="0 0 0 0 1 0 0 0 0 1 0 0 0 0 1 0 0 0 1 0"/>
<feBlend mode="normal" in2="BackgroundImageFix" result="effect1_dropShadow_1_657"/>
<feColorMatrix in="SourceAlpha" type="matrix" values="0 0 0 0 0 0 0 0 0 0 0 0 0 0 0 0 0 0 127 0" result="hardAlpha"/>
<feOffset dy="4"/>
<feGaussianBlur stdDeviation="4"/>
<feComposite in2="hardAlpha" operator="out"/>
<feColorMatrix type="matrix" values="0 0 0 0 1 0 0 0 0 1 0 0 0 0 1 0 0 0 1 0"/>
<feBlend mode="normal" in2="effect1_dropShadow_1_657" result="effect2_dropShadow_1_657"/>
<feBlend mode="normal" in="SourceGraphic" in2="effect2_dropShadow_1_657" result="shape"/>
</filter>
<linearGradient id="paint0_linear_1_657" x1="72" y1="20" x2="72" y2="80" gradientUnits="userSpaceOnUse">
<stop stop-color="#6966FF"/>
<stop offset="1" stop-color="#9D68F3"/>
</linearGradient>
</defs>
</svg>
