<svg xmlns="http://www.w3.org/2000/svg" fill="none" viewBox="0 0 497 341"><g clip-path="url(#a)"><path fill="url(#b)" d="M430.23 231.25c0-26.46-12.24-47.91-27.34-47.91-.18 0-.36.02-.54.02h-9.45v3.29c-10.15 6.99-17.34 24.32-17.34 44.59 0 20.27 7.19 37.6 17.34 44.59v3.32h9.99c15.1 0 27.33-21.45 27.33-47.91l.01.01Z"/><path fill="#826126" d="M421.18 231.25c0 26.46-12.24 47.91-27.34 47.91s-27.33-21.45-27.33-47.91c0-26.46 12.24-47.91 27.33-47.91 15.09 0 27.34 21.45 27.34 47.91Z"/><path fill="url(#c)" d="M407.92 231.25c0-20.35-9.41-36.85-21.03-36.85-.14 0-.28.01-.42.02h-12.48v73.68h12.9c11.61 0 21.03-16.5 21.03-36.85Z"/><path fill="#826126" d="M400.16 215.72c0-5.48-4.44-9.92-9.92-9.92-5.48 0-9.92 4.44-9.92 9.92 0 5.48 4.44 9.92 9.92 9.92 5.48 0 9.92-4.44 9.92-9.92Z"/><path fill="url(#d)" d="m471.18 36.08-14.94-6.01-73.35 182.43c-.03.08-.06.16-.1.24l-.16.4h.03c-.27.82-.46 1.68-.46 2.58 0 4.44 3.6 8.04 8.04 8.04 3.22 0 5.97-1.91 7.26-4.64l.07.03 73.61-183.07Z"/><path fill="url(#e)" d="M496.76 33.15C496.76 14.84 481.92 0 463.61 0s-33.15 14.84-33.15 33.15S445.3 66.3 463.61 66.3s33.15-14.84 33.15-33.15Z"/><path fill="url(#f)" d="M328.77 126.58H53.25c-24.8 0-44.91 46.52-44.91 103.91 0 57.39 20.11 103.9 44.91 103.9h275.51c24.81 0 44.91-46.52 44.91-103.91 0-57.39-20.11-103.9-44.91-103.91l.01.01Z"/><path fill="#0D3E55" d="m65.177 250.232-3.19-1.238-6.945 6.944 1.257 3.172-5.048 5.048-7.02-19.481 6.494-6.494 19.482 7.019-5.03 5.03Zm-11.918 1.183 4.204-4.205-6.85-2.683-.038.037 2.684 6.851ZM69.282 226.983l4.41-4.41 9.573 9.572-4.411 4.41-1.239-1.239c.063 2.09-.682 3.91-2.233 5.462-2.89 2.89-5.756 2.915-8.596.075l-5.687-5.687 4.41-4.41 4.918 4.917c1.339 1.339 2.602 1.414 3.791.225 1.326-1.326 1.226-2.753-.3-4.279l-4.636-4.636ZM90.652 225.282c-2.802 2.803-5.474 2.934-8.014.394l-2.815-2.815-1.614 1.614-3.21-3.209 1.614-1.614-2.308-2.309 4.41-4.41 2.309 2.308 2.815-2.815 3.21 3.209-2.816 2.816 1.802 1.801c.55.551 1.07.807 1.558.77.475-.05.957-.319 1.445-.807.288-.288.638-.751 1.051-1.389l3.21 3.209a21.16 21.16 0 0 1-2.647 3.247ZM101.496 214.664c-1.64 1.639-3.322 2.772-5.05 3.397-1.726.626-3.39.626-4.992 0-.75-.3-1.476-.801-2.177-1.501-.7-.701-1.2-1.427-1.501-2.177-.626-1.602-.626-3.266 0-4.993.626-1.727 1.758-3.409 3.397-5.049 1.627-1.626 3.29-2.752 4.992-3.378 1.702-.651 3.316-.676 4.843-.075.863.338 1.651.863 2.365 1.577.713.713 1.238 1.501 1.576 2.364.601 1.527.582 3.147-.056 4.861-.638 1.69-1.771 3.348-3.397 4.974Zm-3.022-3.022c1.151-1.151 1.508-2.296 1.07-3.434-.125-.376-.382-.757-.77-1.145s-.77-.645-1.145-.77c-1.138-.438-2.283-.081-3.434 1.07-1.164 1.164-1.514 2.327-1.051 3.491.125.375.369.745.732 1.107.362.363.732.607 1.107.732 1.164.463 2.327.113 3.49-1.051Z"/><path fill="#0777AA" d="m180.177 250.232-3.191-1.238-6.944 6.944 1.257 3.172-5.048 5.048-7.02-19.481 6.494-6.494 19.482 7.019-5.03 5.03Zm-11.918 1.183 4.204-4.205-6.851-2.683-.037.037 2.684 6.851ZM184.282 226.983l4.411-4.41 9.572 9.572-4.411 4.41-1.239-1.239c.063 2.09-.682 3.91-2.233 5.462-2.891 2.89-5.756 2.915-8.596.075l-5.687-5.687 4.411-4.41 4.917 4.917c1.339 1.339 2.602 1.414 3.791.225 1.326-1.326 1.226-2.753-.3-4.279l-4.636-4.636ZM205.652 225.282c-2.802 2.803-5.474 2.934-8.014.394l-2.815-2.815-1.614 1.614-3.21-3.209 1.614-1.614-2.308-2.309 4.411-4.41 2.308 2.308 2.815-2.815 3.21 3.209-2.816 2.816 1.802 1.801c.551.551 1.07.807 1.558.77.475-.05.957-.319 1.445-.807.288-.288.638-.751 1.051-1.389l3.21 3.209a21.14 21.14 0 0 1-2.647 3.247ZM216.496 214.664c-1.639 1.639-3.322 2.772-5.049 3.397-1.727.626-3.391.626-4.992 0-.751-.3-1.477-.801-2.178-1.501-.7-.701-1.201-1.427-1.501-2.177-.626-1.602-.626-3.266 0-4.993.625-1.727 1.758-3.409 3.397-5.049 1.627-1.626 3.291-2.752 4.992-3.378 1.702-.651 3.316-.676 4.843-.075.863.338 1.651.863 2.365 1.577.713.713 1.238 1.501 1.576 2.364.601 1.527.582 3.147-.056 4.861-.638 1.69-1.771 3.348-3.397 4.974Zm-3.022-3.022c1.151-1.151 1.508-2.296 1.07-3.434-.125-.376-.382-.757-.77-1.145s-.769-.645-1.145-.77c-1.138-.438-2.283-.081-3.434 1.07-1.164 1.164-1.514 2.327-1.051 3.491.125.375.369.745.732 1.107.363.363.732.607 1.107.732 1.164.463 2.327.113 3.491-1.051Z"/><path fill="#24514D" d="m295.177 250.232-3.191-1.238-6.944 6.944 1.257 3.172-5.048 5.048-7.02-19.481 6.494-6.494 19.482 7.019-5.03 5.03Zm-11.918 1.183 4.204-4.205-6.851-2.683-.037.037 2.684 6.851ZM299.282 226.983l4.411-4.41 9.572 9.572-4.411 4.41-1.239-1.239c.063 2.09-.682 3.91-2.233 5.462-2.891 2.89-5.756 2.915-8.596.075l-5.687-5.687 4.411-4.41 4.917 4.917c1.339 1.339 2.602 1.414 3.791.225 1.326-1.326 1.226-2.753-.3-4.279l-4.636-4.636ZM320.652 225.282c-2.802 2.803-5.474 2.934-8.014.394l-2.815-2.815-1.614 1.614-3.21-3.209 1.614-1.614-2.308-2.309 4.411-4.41 2.308 2.308 2.815-2.815 3.21 3.209-2.816 2.816 1.802 1.801c.551.551 1.07.807 1.558.77.475-.05.957-.319 1.445-.807.288-.288.638-.751 1.051-1.389l3.21 3.209a21.14 21.14 0 0 1-2.647 3.247ZM331.496 214.664c-1.639 1.639-3.322 2.772-5.049 3.397-1.727.626-3.391.626-4.992 0-.751-.3-1.477-.801-2.178-1.501-.7-.701-1.201-1.427-1.501-2.177-.626-1.602-.626-3.266 0-4.993.625-1.727 1.758-3.409 3.397-5.049 1.627-1.626 3.291-2.752 4.992-3.378 1.702-.651 3.316-.676 4.843-.075.863.338 1.651.863 2.365 1.577.713.713 1.238 1.501 1.576 2.364.601 1.527.582 3.147-.056 4.861-.638 1.69-1.771 3.348-3.397 4.974Zm-3.022-3.022c1.151-1.151 1.508-2.296 1.07-3.434-.125-.376-.382-.757-.77-1.145s-.769-.645-1.145-.77c-1.138-.438-2.283-.081-3.434 1.07-1.164 1.164-1.514 2.327-1.051 3.491.125.375.369.745.732 1.107.363.363.732.607 1.107.732 1.164.463 2.327.113 3.491-1.051Z"/><path fill="#0C1F5A" d="M354.02 315.4H22.81v6.03h331.21v-6.03Z"/><path fill="#035A46" d="M349.59 147.43H32.69v6.03h316.9v-6.03Z"/><path fill="url(#g)" d="m43.98 152.89-.01-.02-6.98-6.07H22.86c-5.63 29.61-8.71 62.39-8.13 94.07.51 27.38 3 53.99 8.13 81.17h13.27l6.22-6.47c-18.09-46.79-16.2-117.48 1.64-162.68h-.01Z"/><path fill="url(#h)" d="M151.94 152.89v-.02l-3.97-6.07h-8.02c-3.2 29.61-4.95 62.39-4.62 94.07.29 27.38 1.7 53.99 4.62 81.17h7.53l3.54-6.47c-10.27-46.79-9.2-117.48.93-162.68h-.01Z"/><path fill="url(#i)" d="M230.97 153.89v-.02l3.97-6.07h8.02c3.2 29.61 4.95 62.39 4.62 94.07-.29 27.38-1.7 53.99-4.62 81.17h-7.53l-3.54-6.47c10.27-46.79 9.2-117.48-.93-162.68h.01Z"/><path fill="url(#j)" d="m336.35 152.89.01-.02 6.98-6.07h14.13c5.63 29.61 8.71 62.39 8.13 94.07-.5 27.38-3 53.99-8.13 81.17H344.2l-6.23-6.47c18.09-46.79 16.2-117.48-1.63-162.68h.01Z"/><path fill="url(#k)" d="M335.06 122.04H46.96C21.03 122.04 0 170.94 0 231.25c0 60.31 21.02 109.21 46.96 109.21h288.1c25.94 0 46.96-48.9 46.96-109.21 0-60.31-21.02-109.21-46.96-109.21ZM120.3 240.83c.5 27.18 3 53.6 8.13 80.58H35.99c-21.84-48.2-19.58-127.59 1.5-173.99h90.94c-5.63 29.4-8.71 61.95-8.13 93.4v.01Zm115.19 80.58h-88.97a464.459 464.459 0 0 1 0-173.99h88.97a464.459 464.459 0 0 1 0 173.99Zm109.74 0h-92.45c5.13-26.98 7.63-53.4 8.13-80.58.58-31.46-2.5-64-8.13-93.4h90.94c21.09 46.4 23.35 125.78 1.51 173.99v-.01Z"/><mask id="l" width="383" height="219" x="0" y="122" maskUnits="userSpaceOnUse" style="mask-type:luminance"><path fill="#fff" d="M335.06 122.04H46.96C21.03 122.04 0 170.94 0 231.25c0 60.31 21.02 109.21 46.96 109.21h288.1c25.94 0 46.96-48.9 46.96-109.21 0-60.31-21.02-109.21-46.96-109.21ZM120.3 240.83c.5 27.18 3 53.6 8.13 80.58H35.99c-21.84-48.2-19.58-127.59 1.5-173.99h90.94c-5.63 29.4-8.71 61.95-8.13 93.4v.01Zm115.19 80.58h-88.97a464.459 464.459 0 0 1 0-173.99h88.97a464.459 464.459 0 0 1 0 173.99Zm109.74 0h-92.45c5.13-26.98 7.63-53.4 8.13-80.58.58-31.46-2.5-64-8.13-93.4h90.94c21.09 46.4 23.35 125.78 1.51 173.99v-.01Z"/></mask><g mask="url(#l)"><path fill="url(#m)" d="M393.4 131.8H-16.59v53.75H393.4V131.8Z"/><path fill="url(#n)" d="M393.42 252.88h-410v82.61h410v-82.61Z" opacity=".6"/></g><path fill="url(#o)" d="M477.2 22.71c0-9.74-7.89-17.63-17.62-17.63s-17.63 7.89-17.63 17.63c0 9.74 7.89 17.62 17.63 17.62 9.74 0 17.62-7.89 17.62-17.62Z" opacity=".7"/><path fill="url(#p)" d="M482.58 11.87a30.969 30.969 0 0 1 5.29 17.36c0 17.16-13.92 31.08-31.08 31.08-2.4 0-4.72-.3-6.96-.81 4.05 2.14 8.66 3.36 13.57 3.36 16.08 0 29.12-13.04 29.12-29.12 0-8.72-3.86-16.53-9.94-21.87Z" opacity=".54"/></g><defs><radialGradient id="e" cx="0" cy="0" r="1" gradientTransform="translate(455.32 26.37) scale(33.15)" gradientUnits="userSpaceOnUse"><stop stop-color="#0171B5"/><stop offset=".18" stop-color="#2CAFFF"/><stop offset=".51" stop-color="#2E86B7"/><stop offset=".95" stop-color="#051135"/><stop offset="1" stop-color="#0B1F59"/></radialGradient><radialGradient id="g" cx="0" cy="0" r="1" gradientTransform="matrix(14.6647 0 0 87.62 25.658 216.5)" gradientUnits="userSpaceOnUse"><stop stop-color="#0171B5"/><stop offset=".18" stop-color="#2CAFFF"/><stop offset=".51" stop-color="#2E86B7"/><stop offset=".95" stop-color="#051135"/><stop offset="1" stop-color="#0B1F59"/></radialGradient><radialGradient id="h" cx="0" cy="0" r="1" gradientTransform="matrix(8.32979 0 0 87.62 141.537 216.5)" gradientUnits="userSpaceOnUse"><stop stop-color="#0171B5"/><stop offset=".18" stop-color="#2CAFFF"/><stop offset=".51" stop-color="#2E86B7"/><stop offset=".95" stop-color="#051135"/><stop offset="1" stop-color="#0B1F59"/></radialGradient><radialGradient id="i" cx="0" cy="0" r="1" gradientTransform="matrix(8.32979 0 0 87.62 237.207 217.5)" gradientUnits="userSpaceOnUse"><stop stop-color="#0171B5"/><stop offset=".18" stop-color="#2CAFFF"/><stop offset=".51" stop-color="#2E86B7"/><stop offset=".95" stop-color="#051135"/><stop offset="1" stop-color="#0B1F59"/></radialGradient><radialGradient id="j" cx="0" cy="0" r="1" gradientTransform="matrix(14.6648 0 0 87.62 347.337 216.5)" gradientUnits="userSpaceOnUse"><stop stop-color="#0171B5"/><stop offset=".18" stop-color="#2CAFFF"/><stop offset=".51" stop-color="#2E86B7"/><stop offset=".95" stop-color="#051135"/><stop offset="1" stop-color="#0B1F59"/></radialGradient><radialGradient id="k" cx="0" cy="0" r="1" gradientTransform="matrix(191.01 0 0 109.21 143.243 208.914)" gradientUnits="userSpaceOnUse"><stop stop-color="#0171B5"/><stop offset=".18" stop-color="#2CAFFF"/><stop offset=".51" stop-color="#2E86B7"/><stop offset=".95" stop-color="#051135"/><stop offset="1" stop-color="#0B1F59"/></radialGradient><radialGradient id="o" cx="0" cy="0" r="1" gradientTransform="translate(467.49 38.52) scale(37.79)" gradientUnits="userSpaceOnUse"><stop stop-color="#fff"/><stop offset="1" stop-color="#fff"/></radialGradient><linearGradient id="b" x1="402.9" x2="402.9" y1="183" y2="280.81" gradientUnits="userSpaceOnUse"><stop stop-color="#E3B323"/><stop offset=".08" stop-color="#F6E953"/><stop offset=".09" stop-color="#F6EB6A"/><stop offset=".1" stop-color="#F7EF89"/><stop offset=".12" stop-color="#F8F2A1"/><stop offset=".14" stop-color="#F8F4B2"/><stop offset=".15" stop-color="#F8F5BC"/><stop offset=".18" stop-color="#F9F6C0"/><stop offset=".22" stop-color="#F5EB97"/><stop offset=".27" stop-color="#F1E16F"/><stop offset=".31" stop-color="#EEDB57"/><stop offset=".33" stop-color="#EED94E"/><stop offset=".59" stop-color="#A17834"/><stop offset=".85" stop-color="#F6C822"/><stop offset="1" stop-color="#A17834"/></linearGradient><linearGradient id="c" x1="390.96" x2="390.96" y1="193.79" y2="267.49" gradientUnits="userSpaceOnUse"><stop stop-color="#E3B323"/><stop offset=".08" stop-color="#F6E953"/><stop offset=".09" stop-color="#F6EB6A"/><stop offset=".1" stop-color="#F7EF89"/><stop offset=".12" stop-color="#F8F2A1"/><stop offset=".14" stop-color="#F8F4B2"/><stop offset=".15" stop-color="#F8F5BC"/><stop offset=".18" stop-color="#F9F6C0"/><stop offset=".22" stop-color="#F5EB97"/><stop offset=".27" stop-color="#F1E16F"/><stop offset=".31" stop-color="#EEDB57"/><stop offset=".33" stop-color="#EED94E"/><stop offset=".59" stop-color="#A17834"/><stop offset=".85" stop-color="#F6C822"/><stop offset="1" stop-color="#A17834"/></linearGradient><linearGradient id="d" x1="417.77" x2="432.84" y1="125.03" y2="131.06" gradientUnits="userSpaceOnUse"><stop stop-color="#E3B323"/><stop offset=".08" stop-color="#F6E953"/><stop offset=".09" stop-color="#F6EB6A"/><stop offset=".1" stop-color="#F7EF89"/><stop offset=".12" stop-color="#F8F2A1"/><stop offset=".14" stop-color="#F8F4B2"/><stop offset=".15" stop-color="#F8F5BC"/><stop offset=".18" stop-color="#F9F6C0"/><stop offset=".22" stop-color="#F5EB97"/><stop offset=".27" stop-color="#F1E16F"/><stop offset=".31" stop-color="#EEDB57"/><stop offset=".33" stop-color="#EED94E"/><stop offset=".59" stop-color="#A17834"/><stop offset=".85" stop-color="#F6C822"/><stop offset="1" stop-color="#A17834"/></linearGradient><linearGradient id="f" x1="191.01" x2="191.01" y1="144.62" y2="334.68" gradientUnits="userSpaceOnUse"><stop stop-color="#E3E3E3"/><stop offset=".43" stop-color="#F9F9F9"/><stop offset=".5" stop-color="#EAEAEA"/><stop offset=".7" stop-color="#C2C2C2"/><stop offset=".86" stop-color="#AAA"/><stop offset=".95" stop-color="#A1A1A1"/><stop offset="1" stop-color="#A1A1A1"/></linearGradient><linearGradient id="m" x1="188.41" x2="188.41" y1="124.51" y2="200.26" gradientUnits="userSpaceOnUse"><stop stop-color="#64F3DB"/><stop offset="1" stop-color="#139A7B"/></linearGradient><linearGradient id="n" x1="188.41" x2="188.41" y1="408.8" y2="277.59" gradientUnits="userSpaceOnUse"><stop/><stop offset="1" stop-color="#0070B5"/></linearGradient><linearGradient id="p" x1="476.31" x2="495.33" y1="46.46" y2="66.99" gradientUnits="userSpaceOnUse"><stop stop-color="#fff"/><stop offset="1" stop-color="#fff"/></linearGradient><clipPath id="a"><path fill="#fff" d="M0 0h496.76v340.47H0z"/></clipPath></defs></svg>