<svg width="128" height="128" viewBox="0 0 128 128" fill="none" xmlns="http://www.w3.org/2000/svg">
<g filter="url(#filter0_d_1_80)">
<g filter="url(#filter1_d_1_80)">
<path d="M32 34C32 29.5817 35.5817 26 40 26H104C108.418 26 112 29.5817 112 34V78C112 82.4183 108.418 86 104 86H40C35.5817 86 32 82.4183 32 78V34Z" fill="url(#paint0_linear_1_80)"/>
</g>
<g filter="url(#filter2_dd_1_80)">
<path fill-rule="evenodd" clip-rule="evenodd" d="M24 42C19.5817 42 16 45.5817 16 50V94C16 98.4183 19.5817 102 24 102H88C92.4183 102 96 98.4183 96 94V50C96 45.5817 92.4183 42 88 42H24ZM46 62.7597V81.2403C46 82.5964 47.5201 83.4413 48.7305 82.758L65.0992 73.5177C66.3003 72.8397 66.3003 71.1603 65.0992 70.4823L48.7305 61.242C47.5201 60.5587 46 61.4036 46 62.7597Z" fill="white" fill-opacity="0.4"/>
</g>
<g filter="url(#filter3_dd_1_80)">
<path fill-rule="evenodd" clip-rule="evenodd" d="M28 48C24.6863 48 22 50.6863 22 54V90C22 93.3137 24.6863 96 28 96H84C87.3137 96 90 93.3137 90 90V54C90 50.6863 87.3137 48 84 48H28ZM46 62.7597V81.2403C46 82.5964 47.5201 83.4413 48.7305 82.758L65.0992 73.5177C66.3003 72.8397 66.3003 71.1603 65.0992 70.4823L48.7305 61.242C47.5201 60.5587 46 61.4036 46 62.7597Z" fill="white" fill-opacity="0.6"/>
</g>
</g>
<defs>
<filter id="filter0_d_1_80" x="12" y="22" width="112" height="92" filterUnits="userSpaceOnUse" color-interpolation-filters="sRGB">
<feFlood flood-opacity="0" result="BackgroundImageFix"/>
<feColorMatrix in="SourceAlpha" type="matrix" values="0 0 0 0 0 0 0 0 0 0 0 0 0 0 0 0 0 0 127 0" result="hardAlpha"/>
<feOffset dx="4" dy="4"/>
<feGaussianBlur stdDeviation="4"/>
<feColorMatrix type="matrix" values="0 0 0 0 1 0 0 0 0 0.627451 0 0 0 0 0.0705882 0 0 0 0.4 0"/>
<feBlend mode="normal" in2="BackgroundImageFix" result="effect1_dropShadow_1_80"/>
<feBlend mode="normal" in="SourceGraphic" in2="effect1_dropShadow_1_80" result="shape"/>
</filter>
<filter id="filter1_d_1_80" x="24" y="18" width="96" height="76" filterUnits="userSpaceOnUse" color-interpolation-filters="sRGB">
<feFlood flood-opacity="0" result="BackgroundImageFix"/>
<feColorMatrix in="SourceAlpha" type="matrix" values="0 0 0 0 0 0 0 0 0 0 0 0 0 0 0 0 0 0 127 0" result="hardAlpha"/>
<feOffset/>
<feGaussianBlur stdDeviation="4"/>
<feComposite in2="hardAlpha" operator="out"/>
<feColorMatrix type="matrix" values="0 0 0 0 1 0 0 0 0 1 0 0 0 0 1 0 0 0 0.8 0"/>
<feBlend mode="normal" in2="BackgroundImageFix" result="effect1_dropShadow_1_80"/>
<feBlend mode="normal" in="SourceGraphic" in2="effect1_dropShadow_1_80" result="shape"/>
</filter>
<filter id="filter2_dd_1_80" x="8" y="38" width="96" height="76" filterUnits="userSpaceOnUse" color-interpolation-filters="sRGB">
<feFlood flood-opacity="0" result="BackgroundImageFix"/>
<feColorMatrix in="SourceAlpha" type="matrix" values="0 0 0 0 0 0 0 0 0 0 0 0 0 0 0 0 0 0 127 0" result="hardAlpha"/>
<feOffset/>
<feGaussianBlur stdDeviation="2"/>
<feComposite in2="hardAlpha" operator="out"/>
<feColorMatrix type="matrix" values="0 0 0 0 1 0 0 0 0 1 0 0 0 0 1 0 0 0 1 0"/>
<feBlend mode="normal" in2="BackgroundImageFix" result="effect1_dropShadow_1_80"/>
<feColorMatrix in="SourceAlpha" type="matrix" values="0 0 0 0 0 0 0 0 0 0 0 0 0 0 0 0 0 0 127 0" result="hardAlpha"/>
<feOffset dy="4"/>
<feGaussianBlur stdDeviation="4"/>
<feComposite in2="hardAlpha" operator="out"/>
<feColorMatrix type="matrix" values="0 0 0 0 1 0 0 0 0 1 0 0 0 0 1 0 0 0 1 0"/>
<feBlend mode="normal" in2="effect1_dropShadow_1_80" result="effect2_dropShadow_1_80"/>
<feBlend mode="normal" in="SourceGraphic" in2="effect2_dropShadow_1_80" result="shape"/>
</filter>
<filter id="filter3_dd_1_80" x="14" y="44" width="84" height="64" filterUnits="userSpaceOnUse" color-interpolation-filters="sRGB">
<feFlood flood-opacity="0" result="BackgroundImageFix"/>
<feColorMatrix in="SourceAlpha" type="matrix" values="0 0 0 0 0 0 0 0 0 0 0 0 0 0 0 0 0 0 127 0" result="hardAlpha"/>
<feOffset/>
<feGaussianBlur stdDeviation="2"/>
<feComposite in2="hardAlpha" operator="out"/>
<feColorMatrix type="matrix" values="0 0 0 0 1 0 0 0 0 1 0 0 0 0 1 0 0 0 1 0"/>
<feBlend mode="normal" in2="BackgroundImageFix" result="effect1_dropShadow_1_80"/>
<feColorMatrix in="SourceAlpha" type="matrix" values="0 0 0 0 0 0 0 0 0 0 0 0 0 0 0 0 0 0 127 0" result="hardAlpha"/>
<feOffset dy="4"/>
<feGaussianBlur stdDeviation="4"/>
<feComposite in2="hardAlpha" operator="out"/>
<feColorMatrix type="matrix" values="0 0 0 0 1 0 0 0 0 1 0 0 0 0 1 0 0 0 1 0"/>
<feBlend mode="normal" in2="effect1_dropShadow_1_80" result="effect2_dropShadow_1_80"/>
<feBlend mode="normal" in="SourceGraphic" in2="effect2_dropShadow_1_80" result="shape"/>
</filter>
<linearGradient id="paint0_linear_1_80" x1="72" y1="26" x2="72" y2="86" gradientUnits="userSpaceOnUse">
<stop stop-color="#FFBC0E"/>
<stop offset="1" stop-color="#FF7C1E"/>
</linearGradient>
</defs>
</svg>
