<svg version="1.2" xmlns="http://www.w3.org/2000/svg" viewBox="0 0 1280 445" width="1280"
    height="445"
    fill="#ed622b">
    <g>
        <path fill-rule="evenodd"
            d="m669.3 4.3c-4.4 0.3-18.4 1.9-21.9 2.4-3.9 0.6-12.1 1.1-25.9 1.7-9.6 0.4-22.5 1.1-25.4 1.3-3 0.3-10.4 0.7-20 1.2-5.7 0.2-14.6 1.1-19.4 1.9-23.6 3.8-33.8 6.1-43.4 9.6-5.7 2.1-14.9 6.5-18.3 8.7-3.7 2.4-11.3 8.6-13.1 10.8-1.8 2.1-6.8 10-7.2 11.3-0.6 2-0.2 7.7 0.7 9.8 1.3 3.3 1.3 3.2 0.1 7.9-1.5 5.6-2.1 9.1-2.8 15.8-0.3 3-0.8 7.4-1.1 9.8-1.1 8.6-1.4 11.6-1.8 19.8-0.3 6-0.3 10.2-0.2 14.7 0.3 7.8 0.3 7.5-0.2 16.1-0.5 9.5-0.5 15.4-0.2 32.7 0.2 13.9 0.5 20.5 1.1 24.7 0.1 1.1 0.4 4.2 0.6 6.9 0.3 2.8 0.6 6.7 0.9 8.7 0.2 2 0.4 5.2 0.4 6.9 0 5.4 0.5 11.7 1.5 17.7 0.5 3.2 1.1 7.3 1.3 9.1 0.3 1.8 0.6 4.1 0.8 5.1 0.1 1 0.4 3.3 0.6 5.2 0.3 1.8 0.7 4.5 1 5.9 0.3 1.4 0.6 3.1 0.6 3.8 0 1.8 0.8 5.3 2.8 12.8 0.6 2.5 2.9 8.6 4.6 12.5 2.6 6.1 3.7 8.5 4.6 10.2 1.2 2.5 5.7 8.8 8.9 12.6 1.5 1.7 3.1 3.7 3.7 4.5 0.5 0.9 1.4 2 2 2.5 2.3 2.1 7.9 4.3 15.5 6.1 2.3 0.6 5.8 1.5 7.7 2 12.9 3.4 22.1 4.4 30.7 3.3 1.7-0.2 6.2-0.5 10-0.7 3.9-0.2 10.2-0.4 14.1-0.6 13.7-0.5 22-0.6 30.4-0.1 10.7 0.6 18.8 0.9 26.2 0.9 7.2 0.1 38-0.6 46.2-1 3.2-0.2 9-0.4 12.8-0.6 3.9-0.1 8.7-0.4 10.6-0.5 2-0.2 6.1-0.4 9.1-0.6 12.8-0.7 19-1.7 27.5-4.3 8.2-2.5 17.1-6.4 22.9-10.1 3.2-2.1 11.8-8.4 15.1-11 4.5-3.7 9.6-8.6 12.4-12.2 3.3-4 5.7-9.4 7.8-17.5 0.3-1.5 1-3.5 1.4-4.2 0.4-0.8 0.9-1.9 1.2-2.5 0.3-0.6 0.8-2.3 1-3.8 0.3-1.6 1.2-5.5 1.9-8.9 1.3-5.4 1.4-6.6 1.8-11.4 0.3-5.7 0.1-22.9-0.4-30.7-0.4-7.1-0.3-18.6 0.3-26.7 0.8-10.7 1-17.9 0.6-27-0.4-10.5-0.8-14.9-3-36.5-0.2-1.4-0.7-7-1.1-12.3-0.5-5.4-1-11.1-1.2-12.7-0.3-3-1.1-13.9-1.6-21.8-0.2-2.5-0.4-6-0.6-7.8-0.2-1.7-0.3-4.9-0.3-6.9 0-5.1-0.5-9.5-1.7-13.9-1.7-6-2.1-8.3-2.1-10.2 0.1-1.3-0.1-2.1-0.5-3-0.3-0.7-0.9-2.4-1.4-3.9-0.7-2.2-1-2.8-2.3-4.1-2.5-2.5-5.9-4.7-7.4-4.7-0.4 0-2-0.8-3.7-1.8-1.6-1-3.9-2.2-4.9-2.7-1.1-0.5-2.5-1.2-3.2-1.6-1.5-0.9-4.9-2.1-8-3-2.3-0.6-5.6-1.9-10.4-4.2-4.4-2-15-5.3-18.6-5.8-0.8-0.1-5.1-0.8-9.7-1.5-12.5-2-13.8-2.2-28.7-2.5-6.2-0.1-12.1-0.4-13.2-0.6-4-0.5-12.3-1.3-14-1.3-0.9 0-2.9 0.2-4.5 0.3zm-4.5 45.9c6.5 0.8 9.3 1.3 14.7 2.9 6 1.8 12.2 4.2 16.2 6.2 3.7 1.9 7.4 4.9 10.2 8.5 6.4 8.2 10.2 16.3 11.7 25.1 1.9 11.6 0.5 22.4-4.1 31.3-2.5 4.9-3.8 6.2-12.1 12.5-5.7 4.3-9.2 6.6-14.1 8.9-3.6 1.8-4.7 2.2-8.6 3.2-6.1 1.5-9.9 1.9-22.5 2.2-5.7 0.1-11.5 0.3-12.8 0.4-3 0.1-16.9-0.3-20.8-0.7-7.4-0.7-13.6-2.7-18.9-5.8-2-1.2-3.9-2.4-4.2-2.7-0.3-0.3-2.6-1.9-5.1-3.7-8.7-6.3-13-10.3-16.1-15.1-1.5-2.4-4.4-8.3-5.3-10.8-0.7-2.1-0.7-2.5-0.7-7.3 0-5.7-0.2-4.6 3-15.4 2.1-7 3.1-9.5 5.6-13.4 4.2-6.5 7.4-9.8 13.7-14 4.9-3.2 7.1-4.3 11.7-6 5.4-2 11.7-3.3 22.9-4.9 3.4-0.4 7.8-1.1 10-1.5 3.6-0.6 4.3-0.7 12.1-0.6 6.3 0.1 9.5 0.2 13.5 0.7zm1.7 104.7c4 0.3 4.9 0.7 7.7 3.6 2.3 2.5 3 3.8 4.2 8.5 1.1 4.5 1.4 6.6 1.6 15.8 0.2 5 0.4 9.3 0.5 9.6 0 0.3 0.5 5.3 1.1 11 0.5 5.8 1 10.7 1.1 10.9 0 0.3 0.4 2.9 0.8 6 1.3 10 3.3 21.4 4.7 25.4 1.4 4.1 4.1 8.3 5.3 8.3 0.5 0 3.2-2.6 4.1-3.9 1.2-1.9 9.5-10.6 11-11.5 2.4-1.6 4.4-1.5 8.8 0.6 2.6 1.3 4.3 2.5 5 3.8 0.8 1.7-0.4 6.2-2.9 10.6-2.7 4.8-7.7 12-10.2 14.8-3.2 3.6-9.3 9.5-11.9 11.6-1.1 0.8-3.3 2.7-4.9 4.1-6.4 5.5-9.4 7.5-14.5 10-5.8 2.9-9.6 3.7-20 4.2-7.6 0.4-9.6 0.3-13.5-0.7-9.9-2.5-14.7-4.8-18.7-9.2-2.5-2.5-3.4-4.2-8-13.8-6-12.8-7.6-17.1-11-29.5-3.7-13.6-4.3-17.4-4.7-31.6-0.3-12.1-0.5-14.9-1.1-14.9-0.8 0-2.5 2.6-8.2 12.4-1.8 3-5.6 9.5-8.7 14.6-3.1 5.1-7.1 12-9.1 15.4-6 10.6-6.5 11.3-8.4 13.2-2.1 2.2-3.8 2.9-6.3 2.7q-4.2-0.2-4.6-5.7c-0.2-2.3 0.2-3.2 3.1-6.3 4.4-4.9 7.2-9.1 10.4-16.1 2.9-6.1 10.8-20.2 17.1-30.3 6.2-10 11.6-19.3 13.1-22.5 0.4-1 1.2-3.5 1.9-5.6 1.3-4.4 2.9-7.9 4-9.1 1.4-1.4 3.8-2.2 8.3-3 6.9-1.2 12.7-1.7 37.9-3.4 4.5-0.4 11.4-0.4 15 0z" />
        <path fill-rule="evenodd"
            d="m637.4 90.8c-2.5 0.7-6.5 2.7-8.3 4.2-1.1 0.9-1.6 2.5-1.1 3.7 1.7 4 12.6 7.6 23.5 7.7 2.8 0.1 3.7 0 5.4-0.5 4.1-1.3 8-3.8 8-5.2 0-0.3-0.2-0.9-0.5-1.4-2-3.2-6.7-5.8-14.2-8-2.8-0.7-3.9-0.9-6.8-1-3-0.2-3.7-0.1-6 0.5zm-100.5 264.5c-2.9 0.6-5.8 3.1-7 6l-0.6 1.6v69.6l0.6 1.6c1.8 4.3 6.7 7 11.1 6 3.1-0.6 5.7-2.7 7.1-5.5 0.7-1.5 0.8-1.8 0.9-7.2l0.1-5.7 2.5-2.7c1.4-1.6 2.5-2.8 2.6-2.8 0.1 0 2 3 4.3 6.8 9.1 15.1 9.1 15.1 11.9 16.5 2.1 0.9 4.9 0.9 7.3 0 2.2-0.8 4.3-2.9 5.1-5.1 0.7-1.7 0.8-4.4 0.2-6.2-0.2-0.6-3.6-6.5-7.6-12.9l-7.2-11.6 0.7-0.8c6.2-6.8 9.3-10.4 9.9-11.5 0.5-1 0.6-1.7 0.6-3.4 0-2.4-0.8-4.2-2.6-5.8-1.7-1.5-2.8-2-5.2-2-1.7 0-2.4 0.1-3.6 0.8-1.4 0.7-2.4 1.6-10.1 10.7-4.6 5.5-8.6 10-8.7 10.1-0.1 0-0.2-8.4-0.2-18.9 0-20.5 0-21-1.5-23.2-1-1.5-2.7-3-4.2-3.7-1.6-0.8-4.5-1.1-6.4-0.7zm-35.7 0.8c-3.8 0.7-6.4 3.7-6.7 7.6-0.2 3.5 1.4 6.3 4.5 7.8l1.8 0.9 4.7-0.1c5.4-0.1 6.1-0.3 8-2.3 1.8-1.9 2.3-3.3 2.3-5.8 0-2.5-0.7-4.2-2.5-5.9-1.8-1.8-3.3-2.2-7.4-2.4-2 0-4.1 0.1-4.7 0.2zm115 23.6c-3 0.4-6 1.1-7.6 1.7-10.1 3.6-16.5 11.4-18.5 22.7-0.5 3.1-0.4 11.1 0.3 14.1 3.3 14.6 13.8 22.7 29.5 22.7 6.5 0 10.8-0.9 15.7-3.3 9.9-4.8 15.5-14.7 15.5-27.2 0.1-19-12-31.1-30.9-30.9-1.8 0.1-3.6 0.1-4 0.2zm8.3 14.7c3 1.4 4.9 4.3 6 8.7 0.5 2 0.6 3.3 0.6 7.1 0.1 5.1-0.2 6.7-1.5 10.1-1 2.7-2.7 4.6-4.8 5.7-1.4 0.6-1.9 0.7-4.4 0.7-2.4 0-2.9-0.1-4.3-0.7-3-1.6-5-4.6-6-9.5-0.5-2.3-0.6-3.4-0.5-7.4 0.2-5.2 0.5-6.8 2.1-10 1.8-3.7 5.1-5.7 9.2-5.4 1.5 0 2.6 0.3 3.6 0.7zm128.4-14.4c-4.5 0.5-8.2 1.6-11.3 3.1-4.9 2.4-7.2 5.3-7.1 9.2 0 5 3.5 8.1 8.6 7.8 2.5-0.1 4-0.8 7.6-3.3 3.7-2.7 5-3.1 9.2-3.1 3.2 0 3.6 0 4.8 0.7 2.3 1.2 3.3 3.3 3.5 7.4l0.1 2.1-7.3 0.2c-11.6 0.3-17 1.3-22.3 4.2-2.2 1.2-5.1 4.1-6.2 6.1-2.3 4.4-2.4 11.7-0.2 16.4 2.4 4.9 7.3 8.5 13.3 9.6 3 0.5 8.8 0.4 11.7-0.3 4.4-1.1 7.9-3.2 10.5-6.4 1.1-1.3 1.4-1.4 1.4-0.5 0 0.9 1.4 3.3 2.5 4.4 2.7 2.7 6.7 3.4 10.1 1.8 2.1-0.9 3.7-2.6 4.7-4.8l0.8-1.5 0.1-14.4c0-15.2-0.1-19.7-1.1-23.4-2.8-10.9-11.3-15.9-26.8-15.8-2 0.1-5 0.3-6.6 0.5zm15.4 36.7c-0.5 6.7-4.3 10.9-10.4 11.5-4.3 0.3-7.4-1.9-7.8-5.7-0.2-1.8 0.3-3.4 1.4-4.7 2.2-2.5 5.1-3.2 13-3.3h4zm-72.2-36.7c-2.6 0.4-5.9 1.5-7.8 2.7-2.3 1.3-5.5 4.5-6.7 6.6l-0.9 1.6-0.2-2c-0.3-3.7-2.3-6.6-5.4-8-2.2-1-5.3-1.1-7.5 0-2 0.9-3.7 2.6-4.6 4.6l-0.7 1.5-0.1 22c-0.1 24.5-0.1 24 1.7 26.8 1.8 2.8 4.8 4.4 8.3 4.3 3.8 0 7-2.1 8.7-5.5l0.9-1.9 0.2-14.4c0.1-15.2 0.1-15.3 1.4-18.3 0.8-1.9 2.3-3.4 4.2-4.4 1.6-0.7 2.1-0.8 4.1-0.8 4.2 0 6.6 1.8 8.1 6.1 0.4 1.1 0.4 3.6 0.6 16.6l0.1 15.2 0.8 1.6c1.4 3.1 4 5.1 7.4 5.8 4.7 0.8 9.4-2.2 11-6.9 0.5-1.7 0.5-2.5 0.5-16.5 0-18.1-0.2-21.2-2-25.7-2.1-5.4-6.3-9-12-10.5-2.4-0.6-7.7-0.9-10.1-0.5zm-193 0.3c-2.9 0.7-5.7 2.9-6.9 5.5l-0.8 1.5v45.4l0.7 1.6c1.5 3.1 4.1 5.1 7.5 5.8 4.7 0.8 9.5-2.2 10.9-7 0.6-1.7 0.6-2.3 0.5-23.5v-21.7l-0.7-1.7c-0.9-2.3-3.2-4.5-5.4-5.3-1.8-0.7-4.5-1-5.8-0.6z" />
    </g>
</svg>