<svg xmlns="http://www.w3.org/2000/svg" width="1768" height="2301.333" version="1.0"
    viewBox="0 0 1326 1726" fill="#ed622b">
    <path
        d="M773 47.1c-15.9 1.3-66.7 6.9-79.5 8.8-14.2 2.2-44 4.1-94 6.1-35.1 1.4-81.9 3.9-92.5 4.9-10.8 1.1-37.5 2.6-72.4 4.1-20.8.9-53.3 4.1-70.6 6.9-85.7 14-122.8 22.3-157.5 35.1-20.7 7.7-54.3 23.5-66.5 31.4-13.7 8.9-41 31.4-47.7 39.3-6.5 7.8-24.5 36.2-26 41.2-2.3 7.3-1 27.7 2.3 35.6 4.9 11.7 4.9 11.6.5 28.6-5.3 20.3-7.6 33.2-10.1 57.4-1.1 11-3 27-4.1 35.5-3.9 31.2-4.9 42.1-6.4 71.9-1.1 21.7-1.3 37.1-.8 53.5 1 28.3 1 27.3-.7 58.6-1.8 34.3-1.9 55.9-.9 118.5.9 50.5 1.9 74.5 4 90 .5 3.8 1.6 15.1 2.4 25 .8 9.9 2.2 24.1 3 31.5.8 7.4 1.5 18.7 1.5 25.1 0 19.6 1.9 42.5 5.4 64.4 1.9 11.5 4.1 26.4 5 33 1 6.6 2.1 14.9 2.6 18.5.6 3.6 1.7 12 2.5 18.8.9 6.7 2.4 16.4 3.5 21.5 1.1 5 2 11.2 2 13.7.1 6.4 2.9 19.3 10.2 46.5 2.4 9 10.6 31.1 16.8 45.5 9.6 22.2 13.5 30.9 16.6 37.1 4.5 9.1 20.9 31.9 32.6 45.5 5.3 6.2 11.3 13.6 13.2 16.6 1.8 3 5.2 7 7.5 9.1 8.3 7.5 28.4 15.5 56.1 22.2 8.5 2.1 21.1 5.3 28 7.1 46.9 12.4 80.4 16 111.5 11.9 6.1-.8 22.5-1.9 36.5-2.5 14-.6 37-1.5 51-2.1 50-2 79.9-2.2 110.5-.4 38.7 2.2 68.3 3.3 95 3.4 26.3.2 138.3-2.5 168-3.9 11.6-.6 32.5-1.5 46.5-2s31.4-1.4 38.5-2c7.2-.5 22-1.4 33-2 46.4-2.6 69-6.1 100-15.5 29.8-9.1 61.9-23.4 83-37 11.5-7.5 43-30.3 54.8-39.9 16.6-13.4 34.8-31.1 45.3-44.1 11.8-14.5 20.6-34.4 28-63.5 1.4-5.8 3.8-12.8 5.2-15.5 1.4-2.8 3.4-6.8 4.5-8.9 1-2.2 2.7-8.5 3.7-14 1-5.6 4.1-20 6.9-32.1 4.5-19.6 5.1-24.1 6.2-41.5 1.2-20.6.6-83.3-1.1-111.5-1.5-26-1.1-67.7 1-96.9 2.8-39 3.4-65.3 2.1-98.1-1.5-38.2-2.9-54.3-11-132.5-.6-5.2-2.4-25.5-4-45-1.7-19.5-3.5-40.2-4.1-46-1.1-11-4.1-50.6-6-79-.6-9.1-1.5-21.8-2.1-28.3-.6-6.5-1-17.9-1-25.3 0-18.5-2.1-34.5-6.4-50.4-6-21.7-7.6-30-7.4-37 .1-4.7-.4-7.8-1.8-11-1.1-2.5-3.4-8.8-5.1-14-2.8-8.2-3.9-10.3-8.5-15-8.9-9.2-21.3-17-26.9-17-1.3 0-7.2-3-13.3-6.7-6-3.7-14.1-8.1-18-9.8-3.8-1.7-9-4.3-11.5-5.7-5.5-3.3-17.7-7.8-29-10.8-8.6-2.3-20.5-7.1-38-15.3-15.8-7.4-54.3-19.5-67.5-21.2-2.7-.4-18.5-2.9-35-5.5-45.4-7.3-50.4-7.8-104.5-9-22.3-.5-43.9-1.4-48-2-14.3-2.1-44.5-5-50.5-4.9-3.3.1-10.7.6-16.5 1zm-16.5 166.8c23.6 2.8 33.9 4.8 53.6 10.7 21.7 6.5 44.4 15.1 58.9 22.4 13.3 6.8 26.6 17.9 36.8 30.8 23.5 29.9 37.2 59.3 42.6 91.2 7 42.3 2 81.3-14.8 113.5-9.3 18-13.9 22.8-44.1 45.6-20.8 15.7-33.5 23.8-51 32.4-13.1 6.5-17.1 8-31.5 11.5-21.9 5.4-36 6.8-81.5 8-20.9.5-41.8 1.2-46.5 1.4-11 .6-61.3-1.1-75.5-2.5-27-2.6-49.5-9.6-68.7-21.1-7.3-4.4-14.2-8.8-15.3-9.7-1.1-1-9.4-7.1-18.5-13.6-31.5-22.6-47.2-37.3-58.4-54.7-5.6-8.8-16.1-30.3-19.3-39.3-2.6-7.6-2.7-8.9-2.7-26.5-.1-20.7-.8-16.8 10.8-55.9 7.7-25.6 11.4-34.6 20.4-48.5 15.3-23.9 27-35.8 49.7-50.9 17.8-11.8 25.8-15.9 42.5-21.9 19.9-7.2 42.8-12.1 83.5-17.7 12.1-1.7 28.3-4.2 36-5.6 13.2-2.3 15.8-2.4 44-2.1 22.9.2 34.5.8 49 2.5zm6.3 380.1c14.5 1.2 17.8 2.7 27.9 13.3 8.6 9 11 13.7 15.4 30.9 4.1 16.4 4.9 24 5.9 57.3.5 18.1 1.2 33.9 1.5 35 .3 1.1 2.1 19.1 4 40 2 20.9 3.8 38.7 4 39.6.3.8 1.6 10.5 3 21.5 4.6 36.5 12.2 77.8 17.1 92.2 5 15.1 14.8 30.2 19.4 30.2 1.7 0 11.6-9.4 14.7-14.1 4.6-6.8 34.7-38.3 39.9-41.8 8.7-5.7 16-5.2 31.9 2.3 9.8 4.6 15.7 9.1 18.2 13.9 3.1 6-1.3 22.3-10.3 38.2-9.9 17.5-27.9 43.7-37.1 54-11.8 13.1-33.9 34.6-43.1 41.9-4.1 3.2-12.2 9.9-18 15-23.3 19.9-34 27.3-52.5 36.4-21.1 10.4-35 13.4-72.9 15.3-27.5 1.4-34.8 1-48.8-2.6-36-9.1-53.4-17.6-68.2-33.3-8.8-9.3-12.2-15.4-28.7-50.4-21.9-46.4-27.8-62.1-40.1-107.1-13.6-49.2-15.6-63.1-17-114.5-1.2-44.3-1.9-54.2-4.1-54.2-3 0-9.1 9.2-29.9 45-6.3 10.7-20.4 34.6-31.5 53-11.1 18.4-25.9 43.6-32.9 56-21.9 38.3-23.6 41-30.5 48-7.8 8-13.8 10.5-23 9.8-10.3-.7-15.9-7.6-16.9-20.7-.6-8.5.9-11.6 11.3-23.1 16.2-17.8 26.1-33.1 37.9-58.5 10.4-22.2 39.2-73.3 62-110 22.8-36.4 42.2-69.9 47.6-81.8 1.5-3.4 4.6-12.5 6.9-20.2 4.9-16 10.5-28.7 14.7-32.9 5.1-5.1 13.7-8.2 29.9-11 25.2-4.3 46.4-6.2 138-12.5 16.2-1.2 41.4-1.2 54.3-.1z" />
    <path
        d="M657.2 361.4c-9.2 2.5-23.7 9.8-30.2 15.3-3.9 3.3-5.7 9.1-4 13.2 6.1 14.8 45.6 27.9 85.2 28.3 10.2.1 13.6-.2 19.8-2.1 14.9-4.5 29-13.7 29-18.9 0-.9-.9-3.1-2-4.9-7-11.6-24.1-21.2-51.5-29-9.9-2.8-14.2-3.5-24.5-3.9-11-.4-13.6-.1-21.8 2zM292.2 1322c-10.6 2.2-21.2 11.3-25.4 21.8l-2.3 5.7v253l2.3 5.7c6.3 15.6 24.1 25.4 40 21.9 11.6-2.4 20.9-9.7 25.9-20.1 2.6-5.3 2.8-6.3 3.3-26.1l.5-20.5 9-10.1c5-5.6 9.2-10.2 9.5-10.2.3 0 7.2 11 15.4 24.7 33.3 55 33.3 55 43.5 59.9 7.4 3.5 17.8 3.6 26.4.3 7.9-3 15.7-10.8 18.6-18.5 2.4-6.5 2.8-16 .8-22.6-.8-2.4-13.1-23.5-27.6-46.8l-26.2-42.4 2.4-2.6c22.6-24.7 33.9-37.8 35.8-41.8 1.9-3.8 2.4-6.3 2.3-12.3-.1-9-2.9-15.5-9.4-21.4-6-5.4-10.2-7-19-7-6.2-.1-8.5.4-13.1 2.7-5.1 2.5-8.4 6-36.4 39-16.9 19.9-31.2 36.3-31.6 36.5-.5.2-.9-30.3-.9-68.5 0-74.4-.1-76.3-5.4-84.3-3.7-5.5-9.7-10.9-15.3-13.5-5.8-2.8-16.3-3.9-23.1-2.5zM162.5 1324.9c-13.8 2.6-23.4 13.5-24.3 27.5-.8 13 4.9 23.1 16.2 28.6l6.4 3.2 17.3-.4c19.6-.4 22-1.1 29-8.5 6.4-6.6 8.4-11.7 8.3-20.8 0-9.3-2.6-15.5-9.1-21.7-6.6-6.4-11.8-8-26.7-8.4-7.2-.1-14.9.1-17.1.5zM580 1410.7c-10.9 1.6-21.6 4-27.5 6.1-36.8 13-60 41.6-67.1 82.6-2 11.2-1.4 40.2 1.1 51.1 11.8 52.9 50.2 82.5 107 82.5 23.8 0 39.1-3.2 57-12 35.9-17.5 56.4-53.4 56.5-98.9.1-68.9-43.8-112.7-112.3-112-6.7.1-13.3.3-14.7.6zm30.2 53.5c10.8 5 18 15.4 22 31.6 1.8 7.1 2.2 11.8 2.2 25.7.1 18.6-.8 24.2-5.6 36.7-3.6 9.6-9.7 16.6-17.6 20.5-5.1 2.5-6.8 2.8-15.7 2.8-8.9 0-10.6-.3-15.6-2.8-11.2-5.5-18.4-16.7-22.1-34.4-1.7-8.3-1.9-12.4-1.5-26.8.5-19 1.7-24.8 7.3-36.2 6.6-13.7 18.7-20.8 33.6-19.9 5.3.3 9.3 1.2 13 2.8zM1076.5 1411.6c-16.3 2.1-29.7 5.8-41 11.3-17.9 8.8-26 19.4-25.8 33.7.2 17.9 12.8 29.2 31.3 28.2 9-.5 14.4-2.9 27.6-12.1 13.6-9.6 18.2-11.2 33.4-11.2 11.5 0 13 .2 17.5 2.6 8.3 4.2 11.9 12 12.8 27l.4 7.6-26.6.6c-42.3 1-61.7 4.7-81.1 15.4-7.8 4.3-18.4 14.8-22.3 22-8.6 16.1-9 42.5-.8 59.5 8.6 17.9 26.4 30.8 48.1 34.8 11 2.1 32.1 1.7 42.5-.9 15.9-3.9 28.9-11.8 38.4-23.3 3.8-4.6 5.1-5.1 5.1-1.9 0 3.2 5 12.1 9 16.1 9.6 9.6 24.2 12.2 36.7 6.5 7.5-3.3 13.4-9.3 17.1-17.3l2.7-5.7.3-52c.3-55.2-.4-71.7-3.8-85-10.1-39.7-41-57.9-97.4-57.4-7.2.1-18 .8-24.1 1.5zm56.2 133.6c-1.8 24.3-15.7 39.6-37.8 41.5-15.8 1.4-26.9-6.6-28.6-20.5-.7-6.5 1.2-12.6 5.4-17.3 8-8.9 18.5-11.5 47.2-11.8l14.4-.1-.6 8.2zM870.5 1412c-9.4 1.5-21.4 5.6-28.4 9.7-8.4 4.9-20 16.4-24.2 23.9l-3.4 5.9-.6-7.2c-1.2-13.3-8.3-23.8-19.8-29.1-7.9-3.7-19.2-3.8-27.1-.1-7.2 3.4-13.5 9.7-16.8 16.7l-2.7 5.7-.3 79.9c-.3 88.8-.4 87.2 6.3 97.3 6.7 10.1 17.6 15.8 30 15.7 13.8-.2 25.5-7.6 31.7-20.2l3.3-6.7.6-52.5c.6-55 .6-55.4 5.3-66.4 2.8-6.8 8.1-12.3 15.3-15.8 5.8-2.8 7.5-3.2 14.7-3.1 15.4.1 24.2 6.7 29.4 22.1 1.4 4 1.7 13 2.1 60.2l.6 55.5 2.7 5.7c5.3 11.4 14.7 18.6 27 20.9 17.1 3.1 34.3-7.7 39.8-25 1.9-6 2-9 2-60 0-65.5-.9-76.9-7.2-93.1-7.7-19.6-22.8-32.8-43.7-38.1-8.8-2.3-27.8-3.2-36.6-1.9zM169.5 1412.9c-10.7 2.8-20.7 10.7-25.2 20l-2.8 5.6v165l2.7 5.7c5.3 11.4 14.7 18.6 27 20.9 17.2 3.2 34.4-7.7 39.8-25.1 2-6.4 2.1-8.6 1.8-85.5l-.3-79-2.4-6c-3.3-8.2-11.6-16.4-19.5-19.4-6.5-2.4-16.4-3.5-21.1-2.2z" />
</svg>