<svg xmlns="http://www.w3.org/2000/svg" width="1280" height="640" viewBox="0 0 1280 640"
    fill="#ed622b">
    <g>
        <path id="Layer" fill-rule="evenodd"
            d="M678.9 25.1c-5.9.5-24.8 2.6-29.5 3.3-5.3.8-16.4 1.5-35 2.3-13.1.5-30.5 1.4-34.4 1.8-4.1.4-14 .9-27 1.5-7.7.3-19.8 1.5-26.2 2.6-31.9 5.2-45.7 8.3-58.6 13-7.7 2.9-20.2 8.8-24.8 11.7-5.1 3.3-15.2 11.7-17.7 14.6-2.4 2.9-9.1 13.5-9.7 15.4-.9 2.7-.4 10.3.9 13.2 1.8 4.4 1.8 4.3.1 10.6-1.9 7.6-2.8 12.4-3.7 21.4-.4 4.1-1.1 10-1.5 13.2-1.5 11.6-1.9 15.7-2.4 26.8-.4 8-.5 13.8-.3 19.9.3 10.5.3 10.1-.3 21.8-.7 12.7-.7 20.8-.3 44.1.3 18.7.7 27.7 1.5 33.4.2 1.5.6 5.7.9 9.3.3 3.7.8 9 1.1 11.8.3 2.7.5 6.9.5 9.3 0 7.3.7 15.8 2 24 .8 4.2 1.6 9.8 1.9 12.2.4 2.5.8 5.6 1 6.9.2 1.4.6 4.5.9 7 .3 2.5.9 6.1 1.3 8 .4 1.9.8 4.2.8 5.1 0 2.4 1 7.2 3.7 17.3.9 3.4 4 11.6 6.3 16.9 3.6 8.3 5 11.5 6.2 13.8 1.6 3.4 7.7 11.9 12.1 17 2 2.3 4.2 5 4.9 6.2.7 1.1 1.9 2.6 2.8 3.3 3.1 2.8 10.6 5.8 20.9 8.3 3.1.8 7.8 2 10.4 2.6 17.4 4.7 29.9 6 41.5 4.5 2.2-.3 8.3-.7 13.6-1 5.2-.2 13.7-.5 18.9-.7 18.6-.8 29.8-.9 41.1-.2 14.4.8 25.5 1.2 35.4 1.3 9.8 0 51.4-1 62.5-1.5 4.3-.2 12.1-.5 17.3-.7 5.2-.2 11.7-.5 14.3-.8 2.7-.2 8.2-.5 12.3-.7 17.3-1 25.7-2.3 37.2-5.8 11.1-3.4 23-8.7 30.9-13.7 4.3-2.8 16-11.3 20.4-14.9 6.2-5 12.9-11.6 16.8-16.4 4.4-5.4 7.7-12.8 10.4-23.6.6-2.2 1.5-4.8 2-5.8s1.2-2.5 1.7-3.3c.3-.8 1-3.2 1.3-5.2.4-2.1 1.6-7.4 2.6-12 1.7-7.2 1.9-8.9 2.3-15.4.5-7.7.2-31-.4-41.5-.6-9.7-.4-25.2.4-36 1-14.5 1.2-24.3.8-36.5-.6-14.2-1.1-20.2-4.1-49.3-.3-2-.9-9.5-1.5-16.8-.7-7.2-1.3-14.9-1.6-17.1-.4-4.1-1.5-18.8-2.2-29.4-.2-3.4-.5-8.1-.8-10.5-.2-2.4-.3-6.7-.3-9.4 0-6.9-.8-12.9-2.4-18.8-2.3-8-2.8-11.1-2.8-13.7.1-1.8-.1-2.9-.6-4.1-.5-1-1.3-3.3-1.9-5.2-1.1-3.1-1.5-3.9-3.2-5.6-3.3-3.4-7.9-6.3-10-6.3-.5 0-2.7-1.2-5-2.5-2.2-1.4-5.2-3.1-6.7-3.7-1.4-.6-3.3-1.6-4.2-2.1-2.1-1.2-6.6-2.9-10.8-4-3.2-.9-7.7-2.7-14.2-5.7-5.8-2.8-20.2-7.3-25.1-7.9-1-.2-6.9-1.1-13-2-16.9-2.8-18.8-3-38.9-3.4-8.3-.2-16.3-.5-17.8-.7-5.4-.8-16.6-1.9-18.8-1.9-1.3.1-4 .3-6.2.4zm-6.1 62.1c8.8 1 12.6 1.8 19.9 3.9 8.1 2.5 16.6 5.7 22 8.4 4.9 2.5 9.8 6.6 13.6 11.4 8.8 11.2 13.9 22.1 15.9 34 2.6 15.7.7 30.2-5.5 42.2-3.5 6.7-5.2 8.5-16.4 17-7.8 5.8-12.5 8.8-19 12-4.9 2.4-6.4 3-11.7 4.3-8.2 2-13.4 2.5-30.3 3-7.8.2-15.6.4-17.3.5-4.1.2-22.8-.4-28.1-.9-10.1-1-18.4-3.6-25.6-7.9-2.7-1.6-5.3-3.3-5.7-3.6-.4-.4-3.5-2.6-6.9-5.1-11.7-8.4-17.5-13.8-21.7-20.3-2.1-3.3-6-11.3-7.2-14.6-.9-2.9-1-3.3-1-9.9 0-7.7-.3-6.2 4-20.8 2.9-9.5 4.3-12.9 7.6-18 5.7-8.9 10.1-13.3 18.5-19 6.6-4.4 9.6-5.9 15.8-8.1 7.4-2.7 16-4.5 31.1-6.6 4.5-.6 10.5-1.6 13.4-2.1 4.9-.8 5.9-.9 16.4-.8 8.5.1 12.8.3 18.2 1zm2.3 141.4c5.4.4 6.7 1 10.4 4.9 3.2 3.4 4.1 5.1 5.7 11.5 1.6 6.1 1.9 9 2.2 21.4.2 6.7.5 12.6.6 13 .1.4.8 7.1 1.5 14.9.7 7.7 1.4 14.4 1.5 14.7.1.3.6 3.9 1.1 8 1.7 13.6 4.5 28.9 6.4 34.3 1.8 5.6 5.5 11.2 7.2 11.2.6 0 4.3-3.5 5.4-5.2 1.8-2.5 13-14.3 14.9-15.6 3.2-2.1 5.9-1.9 11.9.9 3.6 1.7 5.8 3.4 6.7 5.2 1.2 2.2-.5 8.3-3.8 14.2-3.7 6.5-10.4 16.2-13.8 20.1-4.4 4.8-12.6 12.8-16 15.6-1.6 1.1-4.6 3.6-6.7 5.5-8.7 7.4-12.7 10.2-19.6 13.6-7.8 3.8-13 5-27.1 5.7-10.2.5-12.9.3-18.2-1-13.3-3.4-19.8-6.5-25.3-12.4-3.3-3.5-4.6-5.7-10.7-18.7-8.2-17.3-10.3-23.1-14.9-39.9-5.1-18.3-5.8-23.5-6.4-42.6-.4-16.5-.7-20.2-1.5-20.2-1.1 0-3.4 3.5-11.1 16.8-2.3 4-7.6 12.9-11.7 19.7-4.1 6.9-9.7 16.2-12.3 20.8-8.1 14.3-8.7 15.3-11.3 17.9-2.9 3-5.1 3.9-8.6 3.6q-5.7-.3-6.3-7.7c-.2-3.1.4-4.3 4.3-8.5 6-6.7 9.7-12.4 14.1-21.8 3.8-8.3 14.5-27.3 23-40.9 8.5-13.6 15.7-26 17.7-30.5.6-1.2 1.7-4.6 2.6-7.5 1.8-5.9 3.9-10.7 5.5-12.2 1.9-1.9 5.1-3.1 11.1-4.1 9.4-1.6 17.3-2.3 51.3-4.7 6.1-.4 15.4-.4 20.2 0z"
        />
        <path fill-rule="evenodd"
            d="M635.8 142c-3.4 1-8.8 3.7-11.2 5.7-1.4 1.3-2.1 3.4-1.5 4.9 2.3 5.6 17 10.4 31.7 10.6 3.8 0 5.1-.1 7.4-.8 5.5-1.7 10.8-5.1 10.8-7 0-.4-.4-1.2-.8-1.9-2.6-4.3-8.9-7.8-19.1-10.7-3.7-1.1-5.3-1.3-9.1-1.5-4.1-.1-5.1 0-8.2.7zM500 499.4c-3.9.9-7.8 4.3-9.4 8.2l-.9 2.1v94.1l.9 2.1c2.3 5.8 9 9.5 14.9 8.2 4.3-.9 7.8-3.6 9.6-7.5 1-2 1.1-2.3 1.2-9.7l.2-7.6 3.4-3.8c1.8-2.1 3.4-3.8 3.5-3.8.1 0 2.7 4.1 5.7 9.2 12.4 20.5 12.4 20.5 16.2 22.3 2.8 1.3 6.6 1.3 9.8.1 3-1.1 5.9-4 7-6.9.9-2.4 1-5.9.3-8.4-.3-.9-4.9-8.7-10.3-17.4l-9.8-15.8.9-1c8.5-9.1 12.7-14 13.4-15.5.7-1.4.9-2.3.8-4.6 0-3.3-1.1-5.7-3.5-7.9-2.2-2.1-3.8-2.6-7-2.6-2.4-.1-3.2.1-4.9 1-1.9.9-3.1 2.2-13.6 14.5-6.3 7.4-11.6 13.5-11.7 13.5-.2.1-.4-11.2-.4-25.4 0-27.7 0-28.4-2-31.4-1.3-2-3.6-4.1-5.7-5-2.1-1.1-6-1.5-8.6-1zm-48.2 1.1c-5.1 1-8.7 5-9.1 10.3-.2 4.8 1.9 8.6 6.1 10.6l2.4 1.2 6.4-.2c7.3-.1 8.2-.4 10.8-3.1 2.4-2.5 3.1-4.4 3.1-7.8 0-3.4-1-5.7-3.4-8-2.5-2.4-4.4-3-9.9-3.2-2.7 0-5.6.1-6.4.2zm155.3 31.9c-4 .6-8 1.5-10.2 2.3-13.7 4.9-22.3 15.5-25 30.7-.7 4.2-.5 15 .4 19.1 4.4 19.6 18.7 30.7 39.8 30.7 8.9 0 14.6-1.2 21.3-4.5 13.3-6.5 20.9-19.9 21-36.8 0-25.6-16.3-41.9-41.8-41.7-2.5.1-5 .1-5.5.2zm11.3 20c4 1.8 6.7 5.7 8.1 11.7.7 2.7.9 4.4.9 9.6 0 6.9-.3 9-2.1 13.6-1.4 3.6-3.6 6.2-6.6 7.7-1.9.9-2.5 1-5.8 1s-4-.1-5.8-1c-4.2-2.1-6.9-6.3-8.2-12.8-.7-3.1-.7-4.7-.6-10 .2-7.1.6-9.2 2.7-13.5 2.5-5.1 7-7.7 12.5-7.4 2 .1 3.5.5 4.9 1.1zm173.5-19.6c-6.1.8-11.1 2.1-15.3 4.2-6.7 3.3-9.7 7.2-9.6 12.5.1 6.7 4.8 10.9 11.6 10.5 3.4-.2 5.4-1.1 10.3-4.5 5.1-3.6 6.8-4.2 12.4-4.2 4.3 0 4.9.1 6.6 1 3 1.6 4.4 4.5 4.7 10.1l.2 2.8-9.9.2c-15.8.4-23 1.8-30.2 5.7-2.9 1.6-6.9 5.5-8.3 8.2-3.2 6-3.4 15.8-.3 22.2 3.2 6.6 9.8 11.4 17.9 12.9 4.1.8 11.9.6 15.8-.3 5.9-1.5 10.8-4.4 14.3-8.7 1.4-1.7 1.9-1.9 1.9-.7s1.9 4.5 3.3 6c3.6 3.6 9 4.5 13.7 2.4 2.8-1.2 5-3.4 6.4-6.4l1-2.1.1-19.4c.1-20.5-.2-26.7-1.4-31.6-3.8-14.8-15.3-21.6-36.3-21.4-2.7.1-6.7.3-8.9.6zm20.9 49.7c-.7 9-5.9 14.7-14.1 15.4-5.9.6-10-2.4-10.6-7.6-.3-2.4.4-4.7 2-6.4 2.9-3.3 6.8-4.3 17.5-4.4l5.4-.1zM715.2 533c-3.5.5-7.9 2.1-10.5 3.6-3.2 1.8-7.5 6.1-9 8.9l-1.3 2.2-.2-2.7c-.5-5-3.1-8.9-7.4-10.8-2.9-1.4-7.1-1.4-10.1-.1-2.7 1.3-5 3.6-6.2 6.2l-1 2.2-.1 29.7c-.2 33-.2 32.4 2.3 36.2 2.5 3.8 6.5 5.9 11.2 5.8 5.1 0 9.4-2.8 11.8-7.5l1.2-2.5.2-19.5c.2-20.5.2-20.6 2-24.7 1-2.5 3-4.6 5.7-5.9 2.1-1 2.8-1.2 5.4-1.1 5.8 0 9 2.5 11 8.2.5 1.5.6 4.8.8 22.4l.2 20.6 1 2.2c2 4.2 5.5 6.9 10 7.7 6.4 1.2 12.8-2.8 14.8-9.3.7-2.2.8-3.3.8-22.3 0-24.4-.3-28.6-2.7-34.6-2.9-7.3-8.5-12.2-16.3-14.2-3.2-.9-10.3-1.2-13.6-.7zm-260.8.3c-4 1.1-7.7 4-9.4 7.5l-1 2v61.4l1 2.2c2 4.2 5.5 6.9 10.1 7.7 6.3 1.2 12.7-2.8 14.8-9.3.7-2.4.7-3.2.6-31.8l-.1-29.4-.9-2.2c-1.2-3.1-4.3-6.1-7.2-7.3-2.5-.9-6.1-1.3-7.9-.8z"
        />
    </g>
</svg>