<svg width="24" height="24" viewBox="0 0 24 24" fill="none" xmlns="http://www.w3.org/2000/svg">
<path d="M10.9729 12C10.9725 11.7954 11.0125 11.5928 11.0907 11.4037C11.1688 11.2147 11.2836 11.0429 11.4283 10.8983L17.0342 5.29243C17.23 5.10284 17.4926 4.99782 17.7651 5.00003C18.0377 5.00225 18.2985 5.11151 18.4912 5.30426C18.684 5.49701 18.7933 5.75779 18.7955 6.03037C18.7977 6.30295 18.6927 6.56547 18.5031 6.76133L13.3684 11.896C13.3547 11.9096 13.3439 11.9259 13.3365 11.9437C13.3291 11.9615 13.3252 11.9807 13.3252 12C13.3252 12.0193 13.3291 12.0385 13.3365 12.0563C13.3439 12.0741 13.3547 12.0904 13.3684 12.104L18.5031 17.2387C18.6927 17.4345 18.7977 17.6971 18.7955 17.9696C18.7933 18.2422 18.684 18.503 18.4912 18.6957C18.2985 18.8885 18.0377 18.9978 17.7651 19C17.4926 19.0022 17.23 18.8972 17.0342 18.7076L11.4283 13.1017C11.2836 12.9571 11.1688 12.7853 11.0907 12.5963C11.0125 12.4072 10.9725 12.2046 10.9729 12Z" fill="black"/>
<path d="M5 12C4.9996 11.7954 5.03962 11.5928 5.11776 11.4037C5.19591 11.2147 5.31064 11.0429 5.45536 10.8983L11.0613 5.29243C11.2571 5.10284 11.5196 4.99782 11.7922 5.00003C12.0648 5.00225 12.3256 5.11151 12.5183 5.30426C12.7111 5.49701 12.8203 5.75779 12.8226 6.03037C12.8248 6.30295 12.7198 6.56547 12.5302 6.76133L7.39548 11.896C7.3818 11.9096 7.37095 11.9259 7.36354 11.9437C7.35614 11.9615 7.35233 11.9807 7.35233 12C7.35233 12.0193 7.35614 12.0385 7.36354 12.0563C7.37095 12.0741 7.3818 12.0904 7.39548 12.104L12.5302 17.2387C12.7198 17.4345 12.8248 17.6971 12.8226 17.9696C12.8203 18.2422 12.7111 18.503 12.5183 18.6957C12.3256 18.8885 12.0648 18.9978 11.7922 19C11.5196 19.0022 11.2571 18.8972 11.0613 18.7076L5.45536 13.1017C5.31064 12.9571 5.19591 12.7853 5.11776 12.5963C5.03962 12.4072 4.9996 12.2046 5 12Z" fill="black"/>
</svg>
