<svg xmlns="http://www.w3.org/2000/svg" viewBox="0 0 16 16"><path fill="currentColor" d="M5.072 6.859c0 .99.805 1.795 1.795 1.796h.003c.99 0 1.795-.806 1.795-1.796S7.86 5.063 6.87 5.063h-.003c-.99 0-1.795.806-1.795 1.796ZM8.928 5.063c.42.48.674 1.109.674 1.796s-.254 1.315-.674 1.796h2.226l.478-.478V5.54l-.478-.478H8.928ZM4.135 6.859c0-.687.255-1.316.675-1.796H2.583l-.478.477v2.637l.478.478H4.81a2.722 2.722 0 0 1-.675-1.796Z"/><path fill="currentColor" d="M16 4.887h-1.323v6.811H2.262v1.344H16V4.887Z"/><path fill="currentColor" d="M13.739 2.957H0v7.805h13.739V2.957ZM12.57 8.566l-1.027 1.027H2.196L1.169 8.566V5.153l1.027-1.027H11.543l1.027 1.027v3.413Z"/></svg>