<svg xmlns="http://www.w3.org/2000/svg" fill="none" viewBox="0 0 51 51"><rect width="39.111" height="39.111" x="6.444" y="5.444" fill="#010101" fill-opacity=".1" rx="9.556"/><rect width="39.111" height="39.111" x="6.444" y="5.444" fill="#5CC9FF" fill-opacity=".12" rx="9.556"/><path fill="currentColor" fill-rule="evenodd" d="M33.61 16.071 33.54 16l-.072.071-7.612 7.667-7.611-7.667-.071-.071-.071.071-1.317 1.317-.071.071.071.07 7.666 7.613-7.666 7.612-.071.07.07.071 1.318 1.317.07.071.072-.07 7.611-7.667 7.612 7.666.071.071.071-.07 1.317-1.318.071-.07-.071-.071-7.666-7.612 7.666-7.612.071-.071-.07-.071-1.318-1.317Z" clip-rule="evenodd"/><rect width="39.111" height="39.111" x="6.444" y="5.444" stroke="currentColor" stroke-width=".889" rx="9.556"/></svg>