<svg fill="none" xmlns="http://www.w3.org/2000/svg" viewBox="0 0 24 25"><mask id="a" style="mask-type:alpha" maskUnits="userSpaceOnUse" x="1" y="2" width="22" height="22"><path d="M6.5 6.88V4.57a1.407 1.407 0 0 1 1.407-1.406h12.186A1.406 1.406 0 0 1 21.5 4.571v12.187a1.407 1.407 0 0 1-1.407 1.406H17.76" stroke="#fff" stroke-width="2" stroke-linecap="round" stroke-linejoin="round"/><path d="M16.094 7.164H3.905A1.407 1.407 0 0 0 2.5 8.571v12.187a1.406 1.406 0 0 0 1.406 1.406h12.188a1.407 1.407 0 0 0 1.406-1.406V8.57a1.407 1.407 0 0 0-1.407-1.407h.001Z" fill="#fff" stroke="#fff" stroke-width="2" stroke-linejoin="round"/></mask><g mask="url(#a)"><path d="M0 .664h24v24H0v-24Z" fill="#00B0FF"/></g></svg>