<svg xmlns="http://www.w3.org/2000/svg" fill="none" viewBox="0 0 44 44"><path fill="#fff" d="M34.833 1.833a1.834 1.834 0 0 0-3.667 0V5.5h3.667V1.833ZM12.833 1.833a1.834 1.834 0 0 0-3.667 0V5.5h3.667V1.833ZM38.5 7.333h-33a5.5 5.5 0 0 0-5.5 5.5v23.834a5.5 5.5 0 0 0 5.5 5.5h33a5.5 5.5 0 0 0 5.5-5.5V12.833a5.5 5.5 0 0 0-5.5-5.5Zm1.833 29.334A1.834 1.834 0 0 1 38.5 38.5h-33a1.834 1.834 0 0 1-1.833-1.833V16.5h36.666v20.167Z"/><path fill="#fff" d="M13.75 20.167h-5.5a.917.917 0 0 0-.916.916v3.667c0 .506.41.917.917.917h5.5c.506 0 .916-.41.916-.917v-3.667a.917.917 0 0 0-.916-.916Z"/></svg>