<svg xmlns="http://www.w3.org/2000/svg" fill="none" viewBox="0 0 24 24"><path fill="currentColor" d="m21 12.38-2.941-6.243v-.604h-4.602c0-.875-.598-1.533-1.4-1.533-.743 0-1.63.603-1.63 1.533H5.885v.714L3 12.38c0 1.805 1.369 3.478 3.486 3.478 2.116 0 3.485-1.643 3.485-3.449l-2.63-5.615h3.662v11.068H7.628c-1.572 0-2.227.74-2.227 2.137H18.83c0-1.206-.63-2.137-2.228-2.137h-3.574V6.77h3.658l-2.627 5.615c0 1.806 1.37 3.479 3.486 3.479C19.688 15.833 21 14.19 21 12.381Zm-12.547 0H4.51l1.97-4.82 1.972 4.82Zm7.094 0 1.971-4.82 1.971 4.82h-3.942Z"/></svg>