<svg xmlns="http://www.w3.org/2000/svg" fill="none" viewBox="0 0 42 42"><path fill="currentColor" fill-rule="evenodd" d="M18.375 11.813h-5.25v5.25h5.25v-5.25ZM11.812 10.5v7.875h7.876V10.5h-7.875ZM30.188 23.625h-5.25v5.25h5.25v-5.25Zm-6.563-1.312v7.875H31.5v-7.875h-7.875ZM15.75 30a3.75 3.75 0 1 0 0-7.5 3.75 3.75 0 0 0 0 7.5Zm0 1.5a5.25 5.25 0 1 0 0-10.5 5.25 5.25 0 0 0 0 10.5ZM30.222 17.52l-3.316-5.744-3.315 5.743h6.63Zm-2.21-6.382a1.276 1.276 0 0 0-2.211 0l-3.316 5.743a1.276 1.276 0 0 0 1.106 1.914h6.63a1.276 1.276 0 0 0 1.106-1.914l-3.316-5.743Z" clip-rule="evenodd"/></svg>