<svg fill="none" xmlns="http://www.w3.org/2000/svg" viewBox="0 0 32 32"><path d="M22.4 2.137a6.4 6.4 0 0 0-6.4 4.8 6.4 6.4 0 0 0-6.4-4.8C5.904 2.02 4.766 5.967 6.01 8.533H3.2A1.067 1.067 0 0 0 2.133 9.6v2.133A1.067 1.067 0 0 0 3.199 12.8h25.6a1.067 1.067 0 0 0 1.067-1.067V9.6A1.066 1.066 0 0 0 28.8 8.533h-2.786c1.293-2.528.21-6.398-3.528-6.398H22.4v.002Zm.39 6.396h-4.657A4.267 4.267 0 0 1 22.4 4.271c2.506 0 2.95 3.993.39 4.262Zm-8.924 0h-4.71c-2.208-.25-2.338-4.04.085-4.262.12-.011.24-.011.358 0a4.267 4.267 0 0 1 4.267 4.262Zm-9.6 6.402v9.6a3.2 3.2 0 0 0 3.2 3.2h6.4v-12.8h-9.6Zm13.867 0v12.8h6.4a3.2 3.2 0 0 0 3.2-3.2v-9.6h-9.6Z" fill="#ACAAAF"/></svg>