<svg xmlns="http://www.w3.org/2000/svg" fill="none" viewBox="0 0 24 24"><path fill="currentColor" d="M17.63 17.44v-.05l.81-.67c.66-.55 1.16-1.02 1.52-1.42.36-.4.6-.76.74-1.08.14-.33.21-.66.21-.99 0-.54-.14-1-.41-1.4-.28-.4-.67-.71-1.17-.93-.51-.22-1.11-.33-1.8-.33s-1.25.12-1.75.35c-.5.24-.88.57-1.15 1.01-.27.44-.41.96-.41 1.57h2.22c0-.24.04-.45.13-.61.09-.16.22-.3.38-.38.16-.09.35-.13.57-.13.22 0 .41.04.57.13.17.09.3.21.39.36.09.16.14.35.14.57 0 .2-.04.39-.12.55-.08.17-.2.33-.35.48-.15.16-.34.32-.55.5l-3.22 2.66v1.68H21v-1.87h-3.37ZM7.28 13.31V4.69H5.12L3 5.99v1.98l1.89-1.12h.05v6.46h2.34ZM13.59 5.19 5.76 19.31h2.97l7.72-14.12h-2.86Z"/></svg>