<svg viewBox="0 0 24 24" xmlns="http://www.w3.org/2000/svg">
    <path
        fill="currentColor"
        d="M20 1H4C3.20435 1 2.44129 1.31607 1.87868 1.87868C1.31607 2.44129 1 3.20435 1 4V20C1 20.7956 1.31607 21.5587 1.87868 22.1213C2.44129 22.6839 3.20435 23 4 23H20C20.7956 23 21.5587 22.6839 22.1213 22.1213C22.6839 21.5587 23 20.7956 23 20V4C23 3.20435 22.6839 2.44129 22.1213 1.87868C21.5587 1.31607 20.7956 1 20 1ZM9.5 6C9.79667 6 10.0867 6.08797 10.3334 6.2528C10.58 6.41762 10.7723 6.65189 10.8858 6.92597C10.9994 7.20006 11.0291 7.50166 10.9712 7.79264C10.9133 8.08361 10.7704 8.35088 10.5607 8.56066C10.3509 8.77044 10.0836 8.9133 9.79264 8.97118C9.50166 9.02906 9.20006 8.99935 8.92597 8.88582C8.65189 8.77229 8.41762 8.58003 8.2528 8.33335C8.08797 8.08668 8 7.79667 8 7.5C8 7.10218 8.15804 6.72064 8.43934 6.43934C8.72064 6.15804 9.10218 6 9.5 6ZM18.925 16.763C18.8802 16.8354 18.8177 16.8952 18.7433 16.9367C18.6689 16.9782 18.5852 17 18.5 17H5.5C5.41075 17 5.32312 16.9761 5.24622 16.9308C5.16932 16.8855 5.10594 16.8204 5.06268 16.7424C5.01941 16.6643 4.99783 16.5761 5.00017 16.4869C5.00251 16.3977 5.0287 16.3107 5.076 16.235L7.576 12.235C7.61791 12.168 7.6751 12.1119 7.74288 12.0713C7.81067 12.0306 7.88712 12.0066 7.96596 12.0013C8.04481 11.9959 8.1238 12.0093 8.19647 12.0404C8.26913 12.0714 8.3334 12.1193 8.384 12.18L10.479 14.694L14.6 9.2C14.6519 9.13248 14.7197 9.07886 14.7973 9.04396C14.875 9.00906 14.9601 8.99395 15.045 9C15.1294 9.00799 15.2105 9.03734 15.2804 9.08527C15.3504 9.1332 15.407 9.19815 15.445 9.274L18.945 16.274C18.9839 16.3504 19.0024 16.4355 18.9989 16.5211C18.9954 16.6067 18.97 16.69 18.925 16.763Z" />
</svg>