<svg xmlns="http://www.w3.org/2000/svg" fill="none" viewBox="0 0 24 24"><g clip-path="url(#a)"><g fill="currentColor" clip-path="url(#b)"><path d="M0 23.436h24V11.574H0v11.862Zm16.524-9.38h5.11v1.514l-1.368 2.138a5.342 5.342 0 0 0-.843 2.884v.57h-1.407v-.57c0-1.293.369-2.553 1.066-3.642l.951-1.487H17.93v1.364h-1.406v-2.77Zm-7.079 0h5.11v1.514l-1.367 2.138a5.342 5.342 0 0 0-.844 2.884v.57h-1.406v-.57c0-1.293.368-2.553 1.065-3.642l.951-1.487h-2.103v1.364H9.445v-2.77Zm-7.172 0h5.11v1.514l-1.368 2.138a5.341 5.341 0 0 0-.843 2.884v.57H3.765v-.57c0-1.293.369-2.553 1.065-3.642l.952-1.487H3.679v1.364H2.273v-2.77ZM1.388 9.585l2.245-.51 2.245.51.209-2.293 1.179-1.978-2.116-.907-1.517-1.733-1.517 1.733L0 5.314l1.179 1.978.209 2.293ZM9.755 7.474 12 6.964l2.245.51.21-2.292 1.178-1.978-2.116-.907L12 .564l-1.517 1.733-2.116.907 1.179 1.978.209 2.292ZM18.122 9.585l2.245-.51 2.245.51.21-2.293L24 5.314l-2.116-.907-1.517-1.733-1.517 1.733-2.116.907 1.18 1.978.208 2.293Z"/></g></g><defs><clipPath id="a"><path fill="#fff" d="M0 0h24v24H0z"/></clipPath><clipPath id="b"><path fill="#fff" d="M0 0h24v24H0z"/></clipPath></defs></svg>