<svg width="24" height="24" viewBox="0 0 24 24" fill="none" xmlns="http://www.w3.org/2000/svg">
<g clip-path="url(#clip0_1923_10139)">
<path d="M7.72089 21.11C7.19006 21.6172 6.48411 21.9003 5.74989 21.9003C5.01568 21.9003 4.30972 21.6172 3.77889 21.11L2.88689 20.219C2.36435 19.6963 2.0708 18.9875 2.0708 18.2485C2.0708 17.5094 2.36435 16.8006 2.88689 16.278L8.68689 10.478C9.20984 9.95563 9.91875 9.66223 10.6579 9.66223C11.397 9.66223 12.1059 9.95563 12.6289 10.478L13.5219 11.37C13.7099 11.558 13.965 11.6637 14.2309 11.6637C14.4968 11.6637 14.7519 11.558 14.9399 11.37C15.1279 11.1819 15.2336 10.9269 15.2336 10.661C15.2336 10.3951 15.1279 10.14 14.9399 9.95199L14.0469 9.05999C13.1486 8.16288 11.9309 7.65898 10.6614 7.65898C9.39184 7.65898 8.17419 8.16288 7.27589 9.05999L1.47589 14.86C1.03135 15.3045 0.678724 15.8322 0.438141 16.413C0.197557 16.9938 0.0737305 17.6163 0.0737305 18.245C0.0737305 18.8736 0.197557 19.4961 0.438141 20.0769C0.678724 20.6577 1.03135 21.1855 1.47589 21.63L2.36789 22.521C2.81229 22.9659 3.34004 23.3189 3.92095 23.5597C4.50186 23.8005 5.12454 23.9245 5.75339 23.9245C6.38224 23.9245 7.00492 23.8005 7.58583 23.5597C8.16674 23.3189 8.69449 22.9659 9.13889 22.521L11.8749 19.786C11.9678 19.6931 12.0415 19.5829 12.0918 19.4616C12.1421 19.3402 12.168 19.2102 12.1681 19.0788C12.1681 18.9475 12.1423 18.8174 12.0921 18.6961C12.0419 18.5747 11.9682 18.4644 11.8754 18.3715C11.7825 18.2786 11.6723 18.2049 11.551 18.1546C11.4296 18.1042 11.2996 18.0783 11.1682 18.0783C11.0369 18.0782 10.9068 18.1041 10.7855 18.1543C10.6641 18.2045 10.5538 18.2781 10.4609 18.371L7.72089 21.11Z" fill="black"/>
<path d="M22.5259 2.36299L21.6339 1.47099C20.7345 0.576374 19.5175 0.0741882 18.2489 0.0741882C16.9803 0.0741882 15.7633 0.576374 14.8639 1.47099L11.9589 4.37099C11.7767 4.55959 11.6759 4.81219 11.6782 5.07439C11.6805 5.33659 11.7857 5.5874 11.9711 5.77281C12.1565 5.95821 12.4073 6.06338 12.6695 6.06566C12.9317 6.06794 13.1843 5.96715 13.3729 5.78499L16.2729 2.88499C16.7959 2.36318 17.5046 2.07014 18.2434 2.07014C18.9822 2.07014 19.6909 2.36318 20.2139 2.88499L21.1069 3.77799C21.3659 4.03673 21.5714 4.34398 21.7115 4.68218C21.8517 5.02038 21.9239 5.38289 21.9239 5.74899C21.9239 6.11509 21.8517 6.4776 21.7115 6.8158C21.5714 7.154 21.3659 7.46125 21.1069 7.71999L15.3069 13.52C15.0487 13.7797 14.7416 13.9857 14.4032 14.126C14.0649 14.2662 13.7021 14.3379 13.3359 14.337C12.97 14.338 12.6076 14.2663 12.2696 14.1263C11.9317 13.9862 11.6248 13.7805 11.3669 13.521C11.2753 13.4232 11.165 13.3448 11.0425 13.2904C10.92 13.2361 10.7879 13.2069 10.6539 13.2047C10.5199 13.2024 10.3869 13.2271 10.2626 13.2772C10.1384 13.3274 10.0255 13.402 9.93061 13.4967C9.83576 13.5913 9.7609 13.7041 9.71048 13.8282C9.66005 13.9523 9.63509 14.0854 9.63708 14.2193C9.63906 14.3533 9.66795 14.4855 9.72203 14.6081C9.77611 14.7307 9.85428 14.8412 9.95189 14.933C10.3953 15.3786 10.9227 15.7318 11.5036 15.9721C12.0845 16.2125 12.7073 16.3351 13.3359 16.333C13.9647 16.3352 14.5877 16.2126 15.1687 15.9723C15.7498 15.7319 16.2774 15.3787 16.7209 14.933L22.5209 9.13299C22.9657 8.68852 23.3186 8.16075 23.5593 7.57985C23.8 6.99895 23.924 6.3763 23.924 5.74749C23.924 5.11867 23.8 4.49603 23.5593 3.91512C23.3186 3.33422 22.9657 2.80646 22.5209 2.36199L22.5259 2.36299Z" fill="black"/>
</g>
<defs>
<clipPath id="clip0_1923_10139">
<rect width="24" height="24" fill="white"/>
</clipPath>
</defs>
</svg>
