<svg width="24" height="24" viewBox="0 0 24 24" fill="none" xmlns="http://www.w3.org/2000/svg">
<path d="M19.5 9.5H18.75V6.75C18.75 4.95979 18.0388 3.2429 16.773 1.97703C15.5071 0.711159 13.7902 0 12 0C10.2098 0 8.4929 0.711159 7.22703 1.97703C5.96116 3.2429 5.25 4.95979 5.25 6.75V9.5H4.5C3.96957 9.5 3.46086 9.71071 3.08579 10.0858C2.71071 10.4609 2.5 10.9696 2.5 11.5V22C2.5 22.5304 2.71071 23.0391 3.08579 23.4142C3.46086 23.7893 3.96957 24 4.5 24H19.5C20.0304 24 20.5391 23.7893 20.9142 23.4142C21.2893 23.0391 21.5 22.5304 21.5 22V11.5C21.5 10.9696 21.2893 10.4609 20.9142 10.0858C20.5391 9.71071 20.0304 9.5 19.5 9.5ZM10 15.5C9.99841 15.1485 10.0895 14.8029 10.264 14.4978C10.4385 14.1928 10.6903 13.9391 10.9941 13.7623C11.2979 13.5856 11.6429 13.492 11.9943 13.491C12.3458 13.49 12.6913 13.5816 12.9961 13.7566C13.3008 13.9317 13.5541 14.1839 13.7303 14.488C13.9066 14.7921 13.9996 15.1372 14 15.4887C14.0004 15.8401 13.9082 16.1855 13.7326 16.49C13.5571 16.7944 13.3044 17.0473 13 17.223V19.5C13 19.7652 12.8946 20.0196 12.7071 20.2071C12.5196 20.3946 12.2652 20.5 12 20.5C11.7348 20.5 11.4804 20.3946 11.2929 20.2071C11.1054 20.0196 11 19.7652 11 19.5V17.223C10.6969 17.0487 10.4449 16.7978 10.2694 16.4953C10.0939 16.1929 10.001 15.8497 10 15.5ZM7.75 6.75C7.75 5.62283 8.19777 4.54183 8.9948 3.7448C9.79183 2.94777 10.8728 2.5 12 2.5C13.1272 2.5 14.2082 2.94777 15.0052 3.7448C15.8022 4.54183 16.25 5.62283 16.25 6.75V9C16.25 9.13261 16.1973 9.25979 16.1036 9.35355C16.0098 9.44732 15.8826 9.5 15.75 9.5H8.25C8.11739 9.5 7.99021 9.44732 7.89645 9.35355C7.80268 9.25979 7.75 9.13261 7.75 9V6.75Z" fill="black"/>
</svg>
