<svg xmlns="http://www.w3.org/2000/svg" fill="none" viewBox="0 0 29 28"><path fill-opacity=".64" fill="currentColor" fill-rule="evenodd" d="M28.5 14c0 7.732-6.268 14-14 14S.5 21.732.5 14s6.268-14 14-14 14 6.268 14 14Zm-9.364-8.166h-7.35a1.633 1.633 0 0 0-1.633 1.633v.817a.816.816 0 1 0 1.633 0v-.817h7.35v13.067h-7.35v-.817a.817.817 0 1 0-1.633 0v.817a1.633 1.633 0 0 0 1.633 1.633h7.35a1.633 1.633 0 0 0 1.634-1.633V7.467a1.633 1.633 0 0 0-1.634-1.633ZM9.17 17.508a.813.813 0 0 0 1.39-.576.816.816 0 0 0-.238-.576L8.79 14.817h7.08a.817.817 0 0 0 0-1.633H8.79l1.532-1.539a.816.816 0 0 0-1.152-1.152l-2.93 2.93a.817.817 0 0 0 0 1.155l2.93 2.93Z" clip-rule="evenodd"/></svg>