<svg xmlns="http://www.w3.org/2000/svg" fill="none" viewBox="0 0 24 24"><path fill="currentColor" d="M0 8h2.297l2.427 5.92h.103L7.254 8H9.55v8.811H7.744v-5.735h-.073l-2.28 5.692H4.16l-2.28-5.713h-.074v5.756H0V8ZM12.936 16.936c-.421 0-.797-.073-1.127-.22-.33-.148-.59-.368-.783-.658-.19-.292-.284-.656-.284-1.092 0-.367.067-.676.202-.925.135-.25.319-.45.551-.603.232-.152.496-.267.792-.344.298-.077.61-.132.938-.163.384-.04.694-.078.929-.112.235-.038.406-.092.512-.164a.36.36 0 0 0 .16-.318v-.026c0-.272-.087-.483-.26-.632-.168-.15-.41-.224-.722-.224-.33 0-.592.073-.787.22a1.01 1.01 0 0 0-.387.541l-1.696-.137c.086-.402.256-.749.508-1.042.253-.295.578-.522.977-.68.401-.16.866-.24 1.394-.24.367 0 .718.043 1.054.129.338.086.638.22.899.4.264.18.472.413.624.697.152.281.228.618.228 1.011v4.457H14.92v-.916h-.052a1.865 1.865 0 0 1-.426.546 1.976 1.976 0 0 1-.64.366c-.25.086-.539.13-.866.13Zm.525-1.265c.27 0 .508-.053.714-.159.207-.109.369-.255.487-.439.117-.183.176-.391.176-.624v-.701a.985.985 0 0 1-.237.103 4.317 4.317 0 0 1-.33.082 16.56 16.56 0 0 1-.37.065l-.336.047a2.27 2.27 0 0 0-.564.15.902.902 0 0 0-.374.28.682.682 0 0 0-.134.43c0 .25.09.44.271.573.184.129.416.193.697.193ZM19.611 10.203l1.214 2.31 1.243-2.31h1.88l-1.914 3.304L24 16.811h-1.872l-1.303-2.284-1.282 2.284H17.65l1.962-3.304-1.893-3.304h1.892Z"/></svg>