<svg xmlns="http://www.w3.org/2000/svg" fill="none" viewBox="0 0 24 24"><path fill="currentColor" d="M1 7.54h2.467l2.605 6.356h.11L8.788 7.54h2.466V17h-1.94v-6.157h-.078l-2.448 6.11H5.467L3.018 10.82H2.94V17H1V7.54ZM12.865 17V9.905h1.968V17h-1.968Zm.988-8.01c-.292 0-.543-.096-.752-.29a.943.943 0 0 1-.31-.707c0-.27.103-.503.31-.697.209-.197.46-.296.752-.296.293 0 .542.099.749.296.209.194.314.426.314.697 0 .274-.105.51-.314.707a1.053 1.053 0 0 1-.749.29ZM18.376 12.898V17H16.41V9.905h1.875v1.252h.083a1.98 1.98 0 0 1 .79-.98c.37-.242.818-.364 1.344-.364.493 0 .922.108 1.289.323.366.216.651.524.854.924.204.397.305.871.305 1.423V17h-1.968v-4.166c.004-.434-.107-.773-.332-1.016-.225-.247-.534-.37-.928-.37-.265 0-.5.057-.703.17-.2.115-.357.281-.47.5a1.73 1.73 0 0 0-.172.78Z"/></svg>