<svg xmlns="http://www.w3.org/2000/svg" fill="none" viewBox="0 0 24 24"><path fill="currentColor" d="M12.033 15.813H8.887v-.073l1.153-.96c.94-.78 1.667-1.46 2.173-2.02.387-.433.687-.833.894-1.207L11.473 8.48h1.867a3.318 3.318 0 0 0-.36-.68c-.393-.567-.953-1.013-1.68-1.327C10.573 6.16 9.72 6 8.733 6c-.986 0-1.786.167-2.5.507-.713.34-1.26.82-1.646 1.446C4.2 8.58 4 9.327 4 10.193h3.18c0-.346.067-.64.193-.88.127-.24.314-.426.547-.546.233-.127.507-.187.813-.187.307 0 .58.06.82.187.24.12.42.293.56.52.134.226.2.493.2.813 0 .287-.06.553-.18.787-.12.24-.286.466-.506.686-.22.22-.48.46-.787.714l-4.6 3.793v2.407h9.467v-1.394h-2.4l.726-1.28Z"/><path fill="currentColor" d="m18.073 12.787 1.84-3.427h-2.446l-1.054 2.127-1-2.127h-2.46l.56 1.06 1.26 2.367-1.72 3.026-.226.4h2.46l1.126-2.18 1.16 2.18H20l-1.927-3.426Z"/></svg>