<svg xmlns="http://www.w3.org/2000/svg" fill="none" viewBox="0 0 24 24"><path fill="currentColor"  fill-rule="evenodd" d="M5.44 3.813A1.15 1.15 0 0 0 3.813 5.44L5.1 6.727A11.888 11.888 0 0 0 1 12c1.73 4.39 6 7.5 11 7.5 1.725 0 3.362-.37 4.839-1.035l1.611 1.612a1.15 1.15 0 1 0 1.627-1.627L18.9 17.275A11.887 11.887 0 0 0 23 12c-1.73-4.39-6-7.5-11-7.5-1.725 0-3.362.37-4.839 1.035L5.44 3.813Zm2.306 5.56a5.002 5.002 0 0 0 6.882 6.882l-1.48-1.481A3 3 0 0 1 12 15c-1.66 0-3-1.34-3-3a3 3 0 0 1 .226-1.147l-1.48-1.48Zm3.107-.147-1.48-1.48a5.002 5.002 0 0 1 6.882 6.882l-1.481-1.48c.146-.354.226-.741.226-1.148 0-1.66-1.34-3-3-3a3 3 0 0 0-1.147.226Z" clip-rule="evenodd"/></svg>