<svg xmlns="http://www.w3.org/2000/svg" fill="currentColor" viewBox="0 0 24 24"><path fill="currentColor" fill-rule="evenodd" d="M8.382 5.817a4.025 4.025 0 0 0-.396-.23C7.216 5.196 6.29 5 5.211 5c-1.102 0-2.033.202-2.792.605A3.592 3.592 0 0 0 .747 7.383c-.296.664-.445 1.47-.445 2.42H3.38c0-.546.078-.979.232-1.3.26-.58.77-.87 1.53-.87.355 0 .657.065.906.195.25.13.427.326.534.587.095.19.142.41.142.658 0 .38-.112.759-.338 1.138-.213.368-.593.866-1.138 1.495L0 17.841v.053h8.579a4.051 4.051 0 0 1-1.307-1.617 5.884 5.884 0 0 1-.345-1.086H5.95c.297-.337.573-.646.835-.936a9.789 9.789 0 0 1-.04-.893H7.6l.246-.268c.266-.29.523-.571.781-.856.282-.31.519-.609.709-.899-.186.01-.374.023-.566.038-.499.027-.95.074-1.355.142l.968-5.703Z" clip-rule="evenodd"/><path fill="currentColor" d="M13.04 18.08c-2.232 0-3.685-.735-4.358-2.204-.292-.673-.437-1.481-.437-2.423h2.928c0 .583.072 1.043.218 1.38.258.572.763.858 1.515.858.37 0 .684-.073.942-.22.258-.156.449-.375.572-.655.112-.258.168-.55.168-.875 0-.36-.061-.673-.185-.943-.202-.448-.583-.768-1.144-.959-.55-.19-1.262-.286-2.137-.286-.381 0-.78.017-1.195.05-.415.023-.79.062-1.127.118l1.026-6.04h7.454l-.555 2.507h-4.51l-.319 1.682a7.293 7.293 0 0 1 1.598-.185c.92 0 1.711.18 2.373.539a3.146 3.146 0 0 1 1.447 1.531c.258.572.387 1.223.387 1.952 0 .73-.129 1.369-.387 1.918-.325.73-.852 1.29-1.582 1.683-.729.381-1.626.572-2.692.572Z"/><path fill="currentColor" d="M18.297 11.033c-.728 0-1.193-.228-1.405-.702a1.489 1.489 0 0 1-.118-.617c0-.22.034-.432.118-.618.212-.473.677-.71 1.405-.71.727 0 1.192.237 1.404.71.084.178.127.38.127.618 0 .228-.043.431-.127.617-.203.474-.677.702-1.404.702Zm-2.632 5.485 6.133-8.04h1.235l-6.107 8.04h-1.261Zm2.632-6.348c.169 0 .279-.05.33-.169a.761.761 0 0 0 .042-.287.846.846 0 0 0-.043-.296c-.05-.11-.16-.17-.33-.17-.169 0-.279.06-.33.17a.757.757 0 0 0-.042.296c0 .135.009.228.043.287.05.119.16.17.33.17Zm3.535 4.365c-.727 0-1.192-.228-1.404-.702a1.489 1.489 0 0 1-.118-.617c0-.22.034-.423.118-.618.212-.465.677-.702 1.404-.702.728 0 1.201.237 1.404.702.085.186.127.398.127.618 0 .228-.042.43-.127.617-.203.474-.676.702-1.404.702Zm0-.863c.17 0 .28-.05.33-.169a.727.727 0 0 0 .042-.287.824.824 0 0 0-.042-.288c-.05-.11-.16-.17-.33-.17-.169 0-.279.06-.33.17-.034.068-.042.16-.042.288 0 .135.008.236.042.287.051.119.161.17.33.17Z"/></svg>