<svg xmlns="http://www.w3.org/2000/svg" fill="currenctColor" viewBox="0 0 24 24"><path fill="currentColor" d="M18.902 11.394c-.731 0-1.2-.23-1.412-.706-.085-.188-.12-.4-.12-.622 0-.22.035-.434.12-.62.213-.477.68-.716 1.413-.716.731 0 1.2.239 1.412.715.085.179.128.383.128.621 0 .23-.043.434-.128.622-.204.476-.68.706-1.413.706Zm-2.647 5.519 6.17-8.089h1.243l-6.145 8.089h-1.268Zm2.648-6.387c.17 0 .28-.051.331-.17a.763.763 0 0 0 .043-.29.85.85 0 0 0-.043-.297c-.05-.111-.161-.17-.332-.17-.17 0-.28.059-.331.17a.762.762 0 0 0-.043.297c0 .137.009.23.043.29.05.119.161.17.331.17Zm3.557 4.391c-.732 0-1.2-.23-1.413-.706-.085-.187-.12-.4-.12-.621 0-.222.035-.426.12-.622.213-.468.68-.706 1.413-.706.732 0 1.208.238 1.412.706.085.188.128.4.128.622 0 .23-.043.434-.128.62-.204.477-.68.707-1.412.707Zm0-.868c.17 0 .28-.05.332-.17a.731.731 0 0 0 .042-.29.829.829 0 0 0-.042-.289c-.051-.11-.162-.17-.332-.17s-.281.06-.332.17c-.034.068-.043.162-.043.29 0 .136.009.238.043.289.05.12.162.17.332.17Z"/><path fill="currentColor" fill-rule="evenodd" d="M10.733 17.978c.77.44 1.704.66 2.804.66 1.089 0 2.013-.22 2.772-.66.77-.44 1.341-1.1 1.715-1.98.198-.462.347-.978.446-1.55.11-.572.165-1.221.165-1.947 0-.127-.002-.25-.005-.372-.931-.066-1.538-.417-1.83-1.072a2.297 2.297 0 0 1-.184-.953c0-.34.053-.666.183-.953a1.66 1.66 0 0 1 .852-.855 3.866 3.866 0 0 0-1.342-1.272c-.76-.44-1.683-.66-2.772-.66-1.1 0-2.035.22-2.804.66-.76.44-1.326 1.1-1.7 1.98a6.928 6.928 0 0 0-.445 1.55 11.31 11.31 0 0 0-.149 1.947c0 .737.05 1.391.149 1.963.099.561.247 1.072.445 1.534.374.88.94 1.54 1.7 1.98Zm4.503-2.854c-.297.649-.863.973-1.699.973-.847 0-1.419-.324-1.716-.973a3.61 3.61 0 0 1-.214-.94c-.033-.396-.05-.957-.05-1.683 0-.726.017-1.287.05-1.683.044-.396.115-.715.214-.957.297-.648.87-.973 1.716-.973.836 0 1.402.325 1.7.973.11.242.18.556.214.94.033.386.05.952.05 1.7s-.017 1.314-.05 1.7c-.033.384-.105.692-.215.923Z" clip-rule="evenodd"/><path fill="currentColor" fill-rule="evenodd" d="M9.516 6.425 9.61 6H1.682L.591 12.424c.357-.06.757-.101 1.199-.125.44-.036.864-.054 1.27-.054.93 0 1.688.102 2.273.305.596.202 1.002.542 1.217 1.02.13.286.196.62.196 1.002 0 .346-.06.656-.178.93-.132.299-.335.531-.609.698-.274.155-.608.233-1.002.233-.8 0-1.336-.304-1.61-.913-.156-.358-.233-.847-.233-1.467H0c0 1.002.155 1.86.465 2.577.716 1.563 2.261 2.344 4.635 2.344 1.133 0 2.088-.203 2.863-.608.269-.145.511-.31.728-.498a4.866 4.866 0 0 1-.924-1.445 7.82 7.82 0 0 1-.5-1.726 13.058 13.058 0 0 1-.168-2.209c0-.752.046-1.422.137-2.011a5.902 5.902 0 0 0-1.653-.218c-.548 0-1.115.066-1.7.197l.34-1.79H7.72l.047-.113c.393-.926.976-1.635 1.749-2.128Z" clip-rule="evenodd"/></svg>