<svg xmlns="http://www.w3.org/2000/svg" fill="none" viewBox="0 0 24 24"><path fill="currentColor" d="M13.167 16.828v-.899c0-.66.139-1.268.416-1.823a3.367 3.367 0 0 1 1.232-1.34c.539-.34 1.191-.508 1.957-.508.788 0 1.449.169 1.982.508.532.332.935.777 1.207 1.332.277.555.416 1.165.416 1.831v.9a4.02 4.02 0 0 1-.416 1.823 3.306 3.306 0 0 1-1.224 1.34c-.533.339-1.188.508-1.965.508-.777 0-1.435-.17-1.973-.508a3.306 3.306 0 0 1-1.224-1.34 4.088 4.088 0 0 1-.408-1.824Zm2.173-.899v.9c0 .438.105.84.316 1.207.211.366.583.55 1.116.55.538 0 .908-.181 1.107-.542.206-.366.308-.772.308-1.216v-.899c0-.444-.097-.849-.291-1.215-.194-.372-.569-.558-1.124-.558-.522 0-.89.186-1.107.558a2.345 2.345 0 0 0-.325 1.215ZM4.5 7.071v-.9c0-.665.142-1.276.425-1.831.283-.555.693-1 1.232-1.332.538-.339 1.19-.508 1.956-.508.783 0 1.44.17 1.973.508.539.333.944.777 1.216 1.332s.408 1.166.408 1.832v.899c0 .666-.139 1.276-.416 1.831-.272.55-.677.991-1.216 1.324-.538.333-1.193.5-1.965.5-.782 0-1.443-.167-1.981-.5a3.268 3.268 0 0 1-1.216-1.332A4.02 4.02 0 0 1 4.5 7.071Zm2.19-.9v.9c0 .444.102.849.308 1.215.21.361.582.541 1.115.541s.9-.18 1.1-.54c.205-.367.307-.772.307-1.216v-.9c0-.443-.097-.849-.291-1.215-.194-.372-.566-.558-1.116-.558-.527 0-.896.186-1.107.558-.21.372-.316.777-.316 1.216ZM5.45 20.026l11.722-17.05h2.081L7.531 20.025H5.449Z"/></svg>