<svg width="24" height="24" viewBox="0 0 24 24" fill="none" xmlns="http://www.w3.org/2000/svg">
<path d="M7.20731 5.01272C7.1105 4.99336 6.99432 4.99335 6.91687 5.03208C5.87128 5.4387 5.21294 6.92964 5.05804 7.95587C4.57397 11.2863 7.20731 14.1713 9.62766 16.0689C11.7769 17.7534 15.9012 20.5223 18.3409 17.8503C18.6507 17.5211 19.0186 17.037 18.9993 16.553C18.9412 15.7397 18.186 15.1588 17.6051 14.7135C17.1598 14.3843 16.2304 13.4743 15.6495 13.4936C15.1267 13.513 14.7975 14.0551 14.4684 14.3843L13.8875 14.9652C13.7907 15.062 12.5514 14.2488 12.4159 14.152C11.9125 13.8228 11.4284 13.4549 11.0024 13.0483C10.5764 12.6417 10.1892 12.1963 9.86002 11.7316C9.7632 11.5961 8.96933 10.4149 9.04678 10.3181C9.04678 10.3181 9.72448 9.58234 9.91811 9.2919C10.3247 8.67229 10.6345 8.18822 10.1698 7.45243C9.99556 7.18135 9.78257 6.96836 9.55021 6.73601C9.14359 6.34875 8.73698 5.94213 8.27227 5.61296C8.02055 5.41933 7.59457 5.07081 7.20731 5.01272Z" fill="black"/>
</svg>
