<svg width="24" height="24" viewBox="0 0 24 24" fill="none" xmlns="http://www.w3.org/2000/svg">
<path d="M10.319 4.93601C11.5955 4.63276 12.9303 4.6821 14.1809 5.07876C15.4315 5.47542 16.5507 6.20449 17.419 7.18801C17.6388 7.43626 17.9481 7.58704 18.279 7.6072C18.6099 7.62736 18.9353 7.51524 19.1835 7.29551C19.4318 7.07578 19.5826 6.76643 19.6027 6.43553C19.6229 6.10462 19.5108 5.77925 19.291 5.53101C18.1235 4.20811 16.6184 3.22732 14.9367 2.69346C13.255 2.1596 11.4598 2.09273 9.74302 2.50001C8.00078 2.93744 6.40376 3.82422 5.11139 5.07184C3.81903 6.31946 2.87654 7.88426 2.37802 9.61001C2.36155 9.66716 2.32517 9.71652 2.27546 9.74916C2.22576 9.78181 2.16601 9.79559 2.10702 9.78801L1.07402 9.65801C0.982414 9.64624 0.889342 9.66054 0.805497 9.69928C0.721653 9.73802 0.650434 9.79962 0.600022 9.87701C0.548262 9.95425 0.519063 10.0444 0.515707 10.1373C0.51235 10.2302 0.534969 10.3222 0.581022 10.403L3.05702 14.745C3.09563 14.8125 3.14945 14.8701 3.2142 14.9131C3.27895 14.9562 3.35285 14.9835 3.43002 14.993C3.45066 14.9945 3.47138 14.9945 3.49202 14.993C3.55899 14.993 3.62528 14.9796 3.68695 14.9534C3.74862 14.9273 3.80441 14.8891 3.85102 14.841L7.32802 11.248C7.39274 11.1811 7.43748 11.0974 7.45721 11.0064C7.47694 10.9154 7.47087 10.8207 7.43969 10.733C7.4085 10.6453 7.35345 10.568 7.28071 10.5099C7.20798 10.4517 7.12047 10.4151 7.02802 10.404L5.15002 10.172C5.11316 10.1668 5.07793 10.1534 5.0469 10.1329C5.01586 10.1123 4.98981 10.0851 4.97065 10.0532C4.95148 10.0213 4.93968 9.98548 4.93611 9.94843C4.93255 9.91138 4.9373 9.87399 4.95002 9.83901C5.37187 8.64276 6.0827 7.56925 7.01936 6.71389C7.95602 5.85852 9.08949 5.24781 10.319 4.93601Z" fill="black"/>
<path d="M23.406 14.1C23.4572 14.0224 23.4857 13.9321 23.4883 13.8391C23.491 13.7462 23.4677 13.6544 23.421 13.574L20.921 9.24501C20.8819 9.17783 20.8276 9.1207 20.7625 9.07817C20.6974 9.03564 20.6233 9.00888 20.546 9.00001C20.4689 8.98988 20.3905 8.9983 20.3172 9.02456C20.244 9.05082 20.1781 9.09417 20.125 9.15101L16.669 12.765C16.6049 12.832 16.5606 12.9155 16.5413 13.0062C16.5219 13.0969 16.5281 13.1912 16.5592 13.2786C16.5903 13.3659 16.6451 13.4429 16.7175 13.5009C16.7899 13.5589 16.877 13.5957 16.969 13.607L18.817 13.828C18.8544 13.8324 18.8903 13.8452 18.922 13.8655C18.9536 13.8858 18.9803 13.913 19 13.945C19.0197 13.977 19.0319 14.0131 19.0359 14.0504C19.0399 14.0878 19.0355 14.1256 19.023 14.161C18.6017 15.3572 17.891 16.4307 16.9542 17.2856C16.0174 18.1406 14.8837 18.7505 13.654 19.061C12.3775 19.3637 11.0427 19.314 9.7922 18.9172C8.54171 18.5204 7.42248 17.7914 6.55402 16.808C6.44655 16.6808 6.31473 16.5763 6.1663 16.5007C6.01788 16.4251 5.85585 16.3799 5.68972 16.3679C5.5236 16.3558 5.35674 16.377 5.19894 16.4303C5.04114 16.4836 4.89559 16.568 4.77083 16.6783C4.64608 16.7887 4.54464 16.9229 4.47247 17.073C4.4003 17.2231 4.35887 17.3861 4.35059 17.5525C4.34232 17.7188 4.36738 17.8852 4.42429 18.0417C4.48121 18.1982 4.56883 18.3418 4.68202 18.464C5.84996 19.7866 7.35525 20.7672 9.0371 21.3008C10.7189 21.8345 12.5142 21.9013 14.231 21.494C15.9755 21.0571 17.5746 20.1693 18.8679 18.9197C20.1612 17.6701 21.1034 16.1025 21.6 14.374C21.6166 14.3171 21.6529 14.2679 21.7023 14.2351C21.7517 14.2024 21.8111 14.1881 21.87 14.195L22.928 14.322C22.948 14.3234 22.9681 14.3234 22.988 14.322C23.0706 14.3224 23.152 14.3023 23.225 14.2636C23.2979 14.2249 23.3601 14.1687 23.406 14.1Z" fill="black"/>
</svg>
