<svg width="24" height="24" viewBox="0 0 24 24" fill="none" xmlns="http://www.w3.org/2000/svg">
<path d="M12.9651 6C12.6999 6 12.4455 6.10536 12.258 6.2929C12.0705 6.48043 11.9651 6.73479 11.9651 7V12.5C11.9651 12.7652 12.0705 13.0196 12.258 13.2071C12.4455 13.3946 12.6999 13.5 12.9651 13.5H17.9651C18.2303 13.5 18.4847 13.3946 18.6722 13.2071C18.8597 13.0196 18.9651 12.7652 18.9651 12.5C18.9651 12.2348 18.8597 11.9804 18.6722 11.7929C18.4847 11.6054 18.2303 11.5 17.9651 11.5H14.2151C14.1488 11.5 14.0852 11.4737 14.0383 11.4268C13.9914 11.3799 13.9651 11.3163 13.9651 11.25V7C13.9651 6.73479 13.8597 6.48043 13.6722 6.2929C13.4847 6.10536 13.2303 6 12.9651 6Z" fill="black"/>
<path d="M12.5671 1.258C10.416 1.34378 8.33942 2.06916 6.60279 3.34139C4.86616 4.61363 3.54844 6.3749 2.8181 8.4C2.79863 8.45424 2.76103 8.50009 2.71164 8.5298C2.66226 8.5595 2.60413 8.57123 2.5471 8.563L0.858096 8.309C0.765534 8.29713 0.671488 8.31069 0.586045 8.34821C0.500602 8.38574 0.426987 8.44582 0.373096 8.522C0.320238 8.59948 0.290238 8.69027 0.286525 8.78399C0.282812 8.87771 0.305534 8.97058 0.352096 9.052L3.0311 13.752C3.06915 13.8186 3.12201 13.8755 3.18559 13.9184C3.24916 13.9612 3.32174 13.9889 3.39772 13.9993C3.4737 14.0096 3.55104 14.0023 3.62376 13.978C3.69648 13.9537 3.76263 13.913 3.8171 13.859L7.5871 10.113C7.65311 10.0476 7.69961 9.9652 7.72139 9.87489C7.74317 9.78459 7.73936 9.69001 7.71039 9.60175C7.68142 9.51349 7.62843 9.43504 7.55738 9.37521C7.48632 9.31538 7.4 9.27652 7.3081 9.263L5.5931 9.007C5.5548 9.00143 5.51832 8.98705 5.48653 8.96498C5.45473 8.94292 5.4285 8.91377 5.40989 8.87984C5.39127 8.84591 5.38079 8.80813 5.37927 8.76946C5.37774 8.73079 5.38521 8.69229 5.4011 8.657C5.99674 7.30842 6.94251 6.14385 8.14022 5.28421C9.33793 4.42457 10.7439 3.9012 12.2122 3.76843C13.6805 3.63565 15.1575 3.89832 16.49 4.52916C17.8225 5.16 18.9618 6.13602 19.7897 7.35588C20.6176 8.57574 21.1039 9.99497 21.1981 11.4662C21.2923 12.9375 20.991 14.4071 20.3254 15.7226C19.6598 17.0381 18.6542 18.1514 17.413 18.947C16.1718 19.7426 14.7403 20.1915 13.2671 20.247C12.9356 20.253 12.62 20.3904 12.3898 20.629C12.1596 20.8677 12.0336 21.188 12.0396 21.5195C12.0456 21.851 12.183 22.1666 12.4216 22.3968C12.6603 22.627 12.9806 22.753 13.3121 22.747H13.3591C14.7758 22.7035 16.17 22.3803 17.4614 21.796C18.7528 21.2117 19.9158 20.3778 20.8837 19.3422C21.8516 18.3067 22.6051 17.09 23.101 15.7622C23.5968 14.4343 23.8252 13.0215 23.773 11.6051C23.7208 10.1886 23.389 8.79645 22.7968 7.5087C22.2045 6.22096 21.3634 5.06304 20.3219 4.10158C19.2805 3.14012 18.0592 2.39409 16.7283 1.90642C15.3974 1.41875 13.9832 1.19906 12.5671 1.26V1.258Z" fill="black"/>
</svg>
