<svg xmlns="http://www.w3.org/2000/svg" viewBox="0 0 24 24" fill="currentColor"><g clip-path="url(#a)"><g clip-path="url(#b)"><path d="m19.456 4.153.798 1.533c.08.155.183.297.305.421l.994 1.014L24 4.674l-2.939-1.735L19.326 0l-2.441 2.442.281.047a3.189 3.189 0 0 1 2.29 1.664ZM3.75 5.681l.803-1.536a3.19 3.19 0 0 1 2.286-1.659l.275-.046L4.674 0 2.939 2.939 0 4.674l2.446 2.445 1-1.02c.121-.124.223-.264.304-.418ZM4.545 19.846l-.798-1.533a1.766 1.766 0 0 0-.305-.421l-.994-1.014L0 19.326l2.939 1.735L4.674 24l2.442-2.442-.281-.047a3.189 3.189 0 0 1-2.29-1.665ZM20.555 17.9a1.766 1.766 0 0 0-.304.419l-.803 1.536a3.19 3.19 0 0 1-2.287 1.658l-.275.047 2.44 2.44 1.735-2.939 2.94-1.735-2.447-2.445-1 1.02ZM12 5.949a6.058 6.058 0 0 0-6.05 6.05A6.058 6.058 0 0 0 12 18.05 6.058 6.058 0 0 0 18.05 12 6.058 6.058 0 0 0 12 5.949Zm-.112 5.343H12c1.156 0 2.096.94 2.096 2.096a2.1 2.1 0 0 1-1.393 1.975v1.345h-1.406v-1.345a2.1 2.1 0 0 1-1.393-1.975h1.406a.69.69 0 1 0 .802-.68H12a2.099 2.099 0 0 1-2.096-2.097 2.1 2.1 0 0 1 1.393-1.974V7.29h1.406v1.346a2.1 2.1 0 0 1 1.393 1.974H12.69a.69.69 0 1 0-.802.681Z"/><path d="m18.202 19.203.803-1.536a3.17 3.17 0 0 1 .546-.75l1.214-1.24c.385-.392.566-.95.486-1.494l-.253-1.716a3.169 3.169 0 0 1 0-.928l.255-1.715a1.776 1.776 0 0 0-.486-1.496l-1.212-1.236a3.169 3.169 0 0 1-.548-.756l-.799-1.534a1.776 1.776 0 0 0-1.274-.926L15.23 3.59c-.31-.052-.61-.15-.892-.29l-1.546-.772a1.768 1.768 0 0 0-1.576 0l-1.547.77c-.28.14-.58.237-.889.288l-1.707.287a1.776 1.776 0 0 0-1.273.924l-.804 1.536a3.17 3.17 0 0 1-.545.75l-1.215 1.24c-.384.391-.566.95-.486 1.493l.253 1.716c.045.308.045.62 0 .928l-.255 1.715c-.08.544.101 1.103.486 1.496l1.212 1.237c.22.223.404.478.549.756l.798 1.533c.255.49.731.836 1.275.927l1.704.286c.31.052.61.15.891.29l1.546.771a1.776 1.776 0 0 0 1.576.001l1.548-.77c.28-.14.58-.237.888-.289l1.708-.286a1.776 1.776 0 0 0 1.273-.924Zm-6.201.254c-4.112 0-7.457-3.346-7.457-7.457 0-4.112 3.345-7.457 7.457-7.457S19.458 7.888 19.458 12c0 4.111-3.345 7.457-7.457 7.457Z"/></g></g><defs><clipPath id="a"><path d="M0 0h24v24H0z"/></clipPath><clipPath id="b"><path d="M0 0h24v24H0z"/></clipPath></defs></svg>