<svg width="24" height="24" viewBox="0 0 24 24" fill="none" xmlns="http://www.w3.org/2000/svg">
<g clip-path="url(#clip0_1923_10246)">
<path d="M23.414 20.591L18.769 15.946C20.1833 13.8289 20.7596 11.2613 20.3857 8.74284C20.0118 6.22435 18.7145 3.93496 16.7461 2.32001C14.7777 0.705056 12.279 -0.119999 9.73603 0.00533155C7.19302 0.130662 4.78754 1.19742 2.9875 2.99809C1.18746 4.79877 0.121559 7.20462 -0.00287252 9.74767C-0.127304 12.2907 0.698635 14.7891 2.31428 16.757C3.92993 18.7248 6.21978 20.0213 8.7384 20.3942C11.257 20.7672 13.8243 20.1901 15.941 18.775L20.586 23.419C20.9642 23.7879 21.4716 23.9944 22 23.9944C22.5283 23.9944 23.0358 23.7879 23.414 23.419C23.7889 23.0439 23.9996 22.5353 23.9996 22.005C23.9996 21.4747 23.7889 20.966 23.414 20.591ZM10.25 3.00499C11.6839 3.00499 13.0856 3.4302 14.2779 4.22684C15.4701 5.02348 16.3994 6.15577 16.9481 7.48054C17.4968 8.8053 17.6404 10.263 17.3607 11.6694C17.0809 13.0758 16.3904 14.3676 15.3765 15.3815C14.3626 16.3954 13.0707 17.0859 11.6644 17.3657C10.258 17.6454 8.80029 17.5019 7.47553 16.9531C6.15076 16.4044 5.01847 15.4751 4.22183 14.2829C3.42519 13.0906 2.99998 11.6889 2.99998 10.255C3.0021 8.33282 3.76662 6.48999 5.1258 5.13081C6.48498 3.77163 8.32781 3.00711 10.25 3.00499Z" fill="black"/>
</g>
<defs>
<clipPath id="clip0_1923_10246">
<rect width="24" height="24" fill="white"/>
</clipPath>
</defs>
</svg>
