<svg width="24" height="24" viewBox="0 0 24 24" fill="none" xmlns="http://www.w3.org/2000/svg">
<g clip-path="url(#clip0_1923_10241)">
<path d="M23.3841 21.619L16.8551 15.09C18.2802 13.2166 18.9406 10.8719 18.7025 8.53013C18.4645 6.18838 17.3459 4.02447 15.5729 2.47618C13.8 0.927891 11.5052 0.110828 9.1527 0.190295C6.80022 0.269761 4.56575 1.23982 2.90135 2.90422C1.23695 4.56862 0.266893 6.80309 0.187426 9.15557C0.10796 11.508 0.925022 13.8029 2.47331 15.5758C4.0216 17.3487 6.18551 18.4674 8.52726 18.7054C10.869 18.9434 13.2138 18.2831 15.0871 16.858L21.6161 23.387C21.8526 23.6176 22.1698 23.7467 22.5001 23.7467C22.8304 23.7467 23.1477 23.6176 23.3841 23.387C23.6184 23.1524 23.7499 22.8345 23.7499 22.503C23.7499 22.1715 23.6184 21.8535 23.3841 21.619ZM2.75012 9.49999C2.75012 8.16497 3.146 6.85992 3.8877 5.74989C4.6294 4.63986 5.68361 3.7747 6.91701 3.2638C8.15041 2.75291 9.50761 2.61924 10.817 2.87969C12.1264 3.14014 13.3291 3.78302 14.2731 4.72702C15.2171 5.67102 15.86 6.87376 16.1204 8.18313C16.3809 9.4925 16.2472 10.8497 15.7363 12.0831C15.2254 13.3165 14.3603 14.3707 13.2502 15.1124C12.1402 15.8541 10.8351 16.25 9.50012 16.25C7.71056 16.2479 5.9949 15.536 4.72949 14.2706C3.46408 13.0052 2.75224 11.2896 2.75012 9.49999Z" fill="black"/>
</g>
<defs>
<clipPath id="clip0_1923_10241">
<rect width="24" height="24" fill="white"/>
</clipPath>
</defs>
</svg>
