<svg width="24" height="24" viewBox="0 0 24 24" fill="none" xmlns="http://www.w3.org/2000/svg">
<path fill-rule="evenodd" clip-rule="evenodd" d="M13.4099 12L15.6999 9.71C15.8899 9.53 15.9999 9.28 15.9999 9C15.9997 8.80202 15.9408 8.60855 15.8307 8.44396C15.7207 8.27938 15.5644 8.15104 15.3816 8.07512C15.1987 7.9992 14.9975 7.9791 14.8032 8.01734C14.609 8.05557 14.4304 8.15045 14.2899 8.29L11.9999 10.59L9.70994 8.29C9.52164 8.1017 9.26624 7.99591 8.99994 7.99591C8.73364 7.99591 8.47824 8.1017 8.28994 8.29C8.10164 8.47831 7.99585 8.7337 7.99585 9C7.99585 9.2663 8.10164 9.5217 8.28994 9.71L10.5899 12L8.29994 14.29C8.10994 14.47 7.99994 14.72 7.99994 15C8.00023 15.198 8.0591 15.3915 8.16914 15.556C8.27919 15.7206 8.43548 15.849 8.61832 15.9249C8.80117 16.0008 9.0024 16.0209 9.19666 15.9827C9.39091 15.9444 9.56951 15.8496 9.70994 15.71L11.9999 13.41L14.2899 15.7C14.4699 15.89 14.7199 16 14.9999 16C15.1979 15.9997 15.3914 15.9408 15.556 15.8308C15.7206 15.7208 15.8489 15.5645 15.9248 15.3816C16.0007 15.1988 16.0208 14.9975 15.9826 14.8033C15.9444 14.609 15.8495 14.4304 15.7099 14.29L13.4099 12Z" fill="black"/>
</svg>
