<svg width="24" height="24" viewBox="0 0 24 24" fill="none" xmlns="http://www.w3.org/2000/svg">
<path d="M19.7988 9.77435C19.7261 9.57896 19.5955 9.41041 19.4245 9.2912C19.2534 9.17198 19.0501 9.10778 18.8416 9.10716H14.6976C14.627 9.10721 14.5582 9.08536 14.5007 9.04463C14.4431 9.0039 14.3996 8.94629 14.3762 8.87978L12.8887 4.66356C12.8158 4.46868 12.6852 4.30072 12.5142 4.18213C12.3433 4.06354 12.1402 4 11.9321 4C11.7241 4 11.521 4.06354 11.3501 4.18213C11.1791 4.30072 11.0485 4.46868 10.9756 4.66356L10.9722 4.67445L9.48805 8.87978C9.46467 8.94618 9.42129 9.00371 9.36386 9.04443C9.30643 9.08516 9.23779 9.10707 9.16739 9.10716H5.02197C4.81216 9.10701 4.60739 9.17148 4.43552 9.29181C4.26364 9.41214 4.133 9.5825 4.06137 9.7797C3.98973 9.9769 3.98058 10.1914 4.03515 10.394C4.08972 10.5966 4.20536 10.7774 4.36636 10.912L7.89565 13.8394C7.94844 13.8832 7.98676 13.942 8.00559 14.0079C8.02442 14.0739 8.02288 14.144 8.00117 14.2091L6.51838 18.6554C6.44985 18.861 6.4485 19.0831 6.51452 19.2895C6.58053 19.4959 6.71049 19.6759 6.8856 19.8036C7.06071 19.9312 7.27189 19.9999 7.48859 19.9996C7.70529 19.9993 7.91628 19.9301 8.09104 19.8019L11.7306 17.1332C11.789 17.0904 11.8594 17.0674 11.9318 17.0674C12.0041 17.0674 12.0746 17.0904 12.133 17.1332L15.7712 19.8012C15.9459 19.9298 16.1569 19.9994 16.3738 20C16.5907 20.0006 16.8022 19.9321 16.9776 19.8044C17.1529 19.6768 17.2831 19.4966 17.3492 19.29C17.4153 19.0834 17.4139 18.8612 17.3452 18.6554L15.8624 14.2064C15.8407 14.1413 15.8392 14.0712 15.858 14.0052C15.8768 13.9393 15.9151 13.8805 15.9679 13.8367L19.504 10.9052C19.663 10.7695 19.7765 10.5883 19.8292 10.3861C19.8819 10.1839 19.8713 9.97036 19.7988 9.77435Z" fill="black"/>
</svg>
