<svg xmlns="http://www.w3.org/2000/svg" viewBox="0 0 25 24"><path fill="currentColor" d="M20.5 9.001a2.99 2.99 0 0 0-2.659-2.966 12.563 12.563 0 0 0-.342 2.966c-.004.999.11 1.995.342 2.966A2.99 2.99 0 0 0 20.5 9.001ZM12.167 17.911l-5.788-1.845 2.632 6.475a2.328 2.328 0 1 0 4.32-1.74l-1.164-2.89Z"/><path fill="currentColor" d="M19.5 0c-.36 0-.716.063-1.054.185L3.23 5.037A3.818 3.818 0 0 0 .5 9a3.81 3.81 0 0 0 2.7 3.953l15.25 4.862c.336.121.692.184 1.05.185 2.85 0 5-3.869 5-9s-2.15-9-5-9Zm0 16c-1.416 0-3-2.994-3-7s1.584-7 3-7 3 2.994 3 7-1.584 7-3 7Z"/></svg>