<svg xmlns="http://www.w3.org/2000/svg" fill="none" viewBox="0 0 156 156"><path fill="currentColor" fill-rule="evenodd" d="M109.23 118.84A51.185 51.185 0 0 1 78 129.409c-28.392 0-51.41-23.017-51.41-51.409a51.184 51.184 0 0 1 10.57-31.23l72.07 72.07Zm9.61-9.61L46.77 37.16A51.184 51.184 0 0 1 78 26.59c28.392 0 51.409 23.018 51.409 51.41a51.185 51.185 0 0 1-10.569 31.23ZM143 78c0 35.899-29.101 65-65 65-35.898 0-65-29.101-65-65 0-35.898 29.102-65 65-65 35.899 0 65 29.102 65 65Z" clip-rule="evenodd"/></svg>