<svg width="24" height="24" viewBox="0 0 24 24" fill="none" xmlns="http://www.w3.org/2000/svg">
<path d="M17.4588 10.5204H16.865V8.34328C16.8647 7.06044 16.4029 5.82052 15.5641 4.84993C14.7253 3.87933 13.5653 3.24282 12.2961 3.05662C11.0268 2.87041 9.73295 3.14693 8.65069 3.8357C7.56843 4.52446 6.77001 5.57951 6.40121 6.80819C6.36393 6.93269 6.35155 7.06331 6.36476 7.1926C6.37797 7.32189 6.41651 7.4473 6.47819 7.56169C6.53987 7.67608 6.62348 7.77721 6.72424 7.85929C6.825 7.94136 6.94094 8.00279 7.06544 8.04007C7.18994 8.07734 7.32056 8.08972 7.44985 8.07651C7.57913 8.0633 7.70455 8.02476 7.81894 7.96308C7.93333 7.9014 8.03445 7.81779 8.11653 7.71703C8.19861 7.61627 8.26004 7.50033 8.29731 7.37583C8.52983 6.60243 9.03271 5.93842 9.71417 5.50501C10.3956 5.07159 11.2102 4.89768 12.0092 5.01501C12.8083 5.13234 13.5385 5.53309 14.0666 6.14411C14.5947 6.75513 14.8854 7.53568 14.8858 8.34328V10.1246C14.8858 10.2296 14.8441 10.3303 14.7698 10.4045C14.6956 10.4787 14.5949 10.5204 14.4899 10.5204H5.58339C5.16345 10.5204 4.76071 10.6873 4.46376 10.9842C4.16682 11.2811 4 11.6839 4 12.1038V20.4166C4 20.8366 4.16682 21.2393 4.46376 21.5362C4.76071 21.8332 5.16345 22 5.58339 22H17.4588C17.8787 22 18.2815 21.8332 18.5784 21.5362C18.8754 21.2393 19.0422 20.8366 19.0422 20.4166V12.1038C19.0422 11.6839 18.8754 11.2811 18.5784 10.9842C18.2815 10.6873 17.8787 10.5204 17.4588 10.5204ZM9.9377 15.2706C9.93645 14.9924 10.0085 14.7187 10.1467 14.4772C10.2849 14.2357 10.4842 14.0348 10.7247 13.8949C10.9652 13.7549 11.2384 13.6809 11.5166 13.6801C11.7948 13.6793 12.0684 13.7518 12.3097 13.8904C12.5509 14.029 12.7514 14.2287 12.891 14.4694C13.0305 14.7102 13.1041 14.9834 13.1045 15.2616C13.1048 15.5399 13.0318 15.8133 12.8928 16.0544C12.7538 16.2954 12.5538 16.4956 12.3128 16.6347V18.4374C12.3128 18.6473 12.2294 18.8487 12.0809 18.9972C11.9324 19.1457 11.7311 19.2291 11.5211 19.2291C11.3111 19.2291 11.1098 19.1457 10.9613 18.9972C10.8128 18.8487 10.7294 18.6473 10.7294 18.4374V16.6347C10.4894 16.4967 10.2899 16.298 10.151 16.0586C10.012 15.8192 9.93848 15.5474 9.9377 15.2706Z" fill="black"/>
</svg>
