<svg width="24" height="24" viewBox="0 0 24 24" fill="none" xmlns="http://www.w3.org/2000/svg">
<path d="M11.5001 7.00002L11.9881 6.43057L11.5001 6.01221L11.012 6.43057L11.5001 7.00002ZM11.5001 16L11.012 16.5695L11.5001 16.9878L11.9881 16.5695L11.5001 16ZM8.48815 10.5695L11.9881 7.56946L11.012 6.43057L7.51196 9.43058L8.48815 10.5695ZM11.012 7.56946L14.512 10.5695L15.4881 9.43058L11.9881 6.43057L11.012 7.56946ZM7.51196 13.5695L11.012 16.5695L11.9881 15.4306L8.48815 12.4306L7.51196 13.5695ZM11.9881 16.5695L15.4881 13.5695L14.512 12.4306L11.012 15.4306L11.9881 16.5695Z" fill="black"/>
</svg>
