<svg width="24" height="24" viewBox="0 0 24 24" fill="none" xmlns="http://www.w3.org/2000/svg">
<path fill-rule="evenodd" clip-rule="evenodd" d="M17.8677 7.86097C19.2187 8.71326 20.449 9.74329 21.5256 10.9234C21.8301 11.2614 21.999 11.6999 22.0001 12.1549C22.0012 12.6098 21.8344 13.0491 21.5316 13.3886C19.3521 15.7841 15.7513 18.3225 12.1308 18.3225H11.8756C10.6128 18.3006 9.36673 18.0291 8.20921 17.5237L4.68234 21.0506C4.54319 21.1893 4.36034 21.2755 4.16484 21.2947C3.96933 21.3138 3.77322 21.2647 3.6098 21.1557C3.44639 21.0467 3.32573 20.8845 3.26833 20.6966C3.21093 20.5088 3.22031 20.3068 3.2949 20.1251C3.29856 20.1214 3.30271 20.1192 3.30683 20.1171C3.31036 20.1152 3.31387 20.1134 3.31701 20.1106L19.9051 3.52256C19.9727 3.45258 20.0231 3.36783 20.0522 3.27501L20.0676 3.2597C20.146 3.17845 20.2399 3.11365 20.3437 3.06906C20.4475 3.02448 20.5591 3.00101 20.672 3.00003C20.785 2.99905 20.897 3.02057 21.0015 3.06335C21.1061 3.10612 21.2011 3.16928 21.2809 3.24916C21.3608 3.32903 21.424 3.42401 21.4667 3.52855C21.5095 3.63309 21.531 3.74511 21.5301 3.85806C21.5291 3.97101 21.5056 4.08264 21.461 4.18642C21.4165 4.29021 21.3516 4.38407 21.2704 4.46255L17.8677 7.86097ZM14.7089 14.8409C15.1534 14.3921 15.4823 13.8421 15.667 13.2381C15.9321 12.3786 15.8712 11.4516 15.4961 10.6342C15.4811 10.6032 15.4589 10.5762 15.4314 10.5556C15.4038 10.535 15.3717 10.5213 15.3378 10.5157C15.3038 10.5101 15.269 10.5128 15.2363 10.5235C15.2036 10.5342 15.1739 10.5526 15.1498 10.5772L10.4201 15.306C10.3957 15.3303 10.3775 15.36 10.367 15.3927C10.3565 15.4254 10.3539 15.4602 10.3596 15.4941C10.3653 15.528 10.379 15.56 10.3996 15.5875C10.4201 15.6151 10.447 15.6373 10.478 15.6523C11.3061 16.0328 12.2466 16.0904 13.115 15.8139C13.7173 15.6235 14.2643 15.2896 14.7089 14.8409ZM8.32155 13.2536C8.31243 13.2895 8.29386 13.3223 8.26778 13.3486L5.67749 15.9432C5.64142 15.979 5.59394 16.0011 5.54329 16.0056C5.49264 16.0101 5.44201 15.9967 5.40018 15.9678C4.33508 15.2168 3.35449 14.3526 2.47557 13.3903C2.16854 13.0525 1.9989 12.6121 2.00001 12.1557C2.00111 11.6992 2.17286 11.2596 2.48153 10.9234C4.68221 8.4998 8.34009 5.94099 11.998 5.99033C12.9336 5.98505 13.8641 6.12803 14.755 6.41396C14.79 6.42551 14.8216 6.44584 14.8465 6.47303C14.8715 6.50021 14.8891 6.53334 14.8976 6.56925C14.9061 6.60516 14.9053 6.64266 14.8953 6.67817C14.8852 6.71368 14.8662 6.74601 14.8401 6.77209L13.1889 8.42409C13.1627 8.45032 13.1299 8.46904 13.094 8.47832C13.0581 8.48759 13.0204 8.48708 12.9847 8.47683C12.6641 8.38269 12.3321 8.33317 11.998 8.32967C10.9827 8.32967 10.009 8.73298 9.29115 9.45087C8.57326 10.1688 8.16996 11.1424 8.16996 12.1577C8.1747 12.4919 8.22507 12.8239 8.31967 13.1445C8.33003 13.18 8.33068 13.2177 8.32155 13.2536Z" fill="black"/>
</svg>
