<svg width="24" height="24" viewBox="0 0 24 24" fill="none" xmlns="http://www.w3.org/2000/svg">
<path d="M23.4319 10.524C20.7869 7.61401 16.3999 4.53801 11.9999 4.60001C7.5999 4.53701 3.2129 7.61501 0.567901 10.524C0.20533 10.9294 0.00488281 11.4542 0.00488281 11.998C0.00488281 12.5419 0.20533 13.0666 0.567901 13.472C3.1819 16.351 7.5069 19.4 11.8389 19.4H12.1469C16.4939 19.4 20.8179 16.351 23.4349 13.471C23.797 13.0654 23.9969 12.5406 23.9963 11.9969C23.9958 11.4533 23.7948 10.9288 23.4319 10.524ZM7.3999 12C7.3999 11.0902 7.66969 10.2009 8.17514 9.44439C8.68059 8.68792 9.39902 8.09833 10.2396 7.75017C11.0801 7.402 12.005 7.31091 12.8973 7.4884C13.7896 7.66589 14.6093 8.104 15.2526 8.74732C15.8959 9.39064 16.334 10.2103 16.5115 11.1026C16.689 11.9949 16.5979 12.9198 16.2497 13.7604C15.9016 14.6009 15.312 15.3193 14.5555 15.8248C13.7991 16.3302 12.9097 16.6 11.9999 16.6C10.7799 16.6 9.60988 16.1154 8.74721 15.2527C7.88454 14.39 7.3999 13.22 7.3999 12Z" fill="black"/>
<path d="M11.9999 14C13.1045 14 13.9999 13.1046 13.9999 12C13.9999 10.8954 13.1045 10 11.9999 10C10.8953 10 9.9999 10.8954 9.9999 12C9.9999 13.1046 10.8953 14 11.9999 14Z" fill="black"/>
</svg>
