<svg xmlns="http://www.w3.org/2000/svg" fill="currentColor" viewBox="0 0 20 20"><g fill="currentColor" clip-path="url(#a)"><path d="M10.617 4.072a2.873 2.873 0 0 1 .027-1.625H6.156a1 1 0 0 0-1 1v.625h5.46ZM7.212 11.444a2.027 2.027 0 0 0-2.024-2.025H2.25a1 1 0 0 0-1 1v2.05a1 1 0 0 0 1 1h2.938a2.027 2.027 0 0 0 2.024-2.025Zm-2.608-.64h1.16v1.172h-1.16v-1.172Z"/><path d="M18.069 16.218a2 2 0 0 0 .586-1.415V7.946c0-.528-.21-1.036-.58-1.413l-.686-.698a1.983 1.983 0 0 0-1.414-.591H4.55a2 2 0 0 0-2 2v1.004h2.636a3.2 3.2 0 0 1 3.196 3.196 3.2 3.2 0 0 1-3.196 3.196H2.55v.966a2 2 0 0 0 2 2h11.3a2 2 0 0 0 1.415-.585l.803-.803ZM15.543 4.042a2.012 2.012 0 0 0-1.85-2.792 2.012 2.012 0 0 0-1.85 2.792h3.7Z"/></g><defs><clipPath id="a"><path fill="#fff" d="M0 0h20v20H0z"/></clipPath></defs></svg>