<svg width="24" height="24" viewBox="0 0 24 24" fill="none" xmlns="http://www.w3.org/2000/svg">
<path d="M11.986 2.00223C9.31431 2.04597 6.76715 3.13937 4.89514 5.04606C3.95848 5.9786 3.21945 7.09042 2.72223 8.31506C2.22502 9.53971 1.97982 10.852 2.0013 12.1736C1.99976 13.4649 2.25307 14.7439 2.74672 15.9372C3.24036 17.1304 3.96463 18.2145 4.87802 19.1274C5.79141 20.0402 6.87596 20.7639 8.06952 21.2568C9.26308 21.7497 10.5422 22.0023 11.8335 22H12.0118C14.6843 21.9725 17.2368 20.8859 19.1092 18.9788C20.9815 17.0716 22.0208 14.4995 21.9991 11.827C22.0021 10.52 21.7438 9.22552 21.2393 8.0198C20.7349 6.81407 19.9944 5.72139 19.0615 4.806C18.1285 3.89062 17.022 3.17102 15.8069 2.68952C14.5918 2.20802 13.2927 1.97435 11.986 2.00223ZM10.7503 15.7857C10.7443 15.6223 10.7709 15.4594 10.8286 15.3064C10.8863 15.1534 10.974 15.0135 11.0864 14.8948C11.1988 14.7761 11.3338 14.681 11.4834 14.6151C11.633 14.5491 11.7942 14.5137 11.9577 14.5108H11.9802C12.309 14.5115 12.6248 14.6394 12.8614 14.8677C13.0979 15.096 13.2369 15.4071 13.2492 15.7357C13.2553 15.8991 13.2288 16.0621 13.1711 16.2151C13.1134 16.3681 13.0258 16.5081 12.9134 16.6268C12.8009 16.7455 12.6659 16.8406 12.5163 16.9065C12.3666 16.9724 12.2053 17.0078 12.0418 17.0105H12.0193C11.6907 17.0095 11.3751 16.8815 11.1386 16.6532C10.9021 16.4249 10.763 16.1141 10.7503 15.7857ZM11.1669 12.4177V7.41829C11.1669 7.1973 11.2547 6.98536 11.411 6.8291C11.5672 6.67284 11.7792 6.58505 12.0002 6.58505C12.2212 6.58505 12.4331 6.67284 12.5894 6.8291C12.7456 6.98536 12.8334 7.1973 12.8334 7.41829V12.4177C12.8334 12.6387 12.7456 12.8507 12.5894 13.0069C12.4331 13.1632 12.2212 13.251 12.0002 13.251C11.7792 13.251 11.5672 13.1632 11.411 13.0069C11.2547 12.8507 11.1669 12.6387 11.1669 12.4177Z" fill="black"/>
</svg>
