<svg xmlns="http://www.w3.org/2000/svg" fill="currentColor" viewBox="0 0 20 20"><g fill="currentColor" clip-path="url(#a)"><path d="m3.642 12.39 1.762 2.26v4.178H3.52V20h4.94v-1.172H6.577v-4.177l1.763-2.26c.515-.66.821-1.453.9-2.27H2.741c.078.817.385 1.61.9 2.27ZM9.1 8.538 7.896 4.242H4.084L2.882 8.538a4.306 4.306 0 0 0-.093.411h6.403a4.3 4.3 0 0 0-.093-.411ZM17.119 8.538l-1.202-4.296h-3.813l-1.202 4.296a4.306 4.306 0 0 0-.093.411h6.403a4.336 4.336 0 0 0-.093-.411ZM16.358 12.39c.515-.66.822-1.452.9-2.269h-6.496c.078.817.384 1.61.9 2.27l1.762 2.26v4.177h-1.885V20h4.941v-1.172h-1.884v-4.177l1.762-2.26ZM6.457 1.672l.829-.828 1.14 1.141-.828.829-1.141-1.142ZM11.57 1.986 12.712.844l.828.829L12.4 2.814l-.829-.828ZM9.414 0h1.172v1.493H9.414V0Z"/></g><defs><clipPath id="a"><path fill="#fff" d="M0 0h20v20H0z"/></clipPath></defs></svg>